<?xml version="1.0" encoding="UTF-8"?>
<svg width="340px" height="268px" viewBox="0 0 340 268" version="1.1" xmlns="http://www.w3.org/2000/svg" xmlns:xlink="http://www.w3.org/1999/xlink">
    <!-- Generator: Sketch 64 (93537) - https://sketch.com -->
    <title>aging</title>
    <desc>Created with Sketch.</desc>
    <defs>
        <polygon id="path-1" points="64.0097872 40.1616312 -4.8316906e-13 116.054043 60.9158865 116.054043 50.1051064 159.470922 41.7482979 193.052553 70.3614184 159.133333 75.632766 152.885461 139.64305 76.9930496 78.7266667 76.9930496 97.8853191 0.0034751773"></polygon>
        <linearGradient x1="42.6666799%" y1="29.5619604%" x2="58.5711987%" y2="135.604837%" id="linearGradient-3">
            <stop stop-color="#FFA400" offset="0%"></stop>
            <stop stop-color="#FF0000" offset="100%"></stop>
        </linearGradient>
        <linearGradient x1="35.9848595%" y1="36.6822132%" x2="66.3809233%" y2="105.781621%" id="linearGradient-4">
            <stop stop-color="#FFA400" offset="0%"></stop>
            <stop stop-color="#FF0000" offset="100%"></stop>
        </linearGradient>
        <path d="M-4.8316906e-13,116.054043 L64.5022695,116.054043 C74.8205674,116.054043 82.3904965,125.741844 79.8933333,135.748865 L79.8933333,135.748865 L75.6332624,152.885461 L78.6750355,149.273262 L139.64305,76.9930496 L75.131844,76.9930496 C64.8219858,76.9930496 57.2520567,67.3057447 59.7407801,57.2987234 L59.7407801,57.2987234 L64.0097872,40.1616312 L-4.8316906e-13,116.054043 Z" id="path-5"></path>
        <linearGradient x1="48.9094423%" y1="29.5619604%" x2="51.274646%" y2="135.604837%" id="linearGradient-7">
            <stop stop-color="#FFA400" offset="0%"></stop>
            <stop stop-color="#FF0000" offset="100%"></stop>
        </linearGradient>
        <polygon id="path-8" points="97.8863121 -2.84217094e-14 78.722695 76.994539 76.4087234 76.994539"></polygon>
        <linearGradient x1="48.8435763%" y1="29.5619604%" x2="51.3516303%" y2="135.604837%" id="linearGradient-10">
            <stop stop-color="#FFA400" offset="0%"></stop>
            <stop stop-color="#FF0000" offset="100%"></stop>
        </linearGradient>
        <polygon id="path-11" points="63.8682979 116.054539 41.751773 193.048582 60.9158865 116.054539"></polygon>
        <linearGradient x1="35.9848595%" y1="45.6927161%" x2="66.3809233%" y2="68.0410813%" id="linearGradient-13">
            <stop stop-color="#FFA400" offset="0%"></stop>
            <stop stop-color="#FF0000" offset="100%"></stop>
        </linearGradient>
        <linearGradient x1="35.9848595%" y1="45.6927634%" x2="66.3809233%" y2="68.0408835%" id="linearGradient-14">
            <stop stop-color="#FFA400" offset="0%"></stop>
            <stop stop-color="#FF0000" offset="100%"></stop>
        </linearGradient>
        <path d="M64.007305,40.1656028 L59.747234,57.3021986 C57.2495745,67.3092199 64.8195035,76.9965248 75.1378014,76.9965248 L139.640567,76.9965248 L73.7462411,78.7425532 C61.1814894,79.0707092 52.2974468,66.5486525 56.7655319,54.804539 L60.9655319,43.777305" id="path-15"></path>
    </defs>
    <g id="aging" stroke="none" stroke-width="1" fill="none" fill-rule="evenodd">
        <g id="obiettivo/icon/icon-aging" transform="translate(71.431818, 3.000000)">
            <g id="Group-4" transform="translate(30.000000, 3.939716)">
                <mask id="mask-2" fill="white">
                    <use xlink:href="#path-1"></use>
                </mask>
                <g id="Clip-2"></g>
                <polygon id="Fill-1" fill-opacity="0.75" fill="url(#linearGradient-3)" opacity="0.885091146" points="64.0097872 40.1616312 -4.8316906e-13 116.054043 60.9158865 116.054043 50.1051064 159.470922 41.7482979 193.052553 70.3614184 159.133333 75.632766 152.885461 139.64305 76.9930496 78.7266667 76.9930496 97.8853191 0.0034751773"></polygon>
                <mask id="mask-6" fill="white">
                    <use xlink:href="#path-5"></use>
                </mask>
                <use id="Clip-5" fill-opacity="0.75" fill="url(#linearGradient-4)" opacity="0.885091146" xlink:href="#path-5"></use>
                <path d="M-4.8316906e-13,116.054043 L64.5022695,116.054043 C74.8205674,116.054043 82.3904965,125.741844 79.8933333,135.748865 L75.6332624,152.885461 L78.6750355,149.273262 L139.64305,76.9930496 L75.131844,76.9930496 C64.8219858,76.9930496 57.2520567,67.3057447 59.7407801,57.2987234 L64.0097872,40.1616312 L-4.8316906e-13,116.054043 Z" id="Fill-4" fill-opacity="0.75" fill="url(#linearGradient-4)" opacity="0.885091146"></path>
                <mask id="mask-9" fill="white">
                    <use xlink:href="#path-8"></use>
                </mask>
                <use id="Clip-8" fill-opacity="0.75" fill="url(#linearGradient-7)" opacity="0.885091146" xlink:href="#path-8"></use>
                <polygon id="Fill-7" fill-opacity="0.75" fill="url(#linearGradient-7)" opacity="0.885091146" points="97.8863121 -2.84217094e-14 76.4087234 76.994539 78.722695 76.994539"></polygon>
                <mask id="mask-12" fill="white">
                    <use xlink:href="#path-11"></use>
                </mask>
                <use id="Clip-11" fill-opacity="0.75" fill="url(#linearGradient-10)" opacity="0.885091146" xlink:href="#path-11"></use>
                <polygon id="Fill-10" fill-opacity="0.75" fill="url(#linearGradient-10)" opacity="0.885091146" points="41.751773 193.048582 63.8682979 116.054539 60.9158865 116.054539"></polygon>
                <path d="M82.874539,138.246525 L78.6750355,149.273262 L75.632766,152.885461 L79.8933333,135.748865 C82.3904965,125.741844 74.8205674,116.054043 64.5022695,116.054043 L5.68434189e-13,116.054043 L65.8933333,114.308511 C78.459078,113.980355 87.3426241,126.501915 82.874539,138.246525" id="Fill-13" fill-opacity="0.75" fill="url(#linearGradient-13)" opacity="0.885091146"></path>
                <mask id="mask-16" fill="white">
                    <use xlink:href="#path-15"></use>
                </mask>
                <use id="Clip-17" fill-opacity="0.75" fill="url(#linearGradient-14)" opacity="0.885091146" xlink:href="#path-15"></use>
                <path d="M56.7655319,54.804539 L60.9655319,43.777305 L64.007305,40.1656028 L59.747234,57.3021986 C57.2495745,67.3092199 64.8195035,76.9965248 75.1378014,76.9965248 L139.640567,76.9965248 L73.7462411,78.7425532 C61.1814894,79.0707092 52.2974468,66.5486525 56.7655319,54.804539" id="Fill-16" fill-opacity="0.75" fill="url(#linearGradient-14)" opacity="0.885091146"></path>
            </g>
        </g>
        <path d="M36.4318182,254 L39.9408182,244.114 L54.0578182,244.114 L57.5681818,254 L62,254 L49.1818182,219.090909 L44.8181818,219.090909 L32,254 L36.4318182,254 Z M52.7268182,240.364 L41.2718182,240.364 L46.8636364,224.613636 L47.1363636,224.613636 L52.7268182,240.364 Z M77.5454545,254.545455 C79.4772727,254.545455 81.1732955,254.184659 82.6335227,253.463068 C84.09375,252.741477 85.2698864,251.764205 86.1619318,250.53125 C87.0539773,249.298295 87.6136364,247.909091 87.8409091,246.363636 L87.8409091,246.363636 L83.8181818,246.363636 C83.5681818,247.318182 83.1477273,248.136364 82.5568182,248.818182 C81.9659091,249.5 81.2443182,250.022727 80.3920455,250.386364 C79.5397727,250.75 78.5909091,250.931818 77.5454545,250.931818 C75.9545455,250.931818 74.5710227,250.517045 73.3948864,249.6875 C72.21875,248.857955 71.3096591,247.693182 70.6676136,246.193182 C70.0255682,244.693182 69.7045455,242.931818 69.7045455,240.909091 C69.7045455,238.931818 70.03125,237.207386 70.6846591,235.735795 C71.3380682,234.264205 72.2528409,233.122159 73.4289773,232.309659 C74.6051136,231.497159 75.9772727,231.090909 77.5454545,231.090909 C79.3181818,231.090909 80.7301136,231.553977 81.78125,232.480114 C82.8323864,233.40625 83.5113636,234.465909 83.8181818,235.659091 L83.8181818,235.659091 L87.8409091,235.659091 C87.6136364,234.022727 87.0284091,232.590909 86.0852273,231.363636 C85.1420455,230.136364 83.9318182,229.181818 82.4545455,228.5 C80.9772727,227.818182 79.3181818,227.477273 77.4772727,227.477273 C75.1136364,227.477273 73.0482955,228.053977 71.28125,229.207386 C69.5142045,230.360795 68.1392045,231.957386 67.15625,233.997159 C66.1732955,236.036932 65.6818182,238.386364 65.6818182,241.045455 C65.6818182,243.659091 66.1590909,245.982955 67.1136364,248.017045 C68.0681818,250.051136 69.4318182,251.647727 71.2045455,252.806818 C72.9772727,253.965909 75.0909091,254.545455 77.5454545,254.545455 Z M102.568182,254.340909 C103.318182,254.340909 103.9375,254.286932 104.426136,254.178977 C104.914773,254.071023 105.295455,253.965909 105.568182,253.863636 L105.568182,253.863636 L104.75,250.25 C104.579545,250.284091 104.352273,250.326705 104.068182,250.377841 C103.784091,250.428977 103.420455,250.454545 102.977273,250.454545 C102.386364,250.454545 101.826705,250.360795 101.298295,250.173295 C100.769886,249.985795 100.338068,249.610795 100.002841,249.048295 C99.6676136,248.485795 99.5,247.636364 99.5,246.5 L99.5,246.5 L99.4998182,231.228 L105.090909,231.227273 L105.090909,227.818182 L99.4998182,227.819 L99.5,221.545455 L95.4772727,221.545455 L95.4768182,227.819 L91.5227273,227.818182 L91.5227273,231.227273 L95.4768182,231.228 L95.4772727,247.590909 C95.4772727,249.00487 95.7834676,250.193472 96.3958575,251.156714 L96.5426136,251.375 C97.2528409,252.375 98.1505682,253.119318 99.2357955,253.607955 C100.321023,254.096591 101.431818,254.340909 102.568182,254.340909 Z M113.204545,223.454545 C113.988636,223.454545 114.661932,223.1875 115.224432,222.653409 C115.786932,222.119318 116.068182,221.477273 116.068182,220.727273 C116.068182,219.977273 115.786932,219.335227 115.224432,218.801136 C114.661932,218.267045 113.988636,218 113.204545,218 C112.420455,218 111.747159,218.267045 111.184659,218.801136 C110.622159,219.335227 110.340909,219.977273 110.340909,220.727273 C110.340909,221.477273 110.622159,222.119318 111.184659,222.653409 C111.747159,223.1875 112.420455,223.454545 113.204545,223.454545 Z M115.181818,254 L115.181818,227.818182 L111.159091,227.818182 L111.159091,254 L115.181818,254 Z M134.272727,254 L143.954545,227.818182 L139.590909,227.818182 L132.363636,248.681818 L132.090909,248.681818 L124.863636,227.818182 L120.5,227.818182 L130.181818,254 L134.272727,254 Z M160.25,254.545455 C162.022727,254.545455 163.619318,254.269886 165.039773,253.71875 C166.460227,253.167614 167.653409,252.394886 168.619318,251.400568 C169.585227,250.40625 170.272727,249.25 170.681818,247.931818 L170.681818,247.931818 L166.795455,246.840909 C166.454545,247.75 165.971591,248.508523 165.346591,249.116477 C164.721591,249.724432 163.980114,250.178977 163.122159,250.480114 C162.264205,250.78125 161.306818,250.931818 160.25,250.931818 C158.625,250.931818 157.198864,250.576705 155.971591,249.866477 C154.744318,249.15625 153.786932,248.116477 153.099432,246.747159 C152.510146,245.573458 152.173411,244.176426 152.089228,242.556064 L152.077818,242.273 L171.090909,242.272727 L171.090909,240.568182 C171.090909,238.125 170.767045,236.068182 170.119318,234.397727 C169.471591,232.727273 168.602273,231.383523 167.511364,230.366477 C166.420455,229.349432 165.210227,228.613636 163.880682,228.159091 C162.551136,227.704545 161.204545,227.477273 159.840909,227.477273 C157.477273,227.477273 155.411932,228.053977 153.644886,229.207386 C151.877841,230.360795 150.502841,231.963068 149.519886,234.014205 C148.536932,236.065341 148.045455,238.431818 148.045455,241.113636 C148.045455,243.795455 148.536932,246.144886 149.519886,248.161932 C150.502841,250.178977 151.90625,251.747159 153.730114,252.866477 C155.553977,253.985795 157.727273,254.545455 160.25,254.545455 Z M152.094223,238.695076 C152.181029,237.517677 152.484848,236.403409 153.005682,235.352273 C153.630682,234.090909 154.525568,233.065341 155.690341,232.275568 C156.855114,231.485795 158.238636,231.090909 159.840909,231.090909 C161.295455,231.090909 162.559659,231.426136 163.633523,232.096591 C164.707386,232.767045 165.536932,233.681818 166.122159,234.840909 C166.707386,236 167,237.318182 167,238.795455 L167,238.795455 L152.087818,238.796 L152.094223,238.695076 Z M198.431818,254.613636 C199.954545,254.613636 201.244318,254.386364 202.301136,253.931818 C203.357955,253.477273 204.204545,252.926136 204.840909,252.278409 C205.477273,251.630682 205.931818,251.022727 206.204545,250.454545 L206.204545,250.454545 L206.409091,250.454545 L206.409091,254 L210.431818,254 L210.431818,236.75 C210.431818,234.670455 210.090909,233.011364 209.409091,231.772727 C208.727273,230.534091 207.872159,229.607955 206.84375,228.994318 C205.815341,228.380682 204.752841,227.974432 203.65625,227.775568 C202.559659,227.576705 201.590909,227.477273 200.75,227.477273 C199.431818,227.477273 198.09375,227.65625 196.735795,228.014205 C195.377841,228.372159 194.127841,228.997159 192.985795,229.889205 C191.84375,230.78125 190.931818,232.022727 190.25,233.613636 L190.25,233.613636 L194.068182,234.977273 C194.511364,234.022727 195.278409,233.125 196.369318,232.284091 C197.460227,231.443182 198.965909,231.022727 200.886364,231.022727 C202.738636,231.022727 204.122159,231.488636 205.036932,232.420455 C205.951705,233.352273 206.409091,234.659091 206.409091,236.340909 L206.409091,236.340909 L206.409091,236.477273 C206.409091,237.125 206.178977,237.579545 205.71875,237.840909 C205.258523,238.102273 204.53125,238.286932 203.536932,238.394886 C202.542614,238.502841 201.25,238.659091 199.659091,238.863636 C198.443182,239.022727 197.235795,239.235795 196.036932,239.502841 C194.838068,239.769886 193.744318,240.170455 192.755682,240.704545 C191.767045,241.238636 190.977273,241.974432 190.386364,242.911932 C189.795455,243.849432 189.5,245.068182 189.5,246.568182 C189.5,248.272727 189.897727,249.724432 190.693182,250.923295 C191.488636,252.122159 192.5625,253.036932 193.914773,253.667614 C195.267045,254.298295 196.772727,254.613636 198.431818,254.613636 Z M199.045455,251 C197.443182,251 196.122159,250.644886 195.082386,249.934659 C194.042614,249.224432 193.522727,248.170455 193.522727,246.772727 C193.522727,245.75 193.798295,244.940341 194.349432,244.34375 C194.900568,243.747159 195.627841,243.298295 196.53125,242.997159 C197.434659,242.696023 198.409091,242.477273 199.454545,242.340909 C199.886364,242.284091 200.451705,242.213068 201.150568,242.127841 C201.849432,242.042614 202.571023,241.940341 203.315341,241.821023 C204.059659,241.701705 204.71875,241.559659 205.292614,241.394886 C205.866477,241.230114 206.238636,241.045455 206.409091,240.840909 L206.409091,240.840909 L206.409091,244.522727 C206.409091,245.613636 206.127841,246.653409 205.565341,247.642045 C205.002841,248.630682 204.173295,249.4375 203.076705,250.0625 C201.980114,250.6875 200.636364,251 199.045455,251 Z M228.363636,264.363636 C230.454545,264.363636 232.355114,264.03125 234.065341,263.366477 C235.775568,262.701705 237.139205,261.661932 238.15625,260.247159 C239.173295,258.832386 239.681818,257 239.681818,254.75 L239.681818,254.75 L239.681818,227.818182 L235.795455,227.818182 L235.795455,231.977273 L235.386364,231.977273 C235.090909,231.522727 234.673295,230.940341 234.133523,230.230114 C233.59375,229.519886 232.821023,228.883523 231.815341,228.321023 C230.809659,227.758523 229.454545,227.477273 227.75,227.477273 C225.545455,227.477273 223.602273,228.025568 221.920455,229.122159 C220.238636,230.21875 218.926136,231.764205 217.982955,233.758523 C217.039773,235.752841 216.568182,238.090909 216.568182,240.772727 C216.568182,243.5 217.053977,245.818182 218.025568,247.727273 C218.997159,249.636364 220.321023,251.090909 221.997159,252.090909 C223.673295,253.090909 225.568182,253.590909 227.681818,253.590909 C229.386364,253.590909 230.741477,253.321023 231.747159,252.78125 C232.752841,252.241477 233.525568,251.622159 234.065341,250.923295 C234.605114,250.224432 235.022727,249.636364 235.318182,249.159091 L235.318182,249.159091 L235.659091,249.159091 L235.659091,254.477273 C235.659091,256.659091 234.971591,258.261364 233.596591,259.284091 C232.221591,260.306818 230.477273,260.818182 228.363636,260.818182 C226.784091,260.818182 225.508523,260.588068 224.536932,260.127841 C223.565341,259.667614 222.801136,259.127841 222.244318,258.508523 C221.6875,257.889205 221.227273,257.340909 220.863636,256.863636 L220.863636,256.863636 L217.659091,259.113636 C218.204545,260.022727 218.940341,260.877841 219.866477,261.678977 C220.792614,262.480114 221.954545,263.127841 223.352273,263.622159 C224.75,264.116477 226.420455,264.363636 228.363636,264.363636 Z M228.227273,249.977273 C226.545455,249.977273 225.139205,249.582386 224.008523,248.792614 C222.877841,248.002841 222.025568,246.911932 221.451705,245.519886 C220.877841,244.127841 220.590909,242.522727 220.590909,240.704545 C220.590909,238.931818 220.872159,237.318182 221.434659,235.863636 C221.997159,234.409091 222.84375,233.25 223.974432,232.386364 C225.105114,231.522727 226.522727,231.090909 228.227273,231.090909 C229.863636,231.090909 231.238636,231.5 232.352273,232.318182 C233.465909,233.136364 234.306818,234.267045 234.875,235.710227 C235.443182,237.153409 235.727273,238.818182 235.727273,240.704545 C235.727273,242.636364 235.4375,244.295455 234.857955,245.681818 C234.278409,247.068182 233.431818,248.130682 232.318182,248.869318 C231.204545,249.607955 229.840909,249.977273 228.227273,249.977273 Z M249.090909,223.454545 C249.875,223.454545 250.548295,223.1875 251.110795,222.653409 C251.673295,222.119318 251.954545,221.477273 251.954545,220.727273 C251.954545,219.977273 251.673295,219.335227 251.110795,218.801136 C250.548295,218.267045 249.875,218 249.090909,218 C248.306818,218 247.633523,218.267045 247.071023,218.801136 C246.508523,219.335227 246.227273,219.977273 246.227273,220.727273 C246.227273,221.477273 246.508523,222.119318 247.071023,222.653409 C247.633523,223.1875 248.306818,223.454545 249.090909,223.454545 Z M251.068182,254 L251.068182,227.818182 L247.045455,227.818182 L247.045455,254 L251.068182,254 Z M262.454545,254 L262.454545,238.25 C262.454545,236.727273 262.744318,235.431818 263.323864,234.363636 C263.903409,233.295455 264.696023,232.482955 265.701705,231.926136 C266.707386,231.369318 267.852273,231.090909 269.136364,231.090909 C271,231.090909 272.465909,231.667614 273.534091,232.821023 C274.602273,233.974432 275.136364,235.579545 275.136364,237.636364 L275.136364,237.636364 L275.136364,254 L279.159091,254 L279.159091,237.363636 C279.159091,235.136364 278.789773,233.292614 278.051136,231.832386 C277.3125,230.372159 276.278409,229.28125 274.948864,228.559659 C273.619318,227.838068 272.068182,227.477273 270.295455,227.477273 C268.318182,227.477273 266.704545,227.883523 265.454545,228.696023 C264.204545,229.508523 263.272727,230.579545 262.659091,231.909091 L262.659091,231.909091 L262.318182,231.909091 L262.318182,227.818182 L258.431818,227.818182 L258.431818,254 L262.454545,254 Z M297.090909,264.363636 C299.181818,264.363636 301.082386,264.03125 302.792614,263.366477 C304.502841,262.701705 305.866477,261.661932 306.883523,260.247159 C307.900568,258.832386 308.409091,257 308.409091,254.75 L308.409091,254.75 L308.409091,227.818182 L304.522727,227.818182 L304.522727,231.977273 L304.113636,231.977273 C303.818182,231.522727 303.400568,230.940341 302.860795,230.230114 C302.321023,229.519886 301.548295,228.883523 300.542614,228.321023 C299.536932,227.758523 298.181818,227.477273 296.477273,227.477273 C294.272727,227.477273 292.329545,228.025568 290.647727,229.122159 C288.965909,230.21875 287.653409,231.764205 286.710227,233.758523 C285.767045,235.752841 285.295455,238.090909 285.295455,240.772727 C285.295455,243.5 285.78125,245.818182 286.752841,247.727273 C287.724432,249.636364 289.048295,251.090909 290.724432,252.090909 C292.400568,253.090909 294.295455,253.590909 296.409091,253.590909 C298.113636,253.590909 299.46875,253.321023 300.474432,252.78125 C301.480114,252.241477 302.252841,251.622159 302.792614,250.923295 C303.332386,250.224432 303.75,249.636364 304.045455,249.159091 L304.045455,249.159091 L304.386364,249.159091 L304.386364,254.477273 C304.386364,256.659091 303.698864,258.261364 302.323864,259.284091 C300.948864,260.306818 299.204545,260.818182 297.090909,260.818182 C295.511364,260.818182 294.235795,260.588068 293.264205,260.127841 C292.292614,259.667614 291.528409,259.127841 290.971591,258.508523 C290.414773,257.889205 289.954545,257.340909 289.590909,256.863636 L289.590909,256.863636 L286.386364,259.113636 C286.931818,260.022727 287.667614,260.877841 288.59375,261.678977 C289.519886,262.480114 290.681818,263.127841 292.079545,263.622159 C293.477273,264.116477 295.147727,264.363636 297.090909,264.363636 Z M296.954545,249.977273 C295.272727,249.977273 293.866477,249.582386 292.735795,248.792614 C291.605114,248.002841 290.752841,246.911932 290.178977,245.519886 C289.605114,244.127841 289.318182,242.522727 289.318182,240.704545 C289.318182,238.931818 289.599432,237.318182 290.161932,235.863636 C290.724432,234.409091 291.571023,233.25 292.701705,232.386364 C293.832386,231.522727 295.25,231.090909 296.954545,231.090909 C298.590909,231.090909 299.965909,231.5 301.079545,232.318182 C302.193182,233.136364 303.034091,234.267045 303.602273,235.710227 C304.170455,237.153409 304.454545,238.818182 304.454545,240.704545 C304.454545,242.636364 304.164773,244.295455 303.585227,245.681818 C303.005682,247.068182 302.159091,248.130682 301.045455,248.869318 C299.931818,249.607955 298.568182,249.977273 296.954545,249.977273 Z" id="Activeaging" fill="#FF8C24" fill-rule="nonzero"></path>
    </g>
</svg>