<?xml version="1.0" encoding="UTF-8"?>
<svg width="760px" height="160px" viewBox="0 0 760 160" version="1.1" xmlns="http://www.w3.org/2000/svg" xmlns:xlink="http://www.w3.org/1999/xlink">
    <!-- Generator: Sketch 64 (93537) - https://sketch.com -->
    <title>autovalutazione-step2</title>
    <desc>Created with Sketch.</desc>
    <g id="Page-1" stroke="none" stroke-width="1" fill="none" fill-rule="evenodd">
        <g id="autovalutazione-step2">
            <g id="Group">
                <rect id="Rectangle" fill="#000000" fill-rule="nonzero" x="0" y="0" width="760" height="160"></rect>
                <path d="M262.309659,35.6364356 C263.75,35.6364356 265.079545,35.4233674 266.298295,34.997231 C267.517045,34.5710946 268.601563,33.9681117 269.551847,33.1882821 C270.502131,32.4084526 271.28196,31.4794753 271.891335,30.4013503 C272.50071,29.3232253 272.911932,28.1406969 273.125,26.8537651 L273.125,26.8537651 L269.136364,26.840981 C268.974432,27.6762083 268.682528,28.4155549 268.260653,29.0590208 C267.838778,29.7024867 267.325284,30.2458106 266.72017,30.6889924 C266.115057,31.1321742 265.439631,31.4666912 264.693892,31.6925435 C263.948153,31.9183958 263.161932,32.0313219 262.335227,32.0313219 C260.84375,32.0313219 259.50142,31.6563219 258.308239,30.9063219 C257.115057,30.1563219 256.175426,29.0483674 255.489347,27.5824583 C254.803267,26.1165492 254.460227,24.3182537 254.460227,22.1875719 C254.460227,20.0739356 254.803267,18.2841628 255.489347,16.8182537 C256.175426,15.3523446 257.112926,14.2401287 258.301847,13.481606 C259.490767,12.7230833 260.839489,12.3438219 262.348011,12.3438219 C263.183239,12.3438219 263.973722,12.4588787 264.71946,12.6889924 C265.465199,12.919106 266.140625,13.2600151 266.745739,13.7117196 C267.350852,14.1634242 267.862216,14.7131401 268.27983,15.3608674 C268.697443,16.0085946 268.982955,16.7585946 269.136364,17.6108674 L269.136364,17.6108674 L273.125,17.6108674 C272.903409,16.2046174 272.477273,14.9539071 271.846591,13.8587367 C271.215909,12.7635662 270.419034,11.834589 269.455966,11.0718049 C268.492898,10.3090208 267.408381,9.72947533 266.202415,9.33316851 C264.996449,8.93686169 263.698864,8.73870829 262.309659,8.73870829 C260.051136,8.73870829 258.035511,9.27777079 256.262784,10.3558958 C254.490057,11.4340208 253.09233,12.9766344 252.069602,14.9837367 C251.046875,16.990839 250.535511,19.3921174 250.535511,22.1875719 C250.535511,24.9745037 251.044744,27.3736515 252.06321,29.3850151 C253.081676,31.3963787 254.477273,32.9411231 256.25,34.0192481 C258.022727,35.0973731 260.042614,35.6364356 262.309659,35.6364356 Z M285.819602,35.6747878 C287.660511,35.6747878 289.267045,35.2529128 290.639205,34.4091628 C292.011364,33.5654128 293.076705,32.3850151 293.835227,30.8679696 C294.59375,29.3509242 294.973011,27.5781969 294.973011,25.5497878 C294.973011,23.512856 294.59375,21.731606 293.835227,20.2060378 C293.076705,18.6804696 292.011364,17.4958106 290.639205,16.6520606 C289.267045,15.8083106 287.660511,15.3864356 285.819602,15.3864356 C283.978693,15.3864356 282.372159,15.8083106 281,16.6520606 C279.627841,17.4958106 278.5625,18.6804696 277.803977,20.2060378 C277.045455,21.731606 276.666193,23.512856 276.666193,25.5497878 C276.666193,27.5781969 277.045455,29.3509242 277.803977,30.8679696 C278.5625,32.3850151 279.627841,33.5654128 281,34.4091628 C282.372159,35.2529128 283.978693,35.6747878 285.819602,35.6747878 Z M285.832386,32.465981 C284.630682,32.465981 283.635653,32.1506401 282.847301,31.5199583 C282.058949,30.8892765 281.475142,30.0497878 281.095881,29.0014924 C280.716619,27.9531969 280.526989,26.7983674 280.526989,25.5370037 C280.526989,24.2841628 280.716619,23.131464 281.095881,22.0789071 C281.475142,21.0263503 282.058949,20.1804696 282.847301,19.5412651 C283.635653,18.9020606 284.630682,18.5824583 285.832386,18.5824583 C287.025568,18.5824583 288.014205,18.9020606 288.798295,19.5412651 C289.582386,20.1804696 290.164063,21.0263503 290.543324,22.0789071 C290.922585,23.131464 291.112216,24.2841628 291.112216,25.5370037 C291.112216,26.7983674 290.922585,27.9531969 290.543324,29.0014924 C290.164063,30.0497878 289.582386,30.8892765 288.798295,31.5199583 C288.014205,32.1506401 287.025568,32.465981 285.832386,32.465981 Z M303.052557,35.278481 L303.052557,23.6193901 C303.052557,22.5796174 303.25071,21.6911231 303.647017,20.9539071 C304.043324,20.2166912 304.584517,19.6563219 305.270597,19.2727992 C305.956676,18.8892765 306.742898,18.6975151 307.629261,18.6975151 C308.924716,18.6975151 309.943182,19.100214 310.684659,19.9056117 C311.426136,20.7110094 311.796875,21.825356 311.796875,23.2486515 L311.796875,23.2486515 L311.796875,35.278481 L315.619318,35.278481 L315.619318,22.7884242 C315.619318,21.169106 315.34233,19.809731 314.788352,18.7102992 C314.234375,17.6108674 313.454545,16.7820321 312.448864,16.2237935 C311.443182,15.6655549 310.271307,15.3864356 308.933239,15.3864356 C307.458807,15.3864356 306.237926,15.7017765 305.270597,16.3324583 C304.303267,16.9631401 303.59375,17.7983674 303.142045,18.8381401 L303.142045,18.8381401 L302.899148,18.8381401 L302.899148,15.6421174 L299.230114,15.6421174 L299.230114,35.278481 L303.052557,35.278481 Z M325.846591,35.278481 L325.846,18.710481 L330.078125,18.7102992 L330.078125,15.6421174 L325.846,15.642481 L325.846591,13.8779128 C325.846591,13.0955265 326.007095,12.4788219 326.328104,12.0277992 L326.441051,11.8835947 C326.837358,11.4233674 327.5,11.1932537 328.428977,11.1932537 C328.829545,11.1932537 329.170455,11.2294753 329.451705,11.3019185 C329.732955,11.3743617 329.963068,11.4361515 330.142045,11.4872878 L330.142045,11.4872878 L331.036932,8.39353783 C330.772727,8.2912651 330.367898,8.17833897 329.822443,8.05475942 C329.276989,7.93117988 328.620739,7.8693901 327.853693,7.8693901 C326.81392,7.8693901 325.850852,8.07180488 324.964489,8.47663442 C324.078125,8.88146397 323.366477,9.49083897 322.829545,10.3047594 C322.292614,11.1186799 322.024148,12.1392765 322.024148,13.3665492 L322.024148,13.3665492 L322.024,15.642481 L318.981534,15.6421174 L318.981534,18.7102992 L322.024,18.710481 L322.024148,35.278481 L325.846591,35.278481 Z M335.946023,12.6122878 C336.610795,12.6122878 337.179688,12.3885662 337.652699,11.9411231 C338.12571,11.4936799 338.362216,10.9588787 338.362216,10.3367197 C338.362216,9.70603783 338.12571,9.16697533 337.652699,8.71953215 C337.179688,8.27208897 336.610795,8.04836738 335.946023,8.04836738 C335.28125,8.04836738 334.712358,8.27208897 334.239347,8.71953215 C333.766335,9.16697533 333.52983,9.70603783 333.52983,10.3367197 C333.52983,10.9588787 333.766335,11.4936799 334.239347,11.9411231 C334.712358,12.3885662 335.28125,12.6122878 335.946023,12.6122878 Z M337.838068,35.278481 L337.838068,15.6421174 L334.015625,15.6421174 L334.015625,35.278481 L337.838068,35.278481 Z M351.210227,43.012856 C352.880682,43.012856 354.382813,42.7529128 355.716619,42.2330265 C357.050426,41.7131401 358.109375,40.9141344 358.893466,39.8360094 C359.677557,38.7578844 360.069602,37.3835946 360.069602,35.7131401 L360.069602,35.7131401 L360.069602,15.6421174 L356.323864,15.6421174 L356.323864,18.825356 L356.042614,18.825356 C355.8125,18.4162651 355.486506,17.9432537 355.064631,17.4063219 C354.642756,16.8693901 354.056818,16.3985094 353.306818,15.9936799 C352.556818,15.5888503 351.572443,15.3864356 350.353693,15.3864356 C348.776989,15.3864356 347.366477,15.7848731 346.122159,16.5817481 C344.877841,17.3786231 343.899858,18.5227992 343.18821,20.0142765 C342.476563,21.5057537 342.120739,23.2955265 342.120739,25.3835946 C342.120739,27.4716628 342.480824,29.2294753 343.200994,30.6570321 C343.921165,32.084589 344.901278,33.162714 346.141335,33.8914071 C347.381392,34.6201003 348.776989,34.9844469 350.328125,34.9844469 C351.52983,34.9844469 352.505682,34.7969469 353.255682,34.4219469 C354.005682,34.0469469 354.595881,33.6037651 355.026278,33.0924015 C355.456676,32.5810378 355.786932,32.1165492 356.017045,31.6989356 L356.017045,31.6989356 L356.259943,31.6989356 L356.259943,35.559731 C356.259943,37.0767765 355.786932,38.184731 354.840909,38.8835946 C353.894886,39.5824583 352.697443,39.9318901 351.24858,39.9318901 C350.191761,39.9318901 349.328835,39.7827424 348.659801,39.4844469 C347.990767,39.1861515 347.462358,38.8281969 347.074574,38.4105833 C346.68679,37.9929696 346.377841,37.6051856 346.147727,37.247231 L346.147727,37.247231 L342.862216,38.6023446 C343.211648,39.3864356 343.740057,40.1129981 344.447443,40.7820321 C345.15483,41.4510662 346.068892,41.9901287 347.189631,42.3992196 C348.310369,42.8083106 349.650568,43.012856 351.210227,43.012856 Z M351.171875,31.8139924 C350.038352,31.8139924 349.085938,31.5412651 348.314631,30.9958106 C347.543324,30.450356 346.961648,29.6918333 346.569602,28.7202424 C346.177557,27.7486515 345.981534,26.6193901 345.981534,25.3324583 C345.981534,24.0796174 346.175426,22.9460946 346.56321,21.9318901 C346.950994,20.9176856 347.528409,20.1144185 348.295455,19.522089 C349.0625,18.9297594 350.021307,18.6335946 351.171875,18.6335946 C352.288352,18.6335946 353.225852,18.9169753 353.984375,19.4837367 C354.742898,20.0504981 355.318182,20.8367196 355.710227,21.8424015 C356.102273,22.8480833 356.298295,24.0114356 356.298295,25.3324583 C356.298295,26.6875719 356.100142,27.8487935 355.703835,28.8161231 C355.307528,29.7834526 354.727983,30.5249299 353.965199,31.0405549 C353.202415,31.5561799 352.271307,31.8139924 351.171875,31.8139924 Z M371.639205,35.5341628 C373.113636,35.5341628 374.347301,35.1868617 375.340199,34.4922594 C376.333097,33.7976571 377.055398,32.9262083 377.507102,31.8779128 L377.507102,31.8779128 L377.711648,31.8779128 L377.711648,35.278481 L381.47017,35.278481 L381.47017,15.6421174 L377.634943,15.6421174 L377.634943,27.1350151 C377.643466,28.2514924 377.411222,29.1719469 376.93821,29.8963787 C376.465199,30.6208106 375.872869,31.1620037 375.161222,31.5199583 C374.449574,31.8779128 373.735795,32.0568901 373.019886,32.0568901 C371.835227,32.0568901 370.872159,31.6605833 370.130682,30.8679696 C369.389205,30.075356 369.018466,29.0100151 369.018466,27.6719469 L369.018466,27.6719469 L369.018466,15.6421174 L365.196023,15.6421174 L365.196023,28.1321742 C365.196023,29.7514924 365.470881,31.1108674 366.020597,32.2102992 C366.570313,33.309731 367.328835,34.1385662 368.296165,34.6968049 C369.263494,35.2550435 370.377841,35.5341628 371.639205,35.5341628 Z M390.419034,35.278481 L390.419034,23.2870037 C390.419034,22.434731 390.62358,21.6740776 391.03267,21.0050435 C391.441761,20.3360094 391.997869,19.8118617 392.700994,19.4326003 C393.404119,19.053339 394.207386,18.8637083 395.110795,18.8637083 C395.502841,18.8637083 395.894886,18.8914071 396.286932,18.9468049 C396.678977,19.0022026 396.951705,19.0512083 397.105114,19.0938219 L397.105114,19.0938219 L397.105114,15.4375719 C396.917614,15.4120037 396.659801,15.3906969 396.331676,15.3736515 C396.003551,15.356606 395.72017,15.3480833 395.481534,15.3480833 C394.330966,15.3480833 393.301847,15.6527708 392.394176,16.2621458 C391.486506,16.8715208 390.853693,17.7046174 390.495739,18.7614356 L390.495739,18.7614356 L390.291193,18.7614356 L390.291193,15.6421174 L386.596591,15.6421174 L386.596591,35.278481 L390.419034,35.278481 Z M406.143466,35.7131401 C407.225852,35.7131401 408.15483,35.5554696 408.930398,35.2401287 C409.705966,34.9247878 410.340909,34.528481 410.835227,34.0512083 C411.329545,33.5739356 411.700284,33.0881401 411.947443,32.5938219 L411.947443,32.5938219 L412.100852,32.5938219 L412.100852,35.278481 L415.833807,35.278481 L415.833807,22.2387083 C415.833807,20.8068901 415.586648,19.6414071 415.09233,18.7422594 C414.598011,17.8431117 413.965199,17.1506401 413.193892,16.6648446 C412.422585,16.1790492 411.595881,15.8445321 410.713778,15.6612935 C409.831676,15.4780549 408.99858,15.3864356 408.214489,15.3864356 C407.02983,15.3864356 405.900568,15.5547594 404.826705,15.8914071 C403.752841,16.2280549 402.804688,16.7649867 401.982244,17.5022026 C401.159801,18.2394185 400.535511,19.2046174 400.109375,20.3977992 L400.109375,20.3977992 L403.701705,21.215981 C403.982955,20.5256401 404.492188,19.897089 405.229403,19.3303276 C405.966619,18.7635662 406.978693,18.4801856 408.265625,18.4801856 C409.50142,18.4801856 410.432528,18.7870037 411.058949,19.4006401 C411.685369,20.0142765 411.99858,20.8793333 411.99858,21.9958106 L411.99858,21.9958106 L411.99858,22.0852992 C411.99858,22.5455265 411.832386,22.8779128 411.5,23.0824583 C411.167614,23.2870037 410.634943,23.4340208 409.901989,23.5235094 C409.169034,23.6129981 408.214489,23.7259242 407.038352,23.8622878 C406.109375,23.9730833 405.197443,24.1350151 404.302557,24.3480833 C403.40767,24.5611515 402.598011,24.8764924 401.87358,25.294106 C401.149148,25.7117196 400.573864,26.278481 400.147727,26.9943901 C399.721591,27.7102992 399.508523,28.622231 399.508523,29.7301856 C399.508523,31.0171174 399.800426,32.1037651 400.384233,32.9901287 C400.96804,33.8764924 401.762784,34.5519185 402.768466,35.0164071 C403.774148,35.4808958 404.899148,35.7131401 406.143466,35.7131401 Z M406.974432,32.6449583 C405.892045,32.6449583 405.00142,32.4041912 404.302557,31.9226571 C403.603693,31.4411231 403.254261,30.7273446 403.254261,29.7813219 C403.254261,29.0995037 403.435369,28.5519185 403.797585,28.1385662 C404.159801,27.725214 404.645597,27.4077424 405.254972,27.1861515 C405.864347,26.9645606 406.539773,26.8068901 407.28125,26.7131401 C407.596591,26.6705265 407.988636,26.6172594 408.457386,26.553339 C408.926136,26.4894185 409.40767,26.4169753 409.901989,26.3360094 C410.396307,26.2550435 410.837358,26.1570321 411.225142,26.0419753 C411.612926,25.9269185 411.875,25.8012083 412.011364,25.6648446 L412.011364,25.6648446 L412.011364,28.1960946 C412.011364,28.9716628 411.81321,29.6982253 411.416903,30.3757821 C411.020597,31.053339 410.445313,31.6009242 409.691051,32.0185378 C408.93679,32.4361515 408.03125,32.6449583 406.974432,32.6449583 Z M436.275568,35.278481 L436.275568,31.9546174 L425.690341,31.9546174 L425.690341,31.7756401 L435.917614,18.4290492 L435.917614,15.6421174 L420.857955,15.6421174 L420.857955,18.965981 L431.149148,18.965981 L431.149148,19.1449583 L420.512784,32.6577424 L420.512784,35.278481 L436.275568,35.278481 Z M442.705966,12.6122878 C443.370739,12.6122878 443.939631,12.3885662 444.412642,11.9411231 C444.885653,11.4936799 445.122159,10.9588787 445.122159,10.3367197 C445.122159,9.70603783 444.885653,9.16697533 444.412642,8.71953215 C443.939631,8.27208897 443.370739,8.04836738 442.705966,8.04836738 C442.041193,8.04836738 441.472301,8.27208897 440.99929,8.71953215 C440.526278,9.16697533 440.289773,9.70603783 440.289773,10.3367197 C440.289773,10.9588787 440.526278,11.4936799 440.99929,11.9411231 C441.472301,12.3885662 442.041193,12.6122878 442.705966,12.6122878 Z M444.598011,35.278481 L444.598011,15.6421174 L440.775568,15.6421174 L440.775568,35.278481 L444.598011,35.278481 Z M458.008523,35.6747878 C459.849432,35.6747878 461.455966,35.2529128 462.828125,34.4091628 C464.200284,33.5654128 465.265625,32.3850151 466.024148,30.8679696 C466.78267,29.3509242 467.161932,27.5781969 467.161932,25.5497878 C467.161932,23.512856 466.78267,21.731606 466.024148,20.2060378 C465.265625,18.6804696 464.200284,17.4958106 462.828125,16.6520606 C461.455966,15.8083106 459.849432,15.3864356 458.008523,15.3864356 C456.167614,15.3864356 454.56108,15.8083106 453.18892,16.6520606 C451.816761,17.4958106 450.75142,18.6804696 449.992898,20.2060378 C449.234375,21.731606 448.855114,23.512856 448.855114,25.5497878 C448.855114,27.5781969 449.234375,29.3509242 449.992898,30.8679696 C450.75142,32.3850151 451.816761,33.5654128 453.18892,34.4091628 C454.56108,35.2529128 456.167614,35.6747878 458.008523,35.6747878 Z M458.021307,32.465981 C456.819602,32.465981 455.824574,32.1506401 455.036222,31.5199583 C454.247869,30.8892765 453.664063,30.0497878 453.284801,29.0014924 C452.90554,27.9531969 452.715909,26.7983674 452.715909,25.5370037 C452.715909,24.2841628 452.90554,23.131464 453.284801,22.0789071 C453.664063,21.0263503 454.247869,20.1804696 455.036222,19.5412651 C455.824574,18.9020606 456.819602,18.5824583 458.021307,18.5824583 C459.214489,18.5824583 460.203125,18.9020606 460.987216,19.5412651 C461.771307,20.1804696 462.352983,21.0263503 462.732244,22.0789071 C463.111506,23.131464 463.301136,24.2841628 463.301136,25.5370037 C463.301136,26.7983674 463.111506,27.9531969 462.732244,29.0014924 C462.352983,30.0497878 461.771307,30.8892765 460.987216,31.5199583 C460.203125,32.1506401 459.214489,32.465981 458.021307,32.465981 Z M475.241477,35.278481 L475.241477,23.6193901 C475.241477,22.5796174 475.439631,21.6911231 475.835938,20.9539071 C476.232244,20.2166912 476.773438,19.6563219 477.459517,19.2727992 C478.145597,18.8892765 478.931818,18.6975151 479.818182,18.6975151 C481.113636,18.6975151 482.132102,19.100214 482.87358,19.9056117 C483.615057,20.7110094 483.985795,21.825356 483.985795,23.2486515 L483.985795,23.2486515 L483.985795,35.278481 L487.808239,35.278481 L487.808239,22.7884242 C487.808239,21.169106 487.53125,19.809731 486.977273,18.7102992 C486.423295,17.6108674 485.643466,16.7820321 484.637784,16.2237935 C483.632102,15.6655549 482.460227,15.3864356 481.122159,15.3864356 C479.647727,15.3864356 478.426847,15.7017765 477.459517,16.3324583 C476.492188,16.9631401 475.78267,17.7983674 475.330966,18.8381401 L475.330966,18.8381401 L475.088068,18.8381401 L475.088068,15.6421174 L471.419034,15.6421174 L471.419034,35.278481 L475.241477,35.278481 Z M501.384943,35.6747878 C502.816761,35.6747878 504.09304,35.4553276 505.213778,35.0164071 C506.334517,34.5774867 507.267756,33.959589 508.013494,33.162714 C508.759233,32.365839 509.276989,31.434731 509.566761,30.3693901 L509.566761,30.3693901 L505.948864,29.7174015 C505.71875,30.3310378 505.386364,30.8466628 504.951705,31.2642765 C504.517045,31.6818901 504.00142,31.9951003 503.40483,32.2039071 C502.808239,32.412714 502.147727,32.5171174 501.423295,32.5171174 C500.306818,32.5171174 499.330966,32.2763503 498.495739,31.7948162 C497.660511,31.3132821 497.010653,30.6122878 496.546165,29.6918333 C496.081676,28.7713787 495.849432,27.6549015 495.849432,26.3424015 L495.854,26.611481 L509.809659,26.6108674 L509.809659,25.2557537 C509.809659,23.4745037 509.571023,21.959589 509.09375,20.7110094 C508.616477,19.4624299 507.964489,18.4460946 507.137784,17.6620037 C506.31108,16.8779128 505.377841,16.3026287 504.338068,15.9361515 C503.298295,15.5696742 502.224432,15.3864356 501.116477,15.3864356 C499.292614,15.3864356 497.700994,15.8168333 496.341619,16.6776287 C494.982244,17.5384242 493.925426,18.7358674 493.171165,20.2699583 C492.416903,21.8040492 492.039773,23.5767765 492.039773,25.5881401 C492.039773,27.6250719 492.416903,29.3999299 493.171165,30.912714 C493.925426,32.4254981 494.99929,33.5973731 496.392756,34.428339 C497.786222,35.2593049 499.450284,35.6747878 501.384943,35.6747878 Z M495.881313,23.4621931 C495.955703,22.7241881 496.160275,22.0287178 496.495028,21.3757821 C496.925426,20.5362935 497.539063,19.8544753 498.335938,19.3303276 C499.132813,18.8061799 500.068182,18.544106 501.142045,18.544106 C502.130682,18.544106 502.993608,18.7699583 503.730824,19.2216628 C504.46804,19.6733674 505.041193,20.2891344 505.450284,21.068964 C505.859375,21.8487935 506.06392,22.7415492 506.06392,23.747231 L506.06392,23.747231 L495.86,23.747481 L495.881313,23.4621931 Z" id="Configurazione" fill="#FFFFFF" fill-rule="nonzero"></path>
                <path d="M68.0944602,152.78481 L69.959,147.39581 L77.915,147.39581 L79.7776989,152.78481 L83.0390625,152.78481 L75.7109375,132.421173 L72.1612216,132.421173 L64.8330966,152.78481 L68.0944602,152.78481 Z M77.022,144.81081 L70.854,144.81081 L73.8615057,136.120037 L74.0205966,136.120037 L77.022,144.81081 Z M90.7450284,152.983673 C91.8918087,152.983673 92.8513258,152.71355 93.6235795,152.173304 C94.3958333,151.633058 94.9576231,150.955264 95.3089489,150.139923 L95.3089489,150.139923 L95.4680398,150.139923 L95.4680398,152.78481 L98.3913352,152.78481 L98.3913352,137.512082 L95.4083807,137.512082 L95.4083807,146.451003 C95.4150095,147.319374 95.234375,148.035283 94.8664773,148.59873 C94.4985795,149.162177 94.0378788,149.583105 93.484375,149.861514 C92.9308712,150.139923 92.3757102,150.279128 91.818892,150.279128 C90.8974905,150.279128 90.1484375,149.970889 89.571733,149.354412 C88.9950284,148.737935 88.7066761,147.909336 88.7066761,146.868617 L88.7066761,146.868617 L88.7066761,137.512082 L85.7336648,137.512082 L85.7336648,147.226571 C85.7336648,148.486041 85.9474432,149.543332 86.375,150.398446 C86.8025568,151.25356 87.3925189,151.898209 88.1448864,152.332395 C88.8972538,152.766581 89.7639678,152.983673 90.7450284,152.983673 Z M107.857244,152.983673 C108.334517,152.977045 108.732244,152.938929 109.050426,152.869327 C109.368608,152.799725 109.613873,152.731779 109.786222,152.665492 L109.786222,152.665492 L109.24929,150.209526 C109.149858,150.229412 109.010653,150.255927 108.831676,150.289071 C108.652699,150.322215 108.443892,150.338787 108.205256,150.338787 C107.880445,150.338787 107.580492,150.287414 107.305398,150.184668 C107.030303,150.081922 106.806581,149.886372 106.634233,149.59802 C106.461884,149.309668 106.37571,148.877139 106.37571,148.300435 L106.37571,148.300435 L106.375,139.89881 L109.507812,139.898446 L109.507812,137.512082 L106.375,137.51281 L106.37571,133.852992 L103.402699,133.852992 L103.402,137.51281 L101.165483,137.512082 L101.165483,139.898446 L103.402,139.89881 L103.402699,148.916912 C103.402699,149.746173 103.571832,150.449256 103.910099,151.026159 L104.029119,151.213787 C104.446733,151.823636 104.993608,152.274393 105.669744,152.56606 C106.345881,152.857726 107.075047,152.996931 107.857244,152.983673 Z M119.222301,153.093048 C120.654119,153.093048 121.903646,152.764923 122.970881,152.108673 C124.038116,151.452423 124.866714,150.534336 125.456676,149.354412 C126.046638,148.174488 126.341619,146.7957 126.341619,145.218048 C126.341619,143.633768 126.046638,142.248351 125.456676,141.061798 C124.866714,139.875245 124.038116,138.953844 122.970881,138.297594 C121.903646,137.641344 120.654119,137.313219 119.222301,137.313219 C117.790483,137.313219 116.540956,137.641344 115.473722,138.297594 C114.406487,138.953844 113.577888,139.875245 112.987926,141.061798 C112.397964,142.248351 112.102983,143.633768 112.102983,145.218048 C112.102983,146.7957 112.397964,148.174488 112.987926,149.354412 C113.577888,150.534336 114.406487,151.452423 115.473722,152.108673 C116.540956,152.764923 117.790483,153.093048 119.222301,153.093048 Z M119.232244,150.59731 C118.297585,150.59731 117.523674,150.352045 116.910511,149.861514 C116.297349,149.370984 115.843277,148.718048 115.548296,147.902707 C115.253314,147.087367 115.105824,146.189166 115.105824,145.208105 C115.105824,144.233673 115.253314,143.33713 115.548296,142.518475 C115.843277,141.699819 116.297349,141.041912 116.910511,140.544753 C117.523674,140.047594 118.297585,139.799014 119.232244,139.799014 C120.160275,139.799014 120.929214,140.047594 121.539063,140.544753 C122.148911,141.041912 122.601326,141.699819 122.896307,142.518475 C123.191288,143.33713 123.338778,144.233673 123.338778,145.208105 C123.338778,146.189166 123.191288,147.087367 122.896307,147.902707 C122.601326,148.718048 122.148911,149.370984 121.539063,149.861514 C120.929214,150.352045 120.160275,150.59731 119.232244,150.59731 Z M137.179688,152.78481 L142.71804,137.512082 L139.526278,137.512082 L135.668324,149.264923 L135.509233,149.264923 L131.641335,137.512082 L128.449574,137.512082 L133.997869,152.78481 L137.179688,152.78481 Z M149.956676,153.122878 C150.798532,153.122878 151.52107,153.000245 152.12429,152.75498 C152.727509,152.509715 153.221354,152.201476 153.605824,151.830264 C153.990294,151.459052 154.278646,151.081211 154.470881,150.696742 L154.470881,150.696742 L154.590199,150.696742 L154.590199,152.78481 L157.493608,152.78481 L157.493608,142.642764 C157.493608,141.529128 157.301373,140.622641 156.916903,139.923304 C156.532434,139.223967 156.040246,138.685378 155.440341,138.307537 C154.840436,137.929696 154.197443,137.669516 153.511364,137.526997 C152.825284,137.384478 152.17732,137.313219 151.567472,137.313219 C150.64607,137.313219 149.767756,137.444137 148.932528,137.705975 C148.097301,137.967812 147.359848,138.385425 146.72017,138.958815 C146.080492,139.532206 145.594934,140.282916 145.263494,141.210946 L145.263494,141.210946 L148.057528,141.84731 C148.276278,141.310378 148.672348,140.821505 149.245739,140.38069 C149.819129,139.939876 150.606297,139.719469 151.607244,139.719469 C152.568419,139.719469 153.292614,139.958105 153.77983,140.435378 C154.267045,140.912651 154.510653,141.585473 154.510653,142.453844 L154.510653,142.453844 L154.510653,142.523446 C154.510653,142.881401 154.381392,143.139923 154.122869,143.299014 C153.864347,143.458105 153.450047,143.572452 152.879972,143.642054 C152.309896,143.711656 151.567472,143.799488 150.652699,143.905548 C149.930161,143.991723 149.220881,144.11767 148.524858,144.283389 C147.828835,144.449109 147.1991,144.694374 146.635653,145.019185 C146.072206,145.343995 145.624763,145.78481 145.293324,146.341628 C144.961884,146.898446 144.796165,147.607726 144.796165,148.469469 C144.796165,149.470416 145.023201,150.315586 145.477273,151.00498 C145.931345,151.694374 146.549479,152.219706 147.331676,152.580975 C148.113873,152.942243 148.988873,153.122878 149.956676,153.122878 Z M150.602983,150.736514 C149.761127,150.736514 149.068419,150.549251 148.524858,150.174725 C147.981297,149.800198 147.709517,149.245037 147.709517,148.509242 C147.709517,147.978939 147.850379,147.553039 148.132102,147.231543 C148.413826,146.910047 148.791667,146.663124 149.265625,146.490776 C149.739583,146.318427 150.264915,146.195795 150.841619,146.122878 C151.086885,146.089734 151.391809,146.048304 151.756392,145.998588 C152.120975,145.948872 152.495502,145.892528 152.879972,145.829554 C153.264441,145.766581 153.607481,145.69035 153.909091,145.600861 C154.210701,145.511372 154.414536,145.413598 154.520597,145.307537 L154.520597,145.307537 L154.520597,147.276287 C154.520597,147.879507 154.366477,148.444611 154.058239,148.9716 C153.75,149.498588 153.302557,149.924488 152.715909,150.249298 C152.129261,150.574109 151.424953,150.736514 150.602983,150.736514 Z M164.424006,152.78481 L164.424006,132.421173 L161.450994,132.421173 L161.450994,152.78481 L164.424006,152.78481 Z M173.432528,152.983673 C174.579309,152.983673 175.538826,152.71355 176.31108,152.173304 C177.083333,151.633058 177.645123,150.955264 177.996449,150.139923 L177.996449,150.139923 L178.15554,150.139923 L178.15554,152.78481 L181.078835,152.78481 L181.078835,137.512082 L178.095881,137.512082 L178.095881,146.451003 C178.102509,147.319374 177.921875,148.035283 177.553977,148.59873 C177.18608,149.162177 176.725379,149.583105 176.171875,149.861514 C175.618371,150.139923 175.06321,150.279128 174.506392,150.279128 C173.584991,150.279128 172.835937,149.970889 172.259233,149.354412 C171.682528,148.737935 171.394176,147.909336 171.394176,146.868617 L171.394176,146.868617 L171.394176,137.512082 L168.421165,137.512082 L168.421165,147.226571 C168.421165,148.486041 168.634943,149.543332 169.0625,150.398446 C169.490057,151.25356 170.080019,151.898209 170.832386,152.332395 C171.584754,152.766581 172.451468,152.983673 173.432528,152.983673 Z M190.544744,152.983673 C191.022017,152.977045 191.419744,152.938929 191.737926,152.869327 C192.056108,152.799725 192.301373,152.731779 192.473722,152.665492 L192.473722,152.665492 L191.93679,150.209526 C191.837358,150.229412 191.698153,150.255927 191.519176,150.289071 C191.340199,150.322215 191.131392,150.338787 190.892756,150.338787 C190.567945,150.338787 190.267992,150.287414 189.992898,150.184668 C189.717803,150.081922 189.494081,149.886372 189.321733,149.59802 C189.149384,149.309668 189.06321,148.877139 189.06321,148.300435 L189.06321,148.300435 L189.063,139.89881 L192.195312,139.898446 L192.195312,137.512082 L189.063,137.51281 L189.06321,133.852992 L186.090199,133.852992 L186.09,137.51281 L183.852983,137.512082 L183.852983,139.898446 L186.09,139.89881 L186.090199,148.916912 C186.090199,149.746173 186.259332,150.449256 186.597599,151.026159 L186.716619,151.213787 C187.134233,151.823636 187.681108,152.274393 188.357244,152.56606 C189.033381,152.857726 189.762547,152.996931 190.544744,152.983673 Z M199.921165,153.122878 C200.763021,153.122878 201.485559,153.000245 202.088778,152.75498 C202.691998,152.509715 203.185843,152.201476 203.570312,151.830264 C203.954782,151.459052 204.243134,151.081211 204.435369,150.696742 L204.435369,150.696742 L204.554687,150.696742 L204.554687,152.78481 L207.458097,152.78481 L207.458097,142.642764 C207.458097,141.529128 207.265862,140.622641 206.881392,139.923304 C206.496922,139.223967 206.004735,138.685378 205.40483,138.307537 C204.804924,137.929696 204.161932,137.669516 203.475852,137.526997 C202.789773,137.384478 202.141809,137.313219 201.53196,137.313219 C200.610559,137.313219 199.732244,137.444137 198.897017,137.705975 C198.06179,137.967812 197.324337,138.385425 196.684659,138.958815 C196.044981,139.532206 195.559422,140.282916 195.227983,141.210946 L195.227983,141.210946 L198.022017,141.84731 C198.240767,141.310378 198.636837,140.821505 199.210227,140.38069 C199.783617,139.939876 200.570786,139.719469 201.571733,139.719469 C202.532907,139.719469 203.257102,139.958105 203.744318,140.435378 C204.231534,140.912651 204.475142,141.585473 204.475142,142.453844 L204.475142,142.453844 L204.475142,142.523446 C204.475142,142.881401 204.345881,143.139923 204.087358,143.299014 C203.828835,143.458105 203.414536,143.572452 202.84446,143.642054 C202.274384,143.711656 201.53196,143.799488 200.617187,143.905548 C199.89465,143.991723 199.185369,144.11767 198.489347,144.283389 C197.793324,144.449109 197.163589,144.694374 196.600142,145.019185 C196.036695,145.343995 195.589252,145.78481 195.257812,146.341628 C194.926373,146.898446 194.760653,147.607726 194.760653,148.469469 C194.760653,149.470416 194.987689,150.315586 195.441761,151.00498 C195.895833,151.694374 196.513968,152.219706 197.296165,152.580975 C198.078362,152.942243 198.953362,153.122878 199.921165,153.122878 Z M200.567472,150.736514 C199.725616,150.736514 199.032907,150.549251 198.489347,150.174725 C197.945786,149.800198 197.674006,149.245037 197.674006,148.509242 C197.674006,147.978939 197.814867,147.553039 198.096591,147.231543 C198.378314,146.910047 198.756155,146.663124 199.230114,146.490776 C199.704072,146.318427 200.229403,146.195795 200.806108,146.122878 C201.051373,146.089734 201.356297,146.048304 201.720881,145.998588 C202.085464,145.948872 202.459991,145.892528 202.84446,145.829554 C203.22893,145.766581 203.57197,145.69035 203.87358,145.600861 C204.175189,145.511372 204.379025,145.413598 204.485085,145.307537 L204.485085,145.307537 L204.485085,147.276287 C204.485085,147.879507 204.330966,148.444611 204.022727,148.9716 C203.714489,149.498588 203.267045,149.924488 202.680398,150.249298 C202.09375,150.574109 201.389441,150.736514 200.567472,150.736514 Z M223.357244,152.78481 L223.357244,150.199582 L215.12429,150.199582 L215.12429,150.060378 L223.078835,139.679696 L223.078835,137.512082 L211.365767,137.512082 L211.365767,140.09731 L219.370028,140.09731 L219.370028,140.236514 L211.097301,150.746457 L211.097301,152.78481 L223.357244,152.78481 Z M228.358665,135.155548 C228.87571,135.155548 229.318182,134.981543 229.68608,134.633531 C230.053977,134.28552 230.237926,133.869564 230.237926,133.385662 C230.237926,132.895132 230.053977,132.475861 229.68608,132.12785 C229.318182,131.779838 228.87571,131.605832 228.358665,131.605832 C227.841619,131.605832 227.399148,131.779838 227.03125,132.12785 C226.663352,132.475861 226.479403,132.895132 226.479403,133.385662 C226.479403,133.869564 226.663352,134.28552 227.03125,134.633531 C227.399148,134.981543 227.841619,135.155548 228.358665,135.155548 Z M229.830256,152.78481 L229.830256,137.512082 L226.857244,137.512082 L226.857244,152.78481 L229.830256,152.78481 Z M240.260653,153.093048 C241.692472,153.093048 242.941998,152.764923 244.009233,152.108673 C245.076468,151.452423 245.905066,150.534336 246.495028,149.354412 C247.084991,148.174488 247.379972,146.7957 247.379972,145.218048 C247.379972,143.633768 247.084991,142.248351 246.495028,141.061798 C245.905066,139.875245 245.076468,138.953844 244.009233,138.297594 C242.941998,137.641344 241.692472,137.313219 240.260653,137.313219 C238.828835,137.313219 237.579309,137.641344 236.512074,138.297594 C235.444839,138.953844 234.616241,139.875245 234.026278,141.061798 C233.436316,142.248351 233.141335,143.633768 233.141335,145.218048 C233.141335,146.7957 233.436316,148.174488 234.026278,149.354412 C234.616241,150.534336 235.444839,151.452423 236.512074,152.108673 C237.579309,152.764923 238.828835,153.093048 240.260653,153.093048 Z M240.270597,150.59731 C239.335937,150.59731 238.562027,150.352045 237.948864,149.861514 C237.335701,149.370984 236.881629,148.718048 236.586648,147.902707 C236.291667,147.087367 236.144176,146.189166 236.144176,145.208105 C236.144176,144.233673 236.291667,143.33713 236.586648,142.518475 C236.881629,141.699819 237.335701,141.041912 237.948864,140.544753 C238.562027,140.047594 239.335937,139.799014 240.270597,139.799014 C241.198627,139.799014 241.967566,140.047594 242.577415,140.544753 C243.187263,141.041912 243.639678,141.699819 243.934659,142.518475 C244.22964,143.33713 244.377131,144.233673 244.377131,145.208105 C244.377131,146.189166 244.22964,147.087367 243.934659,147.902707 C243.639678,148.718048 243.187263,149.370984 242.577415,149.861514 C241.967566,150.352045 241.198627,150.59731 240.270597,150.59731 Z M253.664062,152.78481 L253.664062,143.716628 C253.664062,142.907916 253.818182,142.216865 254.12642,141.643475 C254.434659,141.070084 254.855587,140.634242 255.389205,140.335946 C255.922822,140.037651 256.534328,139.888503 257.223722,139.888503 C258.231297,139.888503 259.023437,140.201713 259.600142,140.828134 C260.176847,141.454554 260.465199,142.321268 260.465199,143.428276 L260.465199,143.428276 L260.465199,152.78481 L263.43821,152.78481 L263.43821,143.070321 C263.43821,141.810851 263.222775,140.75356 262.791903,139.898446 C262.361032,139.043332 261.754498,138.398683 260.972301,137.964497 C260.190104,137.530312 259.278646,137.313219 258.237926,137.313219 C257.091146,137.313219 256.141572,137.558484 255.389205,138.049014 C254.636837,138.539545 254.084991,139.189166 253.733665,139.997878 L253.733665,139.997878 L253.544744,139.997878 L253.544744,137.512082 L250.691051,137.512082 L250.691051,152.78481 L253.664062,152.78481 Z M273.997869,153.093048 C275.111506,153.093048 276.104167,152.922357 276.975852,152.580975 C277.847538,152.239592 278.57339,151.759005 279.153409,151.139213 C279.733428,150.519422 280.136127,149.795226 280.361506,148.966628 L280.361506,148.966628 L277.547585,148.459526 C277.368608,148.936798 277.110085,149.33784 276.772017,149.662651 C276.433949,149.987461 276.032907,150.231069 275.568892,150.393475 C275.104877,150.55588 274.591146,150.637082 274.027699,150.637082 C273.159328,150.637082 272.400331,150.449819 271.75071,150.075293 C271.101089,149.700766 270.595644,149.155548 270.234375,148.439639 C269.873106,147.72373 269.692472,146.855359 269.692472,145.834526 L269.696,146.04381 L280.550426,146.043332 L280.550426,144.989355 C280.550426,143.603939 280.36482,142.425672 279.993608,141.454554 C279.622396,140.483437 279.115294,139.692954 278.472301,139.083105 C277.829309,138.473257 277.103456,138.025814 276.294744,137.740776 C275.486032,137.455738 274.650805,137.313219 273.789062,137.313219 C272.370502,137.313219 271.132576,137.647973 270.075284,138.31748 C269.017992,138.986988 268.196023,139.918332 267.609375,141.111514 C267.022727,142.304696 266.729403,143.683484 266.729403,145.247878 C266.729403,146.832158 267.022727,148.212603 267.609375,149.389213 C268.196023,150.565823 269.03125,151.477281 270.115057,152.123588 C271.198864,152.769895 272.493134,153.093048 273.997869,153.093048 Z M269.700317,143.811166 C269.736931,143.156107 269.901693,142.542918 270.194602,141.9716 C270.529356,141.318664 271.006629,140.788361 271.62642,140.38069 C272.246212,139.97302 272.973722,139.769185 273.808949,139.769185 C274.577888,139.769185 275.249053,139.944848 275.822443,140.296173 C276.395833,140.647499 276.841619,141.126429 277.159801,141.732963 C277.477983,142.339497 277.637074,143.033863 277.637074,143.81606 L277.637074,143.81606 L269.7,143.81681 L269.700317,143.811166 Z" id="Autovalutazione" fill="#666666" fill-rule="nonzero"></path>
                <g id="icon/misc/circle" transform="translate(156.000000, 79.962025)" fill="#FFFFFF" fill-rule="nonzero">
                    <path d="M16.9915,0.037975 C26.384,0.037975 34,7.645475 34,17.037975 C34,26.430475 26.384,34.037975 16.9915,34.037975 C7.599,34.037975 0,26.430475 0,17.037975 C0,7.645475 7.599,0.037975 16.9915,0.037975 Z M24.463644,10.2932648 C24.1121866,9.95287841 23.5423033,9.95287841 23.1908459,10.2932648 L23.1908459,10.2932648 L14.7499978,18.4681894 L10.8091541,14.6515176 C10.4576967,14.3110972 9.88781337,14.3110972 9.53635599,14.6515176 L9.53635599,14.6515176 L8.26359303,15.8842222 C7.91213566,16.2246426 7.91213566,16.7765404 8.26359303,17.1169268 L8.26359303,17.1169268 L14.1135987,22.7826554 C14.4650561,23.1230758 15.0349043,23.1230758 15.3863969,22.7826895 L15.3863969,22.7826895 L25.736407,12.7586739 C26.0878643,12.4182535 26.0878643,11.8663557 25.736407,11.5259693 L25.736407,11.5259693 L24.463644,10.2932648 Z" id="Combined-Shape"></path>
                </g>
                <g id="step-bar/check-icon+label" transform="translate(338.500000, 82.962025)">
                    <path d="M3.48224432,69.8227848 L3.482,62.6637848 L7.65838068,62.6636939 C9.11467439,62.6636939 10.3436281,62.4165852 11.3452419,61.9223679 L11.5909091,61.7936655 C12.6349432,61.2136466 13.4171402,60.4248208 13.9375,59.4271882 C14.4578598,58.4295556 14.7180398,57.3043189 14.7180398,56.051478 C14.7180398,54.8052659 14.459517,53.6833435 13.9424716,52.6857109 C13.4254261,51.6880784 12.6465436,50.9009098 11.6058239,50.3242053 C10.5651042,49.7475007 9.25260417,49.4591484 7.66832386,49.4591484 L7.66832386,49.4591484 L0.409801136,49.4591484 L0.409801136,69.8227848 L3.48224432,69.8227848 Z M3.48224432,52.0940916 L7.34019886,52.0940916 C8.3610322,52.0940916 9.18465909,52.2631257 9.81107955,52.6011939 C10.4375,52.9392621 10.8965436,53.4065916 11.1882102,54.0031825 C11.4798769,54.5997734 11.6257102,55.2825386 11.6257102,56.051478 C11.6257102,56.8204174 11.4798769,57.5064969 11.1882102,58.1097166 C10.8965436,58.7129363 10.4391572,59.1885519 9.81605114,59.5365632 C9.19294508,59.8845746 8.38091856,60.0585803 7.37997159,60.0585803 L7.37997159,60.0585803 L3.482,60.0587848 L3.48224432,52.0940916 Z M21.0419034,69.8227848 L21.0419034,60.4960803 C21.0419034,59.8332015 21.2009943,59.2415822 21.5191761,58.7212223 C21.837358,58.2008625 22.2698864,57.793192 22.8167614,57.4982109 C23.3636364,57.2032299 23.9883996,57.0557394 24.6910511,57.0557394 C24.9959754,57.0557394 25.3008996,57.0772829 25.6058239,57.12037 C25.9107481,57.1634572 26.1228693,57.2015727 26.2421875,57.2347166 L26.2421875,57.2347166 L26.2421875,54.3909666 C26.0963542,54.3710803 25.8958333,54.3545083 25.640625,54.3412507 C25.3854167,54.3279931 25.1650095,54.3213644 24.9794034,54.3213644 C24.084517,54.3213644 23.2840909,54.5583435 22.578125,55.0323019 C21.8721591,55.5062602 21.3799716,56.1542242 21.1015625,56.9761939 L21.1015625,56.9761939 L20.9424716,56.9761939 L20.9424716,54.5500575 L18.068892,54.5500575 L18.068892,69.8227848 L21.0419034,69.8227848 Z M35.2606534,70.1310234 C36.6924716,70.1310234 37.9419981,69.8028984 39.009233,69.1466484 C40.0764678,68.4903984 40.9050663,67.5723113 41.4950284,66.3923871 C42.0849905,65.2124628 42.3799716,63.833675 42.3799716,62.2560234 C42.3799716,60.6717431 42.0849905,59.2863265 41.4950284,58.0997734 C40.9050663,56.9132204 40.0764678,55.9918189 39.009233,55.3355689 C37.9419981,54.6793189 36.6924716,54.3511939 35.2606534,54.3511939 C33.8288352,54.3511939 32.5793087,54.6793189 31.5120739,55.3355689 C30.444839,55.9918189 29.6162405,56.9132204 29.0262784,58.0997734 C28.4363163,59.2863265 28.1413352,60.6717431 28.1413352,62.2560234 C28.1413352,63.833675 28.4363163,65.2124628 29.0262784,66.3923871 C29.6162405,67.5723113 30.444839,68.4903984 31.5120739,69.1466484 C32.5793087,69.8028984 33.8288352,70.1310234 35.2606534,70.1310234 Z M35.2705966,67.6352848 C34.3359375,67.6352848 33.5620265,67.3900197 32.9488636,66.8994894 C32.3357008,66.4089591 31.8816288,65.7560234 31.5866477,64.9406825 C31.2916667,64.1253416 31.1441761,63.2271409 31.1441761,62.2460803 C31.1441761,61.2716484 31.2916667,60.3751049 31.5866477,59.5564496 C31.8816288,58.7377943 32.3357008,58.0798871 32.9488636,57.582728 C33.5620265,57.0855689 34.3359375,56.8369894 35.2705966,56.8369894 C36.1986269,56.8369894 36.9675663,57.0855689 37.5774148,57.582728 C38.1872633,58.0798871 38.639678,58.7377943 38.9346591,59.5564496 C39.2296402,60.3751049 39.3771307,61.2716484 39.3771307,62.2460803 C39.3771307,63.2271409 39.2296402,64.1253416 38.9346591,64.9406825 C38.639678,65.7560234 38.1872633,66.4089591 37.5774148,66.8994894 C36.9675663,67.3900197 36.1986269,67.6352848 35.2705966,67.6352848 Z M49.6683239,69.8227848 L49.668,56.9367848 L52.959517,56.9364212 L52.959517,54.5500575 L49.668,54.5507848 L49.6683239,53.1778984 C49.6683239,52.5768883 49.7900972,52.1015797 50.0336437,51.7519725 L50.1306818,51.6267621 C50.4389205,51.2688075 50.9543087,51.0898303 51.6768466,51.0898303 C51.9883996,51.0898303 52.2535511,51.1180026 52.4723011,51.1743473 C52.6910511,51.230692 52.8700284,51.2787507 53.009233,51.3185234 L53.009233,51.3185234 L53.7052557,48.9122734 C53.4997633,48.832728 53.1848958,48.7448966 52.7606534,48.6487791 C52.336411,48.5526617 51.8259943,48.504603 51.2294034,48.504603 C50.4206913,48.504603 49.6716383,48.6620367 48.9822443,48.9769041 C48.2928504,49.2917716 47.7393466,49.7657299 47.321733,50.3987791 C46.9041193,51.0318284 46.6953125,51.8256257 46.6953125,52.7801712 L46.6953125,52.7801712 L46.695,54.5507848 L44.3288352,54.5500575 L44.3288352,56.9364212 L46.695,56.9367848 L46.6953125,69.8227848 L49.6683239,69.8227848 Z M57.5234375,52.1935234 C58.040483,52.1935234 58.4829545,52.0195178 58.8508523,51.6715064 C59.21875,51.323495 59.4026989,50.9075386 59.4026989,50.4236371 C59.4026989,49.9331068 59.21875,49.5138359 58.8508523,49.1658246 C58.4829545,48.8178132 58.040483,48.6438075 57.5234375,48.6438075 C57.006392,48.6438075 56.5639205,48.8178132 56.1960227,49.1658246 C55.828125,49.5138359 55.6441761,49.9331068 55.6441761,50.4236371 C55.6441761,50.9075386 55.828125,51.323495 56.1960227,51.6715064 C56.5639205,52.0195178 57.006392,52.1935234 57.5234375,52.1935234 Z M58.9950284,69.8227848 L58.9950284,54.5500575 L56.022017,54.5500575 L56.022017,69.8227848 L58.9950284,69.8227848 Z M65.9651989,69.8227848 L65.9651989,49.4591484 L62.9921875,49.4591484 L62.9921875,69.8227848 L65.9651989,69.8227848 Z M76.3955966,70.1310234 C77.8274148,70.1310234 79.0769413,69.8028984 80.1441761,69.1466484 C81.211411,68.4903984 82.0400095,67.5723113 82.6299716,66.3923871 C83.2199337,65.2124628 83.5149148,63.833675 83.5149148,62.2560234 C83.5149148,60.6717431 83.2199337,59.2863265 82.6299716,58.0997734 C82.0400095,56.9132204 81.211411,55.9918189 80.1441761,55.3355689 C79.0769413,54.6793189 77.8274148,54.3511939 76.3955966,54.3511939 C74.9637784,54.3511939 73.7142519,54.6793189 72.647017,55.3355689 C71.5797822,55.9918189 70.7511837,56.9132204 70.1612216,58.0997734 C69.5712595,59.2863265 69.2762784,60.6717431 69.2762784,62.2560234 C69.2762784,63.833675 69.5712595,65.2124628 70.1612216,66.3923871 C70.7511837,67.5723113 71.5797822,68.4903984 72.647017,69.1466484 C73.7142519,69.8028984 74.9637784,70.1310234 76.3955966,70.1310234 Z M76.4055398,67.6352848 C75.4708807,67.6352848 74.6969697,67.3900197 74.0838068,66.8994894 C73.4706439,66.4089591 73.016572,65.7560234 72.7215909,64.9406825 C72.4266098,64.1253416 72.2791193,63.2271409 72.2791193,62.2460803 C72.2791193,61.2716484 72.4266098,60.3751049 72.7215909,59.5564496 C73.016572,58.7377943 73.4706439,58.0798871 74.0838068,57.582728 C74.6969697,57.0855689 75.4708807,56.8369894 76.4055398,56.8369894 C77.3335701,56.8369894 78.1025095,57.0855689 78.712358,57.582728 C79.3222064,58.0798871 79.7746212,58.7377943 80.0696023,59.5564496 C80.3645833,60.3751049 80.5120739,61.2716484 80.5120739,62.2460803 C80.5120739,63.2271409 80.3645833,64.1253416 80.0696023,64.9406825 C79.7746212,65.7560234 79.3222064,66.4089591 78.712358,66.8994894 C78.1025095,67.3900197 77.3335701,67.6352848 76.4055398,67.6352848 Z" id="Profilo" fill="#FFFFFF" fill-rule="nonzero" opacity="0.398786272"></path>
                    <g id="icon/misc/circle" transform="translate(27.500000, 0.000000)" stroke="#FFFFFF" stroke-opacity="0.99" stroke-width="6">
                        <path d="M13.9916667,0.37552741 C10.2216107,0.37552741 6.8129648,1.92397399 4.3456522,4.4237683 C1.8635942,6.9385021 0.33333331,10.4144225 0.33333331,14.2531646 C0.33333331,18.0919066 1.8635942,21.567827 4.3456522,24.0825608 C6.8129648,26.5823551 10.2216107,28.1308017 13.9916667,28.1308017 C17.7638909,28.1308017 21.1776987,26.5808702 23.6493301,24.0792032 C26.1333524,21.5649947 27.6666667,18.0905422 27.6666667,14.2531646 C27.6666667,10.415787 26.1333524,6.9413344 23.6493301,4.4271259 C21.1776987,1.92545891 17.7638909,0.37552741 13.9916667,0.37552741 Z" id="Path"></path>
                    </g>
                </g>
                <path d="M536.27983,153.063219 C538.036458,153.063219 539.605824,152.643948 540.987926,151.805406 C542.370028,150.966865 543.458807,149.767054 544.254261,148.205975 C545.049716,146.644895 545.447443,144.777234 545.447443,142.602992 C545.447443,140.428749 545.049716,138.561088 544.254261,137.000009 C543.458807,135.438929 542.370028,134.239118 540.987926,133.400577 C539.605824,132.562035 538.036458,132.142764 536.27983,132.142764 C534.516572,132.142764 532.943892,132.562035 531.56179,133.400577 C530.179688,134.239118 529.090909,135.438929 528.295455,137.000009 C527.5,138.561088 527.102273,140.428749 527.102273,142.602992 C527.102273,144.770605 527.5,146.636609 528.295455,148.201003 C529.090909,149.765397 530.179688,150.966865 531.56179,151.805406 C532.943892,152.643948 534.516572,153.063219 536.27983,153.063219 Z M536.27983,150.259242 C535.106534,150.259242 534.059186,149.965918 533.137784,149.37927 C532.216383,148.792622 531.488873,147.93088 530.955256,146.794043 C530.421638,145.657206 530.15483,144.260189 530.15483,142.602992 C530.15483,140.945795 530.421638,139.548778 530.955256,138.41194 C531.488873,137.275103 532.216383,136.413361 533.137784,135.826713 C534.059186,135.240065 535.106534,134.946742 536.27983,134.946742 C537.446496,134.946742 538.492188,135.240065 539.416903,135.826713 C540.341619,136.413361 541.070786,137.275103 541.604403,138.41194 C542.138021,139.548778 542.40483,140.945795 542.40483,142.602992 C542.40483,144.260189 542.138021,145.657206 541.604403,146.794043 C541.070786,147.93088 540.341619,148.792622 539.416903,149.37927 C538.492188,149.965918 537.446496,150.259242 536.27983,150.259242 Z M556.832386,153.083105 C558.065341,153.083105 559.162405,152.766581 560.12358,152.133531 C561.084754,151.500482 561.840436,150.595653 562.390625,149.419043 C562.940814,148.242433 563.215909,146.828844 563.215909,145.178276 C563.215909,143.527707 562.939157,142.115776 562.385653,140.94248 C561.83215,139.769185 561.071496,138.870984 560.103693,138.247878 C559.13589,137.624772 558.035511,137.313219 556.802557,137.313219 C555.85464,137.313219 555.09233,137.470653 554.515625,137.78552 C553.938921,138.100387 553.488163,138.466628 553.163352,138.884242 C552.838542,139.301855 552.589962,139.669753 552.417614,139.987935 L552.417614,139.987935 L552.238636,139.987935 L552.238636,132.421173 L549.265625,132.421173 L549.265625,152.78481 L552.169034,152.78481 L552.169034,150.408389 L552.417614,150.408389 C552.596591,150.7332 552.851799,151.104412 553.183239,151.522026 C553.514678,151.939639 553.973722,152.304223 554.560369,152.615776 C555.147017,152.927329 555.904356,153.083105 556.832386,153.083105 Z M556.166193,150.547594 C555.31108,150.547594 554.588542,150.320558 553.99858,149.866486 C553.408617,149.412414 552.95786,148.781022 552.646307,147.97231 C552.334754,147.163598 552.178977,146.22231 552.178977,145.148446 C552.178977,144.08784 552.331439,143.15981 552.636364,142.364355 C552.941288,141.568901 553.390388,140.949109 553.983665,140.50498 C554.576941,140.060851 555.304451,139.838787 556.166193,139.838787 C557.06108,139.838787 557.808475,140.070795 558.408381,140.53481 C559.008286,140.998825 559.459044,141.631874 559.760653,142.433957 C560.062263,143.236041 560.213068,144.14087 560.213068,145.148446 C560.213068,146.169279 560.058949,147.087367 559.75071,147.902707 C559.442472,148.718048 558.990057,149.362698 558.393466,149.836656 C557.796875,150.310615 557.054451,150.547594 556.166193,150.547594 Z M568.048296,135.155548 C568.565341,135.155548 569.007813,134.981543 569.37571,134.633531 C569.743608,134.28552 569.927557,133.869564 569.927557,133.385662 C569.927557,132.895132 569.743608,132.475861 569.37571,132.12785 C569.007813,131.779838 568.565341,131.605832 568.048296,131.605832 C567.53125,131.605832 567.088778,131.779838 566.720881,132.12785 C566.352983,132.475861 566.169034,132.895132 566.169034,133.385662 C566.169034,133.869564 566.352983,134.28552 566.720881,134.633531 C567.088778,134.981543 567.53125,135.155548 568.048296,135.155548 Z M569.519886,152.78481 L569.519886,137.512082 L566.546875,137.512082 L566.546875,152.78481 L569.519886,152.78481 Z M580.099432,153.093048 C581.213068,153.093048 582.205729,152.922357 583.077415,152.580975 C583.9491,152.239592 584.674953,151.759005 585.254972,151.139213 C585.834991,150.519422 586.237689,149.795226 586.463068,148.966628 L586.463068,148.966628 L583.649148,148.459526 C583.470171,148.936798 583.211648,149.33784 582.87358,149.662651 C582.535511,149.987461 582.13447,150.231069 581.670455,150.393475 C581.206439,150.55588 580.692708,150.637082 580.129261,150.637082 C579.26089,150.637082 578.501894,150.449819 577.852273,150.075293 C577.202652,149.700766 576.697206,149.155548 576.335938,148.439639 C575.974669,147.72373 575.794034,146.855359 575.794034,145.834526 L575.798,146.04381 L586.651989,146.043332 L586.651989,144.989355 C586.651989,143.603939 586.466383,142.425672 586.095171,141.454554 C585.723958,140.483437 585.216856,139.692954 584.573864,139.083105 C583.930871,138.473257 583.205019,138.025814 582.396307,137.740776 C581.587595,137.455738 580.752367,137.313219 579.890625,137.313219 C578.472064,137.313219 577.234138,137.647973 576.176847,138.31748 C575.119555,138.986988 574.297585,139.918332 573.710938,141.111514 C573.12429,142.304696 572.830966,143.683484 572.830966,145.247878 C572.830966,146.832158 573.12429,148.212603 573.710938,149.389213 C574.297585,150.565823 575.132813,151.477281 576.216619,152.123588 C577.300426,152.769895 578.594697,153.093048 580.099432,153.093048 Z M575.80188,143.811166 C575.838494,143.156107 576.003255,142.542918 576.296165,141.9716 C576.630919,141.318664 577.108191,140.788361 577.727983,140.38069 C578.347775,139.97302 579.075284,139.769185 579.910511,139.769185 C580.679451,139.769185 581.350616,139.944848 581.924006,140.296173 C582.497396,140.647499 582.943182,141.126429 583.261364,141.732963 C583.579546,142.339497 583.738636,143.033863 583.738636,143.81606 L583.738636,143.81606 L575.801,143.81681 L575.80188,143.811166 Z M595.441761,152.983673 C595.919034,152.977045 596.316761,152.938929 596.634943,152.869327 C596.953125,152.799725 597.19839,152.731779 597.370739,152.665492 L597.370739,152.665492 L596.833807,150.209526 C596.734375,150.229412 596.595171,150.255927 596.416193,150.289071 C596.237216,150.322215 596.028409,150.338787 595.789773,150.338787 C595.464962,150.338787 595.16501,150.287414 594.889915,150.184668 C594.61482,150.081922 594.391099,149.886372 594.21875,149.59802 C594.046402,149.309668 593.960227,148.877139 593.960227,148.300435 L593.960227,148.300435 L593.96,139.89881 L597.09233,139.898446 L597.09233,137.512082 L593.96,137.51281 L593.960227,133.852992 L590.987216,133.852992 L590.987,137.51281 L588.75,137.512082 L588.75,139.898446 L590.987,139.89881 L590.987216,148.916912 C590.987216,149.746173 591.156349,150.449256 591.494617,151.026159 L591.613636,151.213787 C592.03125,151.823636 592.578125,152.274393 593.254261,152.56606 C593.930398,152.857726 594.659564,152.996931 595.441761,152.983673 Z M605.852273,152.983673 C606.329546,152.977045 606.727273,152.938929 607.045455,152.869327 C607.363636,152.799725 607.608902,152.731779 607.78125,152.665492 L607.78125,152.665492 L607.244318,150.209526 C607.144886,150.229412 607.005682,150.255927 606.826705,150.289071 C606.647727,150.322215 606.438921,150.338787 606.200284,150.338787 C605.875474,150.338787 605.575521,150.287414 605.300426,150.184668 C605.025331,150.081922 604.80161,149.886372 604.629261,149.59802 C604.456913,149.309668 604.370739,148.877139 604.370739,148.300435 L604.370739,148.300435 L604.37,139.89881 L607.502841,139.898446 L607.502841,137.512082 L604.37,137.51281 L604.370739,133.852992 L601.397727,133.852992 L601.397,137.51281 L599.160511,137.512082 L599.160511,139.898446 L601.397,139.89881 L601.397727,148.916912 C601.397727,149.746173 601.566861,150.449256 601.905128,151.026159 L602.024148,151.213787 C602.441761,151.823636 602.988636,152.274393 603.664773,152.56606 C604.340909,152.857726 605.070076,152.996931 605.852273,152.983673 Z M612.285511,135.155548 C612.802557,135.155548 613.245028,134.981543 613.612926,134.633531 C613.980824,134.28552 614.164773,133.869564 614.164773,133.385662 C614.164773,132.895132 613.980824,132.475861 613.612926,132.12785 C613.245028,131.779838 612.802557,131.605832 612.285511,131.605832 C611.768466,131.605832 611.325994,131.779838 610.958097,132.12785 C610.590199,132.475861 610.40625,132.895132 610.40625,133.385662 C610.40625,133.869564 610.590199,134.28552 610.958097,134.633531 C611.325994,134.981543 611.768466,135.155548 612.285511,135.155548 Z M613.757102,152.78481 L613.757102,137.512082 L610.784091,137.512082 L610.784091,152.78481 L613.757102,152.78481 Z M625.28125,152.78481 L630.819602,137.512082 L627.627841,137.512082 L623.769886,149.264923 L623.610796,149.264923 L619.742898,137.512082 L616.551136,137.512082 L622.099432,152.78481 L625.28125,152.78481 Z M640.046875,153.093048 C641.478693,153.093048 642.72822,152.764923 643.795455,152.108673 C644.862689,151.452423 645.691288,150.534336 646.28125,149.354412 C646.871212,148.174488 647.166193,146.7957 647.166193,145.218048 C647.166193,143.633768 646.871212,142.248351 646.28125,141.061798 C645.691288,139.875245 644.862689,138.953844 643.795455,138.297594 C642.72822,137.641344 641.478693,137.313219 640.046875,137.313219 C638.615057,137.313219 637.36553,137.641344 636.298295,138.297594 C635.231061,138.953844 634.402462,139.875245 633.8125,141.061798 C633.222538,142.248351 632.927557,143.633768 632.927557,145.218048 C632.927557,146.7957 633.222538,148.174488 633.8125,149.354412 C634.402462,150.534336 635.231061,151.452423 636.298295,152.108673 C637.36553,152.764923 638.615057,153.093048 640.046875,153.093048 Z M640.056818,150.59731 C639.122159,150.59731 638.348248,150.352045 637.735085,149.861514 C637.121922,149.370984 636.66785,148.718048 636.372869,147.902707 C636.077888,147.087367 635.930398,146.189166 635.930398,145.208105 C635.930398,144.233673 636.077888,143.33713 636.372869,142.518475 C636.66785,141.699819 637.121922,141.041912 637.735085,140.544753 C638.348248,140.047594 639.122159,139.799014 640.056818,139.799014 C640.984848,139.799014 641.753788,140.047594 642.363636,140.544753 C642.973485,141.041912 643.4259,141.699819 643.720881,142.518475 C644.015862,143.33713 644.163352,144.233673 644.163352,145.208105 C644.163352,146.189166 644.015862,147.087367 643.720881,147.902707 C643.4259,148.718048 642.973485,149.370984 642.363636,149.861514 C641.753788,150.352045 640.984848,150.59731 640.056818,150.59731 Z" id="Obiettivo" fill="#FFFFFF" fill-rule="nonzero"></path>
                <path d="M586.991667,83.3375524 C583.221611,83.3375524 579.812965,84.885999 577.345652,87.3857933 C574.863594,89.9005271 573.333333,93.3764475 573.333333,97.2151896 C573.333333,101.053932 574.863594,104.529852 577.345652,107.044586 C579.812965,109.54438 583.221611,111.092827 586.991667,111.092827 C590.763891,111.092827 594.177699,109.542895 596.64933,107.041228 C599.133352,104.52702 600.666667,101.052567 600.666667,97.2151896 C600.666667,93.377812 599.133352,89.9033594 596.64933,87.3891509 C594.177699,84.8874839 590.763891,83.3375524 586.991667,83.3375524 Z" id="Path" stroke="#FFFFFF" stroke-width="6"></path>
                <line x1="196.5" y1="97.721519" x2="356.5" y2="97.721519" id="Line" stroke="#FFFFFF" stroke-width="6"></line>
                <line x1="403.5" y1="97.721519" x2="563.5" y2="97.721519" id="Line" stroke="#FFFFFF" stroke-width="6"></line>
                <g id="icon/misc/circle" transform="translate(364.000000, 79.962025)" fill="#FFFFFF" fill-rule="nonzero">
                    <path d="M16.9915,0.037975 C26.384,0.037975 34,7.645475 34,17.037975 C34,26.430475 26.384,34.037975 16.9915,34.037975 C7.599,34.037975 0,26.430475 0,17.037975 C0,7.645475 7.599,0.037975 16.9915,0.037975 Z M24.463644,10.2932648 C24.1121866,9.95287841 23.5423033,9.95287841 23.1908459,10.2932648 L23.1908459,10.2932648 L14.7499978,18.4681894 L10.8091541,14.6515176 C10.4576967,14.3110972 9.88781337,14.3110972 9.53635599,14.6515176 L9.53635599,14.6515176 L8.26359303,15.8842222 C7.91213566,16.2246426 7.91213566,16.7765404 8.26359303,17.1169268 L8.26359303,17.1169268 L14.1135987,22.7826554 C14.4650561,23.1230758 15.0349043,23.1230758 15.3863969,22.7826895 L15.3863969,22.7826895 L25.736407,12.7586739 C26.0878643,12.4182535 26.0878643,11.8663557 25.736407,11.5259693 L25.736407,11.5259693 L24.463644,10.2932648 Z" id="Combined-Shape"></path>
                </g>
            </g>
            <g id="step-bar/configurazione" transform="translate(64.500000, 7.000000)">
                <g id="step-bar/check-icon+label" transform="translate(0.000000, 72.962025)"></g>
                <g id="step-bar/check-icon+label" transform="translate(462.000000, 75.962025)">
                    <g id="icon/misc/circle" transform="translate(46.500000, 0.000000)"></g>
                </g>
            </g>
        </g>
    </g>
</svg>