<?xml version="1.0" encoding="UTF-8"?>
<svg width="760px" height="160px" viewBox="0 0 760 160" version="1.1" xmlns="http://www.w3.org/2000/svg" xmlns:xlink="http://www.w3.org/1999/xlink">
    <!-- Generator: Sketch 64 (93537) - https://sketch.com -->
    <title>autovalutazione-step2</title>
    <desc>Created with Sketch.</desc>
    <g id="Page-1" stroke="none" stroke-width="1" fill="none" fill-rule="evenodd">
        <g id="autovalutazione-step2">
            <rect id="Rectangle" fill="#000000" fill-rule="nonzero" x="0" y="0" width="760" height="160"></rect>
            <g id="step-bar/configurazione" transform="translate(64.500000, 7.000000)">
                <path d="M197.809659,28.6364356 C199.25,28.6364356 200.579545,28.4233674 201.798295,27.997231 C203.017045,27.5710946 204.101563,26.9681117 205.051847,26.1882821 C206.002131,25.4084526 206.78196,24.4794753 207.391335,23.4013503 C208.00071,22.3232253 208.411932,21.1406969 208.625,19.8537651 L208.625,19.8537651 L204.636364,19.840981 C204.474432,20.6762083 204.182528,21.4155549 203.760653,22.0590208 C203.338778,22.7024867 202.825284,23.2458106 202.22017,23.6889924 C201.615057,24.1321742 200.939631,24.4666912 200.193892,24.6925435 C199.448153,24.9183958 198.661932,25.0313219 197.835227,25.0313219 C196.34375,25.0313219 195.00142,24.6563219 193.808239,23.9063219 C192.615057,23.1563219 191.675426,22.0483674 190.989347,20.5824583 C190.303267,19.1165492 189.960227,17.3182537 189.960227,15.1875719 C189.960227,13.0739356 190.303267,11.2841628 190.989347,9.81825374 C191.675426,8.35234465 192.612926,7.24012874 193.801847,6.48160601 C194.990767,5.72308329 196.339489,5.34382192 197.848011,5.34382192 C198.683239,5.34382192 199.473722,5.45887874 200.21946,5.68899238 C200.965199,5.91910601 201.640625,6.2600151 202.245739,6.71171965 C202.850852,7.16342419 203.362216,7.7131401 203.77983,8.36086738 C204.197443,9.00859465 204.482955,9.75859465 204.636364,10.6108674 L204.636364,10.6108674 L208.625,10.6108674 C208.403409,9.20461738 207.977273,7.95390715 207.346591,6.85873669 C206.715909,5.76356624 205.919034,4.83458897 204.955966,4.07180488 C203.992898,3.30902079 202.908381,2.72947533 201.702415,2.33316851 C200.496449,1.93686169 199.198864,1.73870829 197.809659,1.73870829 C195.551136,1.73870829 193.535511,2.27777079 191.762784,3.35589579 C189.990057,4.43402079 188.59233,5.97663442 187.569602,7.98373669 C186.546875,9.99083897 186.035511,12.3921174 186.035511,15.1875719 C186.035511,17.9745037 186.544744,20.3736515 187.56321,22.3850151 C188.581676,24.3963787 189.977273,25.9411231 191.75,27.0192481 C193.522727,28.0973731 195.542614,28.6364356 197.809659,28.6364356 Z M221.319602,28.6747878 C223.160511,28.6747878 224.767045,28.2529128 226.139205,27.4091628 C227.511364,26.5654128 228.576705,25.3850151 229.335227,23.8679696 C230.09375,22.3509242 230.473011,20.5781969 230.473011,18.5497878 C230.473011,16.512856 230.09375,14.731606 229.335227,13.2060378 C228.576705,11.6804696 227.511364,10.4958106 226.139205,9.65206056 C224.767045,8.80831056 223.160511,8.38643556 221.319602,8.38643556 C219.478693,8.38643556 217.872159,8.80831056 216.5,9.65206056 C215.127841,10.4958106 214.0625,11.6804696 213.303977,13.2060378 C212.545455,14.731606 212.166193,16.512856 212.166193,18.5497878 C212.166193,20.5781969 212.545455,22.3509242 213.303977,23.8679696 C214.0625,25.3850151 215.127841,26.5654128 216.5,27.4091628 C217.872159,28.2529128 219.478693,28.6747878 221.319602,28.6747878 Z M221.332386,25.465981 C220.130682,25.465981 219.135653,25.1506401 218.347301,24.5199583 C217.558949,23.8892765 216.975142,23.0497878 216.595881,22.0014924 C216.216619,20.9531969 216.026989,19.7983674 216.026989,18.5370037 C216.026989,17.2841628 216.216619,16.131464 216.595881,15.0789071 C216.975142,14.0263503 217.558949,13.1804696 218.347301,12.5412651 C219.135653,11.9020606 220.130682,11.5824583 221.332386,11.5824583 C222.525568,11.5824583 223.514205,11.9020606 224.298295,12.5412651 C225.082386,13.1804696 225.664063,14.0263503 226.043324,15.0789071 C226.422585,16.131464 226.612216,17.2841628 226.612216,18.5370037 C226.612216,19.7983674 226.422585,20.9531969 226.043324,22.0014924 C225.664063,23.0497878 225.082386,23.8892765 224.298295,24.5199583 C223.514205,25.1506401 222.525568,25.465981 221.332386,25.465981 Z M238.552557,28.278481 L238.552557,16.6193901 C238.552557,15.5796174 238.75071,14.6911231 239.147017,13.9539071 C239.543324,13.2166912 240.084517,12.6563219 240.770597,12.2727992 C241.456676,11.8892765 242.242898,11.6975151 243.129261,11.6975151 C244.424716,11.6975151 245.443182,12.100214 246.184659,12.9056117 C246.926136,13.7110094 247.296875,14.825356 247.296875,16.2486515 L247.296875,16.2486515 L247.296875,28.278481 L251.119318,28.278481 L251.119318,15.7884242 C251.119318,14.169106 250.84233,12.809731 250.288352,11.7102992 C249.734375,10.6108674 248.954545,9.78203215 247.948864,9.22379351 C246.943182,8.66555488 245.771307,8.38643556 244.433239,8.38643556 C242.958807,8.38643556 241.737926,8.70177647 240.770597,9.33245829 C239.803267,9.9631401 239.09375,10.7983674 238.642045,11.8381401 L238.642045,11.8381401 L238.399148,11.8381401 L238.399148,8.64211738 L234.730114,8.64211738 L234.730114,28.278481 L238.552557,28.278481 Z M261.346591,28.278481 L261.346,11.710481 L265.578125,11.7102992 L265.578125,8.64211738 L261.346,8.64248101 L261.346591,6.87791283 C261.346591,6.09552647 261.507095,5.47882192 261.828104,5.02779919 L261.941051,4.88359465 C262.337358,4.42336738 263,4.19325374 263.928977,4.19325374 C264.329545,4.19325374 264.670455,4.22947533 264.951705,4.30191851 C265.232955,4.37436169 265.463068,4.43615147 265.642045,4.48728783 L265.642045,4.48728783 L266.536932,1.39353783 C266.272727,1.2912651 265.867898,1.17833897 265.322443,1.05475942 C264.776989,0.931179876 264.120739,0.869390104 263.353693,0.869390104 C262.31392,0.869390104 261.350852,1.07180488 260.464489,1.47663442 C259.578125,1.88146397 258.866477,2.49083897 258.329545,3.30475942 C257.792614,4.11867988 257.524148,5.13927647 257.524148,6.36654919 L257.524148,6.36654919 L257.524,8.64248101 L254.481534,8.64211738 L254.481534,11.7102992 L257.524,11.710481 L257.524148,28.278481 L261.346591,28.278481 Z M271.446023,5.61228783 C272.110795,5.61228783 272.679688,5.38856624 273.152699,4.94112306 C273.62571,4.49367988 273.862216,3.95887874 273.862216,3.33671965 C273.862216,2.70603783 273.62571,2.16697533 273.152699,1.71953215 C272.679688,1.27208897 272.110795,1.04836738 271.446023,1.04836738 C270.78125,1.04836738 270.212358,1.27208897 269.739347,1.71953215 C269.266335,2.16697533 269.02983,2.70603783 269.02983,3.33671965 C269.02983,3.95887874 269.266335,4.49367988 269.739347,4.94112306 C270.212358,5.38856624 270.78125,5.61228783 271.446023,5.61228783 Z M273.338068,28.278481 L273.338068,8.64211738 L269.515625,8.64211738 L269.515625,28.278481 L273.338068,28.278481 Z M286.710227,36.012856 C288.380682,36.012856 289.882813,35.7529128 291.216619,35.2330265 C292.550426,34.7131401 293.609375,33.9141344 294.393466,32.8360094 C295.177557,31.7578844 295.569602,30.3835946 295.569602,28.7131401 L295.569602,28.7131401 L295.569602,8.64211738 L291.823864,8.64211738 L291.823864,11.825356 L291.542614,11.825356 C291.3125,11.4162651 290.986506,10.9432537 290.564631,10.4063219 C290.142756,9.8693901 289.556818,9.39850942 288.806818,8.99367988 C288.056818,8.58885033 287.072443,8.38643556 285.853693,8.38643556 C284.276989,8.38643556 282.866477,8.78487306 281.622159,9.58174806 C280.377841,10.3786231 279.399858,11.5227992 278.68821,13.0142765 C277.976563,14.5057537 277.620739,16.2955265 277.620739,18.3835946 C277.620739,20.4716628 277.980824,22.2294753 278.700994,23.6570321 C279.421165,25.084589 280.401278,26.162714 281.641335,26.8914071 C282.881392,27.6201003 284.276989,27.9844469 285.828125,27.9844469 C287.02983,27.9844469 288.005682,27.7969469 288.755682,27.4219469 C289.505682,27.0469469 290.095881,26.6037651 290.526278,26.0924015 C290.956676,25.5810378 291.286932,25.1165492 291.517045,24.6989356 L291.517045,24.6989356 L291.759943,24.6989356 L291.759943,28.559731 C291.759943,30.0767765 291.286932,31.184731 290.340909,31.8835946 C289.394886,32.5824583 288.197443,32.9318901 286.74858,32.9318901 C285.691761,32.9318901 284.828835,32.7827424 284.159801,32.4844469 C283.490767,32.1861515 282.962358,31.8281969 282.574574,31.4105833 C282.18679,30.9929696 281.877841,30.6051856 281.647727,30.247231 L281.647727,30.247231 L278.362216,31.6023446 C278.711648,32.3864356 279.240057,33.1129981 279.947443,33.7820321 C280.65483,34.4510662 281.568892,34.9901287 282.689631,35.3992196 C283.810369,35.8083106 285.150568,36.012856 286.710227,36.012856 Z M286.671875,24.8139924 C285.538352,24.8139924 284.585938,24.5412651 283.814631,23.9958106 C283.043324,23.450356 282.461648,22.6918333 282.069602,21.7202424 C281.677557,20.7486515 281.481534,19.6193901 281.481534,18.3324583 C281.481534,17.0796174 281.675426,15.9460946 282.06321,14.9318901 C282.450994,13.9176856 283.028409,13.1144185 283.795455,12.522089 C284.5625,11.9297594 285.521307,11.6335946 286.671875,11.6335946 C287.788352,11.6335946 288.725852,11.9169753 289.484375,12.4837367 C290.242898,13.0504981 290.818182,13.8367196 291.210227,14.8424015 C291.602273,15.8480833 291.798295,17.0114356 291.798295,18.3324583 C291.798295,19.6875719 291.600142,20.8487935 291.203835,21.8161231 C290.807528,22.7834526 290.227983,23.5249299 289.465199,24.0405549 C288.702415,24.5561799 287.771307,24.8139924 286.671875,24.8139924 Z M307.139205,28.5341628 C308.613636,28.5341628 309.847301,28.1868617 310.840199,27.4922594 C311.833097,26.7976571 312.555398,25.9262083 313.007102,24.8779128 L313.007102,24.8779128 L313.211648,24.8779128 L313.211648,28.278481 L316.97017,28.278481 L316.97017,8.64211738 L313.134943,8.64211738 L313.134943,20.1350151 C313.143466,21.2514924 312.911222,22.1719469 312.43821,22.8963787 C311.965199,23.6208106 311.372869,24.1620037 310.661222,24.5199583 C309.949574,24.8779128 309.235795,25.0568901 308.519886,25.0568901 C307.335227,25.0568901 306.372159,24.6605833 305.630682,23.8679696 C304.889205,23.075356 304.518466,22.0100151 304.518466,20.6719469 L304.518466,20.6719469 L304.518466,8.64211738 L300.696023,8.64211738 L300.696023,21.1321742 C300.696023,22.7514924 300.970881,24.1108674 301.520597,25.2102992 C302.070313,26.309731 302.828835,27.1385662 303.796165,27.6968049 C304.763494,28.2550435 305.877841,28.5341628 307.139205,28.5341628 Z M325.919034,28.278481 L325.919034,16.2870037 C325.919034,15.434731 326.12358,14.6740776 326.53267,14.0050435 C326.941761,13.3360094 327.497869,12.8118617 328.200994,12.4326003 C328.904119,12.053339 329.707386,11.8637083 330.610795,11.8637083 C331.002841,11.8637083 331.394886,11.8914071 331.786932,11.9468049 C332.178977,12.0022026 332.451705,12.0512083 332.605114,12.0938219 L332.605114,12.0938219 L332.605114,8.43757192 C332.417614,8.41200374 332.159801,8.39069692 331.831676,8.37365147 C331.503551,8.35660601 331.22017,8.34808329 330.981534,8.34808329 C329.830966,8.34808329 328.801847,8.65277079 327.894176,9.26214579 C326.986506,9.87152079 326.353693,10.7046174 325.995739,11.7614356 L325.995739,11.7614356 L325.791193,11.7614356 L325.791193,8.64211738 L322.096591,8.64211738 L322.096591,28.278481 L325.919034,28.278481 Z M341.643466,28.7131401 C342.725852,28.7131401 343.65483,28.5554696 344.430398,28.2401287 C345.205966,27.9247878 345.840909,27.528481 346.335227,27.0512083 C346.829545,26.5739356 347.200284,26.0881401 347.447443,25.5938219 L347.447443,25.5938219 L347.600852,25.5938219 L347.600852,28.278481 L351.333807,28.278481 L351.333807,15.2387083 C351.333807,13.8068901 351.086648,12.6414071 350.59233,11.7422594 C350.098011,10.8431117 349.465199,10.1506401 348.693892,9.66484465 C347.922585,9.17904919 347.095881,8.84453215 346.213778,8.66129351 C345.331676,8.47805488 344.49858,8.38643556 343.714489,8.38643556 C342.52983,8.38643556 341.400568,8.55475942 340.326705,8.89140715 C339.252841,9.22805488 338.304688,9.76498669 337.482244,10.5022026 C336.659801,11.2394185 336.035511,12.2046174 335.609375,13.3977992 L335.609375,13.3977992 L339.201705,14.215981 C339.482955,13.5256401 339.992188,12.897089 340.729403,12.3303276 C341.466619,11.7635662 342.478693,11.4801856 343.765625,11.4801856 C345.00142,11.4801856 345.932528,11.7870037 346.558949,12.4006401 C347.185369,13.0142765 347.49858,13.8793333 347.49858,14.9958106 L347.49858,14.9958106 L347.49858,15.0852992 C347.49858,15.5455265 347.332386,15.8779128 347,16.0824583 C346.667614,16.2870037 346.134943,16.4340208 345.401989,16.5235094 C344.669034,16.6129981 343.714489,16.7259242 342.538352,16.8622878 C341.609375,16.9730833 340.697443,17.1350151 339.802557,17.3480833 C338.90767,17.5611515 338.098011,17.8764924 337.37358,18.294106 C336.649148,18.7117196 336.073864,19.278481 335.647727,19.9943901 C335.221591,20.7102992 335.008523,21.622231 335.008523,22.7301856 C335.008523,24.0171174 335.300426,25.1037651 335.884233,25.9901287 C336.46804,26.8764924 337.262784,27.5519185 338.268466,28.0164071 C339.274148,28.4808958 340.399148,28.7131401 341.643466,28.7131401 Z M342.474432,25.6449583 C341.392045,25.6449583 340.50142,25.4041912 339.802557,24.9226571 C339.103693,24.4411231 338.754261,23.7273446 338.754261,22.7813219 C338.754261,22.0995037 338.935369,21.5519185 339.297585,21.1385662 C339.659801,20.725214 340.145597,20.4077424 340.754972,20.1861515 C341.364347,19.9645606 342.039773,19.8068901 342.78125,19.7131401 C343.096591,19.6705265 343.488636,19.6172594 343.957386,19.553339 C344.426136,19.4894185 344.90767,19.4169753 345.401989,19.3360094 C345.896307,19.2550435 346.337358,19.1570321 346.725142,19.0419753 C347.112926,18.9269185 347.375,18.8012083 347.511364,18.6648446 L347.511364,18.6648446 L347.511364,21.1960946 C347.511364,21.9716628 347.31321,22.6982253 346.916903,23.3757821 C346.520597,24.053339 345.945313,24.6009242 345.191051,25.0185378 C344.43679,25.4361515 343.53125,25.6449583 342.474432,25.6449583 Z M371.775568,28.278481 L371.775568,24.9546174 L361.190341,24.9546174 L361.190341,24.7756401 L371.417614,11.4290492 L371.417614,8.64211738 L356.357955,8.64211738 L356.357955,11.965981 L366.649148,11.965981 L366.649148,12.1449583 L356.012784,25.6577424 L356.012784,28.278481 L371.775568,28.278481 Z M378.205966,5.61228783 C378.870739,5.61228783 379.439631,5.38856624 379.912642,4.94112306 C380.385653,4.49367988 380.622159,3.95887874 380.622159,3.33671965 C380.622159,2.70603783 380.385653,2.16697533 379.912642,1.71953215 C379.439631,1.27208897 378.870739,1.04836738 378.205966,1.04836738 C377.541193,1.04836738 376.972301,1.27208897 376.49929,1.71953215 C376.026278,2.16697533 375.789773,2.70603783 375.789773,3.33671965 C375.789773,3.95887874 376.026278,4.49367988 376.49929,4.94112306 C376.972301,5.38856624 377.541193,5.61228783 378.205966,5.61228783 Z M380.098011,28.278481 L380.098011,8.64211738 L376.275568,8.64211738 L376.275568,28.278481 L380.098011,28.278481 Z M393.508523,28.6747878 C395.349432,28.6747878 396.955966,28.2529128 398.328125,27.4091628 C399.700284,26.5654128 400.765625,25.3850151 401.524148,23.8679696 C402.28267,22.3509242 402.661932,20.5781969 402.661932,18.5497878 C402.661932,16.512856 402.28267,14.731606 401.524148,13.2060378 C400.765625,11.6804696 399.700284,10.4958106 398.328125,9.65206056 C396.955966,8.80831056 395.349432,8.38643556 393.508523,8.38643556 C391.667614,8.38643556 390.06108,8.80831056 388.68892,9.65206056 C387.316761,10.4958106 386.25142,11.6804696 385.492898,13.2060378 C384.734375,14.731606 384.355114,16.512856 384.355114,18.5497878 C384.355114,20.5781969 384.734375,22.3509242 385.492898,23.8679696 C386.25142,25.3850151 387.316761,26.5654128 388.68892,27.4091628 C390.06108,28.2529128 391.667614,28.6747878 393.508523,28.6747878 Z M393.521307,25.465981 C392.319602,25.465981 391.324574,25.1506401 390.536222,24.5199583 C389.747869,23.8892765 389.164063,23.0497878 388.784801,22.0014924 C388.40554,20.9531969 388.215909,19.7983674 388.215909,18.5370037 C388.215909,17.2841628 388.40554,16.131464 388.784801,15.0789071 C389.164063,14.0263503 389.747869,13.1804696 390.536222,12.5412651 C391.324574,11.9020606 392.319602,11.5824583 393.521307,11.5824583 C394.714489,11.5824583 395.703125,11.9020606 396.487216,12.5412651 C397.271307,13.1804696 397.852983,14.0263503 398.232244,15.0789071 C398.611506,16.131464 398.801136,17.2841628 398.801136,18.5370037 C398.801136,19.7983674 398.611506,20.9531969 398.232244,22.0014924 C397.852983,23.0497878 397.271307,23.8892765 396.487216,24.5199583 C395.703125,25.1506401 394.714489,25.465981 393.521307,25.465981 Z M410.741477,28.278481 L410.741477,16.6193901 C410.741477,15.5796174 410.939631,14.6911231 411.335938,13.9539071 C411.732244,13.2166912 412.273438,12.6563219 412.959517,12.2727992 C413.645597,11.8892765 414.431818,11.6975151 415.318182,11.6975151 C416.613636,11.6975151 417.632102,12.100214 418.37358,12.9056117 C419.115057,13.7110094 419.485795,14.825356 419.485795,16.2486515 L419.485795,16.2486515 L419.485795,28.278481 L423.308239,28.278481 L423.308239,15.7884242 C423.308239,14.169106 423.03125,12.809731 422.477273,11.7102992 C421.923295,10.6108674 421.143466,9.78203215 420.137784,9.22379351 C419.132102,8.66555488 417.960227,8.38643556 416.622159,8.38643556 C415.147727,8.38643556 413.926847,8.70177647 412.959517,9.33245829 C411.992188,9.9631401 411.28267,10.7983674 410.830966,11.8381401 L410.830966,11.8381401 L410.588068,11.8381401 L410.588068,8.64211738 L406.919034,8.64211738 L406.919034,28.278481 L410.741477,28.278481 Z M436.884943,28.6747878 C438.316761,28.6747878 439.59304,28.4553276 440.713778,28.0164071 C441.834517,27.5774867 442.767756,26.959589 443.513494,26.162714 C444.259233,25.365839 444.776989,24.434731 445.066761,23.3693901 L445.066761,23.3693901 L441.448864,22.7174015 C441.21875,23.3310378 440.886364,23.8466628 440.451705,24.2642765 C440.017045,24.6818901 439.50142,24.9951003 438.90483,25.2039071 C438.308239,25.412714 437.647727,25.5171174 436.923295,25.5171174 C435.806818,25.5171174 434.830966,25.2763503 433.995739,24.7948162 C433.160511,24.3132821 432.510653,23.6122878 432.046165,22.6918333 C431.581676,21.7713787 431.349432,20.6549015 431.349432,19.3424015 L431.354,19.611481 L445.309659,19.6108674 L445.309659,18.2557537 C445.309659,16.4745037 445.071023,14.959589 444.59375,13.7110094 C444.116477,12.4624299 443.464489,11.4460946 442.637784,10.6620037 C441.81108,9.87791283 440.877841,9.30262874 439.838068,8.93615147 C438.798295,8.56967419 437.724432,8.38643556 436.616477,8.38643556 C434.792614,8.38643556 433.200994,8.81683329 431.841619,9.67762874 C430.482244,10.5384242 429.425426,11.7358674 428.671165,13.2699583 C427.916903,14.8040492 427.539773,16.5767765 427.539773,18.5881401 C427.539773,20.6250719 427.916903,22.3999299 428.671165,23.912714 C429.425426,25.4254981 430.49929,26.5973731 431.892756,27.428339 C433.286222,28.2593049 434.950284,28.6747878 436.884943,28.6747878 Z M431.381313,16.4621931 C431.455703,15.7241881 431.660275,15.0287178 431.995028,14.3757821 C432.425426,13.5362935 433.039063,12.8544753 433.835938,12.3303276 C434.632813,11.8061799 435.568182,11.544106 436.642045,11.544106 C437.630682,11.544106 438.493608,11.7699583 439.230824,12.2216628 C439.96804,12.6733674 440.541193,13.2891344 440.950284,14.068964 C441.359375,14.8487935 441.56392,15.7415492 441.56392,16.747231 L441.56392,16.747231 L431.36,16.747481 L431.381313,16.4621931 Z" id="Configurazione" fill="#FFFFFF" fill-rule="nonzero"></path>
                <g id="step-bar/check-icon+label" transform="translate(0.000000, 72.962025)">
                    <path d="M3.59446023,72.8227848 L5.459,67.4337848 L13.415,67.4337848 L15.2776989,72.8227848 L18.5390625,72.8227848 L11.2109375,52.4591484 L7.66122159,52.4591484 L0.333096591,72.8227848 L3.59446023,72.8227848 Z M12.522,64.8487848 L6.354,64.8487848 L9.36150568,56.1580121 L9.52059659,56.1580121 L12.522,64.8487848 Z M26.2450284,73.0216484 C27.3918087,73.0216484 28.3513258,72.7515253 29.1235795,72.2112791 C29.8958333,71.6710329 30.4576231,70.9932394 30.8089489,70.1778984 L30.8089489,70.1778984 L30.9680398,70.1778984 L30.9680398,72.8227848 L33.8913352,72.8227848 L33.8913352,57.5500575 L30.9083807,57.5500575 L30.9083807,66.488978 C30.9150095,67.3573492 30.734375,68.0732583 30.3664773,68.6367053 C29.9985795,69.2001522 29.5378788,69.6210803 28.984375,69.8994894 C28.4308712,70.1778984 27.8757102,70.317103 27.318892,70.317103 C26.3974905,70.317103 25.6484375,70.0088644 25.071733,69.3923871 C24.4950284,68.7759098 24.2066761,67.9473113 24.2066761,66.9065916 L24.2066761,66.9065916 L24.2066761,57.5500575 L21.2336648,57.5500575 L21.2336648,67.2645462 C21.2336648,68.5240159 21.4474432,69.5813075 21.875,70.4364212 C22.3025568,71.2915348 22.8925189,71.9361844 23.6448864,72.37037 C24.3972538,72.8045556 25.2639678,73.0216484 26.2450284,73.0216484 Z M43.3572443,73.0216484 C43.834517,73.0150197 44.2322443,72.9769041 44.5504261,72.9073019 C44.868608,72.8376996 45.1138731,72.7697545 45.2862216,72.7034666 L45.2862216,72.7034666 L44.7492898,70.2475007 C44.649858,70.2673871 44.5106534,70.2939022 44.3316761,70.3270462 C44.1526989,70.3601901 43.943892,70.3767621 43.7052557,70.3767621 C43.3804451,70.3767621 43.0804924,70.325389 42.8053977,70.2226428 C42.530303,70.1198966 42.3065814,69.9243473 42.134233,69.635995 C41.9618845,69.3476428 41.8757102,68.9151144 41.8757102,68.3384098 L41.8757102,68.3384098 L41.875,59.9367848 L45.0078125,59.9364212 L45.0078125,57.5500575 L41.875,57.5507848 L41.8757102,53.8909666 L38.9026989,53.8909666 L38.902,57.5507848 L36.665483,57.5500575 L36.665483,59.9364212 L38.902,59.9367848 L38.9026989,68.9548871 C38.9026989,69.7841484 39.0718324,70.4872308 39.4100994,71.0641342 L39.5291193,71.2517621 C39.946733,71.8616106 40.493608,72.3123681 41.1697443,72.6040348 C41.8458807,72.8957015 42.5750473,73.034906 43.3572443,73.0216484 Z M54.7223011,73.1310234 C56.1541193,73.1310234 57.4036458,72.8028984 58.4708807,72.1466484 C59.5381155,71.4903984 60.366714,70.5723113 60.9566761,69.3923871 C61.5466383,68.2124628 61.8416193,66.833675 61.8416193,65.2560234 C61.8416193,63.6717431 61.5466383,62.2863265 60.9566761,61.0997734 C60.366714,59.9132204 59.5381155,58.9918189 58.4708807,58.3355689 C57.4036458,57.6793189 56.1541193,57.3511939 54.7223011,57.3511939 C53.290483,57.3511939 52.0409564,57.6793189 50.9737216,58.3355689 C49.9064867,58.9918189 49.0778883,59.9132204 48.4879261,61.0997734 C47.897964,62.2863265 47.602983,63.6717431 47.602983,65.2560234 C47.602983,66.833675 47.897964,68.2124628 48.4879261,69.3923871 C49.0778883,70.5723113 49.9064867,71.4903984 50.9737216,72.1466484 C52.0409564,72.8028984 53.290483,73.1310234 54.7223011,73.1310234 Z M54.7322443,70.6352848 C53.7975852,70.6352848 53.0236742,70.3900197 52.4105114,69.8994894 C51.7973485,69.4089591 51.3432765,68.7560234 51.0482955,67.9406825 C50.7533144,67.1253416 50.6058239,66.2271409 50.6058239,65.2460803 C50.6058239,64.2716484 50.7533144,63.3751049 51.0482955,62.5564496 C51.3432765,61.7377943 51.7973485,61.0798871 52.4105114,60.582728 C53.0236742,60.0855689 53.7975852,59.8369894 54.7322443,59.8369894 C55.6602746,59.8369894 56.429214,60.0855689 57.0390625,60.582728 C57.648911,61.0798871 58.1013258,61.7377943 58.3963068,62.5564496 C58.6912879,63.3751049 58.8387784,64.2716484 58.8387784,65.2460803 C58.8387784,66.2271409 58.6912879,67.1253416 58.3963068,67.9406825 C58.1013258,68.7560234 57.648911,69.4089591 57.0390625,69.8994894 C56.429214,70.3900197 55.6602746,70.6352848 54.7322443,70.6352848 Z M72.6796875,72.8227848 L78.2180398,57.5500575 L75.0262784,57.5500575 L71.1683239,69.3028984 L71.009233,69.3028984 L67.1413352,57.5500575 L63.9495739,57.5500575 L69.4978693,72.8227848 L72.6796875,72.8227848 Z M85.4566761,73.160853 C86.2985322,73.160853 87.0210701,73.0382204 87.6242898,72.7929553 C88.2275095,72.5476901 88.7213542,72.2394515 89.1058239,71.8682394 C89.4902936,71.4970272 89.7786458,71.1191863 89.9708807,70.7347166 L89.9708807,70.7347166 L90.0901989,70.7347166 L90.0901989,72.8227848 L92.993608,72.8227848 L92.993608,62.6807394 C92.993608,61.567103 92.8013731,60.6606162 92.4169034,59.9612791 C92.0324337,59.261942 91.5402462,58.723353 90.9403409,58.3455121 C90.3404356,57.9676712 89.6974432,57.7074912 89.0113636,57.5649723 C88.3252841,57.4224534 87.6773201,57.3511939 87.0674716,57.3511939 C86.1460701,57.3511939 85.2677557,57.4821125 84.4325284,57.7439496 C83.5973011,58.0057867 82.8598485,58.4234003 82.2201705,58.9967905 C81.5804924,59.5701806 81.0949337,60.3208909 80.7634943,61.2489212 L80.7634943,61.2489212 L83.5575284,61.8852848 C83.7762784,61.348353 84.1723485,60.8594799 84.7457386,60.4186655 C85.3191288,59.9778511 86.1062973,59.7574439 87.1072443,59.7574439 C88.0684186,59.7574439 88.7926136,59.9960803 89.2798295,60.473353 C89.7670455,60.9506257 90.0106534,61.6234477 90.0106534,62.4918189 L90.0106534,62.4918189 L90.0106534,62.5614212 C90.0106534,62.9193757 89.881392,63.1778984 89.6228693,63.3369894 C89.3643466,63.4960803 88.9500473,63.6104269 88.3799716,63.6800291 C87.8098958,63.7496314 87.0674716,63.8374628 86.1526989,63.9435234 C85.430161,64.0296977 84.7208807,64.1556447 84.024858,64.3213644 C83.3288352,64.4870841 82.6991004,64.7323492 82.1356534,65.0571598 C81.5722064,65.3819704 81.1247633,65.8227848 80.7933239,66.379603 C80.4618845,66.9364212 80.2961648,67.6457015 80.2961648,68.5074439 C80.2961648,69.5083909 80.5232008,70.3535613 80.9772727,71.0429553 C81.4313447,71.7323492 82.0494792,72.2576806 82.8316761,72.6189496 C83.6138731,72.9802185 84.4888731,73.160853 85.4566761,73.160853 Z M86.102983,70.7744894 C85.2611269,70.7744894 84.5684186,70.5872261 84.024858,70.2126996 C83.4812973,69.8381731 83.209517,69.2830121 83.209517,68.5472166 C83.209517,68.0169136 83.3503788,67.591014 83.6321023,67.2695178 C83.9138258,66.9480216 84.2916667,66.7010992 84.765625,66.5287507 C85.2395833,66.3564022 85.7649148,66.2337697 86.3416193,66.160853 C86.5868845,66.1277091 86.8918087,66.0862791 87.256392,66.0365632 C87.6209754,65.9868473 87.9955019,65.9305026 88.3799716,65.8675291 C88.7644413,65.8045556 89.1074811,65.7283246 89.4090909,65.6388359 C89.7107008,65.5493473 89.914536,65.4515727 90.0205966,65.3455121 L90.0205966,65.3455121 L90.0205966,67.3142621 C90.0205966,67.9174818 89.8664773,68.4825859 89.5582386,69.0095746 C89.25,69.5365632 88.8025568,69.9624628 88.2159091,70.2872734 C87.6292614,70.6120841 86.9249527,70.7744894 86.102983,70.7744894 Z M99.9240057,72.8227848 L99.9240057,52.4591484 L96.9509943,52.4591484 L96.9509943,72.8227848 L99.9240057,72.8227848 Z M108.932528,73.0216484 C110.079309,73.0216484 111.038826,72.7515253 111.81108,72.2112791 C112.583333,71.6710329 113.145123,70.9932394 113.496449,70.1778984 L113.496449,70.1778984 L113.65554,70.1778984 L113.65554,72.8227848 L116.578835,72.8227848 L116.578835,57.5500575 L113.595881,57.5500575 L113.595881,66.488978 C113.602509,67.3573492 113.421875,68.0732583 113.053977,68.6367053 C112.68608,69.2001522 112.225379,69.6210803 111.671875,69.8994894 C111.118371,70.1778984 110.56321,70.317103 110.006392,70.317103 C109.084991,70.317103 108.335937,70.0088644 107.759233,69.3923871 C107.182528,68.7759098 106.894176,67.9473113 106.894176,66.9065916 L106.894176,66.9065916 L106.894176,57.5500575 L103.921165,57.5500575 L103.921165,67.2645462 C103.921165,68.5240159 104.134943,69.5813075 104.5625,70.4364212 C104.990057,71.2915348 105.580019,71.9361844 106.332386,72.37037 C107.084754,72.8045556 107.951468,73.0216484 108.932528,73.0216484 Z M126.044744,73.0216484 C126.522017,73.0150197 126.919744,72.9769041 127.237926,72.9073019 C127.556108,72.8376996 127.801373,72.7697545 127.973722,72.7034666 L127.973722,72.7034666 L127.43679,70.2475007 C127.337358,70.2673871 127.198153,70.2939022 127.019176,70.3270462 C126.840199,70.3601901 126.631392,70.3767621 126.392756,70.3767621 C126.067945,70.3767621 125.767992,70.325389 125.492898,70.2226428 C125.217803,70.1198966 124.994081,69.9243473 124.821733,69.635995 C124.649384,69.3476428 124.56321,68.9151144 124.56321,68.3384098 L124.56321,68.3384098 L124.563,59.9367848 L127.695312,59.9364212 L127.695312,57.5500575 L124.563,57.5507848 L124.56321,53.8909666 L121.590199,53.8909666 L121.59,57.5507848 L119.352983,57.5500575 L119.352983,59.9364212 L121.59,59.9367848 L121.590199,68.9548871 C121.590199,69.7841484 121.759332,70.4872308 122.097599,71.0641342 L122.216619,71.2517621 C122.634233,71.8616106 123.181108,72.3123681 123.857244,72.6040348 C124.533381,72.8957015 125.262547,73.034906 126.044744,73.0216484 Z M135.421165,73.160853 C136.263021,73.160853 136.985559,73.0382204 137.588778,72.7929553 C138.191998,72.5476901 138.685843,72.2394515 139.070312,71.8682394 C139.454782,71.4970272 139.743134,71.1191863 139.935369,70.7347166 L139.935369,70.7347166 L140.054687,70.7347166 L140.054687,72.8227848 L142.958097,72.8227848 L142.958097,62.6807394 C142.958097,61.567103 142.765862,60.6606162 142.381392,59.9612791 C141.996922,59.261942 141.504735,58.723353 140.90483,58.3455121 C140.304924,57.9676712 139.661932,57.7074912 138.975852,57.5649723 C138.289773,57.4224534 137.641809,57.3511939 137.03196,57.3511939 C136.110559,57.3511939 135.232244,57.4821125 134.397017,57.7439496 C133.56179,58.0057867 132.824337,58.4234003 132.184659,58.9967905 C131.544981,59.5701806 131.059422,60.3208909 130.727983,61.2489212 L130.727983,61.2489212 L133.522017,61.8852848 C133.740767,61.348353 134.136837,60.8594799 134.710227,60.4186655 C135.283617,59.9778511 136.070786,59.7574439 137.071733,59.7574439 C138.032907,59.7574439 138.757102,59.9960803 139.244318,60.473353 C139.731534,60.9506257 139.975142,61.6234477 139.975142,62.4918189 L139.975142,62.4918189 L139.975142,62.5614212 C139.975142,62.9193757 139.845881,63.1778984 139.587358,63.3369894 C139.328835,63.4960803 138.914536,63.6104269 138.34446,63.6800291 C137.774384,63.7496314 137.03196,63.8374628 136.117187,63.9435234 C135.39465,64.0296977 134.685369,64.1556447 133.989347,64.3213644 C133.293324,64.4870841 132.663589,64.7323492 132.100142,65.0571598 C131.536695,65.3819704 131.089252,65.8227848 130.757812,66.379603 C130.426373,66.9364212 130.260653,67.6457015 130.260653,68.5074439 C130.260653,69.5083909 130.487689,70.3535613 130.941761,71.0429553 C131.395833,71.7323492 132.013968,72.2576806 132.796165,72.6189496 C133.578362,72.9802185 134.453362,73.160853 135.421165,73.160853 Z M136.067472,70.7744894 C135.225616,70.7744894 134.532907,70.5872261 133.989347,70.2126996 C133.445786,69.8381731 133.174006,69.2830121 133.174006,68.5472166 C133.174006,68.0169136 133.314867,67.591014 133.596591,67.2695178 C133.878314,66.9480216 134.256155,66.7010992 134.730114,66.5287507 C135.204072,66.3564022 135.729403,66.2337697 136.306108,66.160853 C136.551373,66.1277091 136.856297,66.0862791 137.220881,66.0365632 C137.585464,65.9868473 137.959991,65.9305026 138.34446,65.8675291 C138.72893,65.8045556 139.07197,65.7283246 139.37358,65.6388359 C139.675189,65.5493473 139.879025,65.4515727 139.985085,65.3455121 L139.985085,65.3455121 L139.985085,67.3142621 C139.985085,67.9174818 139.830966,68.4825859 139.522727,69.0095746 C139.214489,69.5365632 138.767045,69.9624628 138.180398,70.2872734 C137.59375,70.6120841 136.889441,70.7744894 136.067472,70.7744894 Z M158.857244,72.8227848 L158.857244,70.2375575 L150.62429,70.2375575 L150.62429,70.098353 L158.578835,59.7176712 L158.578835,57.5500575 L146.865767,57.5500575 L146.865767,60.1352848 L154.870028,60.1352848 L154.870028,60.2744894 L146.597301,70.7844325 L146.597301,72.8227848 L158.857244,72.8227848 Z M163.858665,55.1935234 C164.37571,55.1935234 164.818182,55.0195178 165.18608,54.6715064 C165.553977,54.323495 165.737926,53.9075386 165.737926,53.4236371 C165.737926,52.9331068 165.553977,52.5138359 165.18608,52.1658246 C164.818182,51.8178132 164.37571,51.6438075 163.858665,51.6438075 C163.341619,51.6438075 162.899148,51.8178132 162.53125,52.1658246 C162.163352,52.5138359 161.979403,52.9331068 161.979403,53.4236371 C161.979403,53.9075386 162.163352,54.323495 162.53125,54.6715064 C162.899148,55.0195178 163.341619,55.1935234 163.858665,55.1935234 Z M165.330256,72.8227848 L165.330256,57.5500575 L162.357244,57.5500575 L162.357244,72.8227848 L165.330256,72.8227848 Z M175.760653,73.1310234 C177.192472,73.1310234 178.441998,72.8028984 179.509233,72.1466484 C180.576468,71.4903984 181.405066,70.5723113 181.995028,69.3923871 C182.584991,68.2124628 182.879972,66.833675 182.879972,65.2560234 C182.879972,63.6717431 182.584991,62.2863265 181.995028,61.0997734 C181.405066,59.9132204 180.576468,58.9918189 179.509233,58.3355689 C178.441998,57.6793189 177.192472,57.3511939 175.760653,57.3511939 C174.328835,57.3511939 173.079309,57.6793189 172.012074,58.3355689 C170.944839,58.9918189 170.116241,59.9132204 169.526278,61.0997734 C168.936316,62.2863265 168.641335,63.6717431 168.641335,65.2560234 C168.641335,66.833675 168.936316,68.2124628 169.526278,69.3923871 C170.116241,70.5723113 170.944839,71.4903984 172.012074,72.1466484 C173.079309,72.8028984 174.328835,73.1310234 175.760653,73.1310234 Z M175.770597,70.6352848 C174.835937,70.6352848 174.062027,70.3900197 173.448864,69.8994894 C172.835701,69.4089591 172.381629,68.7560234 172.086648,67.9406825 C171.791667,67.1253416 171.644176,66.2271409 171.644176,65.2460803 C171.644176,64.2716484 171.791667,63.3751049 172.086648,62.5564496 C172.381629,61.7377943 172.835701,61.0798871 173.448864,60.582728 C174.062027,60.0855689 174.835937,59.8369894 175.770597,59.8369894 C176.698627,59.8369894 177.467566,60.0855689 178.077415,60.582728 C178.687263,61.0798871 179.139678,61.7377943 179.434659,62.5564496 C179.72964,63.3751049 179.877131,64.2716484 179.877131,65.2460803 C179.877131,66.2271409 179.72964,67.1253416 179.434659,67.9406825 C179.139678,68.7560234 178.687263,69.4089591 178.077415,69.8994894 C177.467566,70.3900197 176.698627,70.6352848 175.770597,70.6352848 Z M189.164062,72.8227848 L189.164062,63.754603 C189.164062,62.9458909 189.318182,62.2548397 189.62642,61.6814496 C189.934659,61.1080594 190.355587,60.6722166 190.889205,60.3739212 C191.422822,60.0756257 192.034328,59.926478 192.723722,59.926478 C193.731297,59.926478 194.523437,60.2396882 195.100142,60.8661087 C195.676847,61.4925291 195.965199,62.3592431 195.965199,63.4662507 L195.965199,63.4662507 L195.965199,72.8227848 L198.93821,72.8227848 L198.93821,63.1082962 C198.93821,61.8488265 198.722775,60.7915348 198.291903,59.9364212 C197.861032,59.0813075 197.254498,58.4366579 196.472301,58.0024723 C195.690104,57.5682867 194.778646,57.3511939 193.737926,57.3511939 C192.591146,57.3511939 191.641572,57.5964591 190.889205,58.0869894 C190.136837,58.5775197 189.584991,59.2271409 189.233665,60.035853 L189.233665,60.035853 L189.044744,60.035853 L189.044744,57.5500575 L186.191051,57.5500575 L186.191051,72.8227848 L189.164062,72.8227848 Z M209.497869,73.1310234 C210.611506,73.1310234 211.604167,72.9603322 212.475852,72.6189496 C213.347538,72.277567 214.07339,71.7969799 214.653409,71.1771882 C215.233428,70.5573966 215.636127,69.8332015 215.861506,69.004603 L215.861506,69.004603 L213.047585,68.4975007 C212.868608,68.9747734 212.610085,69.3758151 212.272017,69.7006257 C211.933949,70.0254363 211.532907,70.2690443 211.068892,70.4314496 C210.604877,70.5938549 210.091146,70.6750575 209.527699,70.6750575 C208.659328,70.6750575 207.900331,70.4877943 207.25071,70.1132678 C206.601089,69.7387412 206.095644,69.1935234 205.734375,68.4776144 C205.373106,67.7617053 205.192472,66.8933341 205.192472,65.8725007 L205.196,66.0817848 L216.050426,66.0813075 L216.050426,65.0273303 C216.050426,63.6419136 215.86482,62.4636466 215.493608,61.4925291 C215.122396,60.5214117 214.615294,59.7309287 213.972301,59.1210803 C213.329309,58.5112318 212.603456,58.0637886 211.794744,57.7787507 C210.986032,57.4937128 210.150805,57.3511939 209.289062,57.3511939 C207.870502,57.3511939 206.632576,57.6859477 205.575284,58.3554553 C204.517992,59.0249628 203.696023,59.9563075 203.109375,61.1494894 C202.522727,62.3426712 202.229403,63.7214591 202.229403,65.285853 C202.229403,66.8701333 202.522727,68.2505784 203.109375,69.4271882 C203.696023,70.6037981 204.53125,71.5152564 205.615057,72.1615632 C206.698864,72.80787 207.993134,73.1310234 209.497869,73.1310234 Z M205.200317,63.8491409 C205.236931,63.194082 205.401693,62.5808932 205.694602,62.0095746 C206.029356,61.356639 206.506629,60.8263359 207.12642,60.4186655 C207.746212,60.010995 208.473722,59.8071598 209.308949,59.8071598 C210.077888,59.8071598 210.749053,59.9828227 211.322443,60.3341484 C211.895833,60.6854742 212.341619,61.1644041 212.659801,61.7709382 C212.977983,62.3774723 213.137074,63.0718378 213.137074,63.8540348 L213.137074,63.8540348 L205.2,63.8547848 L205.200317,63.8491409 Z" id="Autovalutazione" fill="#666666" fill-rule="nonzero"></path>
                    <g id="icon/misc/circle" transform="translate(91.500000, 0.000000)" fill="#FFFFFF">
                        <path d="M16.9915,0.037975 C26.384,0.037975 34,7.645475 34,17.037975 C34,26.430475 26.384,34.037975 16.9915,34.037975 C7.599,34.037975 0,26.430475 0,17.037975 C0,7.645475 7.599,0.037975 16.9915,0.037975 Z M24.463644,10.2932648 C24.1121866,9.95287841 23.5423033,9.95287841 23.1908459,10.2932648 L23.1908459,10.2932648 L14.7499978,18.4681894 L10.8091541,14.6515176 C10.4576967,14.3110972 9.88781337,14.3110972 9.53635599,14.6515176 L9.53635599,14.6515176 L8.26359303,15.8842222 C7.91213566,16.2246426 7.91213566,16.7765404 8.26359303,17.1169268 L8.26359303,17.1169268 L14.1135987,22.7826554 C14.4650561,23.1230758 15.0349043,23.1230758 15.3863969,22.7826895 L15.3863969,22.7826895 L25.736407,12.7586739 C26.0878643,12.4182535 26.0878643,11.8663557 25.736407,11.5259693 L25.736407,11.5259693 Z" id="Combined-Shape"></path>
                    </g>
                </g>
                <g id="step-bar/check-icon+label" transform="translate(274.000000, 75.962025)">
                    <path d="M3.48224432,69.8227848 L3.482,62.6637848 L7.65838068,62.6636939 C9.11467439,62.6636939 10.3436281,62.4165852 11.3452419,61.9223679 L11.5909091,61.7936655 C12.6349432,61.2136466 13.4171402,60.4248208 13.9375,59.4271882 C14.4578598,58.4295556 14.7180398,57.3043189 14.7180398,56.051478 C14.7180398,54.8052659 14.459517,53.6833435 13.9424716,52.6857109 C13.4254261,51.6880784 12.6465436,50.9009098 11.6058239,50.3242053 C10.5651042,49.7475007 9.25260417,49.4591484 7.66832386,49.4591484 L7.66832386,49.4591484 L0.409801136,49.4591484 L0.409801136,69.8227848 L3.48224432,69.8227848 Z M3.48224432,52.0940916 L7.34019886,52.0940916 C8.3610322,52.0940916 9.18465909,52.2631257 9.81107955,52.6011939 C10.4375,52.9392621 10.8965436,53.4065916 11.1882102,54.0031825 C11.4798769,54.5997734 11.6257102,55.2825386 11.6257102,56.051478 C11.6257102,56.8204174 11.4798769,57.5064969 11.1882102,58.1097166 C10.8965436,58.7129363 10.4391572,59.1885519 9.81605114,59.5365632 C9.19294508,59.8845746 8.38091856,60.0585803 7.37997159,60.0585803 L7.37997159,60.0585803 L3.482,60.0587848 L3.48224432,52.0940916 Z M21.0419034,69.8227848 L21.0419034,60.4960803 C21.0419034,59.8332015 21.2009943,59.2415822 21.5191761,58.7212223 C21.837358,58.2008625 22.2698864,57.793192 22.8167614,57.4982109 C23.3636364,57.2032299 23.9883996,57.0557394 24.6910511,57.0557394 C24.9959754,57.0557394 25.3008996,57.0772829 25.6058239,57.12037 C25.9107481,57.1634572 26.1228693,57.2015727 26.2421875,57.2347166 L26.2421875,57.2347166 L26.2421875,54.3909666 C26.0963542,54.3710803 25.8958333,54.3545083 25.640625,54.3412507 C25.3854167,54.3279931 25.1650095,54.3213644 24.9794034,54.3213644 C24.084517,54.3213644 23.2840909,54.5583435 22.578125,55.0323019 C21.8721591,55.5062602 21.3799716,56.1542242 21.1015625,56.9761939 L21.1015625,56.9761939 L20.9424716,56.9761939 L20.9424716,54.5500575 L18.068892,54.5500575 L18.068892,69.8227848 L21.0419034,69.8227848 Z M35.2606534,70.1310234 C36.6924716,70.1310234 37.9419981,69.8028984 39.009233,69.1466484 C40.0764678,68.4903984 40.9050663,67.5723113 41.4950284,66.3923871 C42.0849905,65.2124628 42.3799716,63.833675 42.3799716,62.2560234 C42.3799716,60.6717431 42.0849905,59.2863265 41.4950284,58.0997734 C40.9050663,56.9132204 40.0764678,55.9918189 39.009233,55.3355689 C37.9419981,54.6793189 36.6924716,54.3511939 35.2606534,54.3511939 C33.8288352,54.3511939 32.5793087,54.6793189 31.5120739,55.3355689 C30.444839,55.9918189 29.6162405,56.9132204 29.0262784,58.0997734 C28.4363163,59.2863265 28.1413352,60.6717431 28.1413352,62.2560234 C28.1413352,63.833675 28.4363163,65.2124628 29.0262784,66.3923871 C29.6162405,67.5723113 30.444839,68.4903984 31.5120739,69.1466484 C32.5793087,69.8028984 33.8288352,70.1310234 35.2606534,70.1310234 Z M35.2705966,67.6352848 C34.3359375,67.6352848 33.5620265,67.3900197 32.9488636,66.8994894 C32.3357008,66.4089591 31.8816288,65.7560234 31.5866477,64.9406825 C31.2916667,64.1253416 31.1441761,63.2271409 31.1441761,62.2460803 C31.1441761,61.2716484 31.2916667,60.3751049 31.5866477,59.5564496 C31.8816288,58.7377943 32.3357008,58.0798871 32.9488636,57.582728 C33.5620265,57.0855689 34.3359375,56.8369894 35.2705966,56.8369894 C36.1986269,56.8369894 36.9675663,57.0855689 37.5774148,57.582728 C38.1872633,58.0798871 38.639678,58.7377943 38.9346591,59.5564496 C39.2296402,60.3751049 39.3771307,61.2716484 39.3771307,62.2460803 C39.3771307,63.2271409 39.2296402,64.1253416 38.9346591,64.9406825 C38.639678,65.7560234 38.1872633,66.4089591 37.5774148,66.8994894 C36.9675663,67.3900197 36.1986269,67.6352848 35.2705966,67.6352848 Z M49.6683239,69.8227848 L49.668,56.9367848 L52.959517,56.9364212 L52.959517,54.5500575 L49.668,54.5507848 L49.6683239,53.1778984 C49.6683239,52.5768883 49.7900972,52.1015797 50.0336437,51.7519725 L50.1306818,51.6267621 C50.4389205,51.2688075 50.9543087,51.0898303 51.6768466,51.0898303 C51.9883996,51.0898303 52.2535511,51.1180026 52.4723011,51.1743473 C52.6910511,51.230692 52.8700284,51.2787507 53.009233,51.3185234 L53.009233,51.3185234 L53.7052557,48.9122734 C53.4997633,48.832728 53.1848958,48.7448966 52.7606534,48.6487791 C52.336411,48.5526617 51.8259943,48.504603 51.2294034,48.504603 C50.4206913,48.504603 49.6716383,48.6620367 48.9822443,48.9769041 C48.2928504,49.2917716 47.7393466,49.7657299 47.321733,50.3987791 C46.9041193,51.0318284 46.6953125,51.8256257 46.6953125,52.7801712 L46.6953125,52.7801712 L46.695,54.5507848 L44.3288352,54.5500575 L44.3288352,56.9364212 L46.695,56.9367848 L46.6953125,69.8227848 L49.6683239,69.8227848 Z M57.5234375,52.1935234 C58.040483,52.1935234 58.4829545,52.0195178 58.8508523,51.6715064 C59.21875,51.323495 59.4026989,50.9075386 59.4026989,50.4236371 C59.4026989,49.9331068 59.21875,49.5138359 58.8508523,49.1658246 C58.4829545,48.8178132 58.040483,48.6438075 57.5234375,48.6438075 C57.006392,48.6438075 56.5639205,48.8178132 56.1960227,49.1658246 C55.828125,49.5138359 55.6441761,49.9331068 55.6441761,50.4236371 C55.6441761,50.9075386 55.828125,51.323495 56.1960227,51.6715064 C56.5639205,52.0195178 57.006392,52.1935234 57.5234375,52.1935234 Z M58.9950284,69.8227848 L58.9950284,54.5500575 L56.022017,54.5500575 L56.022017,69.8227848 L58.9950284,69.8227848 Z M65.9651989,69.8227848 L65.9651989,49.4591484 L62.9921875,49.4591484 L62.9921875,69.8227848 L65.9651989,69.8227848 Z M76.3955966,70.1310234 C77.8274148,70.1310234 79.0769413,69.8028984 80.1441761,69.1466484 C81.211411,68.4903984 82.0400095,67.5723113 82.6299716,66.3923871 C83.2199337,65.2124628 83.5149148,63.833675 83.5149148,62.2560234 C83.5149148,60.6717431 83.2199337,59.2863265 82.6299716,58.0997734 C82.0400095,56.9132204 81.211411,55.9918189 80.1441761,55.3355689 C79.0769413,54.6793189 77.8274148,54.3511939 76.3955966,54.3511939 C74.9637784,54.3511939 73.7142519,54.6793189 72.647017,55.3355689 C71.5797822,55.9918189 70.7511837,56.9132204 70.1612216,58.0997734 C69.5712595,59.2863265 69.2762784,60.6717431 69.2762784,62.2560234 C69.2762784,63.833675 69.5712595,65.2124628 70.1612216,66.3923871 C70.7511837,67.5723113 71.5797822,68.4903984 72.647017,69.1466484 C73.7142519,69.8028984 74.9637784,70.1310234 76.3955966,70.1310234 Z M76.4055398,67.6352848 C75.4708807,67.6352848 74.6969697,67.3900197 74.0838068,66.8994894 C73.4706439,66.4089591 73.016572,65.7560234 72.7215909,64.9406825 C72.4266098,64.1253416 72.2791193,63.2271409 72.2791193,62.2460803 C72.2791193,61.2716484 72.4266098,60.3751049 72.7215909,59.5564496 C73.016572,58.7377943 73.4706439,58.0798871 74.0838068,57.582728 C74.6969697,57.0855689 75.4708807,56.8369894 76.4055398,56.8369894 C77.3335701,56.8369894 78.1025095,57.0855689 78.712358,57.582728 C79.3222064,58.0798871 79.7746212,58.7377943 80.0696023,59.5564496 C80.3645833,60.3751049 80.5120739,61.2716484 80.5120739,62.2460803 C80.5120739,63.2271409 80.3645833,64.1253416 80.0696023,64.9406825 C79.7746212,65.7560234 79.3222064,66.4089591 78.712358,66.8994894 C78.1025095,67.3900197 77.3335701,67.6352848 76.4055398,67.6352848 Z" id="Profilo" fill="#FFFFFF" fill-rule="nonzero"></path>
                    <g id="icon/misc/circle" transform="translate(27.500000, 0.000000)" stroke="#FFFFFF" stroke-opacity="0.99" stroke-width="6">
                        <path d="M13.9916667,0.37552741 C10.2216107,0.37552741 6.8129648,1.92397399 4.3456522,4.4237683 C1.8635942,6.9385021 0.33333331,10.4144225 0.33333331,14.2531646 C0.33333331,18.0919066 1.8635942,21.567827 4.3456522,24.0825608 C6.8129648,26.5823551 10.2216107,28.1308017 13.9916667,28.1308017 C17.7638909,28.1308017 21.1776987,26.5808702 23.6493301,24.0792032 C26.1333524,21.5649947 27.6666667,18.0905422 27.6666667,14.2531646 C27.6666667,10.415787 26.1333524,6.9413344 23.6493301,4.4271259 C21.1776987,1.92545891 17.7638909,0.37552741 13.9916667,0.37552741 Z" id="Path"></path>
                    </g>
                </g>
                <g id="step-bar/check-icon+label" transform="translate(462.000000, 75.962025)">
                    <path d="M9.7798295,70.1011939 C11.5364583,70.1011939 13.1058239,69.6819231 14.4879261,68.8433814 C15.8700284,68.0048397 16.9588068,66.8050291 17.7542614,65.2439496 C18.5497159,63.68287 18.9474432,61.8152091 18.9474432,59.6409666 C18.9474432,57.4667242 18.5497159,55.5990632 17.7542614,54.0379837 C16.9588068,52.4769041 15.8700284,51.2770935 14.4879261,50.4385519 C13.1058239,49.6000102 11.5364583,49.1807394 9.7798295,49.1807394 C8.01657197,49.1807394 6.44389205,49.6000102 5.06178977,50.4385519 C3.6796875,51.2770935 2.59090909,52.4769041 1.79545455,54.0379837 C1,55.5990632 0.60227273,57.4667242 0.60227273,59.6409666 C0.60227273,61.8085803 1,63.6745841 1.79545455,65.238978 C2.59090909,66.8033719 3.6796875,68.0048397 5.06178977,68.8433814 C6.44389205,69.6819231 8.01657197,70.1011939 9.7798295,70.1011939 Z M9.7798295,67.2972166 C8.60653409,67.2972166 7.55918561,67.0038928 6.63778409,66.417245 C5.71638258,65.8305973 4.98887311,64.9688549 4.45525568,63.8320178 C3.92163826,62.6951806 3.65482955,61.2981636 3.65482955,59.6409666 C3.65482955,57.9837697 3.92163826,56.5867526 4.45525568,55.4499155 C4.98887311,54.3130784 5.71638258,53.4513359 6.63778409,52.8646882 C7.55918561,52.2780405 8.60653409,51.9847166 9.7798295,51.9847166 C10.9464962,51.9847166 11.9921875,52.2780405 12.9169034,52.8646882 C13.8416193,53.4513359 14.570786,54.3130784 15.1044034,55.4499155 C15.6380208,56.5867526 15.9048295,57.9837697 15.9048295,59.6409666 C15.9048295,61.2981636 15.6380208,62.6951806 15.1044034,63.8320178 C14.570786,64.9688549 13.8416193,65.8305973 12.9169034,66.417245 C11.9921875,67.0038928 10.9464962,67.2972166 9.7798295,67.2972166 Z M30.3323864,70.1210803 C31.5653409,70.1210803 32.6624053,69.8045556 33.6235795,69.1715064 C34.5847538,68.5384572 35.3404356,67.6336276 35.890625,66.4570178 C36.4408144,65.2804079 36.7159091,63.8668189 36.7159091,62.2162507 C36.7159091,60.5656825 36.4391572,59.1537507 35.8856534,57.9804553 C35.3321496,56.8071598 34.5714962,55.9089591 33.6036932,55.285853 C32.6358902,54.6627469 31.5355114,54.3511939 30.3025568,54.3511939 C29.3546402,54.3511939 28.5923295,54.5086276 28.015625,54.823495 C27.4389205,55.1383625 26.9881629,55.504603 26.6633523,55.9222166 C26.3385417,56.3398303 26.0899621,56.707728 25.9176136,57.0259098 L25.9176136,57.0259098 L25.7386364,57.0259098 L25.7386364,49.4591484 L22.765625,49.4591484 L22.765625,69.8227848 L25.6690341,69.8227848 L25.6690341,67.4463644 L25.9176136,67.4463644 C26.0965909,67.771175 26.3517992,68.1423871 26.6832386,68.5600007 C27.014678,68.9776144 27.4737216,69.3421977 28.0603693,69.6537507 C28.647017,69.9653037 29.4043561,70.1210803 30.3323864,70.1210803 Z M29.6661932,67.5855689 C28.8110795,67.5855689 28.0885417,67.3585329 27.4985795,66.9044609 C26.9086174,66.450389 26.4578598,65.8189969 26.1463068,65.0102848 C25.8347538,64.2015727 25.6789773,63.2602848 25.6789773,62.1864212 C25.6789773,61.1258151 25.8314394,60.1977848 26.1363636,59.4023303 C26.4412879,58.6068757 26.8903883,57.9870841 27.4836648,57.5429553 C28.0769413,57.0988265 28.8044508,56.8767621 29.6661932,56.8767621 C30.5610795,56.8767621 31.3084754,57.1087697 31.9083807,57.5727848 C32.508286,58.0368 32.9590436,58.6698492 33.2606534,59.4719325 C33.5622633,60.2740159 33.7130682,61.1788454 33.7130682,62.1864212 C33.7130682,63.2072545 33.5589489,64.1253416 33.2507102,64.9406825 C32.9424716,65.7560234 32.4900568,66.4006731 31.8934659,66.8746314 C31.296875,67.3485897 30.5544508,67.5855689 29.6661932,67.5855689 Z M41.5482955,52.1935234 C42.0653409,52.1935234 42.5078125,52.0195178 42.8757102,51.6715064 C43.243608,51.323495 43.4275568,50.9075386 43.4275568,50.4236371 C43.4275568,49.9331068 43.243608,49.5138359 42.8757102,49.1658246 C42.5078125,48.8178132 42.0653409,48.6438075 41.5482955,48.6438075 C41.03125,48.6438075 40.5887784,48.8178132 40.2208807,49.1658246 C39.852983,49.5138359 39.6690341,49.9331068 39.6690341,50.4236371 C39.6690341,50.9075386 39.852983,51.323495 40.2208807,51.6715064 C40.5887784,52.0195178 41.03125,52.1935234 41.5482955,52.1935234 Z M43.0198864,69.8227848 L43.0198864,54.5500575 L40.046875,54.5500575 L40.046875,69.8227848 L43.0198864,69.8227848 Z M53.5994318,70.1310234 C54.7130682,70.1310234 55.7057292,69.9603322 56.5774148,69.6189496 C57.4491004,69.277567 58.1749527,68.7969799 58.7549716,68.1771882 C59.3349905,67.5573966 59.7376894,66.8332015 59.9630682,66.004603 L59.9630682,66.004603 L57.1491477,65.4975007 C56.9701705,65.9747734 56.7116477,66.3758151 56.3735795,66.7006257 C56.0355114,67.0254363 55.6344697,67.2690443 55.1704545,67.4314496 C54.7064394,67.5938549 54.1927083,67.6750575 53.6292614,67.6750575 C52.7608902,67.6750575 52.0018939,67.4877943 51.3522727,67.1132678 C50.7026515,66.7387412 50.1972064,66.1935234 49.8359375,65.4776144 C49.4746686,64.7617053 49.2940341,63.8933341 49.2940341,62.8725007 L49.298,63.0817848 L60.1519886,63.0813075 L60.1519886,62.0273303 C60.1519886,60.6419136 59.9663826,59.4636466 59.5951705,58.4925291 C59.2239583,57.5214117 58.7168561,56.7309287 58.0738636,56.1210803 C57.4308712,55.5112318 56.7050189,55.0637886 55.8963068,54.7787507 C55.0875947,54.4937128 54.2523674,54.3511939 53.390625,54.3511939 C51.9720644,54.3511939 50.7341383,54.6859477 49.6768466,55.3554553 C48.6195549,56.0249628 47.7975852,56.9563075 47.2109375,58.1494894 C46.6242898,59.3426712 46.3309659,60.7214591 46.3309659,62.285853 C46.3309659,63.8701333 46.6242898,65.2505784 47.2109375,66.4271882 C47.7975852,67.6037981 48.6328125,68.5152564 49.7166193,69.1615632 C50.8004261,69.80787 52.094697,70.1310234 53.5994318,70.1310234 Z M49.3018799,60.8491409 C49.3384936,60.194082 49.5032552,59.5808932 49.7961648,59.0095746 C50.1309186,58.356639 50.6081913,57.8263359 51.227983,57.4186655 C51.8477746,57.010995 52.5752841,56.8071598 53.4105114,56.8071598 C54.1794508,56.8071598 54.8506155,56.9828227 55.4240057,57.3341484 C55.9973958,57.6854742 56.4431818,58.1644041 56.7613636,58.7709382 C57.0795455,59.3774723 57.2386364,60.0718378 57.2386364,60.8540348 L57.2386364,60.8540348 L49.301,60.8547848 L49.3018799,60.8491409 Z M68.9417614,70.0216484 C69.4190341,70.0150197 69.8167614,69.9769041 70.1349432,69.9073019 C70.453125,69.8376996 70.6983902,69.7697545 70.8707386,69.7034666 L70.8707386,69.7034666 L70.3338068,67.2475007 C70.234375,67.2673871 70.0951705,67.2939022 69.9161932,67.3270462 C69.7372159,67.3601901 69.5284091,67.3767621 69.2897727,67.3767621 C68.9649621,67.3767621 68.6650095,67.325389 68.3899148,67.2226428 C68.1148201,67.1198966 67.8910985,66.9243473 67.71875,66.635995 C67.5464015,66.3476428 67.4602273,65.9151144 67.4602273,65.3384098 L67.4602273,65.3384098 L67.46,56.9367848 L70.5923295,56.9364212 L70.5923295,54.5500575 L67.46,54.5507848 L67.4602273,50.8909666 L64.4872159,50.8909666 L64.487,54.5507848 L62.25,54.5500575 L62.25,56.9364212 L64.487,56.9367848 L64.4872159,65.9548871 C64.4872159,66.7841484 64.6563494,67.4872308 64.9946165,68.0641342 L65.1136364,68.2517621 C65.53125,68.8616106 66.078125,69.3123681 66.7542614,69.6040348 C67.4303977,69.8957015 68.1595644,70.034906 68.9417614,70.0216484 Z M79.3522727,70.0216484 C79.8295455,70.0150197 80.2272727,69.9769041 80.5454545,69.9073019 C80.8636364,69.8376996 81.1089015,69.7697545 81.28125,69.7034666 L81.28125,69.7034666 L80.7443182,67.2475007 C80.6448864,67.2673871 80.5056818,67.2939022 80.3267045,67.3270462 C80.1477273,67.3601901 79.9389205,67.3767621 79.7002841,67.3767621 C79.3754735,67.3767621 79.0755208,67.325389 78.8004261,67.2226428 C78.5253314,67.1198966 78.3016098,66.9243473 78.1292614,66.635995 C77.9569129,66.3476428 77.8707386,65.9151144 77.8707386,65.3384098 L77.8707386,65.3384098 L77.87,56.9367848 L81.0028409,56.9364212 L81.0028409,54.5500575 L77.87,54.5507848 L77.8707386,50.8909666 L74.8977273,50.8909666 L74.897,54.5507848 L72.6605114,54.5500575 L72.6605114,56.9364212 L74.897,56.9367848 L74.8977273,65.9548871 C74.8977273,66.7841484 75.0668608,67.4872308 75.4051278,68.0641342 L75.5241477,68.2517621 C75.9417614,68.8616106 76.4886364,69.3123681 77.1647727,69.6040348 C77.8409091,69.8957015 78.5700758,70.034906 79.3522727,70.0216484 Z M85.7855114,52.1935234 C86.3025568,52.1935234 86.7450284,52.0195178 87.1129261,51.6715064 C87.4808239,51.323495 87.6647727,50.9075386 87.6647727,50.4236371 C87.6647727,49.9331068 87.4808239,49.5138359 87.1129261,49.1658246 C86.7450284,48.8178132 86.3025568,48.6438075 85.7855114,48.6438075 C85.2684659,48.6438075 84.8259943,48.8178132 84.4580966,49.1658246 C84.0901989,49.5138359 83.90625,49.9331068 83.90625,50.4236371 C83.90625,50.9075386 84.0901989,51.323495 84.4580966,51.6715064 C84.8259943,52.0195178 85.2684659,52.1935234 85.7855114,52.1935234 Z M87.2571023,69.8227848 L87.2571023,54.5500575 L84.2840909,54.5500575 L84.2840909,69.8227848 L87.2571023,69.8227848 Z M98.78125,69.8227848 L104.319602,54.5500575 L101.127841,54.5500575 L97.2698864,66.3028984 L97.1107955,66.3028984 L93.2428977,54.5500575 L90.0511364,54.5500575 L95.5994318,69.8227848 L98.78125,69.8227848 Z M113.546875,70.1310234 C114.978693,70.1310234 116.22822,69.8028984 117.295455,69.1466484 C118.362689,68.4903984 119.191288,67.5723113 119.78125,66.3923871 C120.371212,65.2124628 120.666193,63.833675 120.666193,62.2560234 C120.666193,60.6717431 120.371212,59.2863265 119.78125,58.0997734 C119.191288,56.9132204 118.362689,55.9918189 117.295455,55.3355689 C116.22822,54.6793189 114.978693,54.3511939 113.546875,54.3511939 C112.115057,54.3511939 110.86553,54.6793189 109.798295,55.3355689 C108.731061,55.9918189 107.902462,56.9132204 107.3125,58.0997734 C106.722538,59.2863265 106.427557,60.6717431 106.427557,62.2560234 C106.427557,63.833675 106.722538,65.2124628 107.3125,66.3923871 C107.902462,67.5723113 108.731061,68.4903984 109.798295,69.1466484 C110.86553,69.8028984 112.115057,70.1310234 113.546875,70.1310234 Z M113.556818,67.6352848 C112.622159,67.6352848 111.848248,67.3900197 111.235085,66.8994894 C110.621922,66.4089591 110.16785,65.7560234 109.872869,64.9406825 C109.577888,64.1253416 109.430398,63.2271409 109.430398,62.2460803 C109.430398,61.2716484 109.577888,60.3751049 109.872869,59.5564496 C110.16785,58.7377943 110.621922,58.0798871 111.235085,57.582728 C111.848248,57.0855689 112.622159,56.8369894 113.556818,56.8369894 C114.484848,56.8369894 115.253788,57.0855689 115.863636,57.582728 C116.473485,58.0798871 116.9259,58.7377943 117.220881,59.5564496 C117.515862,60.3751049 117.663352,61.2716484 117.663352,62.2460803 C117.663352,63.2271409 117.515862,64.1253416 117.220881,64.9406825 C116.9259,65.7560234 116.473485,66.4089591 115.863636,66.8994894 C115.253788,67.3900197 114.484848,67.6352848 113.556818,67.6352848 Z" id="Obiettivo" fill="#FFFFFF" fill-rule="nonzero" opacity="0.4"></path>
                    <g id="icon/misc/circle" transform="translate(46.500000, 0.000000)" stroke="#FFFFFF" stroke-opacity="0.25" stroke-width="6">
                        <path d="M13.9916667,0.37552741 C10.2216107,0.37552741 6.8129648,1.92397399 4.3456522,4.4237683 C1.8635942,6.9385021 0.33333331,10.4144225 0.33333331,14.2531646 C0.33333331,18.0919066 1.8635942,21.567827 4.3456522,24.0825608 C6.8129648,26.5823551 10.2216107,28.1308017 13.9916667,28.1308017 C17.7638909,28.1308017 21.1776987,26.5808702 23.6493301,24.0792032 C26.1333524,21.5649947 27.6666667,18.0905422 27.6666667,14.2531646 C27.6666667,10.415787 26.1333524,6.9413344 23.6493301,4.4271259 C21.1776987,1.92545891 17.7638909,0.37552741 13.9916667,0.37552741 Z" id="Path"></path>
                    </g>
                </g>
                <line x1="132" y1="90.721519" x2="292" y2="90.721519" id="Line" stroke="#FFFFFF" stroke-width="6"></line>
                <line x1="339" y1="90.721519" x2="499" y2="90.721519" id="Line" stroke-opacity="0.25" stroke="#FFFFFF" stroke-width="6"></line>
            </g>
        </g>
    </g>
</svg>