<?xml version="1.0" encoding="UTF-8"?>
<svg width="760px" height="160px" viewBox="0 0 760 160" version="1.1" xmlns="http://www.w3.org/2000/svg" xmlns:xlink="http://www.w3.org/1999/xlink">
    <!-- Generator: Sketch 64 (93537) - https://sketch.com -->
    <title>autovalutazione-step1</title>
    <desc>Created with Sketch.</desc>
    <g id="Page-1" stroke="none" stroke-width="1" fill="none" fill-rule="evenodd">
        <g id="MPG/Autovalutazione-iniziamo" transform="translate(-700.000000, -278.000000)">
            <g id="autovalutazione-step1" transform="translate(700.000000, 278.000000)">
                <rect id="Rectangle" fill="#000000" fill-rule="nonzero" x="0" y="0" width="760" height="160"></rect>
                <g id="step-bar/configurazione" transform="translate(63.500000, 0.000000)">
                    <path d="M198.809659,35.6364356 C200.25,35.6364356 201.579545,35.4233674 202.798295,34.997231 C204.017045,34.5710946 205.101562,33.9681117 206.051847,33.1882821 C207.002131,32.4084526 207.78196,31.4794753 208.391335,30.4013503 C209.00071,29.3232253 209.411932,28.1406969 209.625,26.8537651 L209.625,26.8537651 L205.636364,26.840981 C205.474432,27.6762083 205.182528,28.4155549 204.760653,29.0590208 C204.338778,29.7024867 203.825284,30.2458106 203.22017,30.6889924 C202.615057,31.1321742 201.939631,31.4666912 201.193892,31.6925435 C200.448153,31.9183958 199.661932,32.0313219 198.835227,32.0313219 C197.34375,32.0313219 196.00142,31.6563219 194.808239,30.9063219 C193.615057,30.1563219 192.675426,29.0483674 191.989347,27.5824583 C191.303267,26.1165492 190.960227,24.3182537 190.960227,22.1875719 C190.960227,20.0739356 191.303267,18.2841628 191.989347,16.8182537 C192.675426,15.3523446 193.612926,14.2401287 194.801847,13.481606 C195.990767,12.7230833 197.339489,12.3438219 198.848011,12.3438219 C199.683239,12.3438219 200.473722,12.4588787 201.21946,12.6889924 C201.965199,12.919106 202.640625,13.2600151 203.245739,13.7117196 C203.850852,14.1634242 204.362216,14.7131401 204.77983,15.3608674 C205.197443,16.0085946 205.482955,16.7585946 205.636364,17.6108674 L205.636364,17.6108674 L209.625,17.6108674 C209.403409,16.2046174 208.977273,14.9539071 208.346591,13.8587367 C207.715909,12.7635662 206.919034,11.834589 205.955966,11.0718049 C204.992898,10.3090208 203.908381,9.72947533 202.702415,9.33316851 C201.496449,8.93686169 200.198864,8.73870829 198.809659,8.73870829 C196.551136,8.73870829 194.535511,9.27777079 192.762784,10.3558958 C190.990057,11.4340208 189.59233,12.9766344 188.569602,14.9837367 C187.546875,16.990839 187.035511,19.3921174 187.035511,22.1875719 C187.035511,24.9745037 187.544744,27.3736515 188.56321,29.3850151 C189.581676,31.3963787 190.977273,32.9411231 192.75,34.0192481 C194.522727,35.0973731 196.542614,35.6364356 198.809659,35.6364356 Z M222.319602,35.6747878 C224.160511,35.6747878 225.767045,35.2529128 227.139205,34.4091628 C228.511364,33.5654128 229.576705,32.3850151 230.335227,30.8679696 C231.09375,29.3509242 231.473011,27.5781969 231.473011,25.5497878 C231.473011,23.512856 231.09375,21.731606 230.335227,20.2060378 C229.576705,18.6804696 228.511364,17.4958106 227.139205,16.6520606 C225.767045,15.8083106 224.160511,15.3864356 222.319602,15.3864356 C220.478693,15.3864356 218.872159,15.8083106 217.5,16.6520606 C216.127841,17.4958106 215.0625,18.6804696 214.303977,20.2060378 C213.545455,21.731606 213.166193,23.512856 213.166193,25.5497878 C213.166193,27.5781969 213.545455,29.3509242 214.303977,30.8679696 C215.0625,32.3850151 216.127841,33.5654128 217.5,34.4091628 C218.872159,35.2529128 220.478693,35.6747878 222.319602,35.6747878 Z M222.332386,32.465981 C221.130682,32.465981 220.135653,32.1506401 219.347301,31.5199583 C218.558949,30.8892765 217.975142,30.0497878 217.595881,29.0014924 C217.216619,27.9531969 217.026989,26.7983674 217.026989,25.5370037 C217.026989,24.2841628 217.216619,23.131464 217.595881,22.0789071 C217.975142,21.0263503 218.558949,20.1804696 219.347301,19.5412651 C220.135653,18.9020606 221.130682,18.5824583 222.332386,18.5824583 C223.525568,18.5824583 224.514205,18.9020606 225.298295,19.5412651 C226.082386,20.1804696 226.664062,21.0263503 227.043324,22.0789071 C227.422585,23.131464 227.612216,24.2841628 227.612216,25.5370037 C227.612216,26.7983674 227.422585,27.9531969 227.043324,29.0014924 C226.664062,30.0497878 226.082386,30.8892765 225.298295,31.5199583 C224.514205,32.1506401 223.525568,32.465981 222.332386,32.465981 Z M239.552557,35.278481 L239.552557,23.6193901 C239.552557,22.5796174 239.75071,21.6911231 240.147017,20.9539071 C240.543324,20.2166912 241.084517,19.6563219 241.770597,19.2727992 C242.456676,18.8892765 243.242898,18.6975151 244.129261,18.6975151 C245.424716,18.6975151 246.443182,19.100214 247.184659,19.9056117 C247.926136,20.7110094 248.296875,21.825356 248.296875,23.2486515 L248.296875,23.2486515 L248.296875,35.278481 L252.119318,35.278481 L252.119318,22.7884242 C252.119318,21.169106 251.84233,19.809731 251.288352,18.7102992 C250.734375,17.6108674 249.954545,16.7820321 248.948864,16.2237935 C247.943182,15.6655549 246.771307,15.3864356 245.433239,15.3864356 C243.958807,15.3864356 242.737926,15.7017765 241.770597,16.3324583 C240.803267,16.9631401 240.09375,17.7983674 239.642045,18.8381401 L239.642045,18.8381401 L239.399148,18.8381401 L239.399148,15.6421174 L235.730114,15.6421174 L235.730114,35.278481 L239.552557,35.278481 Z M262.346591,35.278481 L262.346,18.710481 L266.578125,18.7102992 L266.578125,15.6421174 L262.346,15.642481 L262.346591,13.8779128 C262.346591,13.0955265 262.507095,12.4788219 262.828104,12.0277992 L262.941051,11.8835946 C263.337358,11.4233674 264,11.1932537 264.928977,11.1932537 C265.329545,11.1932537 265.670455,11.2294753 265.951705,11.3019185 C266.232955,11.3743617 266.463068,11.4361515 266.642045,11.4872878 L266.642045,11.4872878 L267.536932,8.39353783 C267.272727,8.2912651 266.867898,8.17833897 266.322443,8.05475942 C265.776989,7.93117988 265.120739,7.8693901 264.353693,7.8693901 C263.31392,7.8693901 262.350852,8.07180488 261.464489,8.47663442 C260.578125,8.88146397 259.866477,9.49083897 259.329545,10.3047594 C258.792614,11.1186799 258.524148,12.1392765 258.524148,13.3665492 L258.524148,13.3665492 L258.524,15.642481 L255.481534,15.6421174 L255.481534,18.7102992 L258.524,18.710481 L258.524148,35.278481 L262.346591,35.278481 Z M272.446023,12.6122878 C273.110795,12.6122878 273.679688,12.3885662 274.152699,11.9411231 C274.62571,11.4936799 274.862216,10.9588787 274.862216,10.3367196 C274.862216,9.70603783 274.62571,9.16697533 274.152699,8.71953215 C273.679688,8.27208897 273.110795,8.04836738 272.446023,8.04836738 C271.78125,8.04836738 271.212358,8.27208897 270.739347,8.71953215 C270.266335,9.16697533 270.02983,9.70603783 270.02983,10.3367196 C270.02983,10.9588787 270.266335,11.4936799 270.739347,11.9411231 C271.212358,12.3885662 271.78125,12.6122878 272.446023,12.6122878 Z M274.338068,35.278481 L274.338068,15.6421174 L270.515625,15.6421174 L270.515625,35.278481 L274.338068,35.278481 Z M287.710227,43.012856 C289.380682,43.012856 290.882812,42.7529128 292.216619,42.2330265 C293.550426,41.7131401 294.609375,40.9141344 295.393466,39.8360094 C296.177557,38.7578844 296.569602,37.3835946 296.569602,35.7131401 L296.569602,35.7131401 L296.569602,15.6421174 L292.823864,15.6421174 L292.823864,18.825356 L292.542614,18.825356 C292.3125,18.4162651 291.986506,17.9432537 291.564631,17.4063219 C291.142756,16.8693901 290.556818,16.3985094 289.806818,15.9936799 C289.056818,15.5888503 288.072443,15.3864356 286.853693,15.3864356 C285.276989,15.3864356 283.866477,15.7848731 282.622159,16.5817481 C281.377841,17.3786231 280.399858,18.5227992 279.68821,20.0142765 C278.976562,21.5057537 278.620739,23.2955265 278.620739,25.3835946 C278.620739,27.4716628 278.980824,29.2294753 279.700994,30.6570321 C280.421165,32.084589 281.401278,33.162714 282.641335,33.8914071 C283.881392,34.6201003 285.276989,34.9844469 286.828125,34.9844469 C288.02983,34.9844469 289.005682,34.7969469 289.755682,34.4219469 C290.505682,34.0469469 291.095881,33.6037651 291.526278,33.0924015 C291.956676,32.5810378 292.286932,32.1165492 292.517045,31.6989356 L292.517045,31.6989356 L292.759943,31.6989356 L292.759943,35.559731 C292.759943,37.0767765 292.286932,38.184731 291.340909,38.8835946 C290.394886,39.5824583 289.197443,39.9318901 287.74858,39.9318901 C286.691761,39.9318901 285.828835,39.7827424 285.159801,39.4844469 C284.490767,39.1861515 283.962358,38.8281969 283.574574,38.4105833 C283.18679,37.9929696 282.877841,37.6051856 282.647727,37.247231 L282.647727,37.247231 L279.362216,38.6023446 C279.711648,39.3864356 280.240057,40.1129981 280.947443,40.7820321 C281.65483,41.4510662 282.568892,41.9901287 283.689631,42.3992196 C284.810369,42.8083106 286.150568,43.012856 287.710227,43.012856 Z M287.671875,31.8139924 C286.538352,31.8139924 285.585938,31.5412651 284.814631,30.9958106 C284.043324,30.450356 283.461648,29.6918333 283.069602,28.7202424 C282.677557,27.7486515 282.481534,26.6193901 282.481534,25.3324583 C282.481534,24.0796174 282.675426,22.9460946 283.06321,21.9318901 C283.450994,20.9176856 284.028409,20.1144185 284.795455,19.522089 C285.5625,18.9297594 286.521307,18.6335946 287.671875,18.6335946 C288.788352,18.6335946 289.725852,18.9169753 290.484375,19.4837367 C291.242898,20.0504981 291.818182,20.8367196 292.210227,21.8424015 C292.602273,22.8480833 292.798295,24.0114356 292.798295,25.3324583 C292.798295,26.6875719 292.600142,27.8487935 292.203835,28.8161231 C291.807528,29.7834526 291.227983,30.5249299 290.465199,31.0405549 C289.702415,31.5561799 288.771307,31.8139924 287.671875,31.8139924 Z M308.139205,35.5341628 C309.613636,35.5341628 310.847301,35.1868617 311.840199,34.4922594 C312.833097,33.7976571 313.555398,32.9262083 314.007102,31.8779128 L314.007102,31.8779128 L314.211648,31.8779128 L314.211648,35.278481 L317.97017,35.278481 L317.97017,15.6421174 L314.134943,15.6421174 L314.134943,27.1350151 C314.143466,28.2514924 313.911222,29.1719469 313.43821,29.8963787 C312.965199,30.6208106 312.372869,31.1620037 311.661222,31.5199583 C310.949574,31.8779128 310.235795,32.0568901 309.519886,32.0568901 C308.335227,32.0568901 307.372159,31.6605833 306.630682,30.8679696 C305.889205,30.075356 305.518466,29.0100151 305.518466,27.6719469 L305.518466,27.6719469 L305.518466,15.6421174 L301.696023,15.6421174 L301.696023,28.1321742 C301.696023,29.7514924 301.970881,31.1108674 302.520597,32.2102992 C303.070312,33.309731 303.828835,34.1385662 304.796165,34.6968049 C305.763494,35.2550435 306.877841,35.5341628 308.139205,35.5341628 Z M326.919034,35.278481 L326.919034,23.2870037 C326.919034,22.434731 327.12358,21.6740776 327.53267,21.0050435 C327.941761,20.3360094 328.497869,19.8118617 329.200994,19.4326003 C329.904119,19.053339 330.707386,18.8637083 331.610795,18.8637083 C332.002841,18.8637083 332.394886,18.8914071 332.786932,18.9468049 C333.178977,19.0022026 333.451705,19.0512083 333.605114,19.0938219 L333.605114,19.0938219 L333.605114,15.4375719 C333.417614,15.4120037 333.159801,15.3906969 332.831676,15.3736515 C332.503551,15.356606 332.22017,15.3480833 331.981534,15.3480833 C330.830966,15.3480833 329.801847,15.6527708 328.894176,16.2621458 C327.986506,16.8715208 327.353693,17.7046174 326.995739,18.7614356 L326.995739,18.7614356 L326.791193,18.7614356 L326.791193,15.6421174 L323.096591,15.6421174 L323.096591,35.278481 L326.919034,35.278481 Z M342.643466,35.7131401 C343.725852,35.7131401 344.65483,35.5554696 345.430398,35.2401287 C346.205966,34.9247878 346.840909,34.528481 347.335227,34.0512083 C347.829545,33.5739356 348.200284,33.0881401 348.447443,32.5938219 L348.447443,32.5938219 L348.600852,32.5938219 L348.600852,35.278481 L352.333807,35.278481 L352.333807,22.2387083 C352.333807,20.8068901 352.086648,19.6414071 351.59233,18.7422594 C351.098011,17.8431117 350.465199,17.1506401 349.693892,16.6648446 C348.922585,16.1790492 348.095881,15.8445321 347.213778,15.6612935 C346.331676,15.4780549 345.49858,15.3864356 344.714489,15.3864356 C343.52983,15.3864356 342.400568,15.5547594 341.326705,15.8914071 C340.252841,16.2280549 339.304688,16.7649867 338.482244,17.5022026 C337.659801,18.2394185 337.035511,19.2046174 336.609375,20.3977992 L336.609375,20.3977992 L340.201705,21.215981 C340.482955,20.5256401 340.992188,19.897089 341.729403,19.3303276 C342.466619,18.7635662 343.478693,18.4801856 344.765625,18.4801856 C346.00142,18.4801856 346.932528,18.7870037 347.558949,19.4006401 C348.185369,20.0142765 348.49858,20.8793333 348.49858,21.9958106 L348.49858,21.9958106 L348.49858,22.0852992 C348.49858,22.5455265 348.332386,22.8779128 348,23.0824583 C347.667614,23.2870037 347.134943,23.4340208 346.401989,23.5235094 C345.669034,23.6129981 344.714489,23.7259242 343.538352,23.8622878 C342.609375,23.9730833 341.697443,24.1350151 340.802557,24.3480833 C339.90767,24.5611515 339.098011,24.8764924 338.37358,25.294106 C337.649148,25.7117196 337.073864,26.278481 336.647727,26.9943901 C336.221591,27.7102992 336.008523,28.622231 336.008523,29.7301856 C336.008523,31.0171174 336.300426,32.1037651 336.884233,32.9901287 C337.46804,33.8764924 338.262784,34.5519185 339.268466,35.0164071 C340.274148,35.4808958 341.399148,35.7131401 342.643466,35.7131401 Z M343.474432,32.6449583 C342.392045,32.6449583 341.50142,32.4041912 340.802557,31.9226571 C340.103693,31.4411231 339.754261,30.7273446 339.754261,29.7813219 C339.754261,29.0995037 339.935369,28.5519185 340.297585,28.1385662 C340.659801,27.725214 341.145597,27.4077424 341.754972,27.1861515 C342.364347,26.9645606 343.039773,26.8068901 343.78125,26.7131401 C344.096591,26.6705265 344.488636,26.6172594 344.957386,26.553339 C345.426136,26.4894185 345.90767,26.4169753 346.401989,26.3360094 C346.896307,26.2550435 347.337358,26.1570321 347.725142,26.0419753 C348.112926,25.9269185 348.375,25.8012083 348.511364,25.6648446 L348.511364,25.6648446 L348.511364,28.1960946 C348.511364,28.9716628 348.31321,29.6982253 347.916903,30.3757821 C347.520597,31.053339 346.945312,31.6009242 346.191051,32.0185378 C345.43679,32.4361515 344.53125,32.6449583 343.474432,32.6449583 Z M372.775568,35.278481 L372.775568,31.9546174 L362.190341,31.9546174 L362.190341,31.7756401 L372.417614,18.4290492 L372.417614,15.6421174 L357.357955,15.6421174 L357.357955,18.965981 L367.649148,18.965981 L367.649148,19.1449583 L357.012784,32.6577424 L357.012784,35.278481 L372.775568,35.278481 Z M379.205966,12.6122878 C379.870739,12.6122878 380.439631,12.3885662 380.912642,11.9411231 C381.385653,11.4936799 381.622159,10.9588787 381.622159,10.3367196 C381.622159,9.70603783 381.385653,9.16697533 380.912642,8.71953215 C380.439631,8.27208897 379.870739,8.04836738 379.205966,8.04836738 C378.541193,8.04836738 377.972301,8.27208897 377.49929,8.71953215 C377.026278,9.16697533 376.789773,9.70603783 376.789773,10.3367196 C376.789773,10.9588787 377.026278,11.4936799 377.49929,11.9411231 C377.972301,12.3885662 378.541193,12.6122878 379.205966,12.6122878 Z M381.098011,35.278481 L381.098011,15.6421174 L377.275568,15.6421174 L377.275568,35.278481 L381.098011,35.278481 Z M394.508523,35.6747878 C396.349432,35.6747878 397.955966,35.2529128 399.328125,34.4091628 C400.700284,33.5654128 401.765625,32.3850151 402.524148,30.8679696 C403.28267,29.3509242 403.661932,27.5781969 403.661932,25.5497878 C403.661932,23.512856 403.28267,21.731606 402.524148,20.2060378 C401.765625,18.6804696 400.700284,17.4958106 399.328125,16.6520606 C397.955966,15.8083106 396.349432,15.3864356 394.508523,15.3864356 C392.667614,15.3864356 391.06108,15.8083106 389.68892,16.6520606 C388.316761,17.4958106 387.25142,18.6804696 386.492898,20.2060378 C385.734375,21.731606 385.355114,23.512856 385.355114,25.5497878 C385.355114,27.5781969 385.734375,29.3509242 386.492898,30.8679696 C387.25142,32.3850151 388.316761,33.5654128 389.68892,34.4091628 C391.06108,35.2529128 392.667614,35.6747878 394.508523,35.6747878 Z M394.521307,32.465981 C393.319602,32.465981 392.324574,32.1506401 391.536222,31.5199583 C390.747869,30.8892765 390.164062,30.0497878 389.784801,29.0014924 C389.40554,27.9531969 389.215909,26.7983674 389.215909,25.5370037 C389.215909,24.2841628 389.40554,23.131464 389.784801,22.0789071 C390.164062,21.0263503 390.747869,20.1804696 391.536222,19.5412651 C392.324574,18.9020606 393.319602,18.5824583 394.521307,18.5824583 C395.714489,18.5824583 396.703125,18.9020606 397.487216,19.5412651 C398.271307,20.1804696 398.852983,21.0263503 399.232244,22.0789071 C399.611506,23.131464 399.801136,24.2841628 399.801136,25.5370037 C399.801136,26.7983674 399.611506,27.9531969 399.232244,29.0014924 C398.852983,30.0497878 398.271307,30.8892765 397.487216,31.5199583 C396.703125,32.1506401 395.714489,32.465981 394.521307,32.465981 Z M411.741477,35.278481 L411.741477,23.6193901 C411.741477,22.5796174 411.939631,21.6911231 412.335938,20.9539071 C412.732244,20.2166912 413.273438,19.6563219 413.959517,19.2727992 C414.645597,18.8892765 415.431818,18.6975151 416.318182,18.6975151 C417.613636,18.6975151 418.632102,19.100214 419.37358,19.9056117 C420.115057,20.7110094 420.485795,21.825356 420.485795,23.2486515 L420.485795,23.2486515 L420.485795,35.278481 L424.308239,35.278481 L424.308239,22.7884242 C424.308239,21.169106 424.03125,19.809731 423.477273,18.7102992 C422.923295,17.6108674 422.143466,16.7820321 421.137784,16.2237935 C420.132102,15.6655549 418.960227,15.3864356 417.622159,15.3864356 C416.147727,15.3864356 414.926847,15.7017765 413.959517,16.3324583 C412.992188,16.9631401 412.28267,17.7983674 411.830966,18.8381401 L411.830966,18.8381401 L411.588068,18.8381401 L411.588068,15.6421174 L407.919034,15.6421174 L407.919034,35.278481 L411.741477,35.278481 Z M437.884943,35.6747878 C439.316761,35.6747878 440.59304,35.4553276 441.713778,35.0164071 C442.834517,34.5774867 443.767756,33.959589 444.513494,33.162714 C445.259233,32.365839 445.776989,31.434731 446.066761,30.3693901 L446.066761,30.3693901 L442.448864,29.7174015 C442.21875,30.3310378 441.886364,30.8466628 441.451705,31.2642765 C441.017045,31.6818901 440.50142,31.9951003 439.90483,32.2039071 C439.308239,32.412714 438.647727,32.5171174 437.923295,32.5171174 C436.806818,32.5171174 435.830966,32.2763503 434.995739,31.7948162 C434.160511,31.3132821 433.510653,30.6122878 433.046165,29.6918333 C432.581676,28.7713787 432.349432,27.6549015 432.349432,26.3424015 L432.354,26.611481 L446.309659,26.6108674 L446.309659,25.2557537 C446.309659,23.4745037 446.071023,21.959589 445.59375,20.7110094 C445.116477,19.4624299 444.464489,18.4460946 443.637784,17.6620037 C442.81108,16.8779128 441.877841,16.3026287 440.838068,15.9361515 C439.798295,15.5696742 438.724432,15.3864356 437.616477,15.3864356 C435.792614,15.3864356 434.200994,15.8168333 432.841619,16.6776287 C431.482244,17.5384242 430.425426,18.7358674 429.671165,20.2699583 C428.916903,21.8040492 428.539773,23.5767765 428.539773,25.5881401 C428.539773,27.6250719 428.916903,29.3999299 429.671165,30.912714 C430.425426,32.4254981 431.49929,33.5973731 432.892756,34.428339 C434.286222,35.2593049 435.950284,35.6747878 437.884943,35.6747878 Z M432.381313,23.4621931 C432.455703,22.7241881 432.660275,22.0287178 432.995028,21.3757821 C433.425426,20.5362935 434.039062,19.8544753 434.835938,19.3303276 C435.632812,18.8061799 436.568182,18.544106 437.642045,18.544106 C438.630682,18.544106 439.493608,18.7699583 440.230824,19.2216628 C440.96804,19.6733674 441.541193,20.2891344 441.950284,21.068964 C442.359375,21.8487935 442.56392,22.7415492 442.56392,23.747231 L442.56392,23.747231 L432.36,23.747481 L432.381313,23.4621931 Z" id="Configurazione" fill="#FFFFFF" fill-rule="nonzero"></path>
                    <g id="step-bar/check-icon+label" transform="translate(0.000000, 76.962025)">
                        <path d="M4.59446023,75.8227848 L6.459,70.4337848 L14.415,70.4337848 L16.2776989,75.8227848 L19.5390625,75.8227848 L12.2109375,55.4591484 L8.66122159,55.4591484 L1.33309659,75.8227848 L4.59446023,75.8227848 Z M13.522,67.8487848 L7.354,67.8487848 L10.3615057,59.1580121 L10.5205966,59.1580121 L13.522,67.8487848 Z M27.2450284,76.0216484 C28.3918087,76.0216484 29.3513258,75.7515253 30.1235795,75.2112791 C30.8958333,74.6710329 31.4576231,73.9932394 31.8089489,73.1778984 L31.8089489,73.1778984 L31.9680398,73.1778984 L31.9680398,75.8227848 L34.8913352,75.8227848 L34.8913352,60.5500575 L31.9083807,60.5500575 L31.9083807,69.488978 C31.9150095,70.3573492 31.734375,71.0732583 31.3664773,71.6367053 C30.9985795,72.2001522 30.5378788,72.6210803 29.984375,72.8994894 C29.4308712,73.1778984 28.8757102,73.317103 28.318892,73.317103 C27.3974905,73.317103 26.6484375,73.0088644 26.071733,72.3923871 C25.4950284,71.7759098 25.2066761,70.9473113 25.2066761,69.9065916 L25.2066761,69.9065916 L25.2066761,60.5500575 L22.2336648,60.5500575 L22.2336648,70.2645462 C22.2336648,71.5240159 22.4474432,72.5813075 22.875,73.4364212 C23.3025568,74.2915348 23.8925189,74.9361844 24.6448864,75.37037 C25.3972538,75.8045556 26.2639678,76.0216484 27.2450284,76.0216484 Z M44.3572443,76.0216484 C44.834517,76.0150197 45.2322443,75.9769041 45.5504261,75.9073019 C45.868608,75.8376996 46.1138731,75.7697545 46.2862216,75.7034666 L46.2862216,75.7034666 L45.7492898,73.2475007 C45.649858,73.2673871 45.5106534,73.2939022 45.3316761,73.3270462 C45.1526989,73.3601901 44.943892,73.3767621 44.7052557,73.3767621 C44.3804451,73.3767621 44.0804924,73.325389 43.8053977,73.2226428 C43.530303,73.1198966 43.3065814,72.9243473 43.134233,72.635995 C42.9618845,72.3476428 42.8757102,71.9151144 42.8757102,71.3384098 L42.8757102,71.3384098 L42.875,62.9367848 L46.0078125,62.9364212 L46.0078125,60.5500575 L42.875,60.5507848 L42.8757102,56.8909666 L39.9026989,56.8909666 L39.902,60.5507848 L37.665483,60.5500575 L37.665483,62.9364212 L39.902,62.9367848 L39.9026989,71.9548871 C39.9026989,72.7841484 40.0718324,73.4872308 40.4100994,74.0641342 L40.5291193,74.2517621 C40.946733,74.8616106 41.493608,75.3123681 42.1697443,75.6040348 C42.8458807,75.8957015 43.5750473,76.034906 44.3572443,76.0216484 Z M55.7223011,76.1310234 C57.1541193,76.1310234 58.4036458,75.8028984 59.4708807,75.1466484 C60.5381155,74.4903984 61.366714,73.5723113 61.9566761,72.3923871 C62.5466383,71.2124628 62.8416193,69.833675 62.8416193,68.2560234 C62.8416193,66.6717431 62.5466383,65.2863265 61.9566761,64.0997734 C61.366714,62.9132204 60.5381155,61.9918189 59.4708807,61.3355689 C58.4036458,60.6793189 57.1541193,60.3511939 55.7223011,60.3511939 C54.290483,60.3511939 53.0409564,60.6793189 51.9737216,61.3355689 C50.9064867,61.9918189 50.0778883,62.9132204 49.4879261,64.0997734 C48.897964,65.2863265 48.602983,66.6717431 48.602983,68.2560234 C48.602983,69.833675 48.897964,71.2124628 49.4879261,72.3923871 C50.0778883,73.5723113 50.9064867,74.4903984 51.9737216,75.1466484 C53.0409564,75.8028984 54.290483,76.1310234 55.7223011,76.1310234 Z M55.7322443,73.6352848 C54.7975852,73.6352848 54.0236742,73.3900197 53.4105114,72.8994894 C52.7973485,72.4089591 52.3432765,71.7560234 52.0482955,70.9406825 C51.7533144,70.1253416 51.6058239,69.2271409 51.6058239,68.2460803 C51.6058239,67.2716484 51.7533144,66.3751049 52.0482955,65.5564496 C52.3432765,64.7377943 52.7973485,64.0798871 53.4105114,63.582728 C54.0236742,63.0855689 54.7975852,62.8369894 55.7322443,62.8369894 C56.6602746,62.8369894 57.429214,63.0855689 58.0390625,63.582728 C58.648911,64.0798871 59.1013258,64.7377943 59.3963068,65.5564496 C59.6912879,66.3751049 59.8387784,67.2716484 59.8387784,68.2460803 C59.8387784,69.2271409 59.6912879,70.1253416 59.3963068,70.9406825 C59.1013258,71.7560234 58.648911,72.4089591 58.0390625,72.8994894 C57.429214,73.3900197 56.6602746,73.6352848 55.7322443,73.6352848 Z M73.6796875,75.8227848 L79.2180398,60.5500575 L76.0262784,60.5500575 L72.1683239,72.3028984 L72.009233,72.3028984 L68.1413352,60.5500575 L64.9495739,60.5500575 L70.4978693,75.8227848 L73.6796875,75.8227848 Z M86.4566761,76.160853 C87.2985322,76.160853 88.0210701,76.0382204 88.6242898,75.7929553 C89.2275095,75.5476901 89.7213542,75.2394515 90.1058239,74.8682394 C90.4902936,74.4970272 90.7786458,74.1191863 90.9708807,73.7347166 L90.9708807,73.7347166 L91.0901989,73.7347166 L91.0901989,75.8227848 L93.993608,75.8227848 L93.993608,65.6807394 C93.993608,64.567103 93.8013731,63.6606162 93.4169034,62.9612791 C93.0324337,62.261942 92.5402462,61.723353 91.9403409,61.3455121 C91.3404356,60.9676712 90.6974432,60.7074912 90.0113636,60.5649723 C89.3252841,60.4224534 88.6773201,60.3511939 88.0674716,60.3511939 C87.1460701,60.3511939 86.2677557,60.4821125 85.4325284,60.7439496 C84.5973011,61.0057867 83.8598485,61.4234003 83.2201705,61.9967905 C82.5804924,62.5701806 82.0949337,63.3208909 81.7634943,64.2489212 L81.7634943,64.2489212 L84.5575284,64.8852848 C84.7762784,64.348353 85.1723485,63.8594799 85.7457386,63.4186655 C86.3191288,62.9778511 87.1062973,62.7574439 88.1072443,62.7574439 C89.0684186,62.7574439 89.7926136,62.9960803 90.2798295,63.473353 C90.7670455,63.9506257 91.0106534,64.6234477 91.0106534,65.4918189 L91.0106534,65.4918189 L91.0106534,65.5614212 C91.0106534,65.9193757 90.881392,66.1778984 90.6228693,66.3369894 C90.3643466,66.4960803 89.9500473,66.6104269 89.3799716,66.6800291 C88.8098958,66.7496314 88.0674716,66.8374628 87.1526989,66.9435234 C86.430161,67.0296977 85.7208807,67.1556447 85.024858,67.3213644 C84.3288352,67.4870841 83.6991004,67.7323492 83.1356534,68.0571598 C82.5722064,68.3819704 82.1247633,68.8227848 81.7933239,69.379603 C81.4618845,69.9364212 81.2961648,70.6457015 81.2961648,71.5074439 C81.2961648,72.5083909 81.5232008,73.3535613 81.9772727,74.0429553 C82.4313447,74.7323492 83.0494792,75.2576806 83.8316761,75.6189496 C84.6138731,75.9802185 85.4888731,76.160853 86.4566761,76.160853 Z M87.102983,73.7744894 C86.2611269,73.7744894 85.5684186,73.5872261 85.024858,73.2126996 C84.4812973,72.8381731 84.209517,72.2830121 84.209517,71.5472166 C84.209517,71.0169136 84.3503788,70.591014 84.6321023,70.2695178 C84.9138258,69.9480216 85.2916667,69.7010992 85.765625,69.5287507 C86.2395833,69.3564022 86.7649148,69.2337697 87.3416193,69.160853 C87.5868845,69.1277091 87.8918087,69.0862791 88.256392,69.0365632 C88.6209754,68.9868473 88.9955019,68.9305026 89.3799716,68.8675291 C89.7644413,68.8045556 90.1074811,68.7283246 90.4090909,68.6388359 C90.7107008,68.5493473 90.914536,68.4515727 91.0205966,68.3455121 L91.0205966,68.3455121 L91.0205966,70.3142621 C91.0205966,70.9174818 90.8664773,71.4825859 90.5582386,72.0095746 C90.25,72.5365632 89.8025568,72.9624628 89.2159091,73.2872734 C88.6292614,73.6120841 87.9249527,73.7744894 87.102983,73.7744894 Z M100.924006,75.8227848 L100.924006,55.4591484 L97.9509943,55.4591484 L97.9509943,75.8227848 L100.924006,75.8227848 Z M109.932528,76.0216484 C111.079309,76.0216484 112.038826,75.7515253 112.81108,75.2112791 C113.583333,74.6710329 114.145123,73.9932394 114.496449,73.1778984 L114.496449,73.1778984 L114.65554,73.1778984 L114.65554,75.8227848 L117.578835,75.8227848 L117.578835,60.5500575 L114.595881,60.5500575 L114.595881,69.488978 C114.602509,70.3573492 114.421875,71.0732583 114.053977,71.6367053 C113.68608,72.2001522 113.225379,72.6210803 112.671875,72.8994894 C112.118371,73.1778984 111.56321,73.317103 111.006392,73.317103 C110.084991,73.317103 109.335938,73.0088644 108.759233,72.3923871 C108.182528,71.7759098 107.894176,70.9473113 107.894176,69.9065916 L107.894176,69.9065916 L107.894176,60.5500575 L104.921165,60.5500575 L104.921165,70.2645462 C104.921165,71.5240159 105.134943,72.5813075 105.5625,73.4364212 C105.990057,74.2915348 106.580019,74.9361844 107.332386,75.37037 C108.084754,75.8045556 108.951468,76.0216484 109.932528,76.0216484 Z M127.044744,76.0216484 C127.522017,76.0150197 127.919744,75.9769041 128.237926,75.9073019 C128.556108,75.8376996 128.801373,75.7697545 128.973722,75.7034666 L128.973722,75.7034666 L128.43679,73.2475007 C128.337358,73.2673871 128.198153,73.2939022 128.019176,73.3270462 C127.840199,73.3601901 127.631392,73.3767621 127.392756,73.3767621 C127.067945,73.3767621 126.767992,73.325389 126.492898,73.2226428 C126.217803,73.1198966 125.994081,72.9243473 125.821733,72.635995 C125.649384,72.3476428 125.56321,71.9151144 125.56321,71.3384098 L125.56321,71.3384098 L125.563,62.9367848 L128.695312,62.9364212 L128.695312,60.5500575 L125.563,60.5507848 L125.56321,56.8909666 L122.590199,56.8909666 L122.59,60.5507848 L120.352983,60.5500575 L120.352983,62.9364212 L122.59,62.9367848 L122.590199,71.9548871 C122.590199,72.7841484 122.759332,73.4872308 123.097599,74.0641342 L123.216619,74.2517621 C123.634233,74.8616106 124.181108,75.3123681 124.857244,75.6040348 C125.533381,75.8957015 126.262547,76.034906 127.044744,76.0216484 Z M136.421165,76.160853 C137.263021,76.160853 137.985559,76.0382204 138.588778,75.7929553 C139.191998,75.5476901 139.685843,75.2394515 140.070312,74.8682394 C140.454782,74.4970272 140.743134,74.1191863 140.935369,73.7347166 L140.935369,73.7347166 L141.054687,73.7347166 L141.054687,75.8227848 L143.958097,75.8227848 L143.958097,65.6807394 C143.958097,64.567103 143.765862,63.6606162 143.381392,62.9612791 C142.996922,62.261942 142.504735,61.723353 141.90483,61.3455121 C141.304924,60.9676712 140.661932,60.7074912 139.975852,60.5649723 C139.289773,60.4224534 138.641809,60.3511939 138.03196,60.3511939 C137.110559,60.3511939 136.232244,60.4821125 135.397017,60.7439496 C134.56179,61.0057867 133.824337,61.4234003 133.184659,61.9967905 C132.544981,62.5701806 132.059422,63.3208909 131.727983,64.2489212 L131.727983,64.2489212 L134.522017,64.8852848 C134.740767,64.348353 135.136837,63.8594799 135.710227,63.4186655 C136.283617,62.9778511 137.070786,62.7574439 138.071733,62.7574439 C139.032907,62.7574439 139.757102,62.9960803 140.244318,63.473353 C140.731534,63.9506257 140.975142,64.6234477 140.975142,65.4918189 L140.975142,65.4918189 L140.975142,65.5614212 C140.975142,65.9193757 140.845881,66.1778984 140.587358,66.3369894 C140.328835,66.4960803 139.914536,66.6104269 139.34446,66.6800291 C138.774384,66.7496314 138.03196,66.8374628 137.117187,66.9435234 C136.39465,67.0296977 135.685369,67.1556447 134.989347,67.3213644 C134.293324,67.4870841 133.663589,67.7323492 133.100142,68.0571598 C132.536695,68.3819704 132.089252,68.8227848 131.757812,69.379603 C131.426373,69.9364212 131.260653,70.6457015 131.260653,71.5074439 C131.260653,72.5083909 131.487689,73.3535613 131.941761,74.0429553 C132.395833,74.7323492 133.013968,75.2576806 133.796165,75.6189496 C134.578362,75.9802185 135.453362,76.160853 136.421165,76.160853 Z M137.067472,73.7744894 C136.225616,73.7744894 135.532907,73.5872261 134.989347,73.2126996 C134.445786,72.8381731 134.174006,72.2830121 134.174006,71.5472166 C134.174006,71.0169136 134.314867,70.591014 134.596591,70.2695178 C134.878314,69.9480216 135.256155,69.7010992 135.730114,69.5287507 C136.204072,69.3564022 136.729403,69.2337697 137.306108,69.160853 C137.551373,69.1277091 137.856297,69.0862791 138.220881,69.0365632 C138.585464,68.9868473 138.959991,68.9305026 139.34446,68.8675291 C139.72893,68.8045556 140.07197,68.7283246 140.37358,68.6388359 C140.675189,68.5493473 140.879025,68.4515727 140.985085,68.3455121 L140.985085,68.3455121 L140.985085,70.3142621 C140.985085,70.9174818 140.830966,71.4825859 140.522727,72.0095746 C140.214489,72.5365632 139.767045,72.9624628 139.180398,73.2872734 C138.59375,73.6120841 137.889441,73.7744894 137.067472,73.7744894 Z M159.857244,75.8227848 L159.857244,73.2375575 L151.62429,73.2375575 L151.62429,73.098353 L159.578835,62.7176712 L159.578835,60.5500575 L147.865767,60.5500575 L147.865767,63.1352848 L155.870028,63.1352848 L155.870028,63.2744894 L147.597301,73.7844325 L147.597301,75.8227848 L159.857244,75.8227848 Z M164.858665,58.1935234 C165.37571,58.1935234 165.818182,58.0195178 166.18608,57.6715064 C166.553977,57.323495 166.737926,56.9075386 166.737926,56.4236371 C166.737926,55.9331068 166.553977,55.5138359 166.18608,55.1658246 C165.818182,54.8178132 165.37571,54.6438075 164.858665,54.6438075 C164.341619,54.6438075 163.899148,54.8178132 163.53125,55.1658246 C163.163352,55.5138359 162.979403,55.9331068 162.979403,56.4236371 C162.979403,56.9075386 163.163352,57.323495 163.53125,57.6715064 C163.899148,58.0195178 164.341619,58.1935234 164.858665,58.1935234 Z M166.330256,75.8227848 L166.330256,60.5500575 L163.357244,60.5500575 L163.357244,75.8227848 L166.330256,75.8227848 Z M176.760653,76.1310234 C178.192472,76.1310234 179.441998,75.8028984 180.509233,75.1466484 C181.576468,74.4903984 182.405066,73.5723113 182.995028,72.3923871 C183.584991,71.2124628 183.879972,69.833675 183.879972,68.2560234 C183.879972,66.6717431 183.584991,65.2863265 182.995028,64.0997734 C182.405066,62.9132204 181.576468,61.9918189 180.509233,61.3355689 C179.441998,60.6793189 178.192472,60.3511939 176.760653,60.3511939 C175.328835,60.3511939 174.079309,60.6793189 173.012074,61.3355689 C171.944839,61.9918189 171.116241,62.9132204 170.526278,64.0997734 C169.936316,65.2863265 169.641335,66.6717431 169.641335,68.2560234 C169.641335,69.833675 169.936316,71.2124628 170.526278,72.3923871 C171.116241,73.5723113 171.944839,74.4903984 173.012074,75.1466484 C174.079309,75.8028984 175.328835,76.1310234 176.760653,76.1310234 Z M176.770597,73.6352848 C175.835938,73.6352848 175.062027,73.3900197 174.448864,72.8994894 C173.835701,72.4089591 173.381629,71.7560234 173.086648,70.9406825 C172.791667,70.1253416 172.644176,69.2271409 172.644176,68.2460803 C172.644176,67.2716484 172.791667,66.3751049 173.086648,65.5564496 C173.381629,64.7377943 173.835701,64.0798871 174.448864,63.582728 C175.062027,63.0855689 175.835938,62.8369894 176.770597,62.8369894 C177.698627,62.8369894 178.467566,63.0855689 179.077415,63.582728 C179.687263,64.0798871 180.139678,64.7377943 180.434659,65.5564496 C180.72964,66.3751049 180.877131,67.2716484 180.877131,68.2460803 C180.877131,69.2271409 180.72964,70.1253416 180.434659,70.9406825 C180.139678,71.7560234 179.687263,72.4089591 179.077415,72.8994894 C178.467566,73.3900197 177.698627,73.6352848 176.770597,73.6352848 Z M190.164063,75.8227848 L190.164063,66.754603 C190.164063,65.9458909 190.318182,65.2548397 190.62642,64.6814496 C190.934659,64.1080594 191.355587,63.6722166 191.889205,63.3739212 C192.422822,63.0756257 193.034328,62.926478 193.723722,62.926478 C194.731297,62.926478 195.523438,63.2396882 196.100142,63.8661087 C196.676847,64.4925291 196.965199,65.3592431 196.965199,66.4662507 L196.965199,66.4662507 L196.965199,75.8227848 L199.93821,75.8227848 L199.93821,66.1082962 C199.93821,64.8488265 199.722775,63.7915348 199.291903,62.9364212 C198.861032,62.0813075 198.254498,61.4366579 197.472301,61.0024723 C196.690104,60.5682867 195.778646,60.3511939 194.737926,60.3511939 C193.591146,60.3511939 192.641572,60.5964591 191.889205,61.0869894 C191.136837,61.5775197 190.584991,62.2271409 190.233665,63.035853 L190.233665,63.035853 L190.044744,63.035853 L190.044744,60.5500575 L187.191051,60.5500575 L187.191051,75.8227848 L190.164063,75.8227848 Z M210.497869,76.1310234 C211.611506,76.1310234 212.604167,75.9603322 213.475852,75.6189496 C214.347538,75.277567 215.07339,74.7969799 215.653409,74.1771882 C216.233428,73.5573966 216.636127,72.8332015 216.861506,72.004603 L216.861506,72.004603 L214.047585,71.4975007 C213.868608,71.9747734 213.610085,72.3758151 213.272017,72.7006257 C212.933949,73.0254363 212.532907,73.2690443 212.068892,73.4314496 C211.604877,73.5938549 211.091146,73.6750575 210.527699,73.6750575 C209.659328,73.6750575 208.900331,73.4877943 208.25071,73.1132678 C207.601089,72.7387412 207.095644,72.1935234 206.734375,71.4776144 C206.373106,70.7617053 206.192472,69.8933341 206.192472,68.8725007 L206.196,69.0817848 L217.050426,69.0813075 L217.050426,68.0273303 C217.050426,66.6419136 216.86482,65.4636466 216.493608,64.4925291 C216.122396,63.5214117 215.615294,62.7309287 214.972301,62.1210803 C214.329309,61.5112318 213.603456,61.0637886 212.794744,60.7787507 C211.986032,60.4937128 211.150805,60.3511939 210.289062,60.3511939 C208.870502,60.3511939 207.632576,60.6859477 206.575284,61.3554553 C205.517992,62.0249628 204.696023,62.9563075 204.109375,64.1494894 C203.522727,65.3426712 203.229403,66.7214591 203.229403,68.285853 C203.229403,69.8701333 203.522727,71.2505784 204.109375,72.4271882 C204.696023,73.6037981 205.53125,74.5152564 206.615057,75.1615632 C207.698864,75.80787 208.993134,76.1310234 210.497869,76.1310234 Z M206.200317,66.8491409 C206.236931,66.194082 206.401693,65.5808932 206.694602,65.0095746 C207.029356,64.356639 207.506629,63.8263359 208.12642,63.4186655 C208.746212,63.010995 209.473722,62.8071598 210.308949,62.8071598 C211.077888,62.8071598 211.749053,62.9828227 212.322443,63.3341484 C212.895833,63.6854742 213.341619,64.1644041 213.659801,64.7709382 C213.977983,65.3774723 214.137074,66.0718378 214.137074,66.8540348 L214.137074,66.8540348 L206.2,66.8547848 L206.200317,66.8491409 Z" id="Autovalutazione" fill="#FFFFFF" fill-rule="nonzero"></path>
                        <g id="icon/misc/circle" transform="translate(89.500000, 0.000000)" stroke="#FFFFFF" stroke-opacity="0.99" stroke-width="6">
                            <path d="M19.9916667,6.37552741 C16.2216107,6.37552741 12.8129648,7.92397399 10.3456522,10.4237683 C7.8635942,12.9385021 6.33333331,16.4144225 6.33333331,20.2531646 C6.33333331,24.0919066 7.8635942,27.567827 10.3456522,30.0825608 C12.8129648,32.5823551 16.2216107,34.1308017 19.9916667,34.1308017 C23.7638909,34.1308017 27.1776987,32.5808702 29.6493301,30.0792032 C32.1333524,27.5649947 33.6666667,24.0905422 33.6666667,20.2531646 C33.6666667,16.415787 32.1333524,12.9413344 29.6493301,10.4271259 C27.1776987,7.92545891 23.7638909,6.37552741 19.9916667,6.37552741 Z" id="Path"></path>
                        </g>
                    </g>
                    <g id="step-bar/check-icon+label" transform="translate(273.000000, 76.962025)">
                        <path d="M5.48224432,75.8227848 L5.482,68.6637848 L9.65838068,68.6636939 C11.1146744,68.6636939 12.3436281,68.4165852 13.3452419,67.9223679 L13.5909091,67.7936655 C14.6349432,67.2136466 15.4171402,66.4248208 15.9375,65.4271882 C16.4578598,64.4295556 16.7180398,63.3043189 16.7180398,62.051478 C16.7180398,60.8052659 16.459517,59.6833435 15.9424716,58.6857109 C15.4254261,57.6880784 14.6465436,56.9009098 13.6058239,56.3242053 C12.5651042,55.7475007 11.2526042,55.4591484 9.66832386,55.4591484 L9.66832386,55.4591484 L2.40980114,55.4591484 L2.40980114,75.8227848 L5.48224432,75.8227848 Z M5.48224432,58.0940916 L9.34019886,58.0940916 C10.3610322,58.0940916 11.1846591,58.2631257 11.8110795,58.6011939 C12.4375,58.9392621 12.8965436,59.4065916 13.1882102,60.0031825 C13.4798769,60.5997734 13.6257102,61.2825386 13.6257102,62.051478 C13.6257102,62.8204174 13.4798769,63.5064969 13.1882102,64.1097166 C12.8965436,64.7129363 12.4391572,65.1885519 11.8160511,65.5365632 C11.1929451,65.8845746 10.3809186,66.0585803 9.37997159,66.0585803 L9.37997159,66.0585803 L5.482,66.0587848 L5.48224432,58.0940916 Z M23.0419034,75.8227848 L23.0419034,66.4960803 C23.0419034,65.8332015 23.2009943,65.2415822 23.5191761,64.7212223 C23.837358,64.2008625 24.2698864,63.793192 24.8167614,63.4982109 C25.3636364,63.2032299 25.9883996,63.0557394 26.6910511,63.0557394 C26.9959754,63.0557394 27.3008996,63.0772829 27.6058239,63.12037 C27.9107481,63.1634572 28.1228693,63.2015727 28.2421875,63.2347166 L28.2421875,63.2347166 L28.2421875,60.3909666 C28.0963542,60.3710803 27.8958333,60.3545083 27.640625,60.3412507 C27.3854167,60.3279931 27.1650095,60.3213644 26.9794034,60.3213644 C26.084517,60.3213644 25.2840909,60.5583435 24.578125,61.0323019 C23.8721591,61.5062602 23.3799716,62.1542242 23.1015625,62.9761939 L23.1015625,62.9761939 L22.9424716,62.9761939 L22.9424716,60.5500575 L20.068892,60.5500575 L20.068892,75.8227848 L23.0419034,75.8227848 Z M37.2606534,76.1310234 C38.6924716,76.1310234 39.9419981,75.8028984 41.009233,75.1466484 C42.0764678,74.4903984 42.9050663,73.5723113 43.4950284,72.3923871 C44.0849905,71.2124628 44.3799716,69.833675 44.3799716,68.2560234 C44.3799716,66.6717431 44.0849905,65.2863265 43.4950284,64.0997734 C42.9050663,62.9132204 42.0764678,61.9918189 41.009233,61.3355689 C39.9419981,60.6793189 38.6924716,60.3511939 37.2606534,60.3511939 C35.8288352,60.3511939 34.5793087,60.6793189 33.5120739,61.3355689 C32.444839,61.9918189 31.6162405,62.9132204 31.0262784,64.0997734 C30.4363163,65.2863265 30.1413352,66.6717431 30.1413352,68.2560234 C30.1413352,69.833675 30.4363163,71.2124628 31.0262784,72.3923871 C31.6162405,73.5723113 32.444839,74.4903984 33.5120739,75.1466484 C34.5793087,75.8028984 35.8288352,76.1310234 37.2606534,76.1310234 Z M37.2705966,73.6352848 C36.3359375,73.6352848 35.5620265,73.3900197 34.9488636,72.8994894 C34.3357008,72.4089591 33.8816288,71.7560234 33.5866477,70.9406825 C33.2916667,70.1253416 33.1441761,69.2271409 33.1441761,68.2460803 C33.1441761,67.2716484 33.2916667,66.3751049 33.5866477,65.5564496 C33.8816288,64.7377943 34.3357008,64.0798871 34.9488636,63.582728 C35.5620265,63.0855689 36.3359375,62.8369894 37.2705966,62.8369894 C38.1986269,62.8369894 38.9675663,63.0855689 39.5774148,63.582728 C40.1872633,64.0798871 40.639678,64.7377943 40.9346591,65.5564496 C41.2296402,66.3751049 41.3771307,67.2716484 41.3771307,68.2460803 C41.3771307,69.2271409 41.2296402,70.1253416 40.9346591,70.9406825 C40.639678,71.7560234 40.1872633,72.4089591 39.5774148,72.8994894 C38.9675663,73.3900197 38.1986269,73.6352848 37.2705966,73.6352848 Z M51.6683239,75.8227848 L51.668,62.9367848 L54.959517,62.9364212 L54.959517,60.5500575 L51.668,60.5507848 L51.6683239,59.1778984 C51.6683239,58.5768883 51.7900972,58.1015797 52.0336437,57.7519725 L52.1306818,57.6267621 C52.4389205,57.2688075 52.9543087,57.0898303 53.6768466,57.0898303 C53.9883996,57.0898303 54.2535511,57.1180026 54.4723011,57.1743473 C54.6910511,57.230692 54.8700284,57.2787507 55.009233,57.3185234 L55.009233,57.3185234 L55.7052557,54.9122734 C55.4997633,54.832728 55.1848958,54.7448966 54.7606534,54.6487791 C54.336411,54.5526617 53.8259943,54.504603 53.2294034,54.504603 C52.4206913,54.504603 51.6716383,54.6620367 50.9822443,54.9769041 C50.2928504,55.2917716 49.7393466,55.7657299 49.321733,56.3987791 C48.9041193,57.0318284 48.6953125,57.8256257 48.6953125,58.7801712 L48.6953125,58.7801712 L48.695,60.5507848 L46.3288352,60.5500575 L46.3288352,62.9364212 L48.695,62.9367848 L48.6953125,75.8227848 L51.6683239,75.8227848 Z M59.5234375,58.1935234 C60.040483,58.1935234 60.4829545,58.0195178 60.8508523,57.6715064 C61.21875,57.323495 61.4026989,56.9075386 61.4026989,56.4236371 C61.4026989,55.9331068 61.21875,55.5138359 60.8508523,55.1658246 C60.4829545,54.8178132 60.040483,54.6438075 59.5234375,54.6438075 C59.006392,54.6438075 58.5639205,54.8178132 58.1960227,55.1658246 C57.828125,55.5138359 57.6441761,55.9331068 57.6441761,56.4236371 C57.6441761,56.9075386 57.828125,57.323495 58.1960227,57.6715064 C58.5639205,58.0195178 59.006392,58.1935234 59.5234375,58.1935234 Z M60.9950284,75.8227848 L60.9950284,60.5500575 L58.022017,60.5500575 L58.022017,75.8227848 L60.9950284,75.8227848 Z M67.9651989,75.8227848 L67.9651989,55.4591484 L64.9921875,55.4591484 L64.9921875,75.8227848 L67.9651989,75.8227848 Z M78.3955966,76.1310234 C79.8274148,76.1310234 81.0769413,75.8028984 82.1441761,75.1466484 C83.211411,74.4903984 84.0400095,73.5723113 84.6299716,72.3923871 C85.2199337,71.2124628 85.5149148,69.833675 85.5149148,68.2560234 C85.5149148,66.6717431 85.2199337,65.2863265 84.6299716,64.0997734 C84.0400095,62.9132204 83.211411,61.9918189 82.1441761,61.3355689 C81.0769413,60.6793189 79.8274148,60.3511939 78.3955966,60.3511939 C76.9637784,60.3511939 75.7142519,60.6793189 74.647017,61.3355689 C73.5797822,61.9918189 72.7511837,62.9132204 72.1612216,64.0997734 C71.5712595,65.2863265 71.2762784,66.6717431 71.2762784,68.2560234 C71.2762784,69.833675 71.5712595,71.2124628 72.1612216,72.3923871 C72.7511837,73.5723113 73.5797822,74.4903984 74.647017,75.1466484 C75.7142519,75.8028984 76.9637784,76.1310234 78.3955966,76.1310234 Z M78.4055398,73.6352848 C77.4708807,73.6352848 76.6969697,73.3900197 76.0838068,72.8994894 C75.4706439,72.4089591 75.016572,71.7560234 74.7215909,70.9406825 C74.4266098,70.1253416 74.2791193,69.2271409 74.2791193,68.2460803 C74.2791193,67.2716484 74.4266098,66.3751049 74.7215909,65.5564496 C75.016572,64.7377943 75.4706439,64.0798871 76.0838068,63.582728 C76.6969697,63.0855689 77.4708807,62.8369894 78.4055398,62.8369894 C79.3335701,62.8369894 80.1025095,63.0855689 80.712358,63.582728 C81.3222064,64.0798871 81.7746212,64.7377943 82.0696023,65.5564496 C82.3645833,66.3751049 82.5120739,67.2716484 82.5120739,68.2460803 C82.5120739,69.2271409 82.3645833,70.1253416 82.0696023,70.9406825 C81.7746212,71.7560234 81.3222064,72.4089591 80.712358,72.8994894 C80.1025095,73.3900197 79.3335701,73.6352848 78.4055398,73.6352848 Z" id="Profilo" fill="#FFFFFF" fill-rule="nonzero" opacity="0.4"></path>
                        <g id="icon/misc/circle" transform="translate(23.500000, 0.000000)" stroke="#FFFFFF" stroke-opacity="0.25" stroke-width="6">
                            <path d="M19.9916667,6.37552741 C16.2216107,6.37552741 12.8129648,7.92397399 10.3456522,10.4237683 C7.8635942,12.9385021 6.33333331,16.4144225 6.33333331,20.2531646 C6.33333331,24.0919066 7.8635942,27.567827 10.3456522,30.0825608 C12.8129648,32.5823551 16.2216107,34.1308017 19.9916667,34.1308017 C23.7638909,34.1308017 27.1776987,32.5808702 29.6493301,30.0792032 C32.1333524,27.5649947 33.6666667,24.0905422 33.6666667,20.2531646 C33.6666667,16.415787 32.1333524,12.9413344 29.6493301,10.4271259 C27.1776987,7.92545891 23.7638909,6.37552741 19.9916667,6.37552741 Z" id="Path"></path>
                        </g>
                    </g>
                    <g id="step-bar/check-icon+label" transform="translate(462.000000, 76.962025)">
                        <path d="M10.7798295,76.1011939 C12.5364583,76.1011939 14.1058239,75.6819231 15.4879261,74.8433814 C16.8700284,74.0048397 17.9588068,72.8050291 18.7542614,71.2439496 C19.5497159,69.68287 19.9474432,67.8152091 19.9474432,65.6409666 C19.9474432,63.4667242 19.5497159,61.5990632 18.7542614,60.0379837 C17.9588068,58.4769041 16.8700284,57.2770935 15.4879261,56.4385519 C14.1058239,55.6000102 12.5364583,55.1807394 10.7798295,55.1807394 C9.01657197,55.1807394 7.44389205,55.6000102 6.06178977,56.4385519 C4.6796875,57.2770935 3.59090909,58.4769041 2.79545455,60.0379837 C2,61.5990632 1.60227273,63.4667242 1.60227273,65.6409666 C1.60227273,67.8085803 2,69.6745841 2.79545455,71.238978 C3.59090909,72.8033719 4.6796875,74.0048397 6.06178977,74.8433814 C7.44389205,75.6819231 9.01657197,76.1011939 10.7798295,76.1011939 Z M10.7798295,73.2972166 C9.60653409,73.2972166 8.55918561,73.0038928 7.63778409,72.417245 C6.71638258,71.8305973 5.98887311,70.9688549 5.45525568,69.8320178 C4.92163826,68.6951806 4.65482955,67.2981636 4.65482955,65.6409666 C4.65482955,63.9837697 4.92163826,62.5867526 5.45525568,61.4499155 C5.98887311,60.3130784 6.71638258,59.4513359 7.63778409,58.8646882 C8.55918561,58.2780405 9.60653409,57.9847166 10.7798295,57.9847166 C11.9464962,57.9847166 12.9921875,58.2780405 13.9169034,58.8646882 C14.8416193,59.4513359 15.570786,60.3130784 16.1044034,61.4499155 C16.6380208,62.5867526 16.9048295,63.9837697 16.9048295,65.6409666 C16.9048295,67.2981636 16.6380208,68.6951806 16.1044034,69.8320178 C15.570786,70.9688549 14.8416193,71.8305973 13.9169034,72.417245 C12.9921875,73.0038928 11.9464962,73.2972166 10.7798295,73.2972166 Z M31.3323864,76.1210803 C32.5653409,76.1210803 33.6624053,75.8045556 34.6235795,75.1715064 C35.5847538,74.5384572 36.3404356,73.6336276 36.890625,72.4570178 C37.4408144,71.2804079 37.7159091,69.8668189 37.7159091,68.2162507 C37.7159091,66.5656825 37.4391572,65.1537507 36.8856534,63.9804553 C36.3321496,62.8071598 35.5714962,61.9089591 34.6036932,61.285853 C33.6358902,60.6627469 32.5355114,60.3511939 31.3025568,60.3511939 C30.3546402,60.3511939 29.5923295,60.5086276 29.015625,60.823495 C28.4389205,61.1383625 27.9881629,61.504603 27.6633523,61.9222166 C27.3385417,62.3398303 27.0899621,62.707728 26.9176136,63.0259098 L26.9176136,63.0259098 L26.7386364,63.0259098 L26.7386364,55.4591484 L23.765625,55.4591484 L23.765625,75.8227848 L26.6690341,75.8227848 L26.6690341,73.4463644 L26.9176136,73.4463644 C27.0965909,73.771175 27.3517992,74.1423871 27.6832386,74.5600007 C28.014678,74.9776144 28.4737216,75.3421977 29.0603693,75.6537507 C29.647017,75.9653037 30.4043561,76.1210803 31.3323864,76.1210803 Z M30.6661932,73.5855689 C29.8110795,73.5855689 29.0885417,73.3585329 28.4985795,72.9044609 C27.9086174,72.450389 27.4578598,71.8189969 27.1463068,71.0102848 C26.8347538,70.2015727 26.6789773,69.2602848 26.6789773,68.1864212 C26.6789773,67.1258151 26.8314394,66.1977848 27.1363636,65.4023303 C27.4412879,64.6068757 27.8903883,63.9870841 28.4836648,63.5429553 C29.0769413,63.0988265 29.8044508,62.8767621 30.6661932,62.8767621 C31.5610795,62.8767621 32.3084754,63.1087697 32.9083807,63.5727848 C33.508286,64.0368 33.9590436,64.6698492 34.2606534,65.4719325 C34.5622633,66.2740159 34.7130682,67.1788454 34.7130682,68.1864212 C34.7130682,69.2072545 34.5589489,70.1253416 34.2507102,70.9406825 C33.9424716,71.7560234 33.4900568,72.4006731 32.8934659,72.8746314 C32.296875,73.3485897 31.5544508,73.5855689 30.6661932,73.5855689 Z M42.5482955,58.1935234 C43.0653409,58.1935234 43.5078125,58.0195178 43.8757102,57.6715064 C44.243608,57.323495 44.4275568,56.9075386 44.4275568,56.4236371 C44.4275568,55.9331068 44.243608,55.5138359 43.8757102,55.1658246 C43.5078125,54.8178132 43.0653409,54.6438075 42.5482955,54.6438075 C42.03125,54.6438075 41.5887784,54.8178132 41.2208807,55.1658246 C40.852983,55.5138359 40.6690341,55.9331068 40.6690341,56.4236371 C40.6690341,56.9075386 40.852983,57.323495 41.2208807,57.6715064 C41.5887784,58.0195178 42.03125,58.1935234 42.5482955,58.1935234 Z M44.0198864,75.8227848 L44.0198864,60.5500575 L41.046875,60.5500575 L41.046875,75.8227848 L44.0198864,75.8227848 Z M54.5994318,76.1310234 C55.7130682,76.1310234 56.7057292,75.9603322 57.5774148,75.6189496 C58.4491004,75.277567 59.1749527,74.7969799 59.7549716,74.1771882 C60.3349905,73.5573966 60.7376894,72.8332015 60.9630682,72.004603 L60.9630682,72.004603 L58.1491477,71.4975007 C57.9701705,71.9747734 57.7116477,72.3758151 57.3735795,72.7006257 C57.0355114,73.0254363 56.6344697,73.2690443 56.1704545,73.4314496 C55.7064394,73.5938549 55.1927083,73.6750575 54.6292614,73.6750575 C53.7608902,73.6750575 53.0018939,73.4877943 52.3522727,73.1132678 C51.7026515,72.7387412 51.1972064,72.1935234 50.8359375,71.4776144 C50.4746686,70.7617053 50.2940341,69.8933341 50.2940341,68.8725007 L50.298,69.0817848 L61.1519886,69.0813075 L61.1519886,68.0273303 C61.1519886,66.6419136 60.9663826,65.4636466 60.5951705,64.4925291 C60.2239583,63.5214117 59.7168561,62.7309287 59.0738636,62.1210803 C58.4308712,61.5112318 57.7050189,61.0637886 56.8963068,60.7787507 C56.0875947,60.4937128 55.2523674,60.3511939 54.390625,60.3511939 C52.9720644,60.3511939 51.7341383,60.6859477 50.6768466,61.3554553 C49.6195549,62.0249628 48.7975852,62.9563075 48.2109375,64.1494894 C47.6242898,65.3426712 47.3309659,66.7214591 47.3309659,68.285853 C47.3309659,69.8701333 47.6242898,71.2505784 48.2109375,72.4271882 C48.7975852,73.6037981 49.6328125,74.5152564 50.7166193,75.1615632 C51.8004261,75.80787 53.094697,76.1310234 54.5994318,76.1310234 Z M50.3018799,66.8491409 C50.3384936,66.194082 50.5032552,65.5808932 50.7961648,65.0095746 C51.1309186,64.356639 51.6081913,63.8263359 52.227983,63.4186655 C52.8477746,63.010995 53.5752841,62.8071598 54.4105114,62.8071598 C55.1794508,62.8071598 55.8506155,62.9828227 56.4240057,63.3341484 C56.9973958,63.6854742 57.4431818,64.1644041 57.7613636,64.7709382 C58.0795455,65.3774723 58.2386364,66.0718378 58.2386364,66.8540348 L58.2386364,66.8540348 L50.301,66.8547848 L50.3018799,66.8491409 Z M69.9417614,76.0216484 C70.4190341,76.0150197 70.8167614,75.9769041 71.1349432,75.9073019 C71.453125,75.8376996 71.6983902,75.7697545 71.8707386,75.7034666 L71.8707386,75.7034666 L71.3338068,73.2475007 C71.234375,73.2673871 71.0951705,73.2939022 70.9161932,73.3270462 C70.7372159,73.3601901 70.5284091,73.3767621 70.2897727,73.3767621 C69.9649621,73.3767621 69.6650095,73.325389 69.3899148,73.2226428 C69.1148201,73.1198966 68.8910985,72.9243473 68.71875,72.635995 C68.5464015,72.3476428 68.4602273,71.9151144 68.4602273,71.3384098 L68.4602273,71.3384098 L68.46,62.9367848 L71.5923295,62.9364212 L71.5923295,60.5500575 L68.46,60.5507848 L68.4602273,56.8909666 L65.4872159,56.8909666 L65.487,60.5507848 L63.25,60.5500575 L63.25,62.9364212 L65.487,62.9367848 L65.4872159,71.9548871 C65.4872159,72.7841484 65.6563494,73.4872308 65.9946165,74.0641342 L66.1136364,74.2517621 C66.53125,74.8616106 67.078125,75.3123681 67.7542614,75.6040348 C68.4303977,75.8957015 69.1595644,76.034906 69.9417614,76.0216484 Z M80.3522727,76.0216484 C80.8295455,76.0150197 81.2272727,75.9769041 81.5454545,75.9073019 C81.8636364,75.8376996 82.1089015,75.7697545 82.28125,75.7034666 L82.28125,75.7034666 L81.7443182,73.2475007 C81.6448864,73.2673871 81.5056818,73.2939022 81.3267045,73.3270462 C81.1477273,73.3601901 80.9389205,73.3767621 80.7002841,73.3767621 C80.3754735,73.3767621 80.0755208,73.325389 79.8004261,73.2226428 C79.5253314,73.1198966 79.3016098,72.9243473 79.1292614,72.635995 C78.9569129,72.3476428 78.8707386,71.9151144 78.8707386,71.3384098 L78.8707386,71.3384098 L78.87,62.9367848 L82.0028409,62.9364212 L82.0028409,60.5500575 L78.87,60.5507848 L78.8707386,56.8909666 L75.8977273,56.8909666 L75.897,60.5507848 L73.6605114,60.5500575 L73.6605114,62.9364212 L75.897,62.9367848 L75.8977273,71.9548871 C75.8977273,72.7841484 76.0668608,73.4872308 76.4051278,74.0641342 L76.5241477,74.2517621 C76.9417614,74.8616106 77.4886364,75.3123681 78.1647727,75.6040348 C78.8409091,75.8957015 79.5700758,76.034906 80.3522727,76.0216484 Z M86.7855114,58.1935234 C87.3025568,58.1935234 87.7450284,58.0195178 88.1129261,57.6715064 C88.4808239,57.323495 88.6647727,56.9075386 88.6647727,56.4236371 C88.6647727,55.9331068 88.4808239,55.5138359 88.1129261,55.1658246 C87.7450284,54.8178132 87.3025568,54.6438075 86.7855114,54.6438075 C86.2684659,54.6438075 85.8259943,54.8178132 85.4580966,55.1658246 C85.0901989,55.5138359 84.90625,55.9331068 84.90625,56.4236371 C84.90625,56.9075386 85.0901989,57.323495 85.4580966,57.6715064 C85.8259943,58.0195178 86.2684659,58.1935234 86.7855114,58.1935234 Z M88.2571023,75.8227848 L88.2571023,60.5500575 L85.2840909,60.5500575 L85.2840909,75.8227848 L88.2571023,75.8227848 Z M99.78125,75.8227848 L105.319602,60.5500575 L102.127841,60.5500575 L98.2698864,72.3028984 L98.1107955,72.3028984 L94.2428977,60.5500575 L91.0511364,60.5500575 L96.5994318,75.8227848 L99.78125,75.8227848 Z M114.546875,76.1310234 C115.978693,76.1310234 117.22822,75.8028984 118.295455,75.1466484 C119.362689,74.4903984 120.191288,73.5723113 120.78125,72.3923871 C121.371212,71.2124628 121.666193,69.833675 121.666193,68.2560234 C121.666193,66.6717431 121.371212,65.2863265 120.78125,64.0997734 C120.191288,62.9132204 119.362689,61.9918189 118.295455,61.3355689 C117.22822,60.6793189 115.978693,60.3511939 114.546875,60.3511939 C113.115057,60.3511939 111.86553,60.6793189 110.798295,61.3355689 C109.731061,61.9918189 108.902462,62.9132204 108.3125,64.0997734 C107.722538,65.2863265 107.427557,66.6717431 107.427557,68.2560234 C107.427557,69.833675 107.722538,71.2124628 108.3125,72.3923871 C108.902462,73.5723113 109.731061,74.4903984 110.798295,75.1466484 C111.86553,75.8028984 113.115057,76.1310234 114.546875,76.1310234 Z M114.556818,73.6352848 C113.622159,73.6352848 112.848248,73.3900197 112.235085,72.8994894 C111.621922,72.4089591 111.16785,71.7560234 110.872869,70.9406825 C110.577888,70.1253416 110.430398,69.2271409 110.430398,68.2460803 C110.430398,67.2716484 110.577888,66.3751049 110.872869,65.5564496 C111.16785,64.7377943 111.621922,64.0798871 112.235085,63.582728 C112.848248,63.0855689 113.622159,62.8369894 114.556818,62.8369894 C115.484848,62.8369894 116.253788,63.0855689 116.863636,63.582728 C117.473485,64.0798871 117.9259,64.7377943 118.220881,65.5564496 C118.515862,66.3751049 118.663352,67.2716484 118.663352,68.2460803 C118.663352,69.2271409 118.515862,70.1253416 118.220881,70.9406825 C117.9259,71.7560234 117.473485,72.4089591 116.863636,72.8994894 C116.253788,73.3900197 115.484848,73.6352848 114.556818,73.6352848 Z" id="Obiettivo" fill="#FFFFFF" fill-rule="nonzero" opacity="0.4"></path>
                        <g id="icon/misc/circle" transform="translate(41.500000, 0.000000)" stroke="#FFFFFF" stroke-opacity="0.25" stroke-width="6">
                            <path d="M19.9916667,6.37552741 C16.2216107,6.37552741 12.8129648,7.92397399 10.3456522,10.4237683 C7.8635942,12.9385021 6.33333331,16.4144225 6.33333331,20.2531646 C6.33333331,24.0919066 7.8635942,27.567827 10.3456522,30.0825608 C12.8129648,32.5823551 16.2216107,34.1308017 19.9916667,34.1308017 C23.7638909,34.1308017 27.1776987,32.5808702 29.6493301,30.0792032 C32.1333524,27.5649947 33.6666667,24.0905422 33.6666667,20.2531646 C33.6666667,16.415787 32.1333524,12.9413344 29.6493301,10.4271259 C27.1776987,7.92545891 23.7638909,6.37552741 19.9916667,6.37552741 Z" id="Path"></path>
                        </g>
                    </g>
                    <line x1="133" y1="97.721519" x2="293" y2="97.721519" id="Line" stroke-opacity="0.25" stroke="#FFFFFF" stroke-width="6"></line>
                    <line x1="340" y1="97.721519" x2="500" y2="97.721519" id="Line" stroke-opacity="0.25" stroke="#FFFFFF" stroke-width="6"></line>
                </g>
            </g>
        </g>
    </g>
</svg>