<?xml version="1.0" encoding="UTF-8"?>
<svg width="621px" height="620px" viewBox="0 0 621 620" version="1.1" xmlns="http://www.w3.org/2000/svg" xmlns:xlink="http://www.w3.org/1999/xlink">
    <!-- Generator: Sketch 64 (93537) - https://sketch.com -->
    <title>obiettivo/circle+text+icon</title>
    <desc>Created with Sketch.</desc>
    <defs>
        <radialGradient cx="50%" cy="100%" fx="50%" fy="100%" r="211.653758%" gradientTransform="translate(0.500000,1.000000),scale(1.000000,0.462419),rotate(90.000000),translate(-0.500000,-1.000000)" id="radialGradient-1">
            <stop stop-color="#00C1FF" offset="0%"></stop>
            <stop stop-color="#00FFAE" offset="100%"></stop>
        </radialGradient>
        <radialGradient cx="50%" cy="100%" fx="50%" fy="100%" r="187.536576%" gradientTransform="translate(0.500000,1.000000),scale(1.000000,0.521886),rotate(90.000000),translate(-0.500000,-1.000000)" id="radialGradient-2">
            <stop stop-color="#00C1FF" offset="0%"></stop>
            <stop stop-color="#00FFAE" offset="100%"></stop>
        </radialGradient>
        <radialGradient cx="50%" cy="100%" fx="50%" fy="100%" r="126.926119%" gradientTransform="translate(0.500000,1.000000),scale(1.000000,0.771100),rotate(90.000000),translate(-0.500000,-1.000000)" id="radialGradient-3">
            <stop stop-color="#00C1FF" offset="0%"></stop>
            <stop stop-color="#00FFAE" offset="100%"></stop>
        </radialGradient>
        <radialGradient cx="50%" cy="100%" fx="50%" fy="100%" r="97.8726774%" gradientTransform="translate(0.500000,1.000000),scale(0.771402,1.000000),rotate(90.000000),translate(-0.500000,-1.000000)" id="radialGradient-4">
            <stop stop-color="#00C1FF" offset="0%"></stop>
            <stop stop-color="#00FFAE" offset="100%"></stop>
        </radialGradient>
        <radialGradient cx="50%" cy="100%" fx="50%" fy="100%" r="187.535413%" gradientTransform="translate(0.500000,1.000000),scale(1.000000,0.521889),rotate(90.000000),translate(-0.500000,-1.000000)" id="radialGradient-5">
            <stop stop-color="#00C1FF" offset="0%"></stop>
            <stop stop-color="#00FFAE" offset="100%"></stop>
        </radialGradient>
        <radialGradient cx="50%" cy="100%" fx="50%" fy="100%" r="126.926416%" gradientTransform="translate(0.500000,1.000000),scale(1.000000,0.771098),rotate(90.000000),translate(-0.500000,-1.000000)" id="radialGradient-6">
            <stop stop-color="#00C1FF" offset="0%"></stop>
            <stop stop-color="#00FFAE" offset="100%"></stop>
        </radialGradient>
        <radialGradient cx="50%" cy="100%" fx="50%" fy="100%" r="97.8726774%" gradientTransform="translate(0.500000,1.000000),scale(0.771385,1.000000),rotate(90.000000),translate(-0.500000,-1.000000)" id="radialGradient-7">
            <stop stop-color="#00C1FF" offset="0%"></stop>
            <stop stop-color="#00FFAE" offset="100%"></stop>
        </radialGradient>
    </defs>
    <g id="Page-1" stroke="none" stroke-width="1" fill="none" fill-rule="evenodd">
        <g id="MPG/overview" transform="translate(-782.000000, -770.000000)">
            <g id="obiettivo/circle+text+icon" transform="translate(782.390436, 770.000000)">
                <g id="obiettivo/circle-outline">
                    <path d="M310,0 C481.208272,0 620,138.791728 620,310 C620,481.208272 481.208272,620 310,620 C138.791728,620 0,481.208272 0,310 C0,138.791728 138.791728,0 310,0 Z M310,12 C145.419145,12 12,145.419145 12,310 C12,474.580855 145.419145,608 310,608 C474.580855,608 608,474.580855 608,310 C608,145.419145 474.580855,12 310,12 Z" id="Circle-outline" fill-opacity="0.15" fill="#FFFFFF" fill-rule="evenodd"></path>
                    <path d="M313,6 C350,6 375,12 401,20" id="Path-3" stroke="#FFFFFF" stroke-width="12" stroke-linecap="round"></path>
                </g>
                <path d="M143.825473,257 L143.825473,222.090909 L139.598201,222.090909 L139.598201,257 L143.825473,257 Z M155.757292,257 L155.757292,222.090909 L151.734564,222.090909 L151.734564,257 L155.757292,257 Z M185.484564,257.340909 C186.234564,257.340909 186.853883,257.286932 187.342519,257.178977 C187.831155,257.071023 188.211837,256.965909 188.484564,256.863636 L188.484564,256.863636 L187.666383,253.25 C187.495928,253.284091 187.268655,253.326705 186.984564,253.377841 C186.700473,253.428977 186.336837,253.454545 185.893655,253.454545 C185.302746,253.454545 184.743087,253.360795 184.214678,253.173295 C183.686269,252.985795 183.254451,252.610795 182.919223,252.048295 C182.583996,251.485795 182.416383,250.636364 182.416383,249.5 L182.416383,249.5 L182.415564,234.228 L188.007292,234.227273 L188.007292,230.818182 L182.415564,230.819 L182.416383,224.545455 L178.393655,224.545455 L178.393564,230.819 L174.43911,230.818182 L174.43911,234.227273 L178.393564,234.228 L178.393655,250.590909 C178.393655,252.00487 178.69985,253.193472 179.31224,254.156714 L179.458996,254.375 C180.169223,255.375 181.066951,256.119318 182.152178,256.607955 C183.237405,257.096591 184.348201,257.340909 185.484564,257.340909 Z M202.530019,257.340909 C204.507292,257.340909 206.143655,256.877841 207.43911,255.951705 C208.734564,255.025568 209.68911,253.897727 210.302746,252.568182 L210.302746,252.568182 L210.575473,252.568182 L210.575473,257 L214.598201,257 L214.598201,230.818182 L210.575473,230.818182 L210.575473,246.295455 C210.575473,247.931818 210.22036,249.278409 209.510133,250.335227 C208.799905,251.392045 207.924905,252.176136 206.885133,252.6875 C205.84536,253.198864 204.825473,253.454545 203.825473,253.454545 C202.155019,253.454545 200.78286,252.886364 199.708996,251.75 C198.635133,250.613636 198.098201,249.090909 198.098201,247.181818 L198.098201,247.181818 L198.098201,230.818182 L194.075473,230.818182 L194.075473,247.454545 C194.075473,249.681818 194.43911,251.525568 195.166383,252.985795 C195.893655,254.446023 196.893655,255.536932 198.166383,256.258523 C199.43911,256.980114 200.893655,257.340909 202.530019,257.340909 Z M232.598201,257.545455 C234.961837,257.545455 237.03286,256.982955 238.811269,255.857955 C240.589678,254.732955 241.976042,253.159091 242.97036,251.136364 C243.964678,249.113636 244.461837,246.75 244.461837,244.045455 C244.461837,241.318182 243.964678,238.9375 242.97036,236.903409 C241.976042,234.869318 240.589678,233.289773 238.811269,232.164773 C237.03286,231.039773 234.961837,230.477273 232.598201,230.477273 C230.234564,230.477273 228.163542,231.039773 226.385133,232.164773 C224.606723,233.289773 223.22036,234.869318 222.226042,236.903409 C221.231723,238.9375 220.734564,241.318182 220.734564,244.045455 C220.734564,246.75 221.231723,249.113636 222.226042,251.136364 C223.22036,253.159091 224.606723,254.732955 226.385133,255.857955 C228.163542,256.982955 230.234564,257.545455 232.598201,257.545455 Z M232.598201,253.931818 C230.802746,253.931818 229.325473,253.471591 228.166383,252.551136 C227.007292,251.630682 226.149337,250.420455 225.592519,248.920455 C225.035701,247.420455 224.757292,245.795455 224.757292,244.045455 C224.757292,242.295455 225.035701,240.664773 225.592519,239.153409 C226.149337,237.642045 227.007292,236.420455 228.166383,235.488636 C229.325473,234.556818 230.802746,234.090909 232.598201,234.090909 C234.393655,234.090909 235.870928,234.556818 237.030019,235.488636 C238.18911,236.420455 239.047064,237.642045 239.603883,239.153409 C240.160701,240.664773 240.43911,242.295455 240.43911,244.045455 C240.43911,245.795455 240.160701,247.420455 239.603883,248.920455 C239.047064,250.420455 238.18911,251.630682 237.030019,252.551136 C235.870928,253.471591 234.393655,253.931818 232.598201,253.931818 Z M274.734564,257.545455 C277.098201,257.545455 279.169223,256.982955 280.947633,255.857955 C282.726042,254.732955 284.112405,253.159091 285.106723,251.136364 C286.101042,249.113636 286.598201,246.75 286.598201,244.045455 C286.598201,241.318182 286.101042,238.9375 285.106723,236.903409 C284.112405,234.869318 282.726042,233.289773 280.947633,232.164773 C279.169223,231.039773 277.098201,230.477273 274.734564,230.477273 C272.370928,230.477273 270.299905,231.039773 268.521496,232.164773 C266.743087,233.289773 265.356723,234.869318 264.362405,236.903409 C263.368087,238.9375 262.870928,241.318182 262.870928,244.045455 C262.870928,246.75 263.368087,249.113636 264.362405,251.136364 C265.356723,253.159091 266.743087,254.732955 268.521496,255.857955 C270.299905,256.982955 272.370928,257.545455 274.734564,257.545455 Z M274.734564,253.931818 C272.93911,253.931818 271.461837,253.471591 270.302746,252.551136 C269.143655,251.630682 268.285701,250.420455 267.728883,248.920455 C267.172064,247.420455 266.893655,245.795455 266.893655,244.045455 C266.893655,242.295455 267.172064,240.664773 267.728883,239.153409 C268.285701,237.642045 269.143655,236.420455 270.302746,235.488636 C271.461837,234.556818 272.93911,234.090909 274.734564,234.090909 C276.530019,234.090909 278.007292,234.556818 279.166383,235.488636 C280.325473,236.420455 281.183428,237.642045 281.740246,239.153409 C282.297064,240.664773 282.575473,242.295455 282.575473,244.045455 C282.575473,245.795455 282.297064,247.420455 281.740246,248.920455 C281.183428,250.420455 280.325473,251.630682 279.166383,252.551136 C278.007292,253.471591 276.530019,253.931818 274.734564,253.931818 Z M305.280019,257.545455 C307.461837,257.545455 309.387973,256.991477 311.058428,255.883523 C312.728883,254.775568 314.035701,253.207386 314.978883,251.178977 C315.922064,249.150568 316.393655,246.75 316.393655,243.977273 C316.393655,241.227273 315.922064,238.840909 314.978883,236.818182 C314.035701,234.795455 312.723201,233.232955 311.041383,232.130682 C309.359564,231.028409 307.416383,230.477273 305.211837,230.477273 C303.507292,230.477273 302.15786,230.758523 301.163542,231.321023 C300.169223,231.883523 299.40786,232.519886 298.879451,233.230114 C298.351042,233.940341 297.93911,234.522727 297.643655,234.977273 L297.643655,234.977273 L297.302746,234.977273 L297.302746,222.090909 L293.280019,222.090909 L293.280019,257 L297.166383,257 L297.166383,252.977273 L297.643655,252.977273 C297.93911,253.454545 298.359564,254.053977 298.905019,254.775568 C299.450473,255.497159 300.228883,256.139205 301.240246,256.701705 C302.25161,257.264205 303.598201,257.545455 305.280019,257.545455 Z M304.734564,253.931818 C303.120928,253.931818 301.757292,253.508523 300.643655,252.661932 C299.530019,251.815341 298.683428,250.639205 298.103883,249.133523 C297.524337,247.627841 297.234564,245.886364 297.234564,243.909091 C297.234564,241.954545 297.518655,240.241477 298.086837,238.769886 C298.655019,237.298295 299.495928,236.150568 300.609564,235.326705 C301.723201,234.502841 303.098201,234.090909 304.734564,234.090909 C306.43911,234.090909 307.856723,234.525568 308.987405,235.394886 C310.118087,236.264205 310.964678,237.440341 311.527178,238.923295 C312.089678,240.40625 312.370928,242.068182 312.370928,243.909091 C312.370928,245.772727 312.083996,247.463068 311.510133,248.980114 C310.936269,250.497159 310.083996,251.701705 308.953314,252.59375 C307.822633,253.485795 306.416383,253.931818 304.734564,253.931818 Z M324.575473,226.454545 C325.359564,226.454545 326.03286,226.1875 326.59536,225.653409 C327.15786,225.119318 327.43911,224.477273 327.43911,223.727273 C327.43911,222.977273 327.15786,222.335227 326.59536,221.801136 C326.03286,221.267045 325.359564,221 324.575473,221 C323.791383,221 323.118087,221.267045 322.555587,221.801136 C321.993087,222.335227 321.711837,222.977273 321.711837,223.727273 C321.711837,224.477273 321.993087,225.119318 322.555587,225.653409 C323.118087,226.1875 323.791383,226.454545 324.575473,226.454545 Z M326.552746,257 L326.552746,230.818182 L322.530019,230.818182 L322.530019,257 L326.552746,257 Z M344.893655,257.545455 C346.666383,257.545455 348.262973,257.269886 349.683428,256.71875 C351.103883,256.167614 352.297064,255.394886 353.262973,254.400568 C354.228883,253.40625 354.916383,252.25 355.325473,250.931818 L355.325473,250.931818 L351.43911,249.840909 C351.098201,250.75 350.615246,251.508523 349.990246,252.116477 C349.365246,252.724432 348.623769,253.178977 347.765814,253.480114 C346.90786,253.78125 345.950473,253.931818 344.893655,253.931818 C343.268655,253.931818 341.842519,253.576705 340.615246,252.866477 C339.387973,252.15625 338.430587,251.116477 337.743087,249.747159 C337.153801,248.573458 336.817067,247.176426 336.732883,245.556064 L336.721564,245.273 L355.734564,245.272727 L355.734564,243.568182 C355.734564,241.125 355.410701,239.068182 354.762973,237.397727 C354.115246,235.727273 353.245928,234.383523 352.155019,233.366477 C351.06411,232.349432 349.853883,231.613636 348.524337,231.159091 C347.194792,230.704545 345.848201,230.477273 344.484564,230.477273 C342.120928,230.477273 340.055587,231.053977 338.288542,232.207386 C336.521496,233.360795 335.146496,234.963068 334.163542,237.014205 C333.180587,239.065341 332.68911,241.431818 332.68911,244.113636 C332.68911,246.795455 333.180587,249.144886 334.163542,251.161932 C335.146496,253.178977 336.549905,254.747159 338.373769,255.866477 C340.197633,256.985795 342.370928,257.545455 344.893655,257.545455 Z M336.737879,241.695076 C336.824684,240.517677 337.128504,239.403409 337.649337,238.352273 C338.274337,237.090909 339.169223,236.065341 340.333996,235.275568 C341.498769,234.485795 342.882292,234.090909 344.484564,234.090909 C345.93911,234.090909 347.203314,234.426136 348.277178,235.096591 C349.351042,235.767045 350.180587,236.681818 350.765814,237.840909 C351.351042,239 351.643655,240.318182 351.643655,241.795455 L351.643655,241.795455 L336.731564,241.796 L336.737879,241.695076 Z M370.734564,257.340909 C371.484564,257.340909 372.103883,257.286932 372.592519,257.178977 C373.081155,257.071023 373.461837,256.965909 373.734564,256.863636 L373.734564,256.863636 L372.916383,253.25 C372.745928,253.284091 372.518655,253.326705 372.234564,253.377841 C371.950473,253.428977 371.586837,253.454545 371.143655,253.454545 C370.552746,253.454545 369.993087,253.360795 369.464678,253.173295 C368.936269,252.985795 368.504451,252.610795 368.169223,252.048295 C367.833996,251.485795 367.666383,250.636364 367.666383,249.5 L367.666383,249.5 L367.665564,234.228 L373.257292,234.227273 L373.257292,230.818182 L367.665564,230.819 L367.666383,224.545455 L363.643655,224.545455 L363.643564,230.819 L359.68911,230.818182 L359.68911,234.227273 L363.643564,234.228 L363.643655,250.590909 C363.643655,252.00487 363.94985,253.193472 364.56224,254.156714 L364.708996,254.375 C365.419223,255.375 366.316951,256.119318 367.402178,256.607955 C368.487405,257.096591 369.598201,257.340909 370.734564,257.340909 Z M388.18911,257.340909 C388.93911,257.340909 389.558428,257.286932 390.047064,257.178977 C390.535701,257.071023 390.916383,256.965909 391.18911,256.863636 L391.18911,256.863636 L390.370928,253.25 C390.200473,253.284091 389.973201,253.326705 389.68911,253.377841 C389.405019,253.428977 389.041383,253.454545 388.598201,253.454545 C388.007292,253.454545 387.447633,253.360795 386.919223,253.173295 C386.390814,252.985795 385.958996,252.610795 385.623769,252.048295 C385.288542,251.485795 385.120928,250.636364 385.120928,249.5 L385.120928,249.5 L385.120564,234.228 L390.711837,234.227273 L390.711837,230.818182 L385.120564,230.819 L385.120928,224.545455 L381.098201,224.545455 L381.097564,230.819 L377.143655,230.818182 L377.143655,234.227273 L381.097564,234.228 L381.098201,250.590909 C381.098201,252.00487 381.404396,253.193472 382.016785,254.156714 L382.163542,254.375 C382.873769,255.375 383.771496,256.119318 384.856723,256.607955 C385.941951,257.096591 387.052746,257.340909 388.18911,257.340909 Z M398.825473,226.454545 C399.609564,226.454545 400.28286,226.1875 400.84536,225.653409 C401.40786,225.119318 401.68911,224.477273 401.68911,223.727273 C401.68911,222.977273 401.40786,222.335227 400.84536,221.801136 C400.28286,221.267045 399.609564,221 398.825473,221 C398.041383,221 397.368087,221.267045 396.805587,221.801136 C396.243087,222.335227 395.961837,222.977273 395.961837,223.727273 C395.961837,224.477273 396.243087,225.119318 396.805587,225.653409 C397.368087,226.1875 398.041383,226.454545 398.825473,226.454545 Z M400.802746,257 L400.802746,230.818182 L396.780019,230.818182 L396.780019,257 L400.802746,257 Z M419.893655,257 L429.575473,230.818182 L425.211837,230.818182 L417.984564,251.681818 L417.711837,251.681818 L410.484564,230.818182 L406.120928,230.818182 L415.802746,257 L419.893655,257 Z M445.530019,257.545455 C447.893655,257.545455 449.964678,256.982955 451.743087,255.857955 C453.521496,254.732955 454.90786,253.159091 455.902178,251.136364 C456.896496,249.113636 457.393655,246.75 457.393655,244.045455 C457.393655,241.318182 456.896496,238.9375 455.902178,236.903409 C454.90786,234.869318 453.521496,233.289773 451.743087,232.164773 C449.964678,231.039773 447.893655,230.477273 445.530019,230.477273 C443.166383,230.477273 441.09536,231.039773 439.316951,232.164773 C437.538542,233.289773 436.152178,234.869318 435.15786,236.903409 C434.163542,238.9375 433.666383,241.318182 433.666383,244.045455 C433.666383,246.75 434.163542,249.113636 435.15786,251.136364 C436.152178,253.159091 437.538542,254.732955 439.316951,255.857955 C441.09536,256.982955 443.166383,257.545455 445.530019,257.545455 Z M445.530019,253.931818 C443.734564,253.931818 442.257292,253.471591 441.098201,252.551136 C439.93911,251.630682 439.081155,250.420455 438.524337,248.920455 C437.967519,247.420455 437.68911,245.795455 437.68911,244.045455 C437.68911,242.295455 437.967519,240.664773 438.524337,239.153409 C439.081155,237.642045 439.93911,236.420455 441.098201,235.488636 C442.257292,234.556818 443.734564,234.090909 445.530019,234.090909 C447.325473,234.090909 448.802746,234.556818 449.961837,235.488636 C451.120928,236.420455 451.978883,237.642045 452.535701,239.153409 C453.092519,240.664773 453.370928,242.295455 453.370928,244.045455 C453.370928,245.795455 453.092519,247.420455 452.535701,248.920455 C451.978883,250.420455 451.120928,251.630682 449.961837,252.551136 C448.802746,253.471591 447.325473,253.931818 445.530019,253.931818 Z" id="Iltuoobiettivo" fill="#FFFFFF" fill-rule="nonzero"></path>
                <path d="M297.437689,483.875 C302.229356,483.875 306.479356,483.0625 310.187689,481.4375 C313.896023,479.8125 316.807481,477.583333 318.922064,474.75 C321.036648,471.916667 322.083523,468.677083 322.062994,465.03125 C322.083523,461.052083 320.859564,457.734375 318.390814,455.078125 C315.922064,452.421875 312.333523,450.791667 307.625189,450.1875 L307.625189,450.1875 L307.625189,449.6875 C311.208523,449.041667 314.119981,447.520833 316.359564,445.125 C318.599148,442.729167 319.708523,439.739583 319.687689,436.15625 C319.708523,432.78125 318.797064,429.734375 316.953314,427.015625 C315.109564,424.296875 312.531439,422.135417 309.218939,420.53125 C305.906439,418.927083 302.041856,418.125 297.625189,418.125 C293.250189,418.125 289.328314,418.921875 285.859564,420.515625 C282.390814,422.109375 279.635606,424.3125 277.593939,427.125 C275.552273,429.9375 274.500189,433.1875 274.437689,436.875 L274.437689,436.875 L287.406439,436.875 C287.468939,435.25 287.958523,433.833333 288.875189,432.625 C289.791856,431.416667 291.010606,430.484375 292.531439,429.828125 C294.052273,429.171875 295.729356,428.84375 297.562689,428.84375 C299.375189,428.84375 300.963731,429.1875 302.328314,429.875 C303.692898,430.5625 304.755398,431.515625 305.515814,432.734375 C306.276231,433.953125 306.656439,435.364583 306.656439,436.96875 C306.656439,438.65625 306.218939,440.130208 305.343939,441.390625 C304.468939,442.651042 303.244981,443.635417 301.672064,444.34375 C300.099148,445.052083 298.291856,445.40625 296.250189,445.40625 L296.250189,445.40625 L290.281439,445.40625 L290.281439,455.34375 L296.250189,455.34375 C298.666856,455.34375 300.755398,455.71875 302.515814,456.46875 C304.276231,457.21875 305.630398,458.255208 306.578314,459.578125 C307.526231,460.901042 308.000189,462.416667 308.000189,464.125 C308.000189,465.8125 307.552273,467.302083 306.656439,468.59375 C305.760606,469.885417 304.521023,470.895833 302.937689,471.625 C301.354356,472.354167 299.531439,472.71875 297.468939,472.71875 C295.489773,472.71875 293.708523,472.395833 292.125189,471.75 C290.541856,471.104167 289.276231,470.192708 288.328314,469.015625 C287.380398,467.838542 286.864773,466.46875 286.781439,464.90625 L286.781439,464.90625 L273.156439,464.90625 C273.218939,468.635417 274.297064,471.921875 276.390814,474.765625 C278.484564,477.609375 281.349148,479.838542 284.984564,481.453125 C288.619981,483.067708 292.771023,483.875 297.437689,483.875 Z" id="3" fill="#FFFFFF" fill-rule="nonzero"></path>
                <path d="M340.630682,463.738636 C342.153409,463.738636 343.440341,463.40625 344.491477,462.741477 C345.542614,462.076705 346.338068,461.196023 346.877841,460.099432 C347.417614,459.002841 347.6875,457.795455 347.6875,456.477273 L347.6875,456.477273 L347.6875,454.636364 C347.6875,453.318182 347.420455,452.107955 346.886364,451.005682 C346.352273,449.903409 345.5625,449.022727 344.517045,448.363636 C343.471591,447.704545 342.176136,447.375 340.630682,447.375 C339.119318,447.375 337.832386,447.704545 336.769886,448.363636 C335.707386,449.022727 334.900568,449.903409 334.349432,451.005682 C333.798295,452.107955 333.522727,453.318182 333.522727,454.636364 L333.522727,454.636364 L333.522727,456.477273 C333.522727,457.795455 333.795455,459.002841 334.340909,460.099432 C334.886364,461.196023 335.684659,462.076705 336.735795,462.741477 C337.786932,463.40625 339.085227,463.738636 340.630682,463.738636 Z M339.011364,483 L363.011364,448.090909 L358.9375,448.090909 L334.9375,483 L339.011364,483 Z M340.630682,460.329545 C339.471591,460.329545 338.661932,459.931818 338.201705,459.136364 C337.741477,458.340909 337.511364,457.454545 337.511364,456.477273 L337.511364,456.477273 L337.511364,454.636364 C337.511364,453.659091 337.747159,452.772727 338.21875,451.977273 C338.690341,451.181818 339.494318,450.784091 340.630682,450.784091 C341.801136,450.784091 342.607955,451.181818 343.051136,451.977273 C343.494318,452.772727 343.715909,453.659091 343.715909,454.636364 L343.715909,454.636364 L343.715909,456.477273 C343.715909,457.454545 343.485795,458.340909 343.025568,459.136364 C342.565341,459.931818 341.767045,460.329545 340.630682,460.329545 Z M358.1875,483.715909 C359.710227,483.715909 360.997159,483.383523 362.048295,482.71875 C363.099432,482.053977 363.897727,481.173295 364.443182,480.076705 C364.988636,478.980114 365.261364,477.772727 365.261364,476.454545 L365.261364,476.454545 L365.261364,474.613636 C365.261364,473.295455 364.991477,472.085227 364.451705,470.982955 C363.911932,469.880682 363.119318,469 362.073864,468.340909 C361.028409,467.681818 359.732955,467.352273 358.1875,467.352273 C356.676136,467.352273 355.392045,467.684659 354.335227,468.349432 C353.278409,469.014205 352.474432,469.894886 351.923295,470.991477 C351.372159,472.088068 351.090909,473.295455 351.079545,474.613636 L351.079545,474.613636 L351.079545,476.454545 C351.090909,477.772727 351.366477,478.980114 351.90625,480.076705 C352.446023,481.173295 353.244318,482.053977 354.301136,482.71875 C355.357955,483.383523 356.653409,483.715909 358.1875,483.715909 Z M358.1875,480.306818 C357.028409,480.306818 356.21875,479.909091 355.758523,479.113636 C355.298295,478.318182 355.0625,477.431818 355.051136,476.454545 L355.051136,476.454545 L355.051136,474.613636 C355.0625,473.636364 355.303977,472.75 355.775568,471.954545 C356.247159,471.159091 357.051136,470.761364 358.1875,470.761364 C359.369318,470.761364 360.178977,471.159091 360.616477,471.954545 C361.053977,472.75 361.272727,473.636364 361.272727,474.613636 L361.272727,474.613636 L361.272727,476.454545 C361.272727,477.431818 361.045455,478.318182 360.590909,479.113636 C360.136364,479.909091 359.335227,480.306818 358.1875,480.306818 Z" id="%" fill="#FFFFFF" fill-rule="nonzero"></path>
                <path d="M107.531439,342 L107.531439,301.71875 L108.000189,301.71875 L135.843939,342 L147.531439,342 L147.531439,278 L134.062689,278 L134.062689,318.25 L133.500189,318.25 L105.875189,278 L94.0001893,278 L94.0001893,342 L107.531439,342 Z M180.125189,342.9375 C184.979356,342.9375 189.172064,341.901042 192.703314,339.828125 C196.234564,337.755208 198.958523,334.859375 200.875189,331.140625 C202.791856,327.421875 203.750189,323.104167 203.750189,318.1875 C203.750189,313.229167 202.791856,308.890625 200.875189,305.171875 C198.958523,301.453125 196.234564,298.557292 192.703314,296.484375 C189.172064,294.411458 184.979356,293.375 180.125189,293.375 C175.271023,293.375 171.078314,294.411458 167.547064,296.484375 C164.015814,298.557292 161.291856,301.453125 159.375189,305.171875 C157.458523,308.890625 156.500189,313.229167 156.500189,318.1875 C156.500189,323.104167 157.458523,327.421875 159.375189,331.140625 C161.291856,334.859375 164.015814,337.755208 167.547064,339.828125 C171.078314,341.901042 175.271023,342.9375 180.125189,342.9375 Z M180.187689,332.625 C177.958523,332.625 176.088731,331.994792 174.578314,330.734375 C173.067898,329.473958 171.932481,327.75 171.172064,325.5625 C170.411648,323.375 170.031439,320.885417 170.031439,318.09375 C170.031439,315.302083 170.411648,312.8125 171.172064,310.625 C171.932481,308.4375 173.067898,306.708333 174.578314,305.4375 C176.088731,304.166667 177.958523,303.53125 180.187689,303.53125 C182.396023,303.53125 184.239773,304.166667 185.718939,305.4375 C187.198106,306.708333 188.317898,308.4375 189.078314,310.625 C189.838731,312.8125 190.218939,315.302083 190.218939,318.09375 C190.218939,320.885417 189.838731,323.375 189.078314,325.5625 C188.317898,327.75 187.198106,329.473958 185.718939,330.734375 C184.239773,331.994792 182.396023,332.625 180.187689,332.625 Z M256.812689,342.90625 C262.021023,342.90625 266.474148,342.119792 270.172064,340.546875 C273.869981,338.973958 276.703314,336.755208 278.672064,333.890625 C280.640814,331.026042 281.635606,327.635417 281.656439,323.71875 C281.635606,321.052083 281.151231,318.6875 280.203314,316.625 C279.255398,314.5625 277.927273,312.770833 276.218939,311.25 C274.510606,309.729167 272.489773,308.447917 270.156439,307.40625 C267.823106,306.364583 265.260606,305.53125 262.468939,304.90625 L262.468939,304.90625 L256.718939,303.53125 C255.323106,303.21875 254.010606,302.838542 252.781439,302.390625 C251.552273,301.942708 250.468939,301.411458 249.531439,300.796875 C248.593939,300.182292 247.859564,299.447917 247.328314,298.59375 C246.797064,297.739583 246.552273,296.739583 246.593939,295.59375 C246.593939,294.21875 246.994981,292.989583 247.797064,291.90625 C248.599148,290.822917 249.760606,289.973958 251.281439,289.359375 C252.802273,288.744792 254.666856,288.4375 256.875189,288.4375 C260.125189,288.4375 262.698106,289.135417 264.593939,290.53125 C266.489773,291.927083 267.562689,293.885417 267.812689,296.40625 L267.812689,296.40625 L280.781439,296.40625 C280.718939,292.59375 279.698106,289.239583 277.718939,286.34375 C275.739773,283.447917 272.974148,281.1875 269.422064,279.5625 C265.869981,277.9375 261.718939,277.125 256.968939,277.125 C252.302273,277.125 248.135606,277.9375 244.468939,279.5625 C240.802273,281.1875 237.922064,283.447917 235.828314,286.34375 C233.734564,289.239583 232.698106,292.625 232.718939,296.5 C232.698106,301.229167 234.250189,304.989583 237.375189,307.78125 C240.500189,310.572917 244.760606,312.625 250.156439,313.9375 L250.156439,313.9375 L257.125189,315.6875 C259.458523,316.25 261.432481,316.875 263.047064,317.5625 C264.661648,318.25 265.890814,319.083333 266.734564,320.0625 C267.578314,321.041667 268.000189,322.25 268.000189,323.6875 C268.000189,325.229167 267.531439,326.59375 266.593939,327.78125 C265.656439,328.96875 264.338731,329.895833 262.640814,330.5625 C260.942898,331.229167 258.948106,331.5625 256.656439,331.5625 C254.323106,331.5625 252.234564,331.203125 250.390814,330.484375 C248.547064,329.765625 247.078314,328.692708 245.984564,327.265625 C244.890814,325.838542 244.271023,324.052083 244.125189,321.90625 L244.125189,321.90625 L231.031439,321.90625 C231.135606,326.510417 232.255398,330.369792 234.390814,333.484375 C236.526231,336.598958 239.505398,338.947917 243.328314,340.53125 C247.151231,342.114583 251.646023,342.90625 256.812689,342.90625 Z M301.234564,341.375 C303.640814,342.354167 306.448106,342.78125 309.656439,342.65625 C311.385606,342.59375 312.854356,342.421875 314.062689,342.140625 C315.271023,341.859375 316.208523,341.614583 316.875189,341.40625 L316.875189,341.40625 L314.781439,331.5 C314.448106,331.5625 313.968939,331.651042 313.343939,331.765625 C312.718939,331.880208 312.093939,331.9375 311.468939,331.9375 C310.573106,331.9375 309.786648,331.802083 309.109564,331.53125 C308.432481,331.260417 307.906439,330.786458 307.531439,330.109375 C307.156439,329.432292 306.968939,328.479167 306.968939,327.25 L306.968939,327.25 L306.968564,304 L316.000189,304 L316.000189,294 L306.968564,294 L306.968939,282.5 L293.656439,282.5 L293.655564,294 L287.093939,294 L287.093939,304 L293.655564,304 L293.656439,329 C293.636648,331.988542 294.227924,334.488229 295.430267,336.499063 L295.625189,336.8125 C296.958523,338.875 298.828314,340.395833 301.234564,341.375 Z M337.968939,342 L337.968939,314.84375 C337.968939,312.885417 338.411648,311.15625 339.297064,309.65625 C340.182481,308.15625 341.390814,306.984375 342.922064,306.140625 C344.453314,305.296875 346.198106,304.875 348.156439,304.875 C349.073106,304.875 350.083523,304.947917 351.187689,305.09375 C352.291856,305.239583 353.156439,305.40625 353.781439,305.59375 L353.781439,305.59375 L353.781439,293.78125 C353.198106,293.635417 352.521023,293.520833 351.750189,293.4375 C350.979356,293.354167 350.260606,293.3125 349.593939,293.3125 C346.906439,293.3125 344.531439,294.078125 342.468939,295.609375 C340.406439,297.140625 338.937689,299.395833 338.062689,302.375 L338.062689,302.375 L337.562689,302.375 L337.562689,294 L324.656439,294 L324.656439,342 L337.968939,342 Z M382.500189,342.9375 C386.458523,342.9375 389.953314,342.328125 392.984564,341.109375 C396.015814,339.890625 398.494981,338.182292 400.422064,335.984375 C402.349148,333.786458 403.625189,331.208333 404.250189,328.25 L404.250189,328.25 L391.937689,327.4375 C391.479356,328.645833 390.812689,329.666667 389.937689,330.5 C389.062689,331.333333 388.010606,331.958333 386.781439,332.375 C385.552273,332.791667 384.198106,333 382.718939,333 C380.489773,333 378.562689,332.53125 376.937689,331.59375 C375.312689,330.65625 374.057481,329.322917 373.172064,327.59375 C372.286648,325.864583 371.843939,323.8125 371.843939,321.4375 L371.843939,321.4375 L371.843564,321.407 L404.531439,321.40625 L404.531439,317.75 C404.531439,313.666667 403.958523,310.098958 402.812689,307.046875 C401.666856,303.994792 400.067898,301.458333 398.015814,299.4375 C395.963731,297.416667 393.567898,295.901042 390.828314,294.890625 C388.088731,293.880208 385.135606,293.375 381.968939,293.375 C377.260606,293.375 373.161648,294.416667 369.672064,296.5 C366.182481,298.583333 363.479356,301.489583 361.562689,305.21875 C359.646023,308.947917 358.687689,313.28125 358.687689,318.21875 C358.687689,323.28125 359.646023,327.661458 361.562689,331.359375 C363.479356,335.057292 366.213731,337.911458 369.765814,339.921875 C373.317898,341.932292 377.562689,342.9375 382.500189,342.9375 Z M371.879016,312.791773 C372.001465,311.208865 372.437689,309.752232 373.187689,308.421875 C374.062689,306.869792 375.276231,305.630208 376.828314,304.703125 C378.380398,303.776042 380.166856,303.3125 382.187689,303.3125 C384.125189,303.3125 385.828314,303.734375 387.297064,304.578125 C388.765814,305.421875 389.916856,306.583333 390.750189,308.0625 C391.583523,309.541667 392.000189,311.239583 392.000189,313.15625 L392.000189,313.15625 L371.856564,313.157 L371.879016,312.791773 Z M432.875189,342.9375 C437.041856,342.9375 440.724148,342.276042 443.922064,340.953125 C447.119981,339.630208 449.640814,337.78125 451.484564,335.40625 C453.328314,333.03125 454.250189,330.270833 454.250189,327.125 C454.250189,323.666667 453.104356,320.875 450.812689,318.75 C448.521023,316.625 445.041856,315.083333 440.375189,314.125 L440.375189,314.125 L431.687689,312.375 C429.458523,311.895833 427.885606,311.260417 426.968939,310.46875 C426.052273,309.677083 425.593939,308.708333 425.593939,307.5625 C425.593939,306.125 426.302273,304.973958 427.718939,304.109375 C429.135606,303.244792 430.875189,302.8125 432.937689,302.8125 C434.479356,302.8125 435.807481,303.067708 436.922064,303.578125 C438.036648,304.088542 438.937689,304.765625 439.625189,305.609375 C440.312689,306.453125 440.760606,307.395833 440.968939,308.4375 L440.968939,308.4375 L453.156439,307.6875 C452.573106,303.270833 450.536648,299.78125 447.047064,297.21875 C443.557481,294.65625 438.781439,293.375 432.718939,293.375 C428.614773,293.375 425.036648,293.979167 421.984564,295.1875 C418.932481,296.395833 416.567898,298.114583 414.890814,300.34375 C413.213731,302.572917 412.375189,305.229167 412.375189,308.3125 C412.375189,311.895833 413.515814,314.84375 415.797064,317.15625 C418.078314,319.46875 421.562689,321.09375 426.250189,322.03125 L426.250189,322.03125 L434.562689,323.6875 C436.646023,324.104167 438.187689,324.703125 439.187689,325.484375 C440.187689,326.265625 440.698106,327.260417 440.718939,328.46875 C440.698106,329.90625 439.974148,331.078125 438.547064,331.984375 C437.119981,332.890625 435.239773,333.34375 432.906439,333.34375 C430.531439,333.34375 428.583523,332.838542 427.062689,331.828125 C425.541856,330.817708 424.583523,329.34375 424.187689,327.40625 L424.187689,327.40625 L411.093939,328.09375 C411.739773,332.677083 413.942898,336.296875 417.703314,338.953125 C421.463731,341.609375 426.521023,342.9375 432.875189,342.9375 Z M482.312689,342.9375 C486.479356,342.9375 490.161648,342.276042 493.359564,340.953125 C496.557481,339.630208 499.078314,337.78125 500.922064,335.40625 C502.765814,333.03125 503.687689,330.270833 503.687689,327.125 C503.687689,323.666667 502.541856,320.875 500.250189,318.75 C497.958523,316.625 494.479356,315.083333 489.812689,314.125 L489.812689,314.125 L481.125189,312.375 C478.896023,311.895833 477.323106,311.260417 476.406439,310.46875 C475.489773,309.677083 475.031439,308.708333 475.031439,307.5625 C475.031439,306.125 475.739773,304.973958 477.156439,304.109375 C478.573106,303.244792 480.312689,302.8125 482.375189,302.8125 C483.916856,302.8125 485.244981,303.067708 486.359564,303.578125 C487.474148,304.088542 488.375189,304.765625 489.062689,305.609375 C489.750189,306.453125 490.198106,307.395833 490.406439,308.4375 L490.406439,308.4375 L502.593939,307.6875 C502.010606,303.270833 499.974148,299.78125 496.484564,297.21875 C492.994981,294.65625 488.218939,293.375 482.156439,293.375 C478.052273,293.375 474.474148,293.979167 471.422064,295.1875 C468.369981,296.395833 466.005398,298.114583 464.328314,300.34375 C462.651231,302.572917 461.812689,305.229167 461.812689,308.3125 C461.812689,311.895833 462.953314,314.84375 465.234564,317.15625 C467.515814,319.46875 471.000189,321.09375 475.687689,322.03125 L475.687689,322.03125 L484.000189,323.6875 C486.083523,324.104167 487.625189,324.703125 488.625189,325.484375 C489.625189,326.265625 490.135606,327.260417 490.156439,328.46875 C490.135606,329.90625 489.411648,331.078125 487.984564,331.984375 C486.557481,332.890625 484.677273,333.34375 482.343939,333.34375 C479.968939,333.34375 478.021023,332.838542 476.500189,331.828125 C474.979356,330.817708 474.021023,329.34375 473.625189,327.40625 L473.625189,327.40625 L460.531439,328.09375 C461.177273,332.677083 463.380398,336.296875 467.140814,338.953125 C470.901231,341.609375 475.958523,342.9375 482.312689,342.9375 Z" id="NoStress" fill="#50E3C2" fill-rule="nonzero"></path>
                <g id="obiettivo/icon/icon-nostress" transform="translate(210.000000, 3.533378)" fill-opacity="0.5" opacity="0.885091146">
                    <g id="Group-3" transform="translate(-0.095745, 35.500000)">
                        <path d="M99.8792289,1.77635684e-13 C99.8792289,1.77635684e-13 32.4589523,59.6862225 99.8792289,129.600299 C167.300586,59.6862225 99.8792289,1.77635684e-13 99.8792289,1.77635684e-13" id="Fill-1" fill="url(#radialGradient-1)"></path>
                        <path d="M60.4343893,7.81692935 C60.4343893,7.81692935 15.2457684,89.8141182 99.8789046,129.599615 C141.954424,37.9922322 60.4343893,7.81692935 60.4343893,7.81692935" id="Fill-4" fill="url(#radialGradient-2)"></path>
                        <path d="M25.7451372,30.3216267 C25.7451372,30.3216267 8.24042417,124.741527 99.8791208,129.599615 C111.534877,27.3461474 25.7451372,30.3216267 25.7451372,30.3216267" id="Fill-6" fill="url(#radialGradient-3)"></path>
                        <path d="M7.2475359e-13,64.8010611 C7.2475359e-13,64.8010611 12.2881053,160.253433 99.8786884,129.599501 C79.7083819,29.0326322 7.2475359e-13,64.8010611 7.2475359e-13,64.8010611" id="Fill-8" fill="url(#radialGradient-4)"></path>
                        <path d="M139.324393,7.81692935 C139.324393,7.81692935 184.513014,89.8141182 99.8787965,129.599615 C57.8043586,37.9922322 139.324393,7.81692935 139.324393,7.81692935" id="Fill-10" fill="url(#radialGradient-5)"></path>
                        <path d="M174.013645,30.3216267 C174.013645,30.3216267 191.517277,124.741527 99.8796613,129.599615 C88.2239048,27.3461474 174.013645,30.3216267 174.013645,30.3216267" id="Fill-12" fill="url(#radialGradient-6)"></path>
                        <path d="M199.759863,64.8010611 C199.759863,64.8010611 187.470677,160.253433 99.8790127,129.599501 C120.049319,29.0326322 199.759863,64.8010611 199.759863,64.8010611" id="Fill-14" fill="url(#radialGradient-7)"></path>
                    </g>
                </g>
            </g>
        </g>
    </g>
</svg>