<?xml version="1.0" encoding="UTF-8"?>
<svg width="205px" height="53px" viewBox="0 0 205 53" version="1.1" xmlns="http://www.w3.org/2000/svg" xmlns:xlink="http://www.w3.org/1999/xlink">
    <!-- Generator: Sketch 64 (93537) - https://sketch.com -->
    <title>Group</title>
    <desc>Created with Sketch.</desc>
    <g id="Page-1" stroke="none" stroke-width="1" fill="none" fill-rule="evenodd">
        <g id="MPG/programma/esercizio" transform="translate(-1707.000000, -400.000000)" fill="#FFFFFF" fill-rule="nonzero">
            <g id="Group" transform="translate(1707.796875, 400.000000)">
                <path d="M7.390625,16 L7.390625,2.078125 L12.3828125,2.078125 L12.3828125,0 L0,0 L0,2.078125 L4.984375,2.078125 L4.984375,16 L7.390625,16 Z M17.2578125,16 L17.2578125,8.875 C17.2578125,8.23958333 17.3815104,7.69661458 17.6289062,7.24609375 C17.8763021,6.79557292 18.2174479,6.453125 18.6523438,6.21875 C19.0872396,5.984375 19.5807292,5.8671875 20.1328125,5.8671875 C20.9401042,5.8671875 21.5703125,6.11067708 22.0234375,6.59765625 C22.4765625,7.08463542 22.703125,7.76822917 22.703125,8.6484375 L22.703125,8.6484375 L22.703125,16 L25.0390625,16 L25.0390625,8.3671875 C25.0390625,7.3671875 24.8684896,6.53255208 24.5273438,5.86328125 C24.1861979,5.19401042 23.7070312,4.69010417 23.0898438,4.3515625 C22.4726562,4.01302083 21.7526042,3.84375 20.9296875,3.84375 C19.9973958,3.84375 19.2421875,4.03385417 18.6640625,4.4140625 C18.0859375,4.79427083 17.65625,5.30729167 17.375,5.953125 L17.375,5.953125 L17.2265625,5.953125 L17.2265625,0 L14.921875,0 L14.921875,16 L17.2578125,16 Z M33.3359375,16.2421875 C34.2109375,16.2421875 34.9908854,16.1080729 35.6757812,15.8398438 C36.3606771,15.5716146 36.9309896,15.1940104 37.3867188,14.7070312 C37.8424479,14.2200521 38.1588542,13.6510417 38.3359375,13 L38.3359375,13 L36.125,12.6015625 C35.984375,12.9765625 35.78125,13.2916667 35.515625,13.546875 C35.25,13.8020833 34.9348958,13.9934896 34.5703125,14.1210938 C34.2057292,14.2486979 33.8020833,14.3125 33.359375,14.3125 C32.6770833,14.3125 32.0807292,14.1653646 31.5703125,13.8710938 C31.0598958,13.5768229 30.6627604,13.1484375 30.3789062,12.5859375 C30.0950521,12.0234375 29.953125,11.3411458 29.953125,10.5390625 L29.956125,10.704 L38.484375,10.703125 L38.484375,9.875 C38.484375,8.78645833 38.3385417,7.86067708 38.046875,7.09765625 C37.7552083,6.33463542 37.3567708,5.71354167 36.8515625,5.234375 C36.3463542,4.75520833 35.7760417,4.40364583 35.140625,4.1796875 C34.5052083,3.95572917 33.8489583,3.84375 33.171875,3.84375 C32.0572917,3.84375 31.0846354,4.10677083 30.2539062,4.6328125 C29.4231771,5.15885417 28.7773438,5.890625 28.3164062,6.828125 C27.8554688,7.765625 27.625,8.84895833 27.625,10.078125 C27.625,11.3229167 27.8554688,12.4075521 28.3164062,13.3320312 C28.7773438,14.2565104 29.4335938,14.9726562 30.2851562,15.4804688 C31.1367188,15.9882812 32.1536458,16.2421875 33.3359375,16.2421875 Z M29.9611767,8.91780931 C29.9933833,8.41493941 30.1222098,7.94363839 30.3476562,7.50390625 C30.6106771,6.99088542 30.9856771,6.57421875 31.4726562,6.25390625 C31.9596354,5.93359375 32.53125,5.7734375 33.1875,5.7734375 C33.7916667,5.7734375 34.3190104,5.91145833 34.7695312,6.1875 C35.2200521,6.46354167 35.5703125,6.83984375 35.8203125,7.31640625 C36.0703125,7.79296875 36.1953125,8.33854167 36.1953125,8.953125 L36.1953125,8.953125 L29.960125,8.954 L29.9611767,8.91780931 Z M52.28125,16 C53.90625,16 55.2916667,15.6783854 56.4375,15.0351562 C57.5833333,14.3919271 58.4596354,13.4713542 59.0664062,12.2734375 C59.6731771,11.0755208 59.9765625,9.64322917 59.9765625,7.9765625 C59.9765625,6.31510417 59.6757812,4.88932292 59.0742188,3.69921875 C58.4726562,2.50911458 57.609375,1.59505208 56.484375,0.95703125 C55.359375,0.319010417 54.0130208,0 52.4453125,0 L52.4453125,0 L47.1015625,0 L47.1015625,16 L52.28125,16 Z M52.1484375,13.890625 L49.515625,13.890625 L49.515625,2.109375 L52.296875,2.109375 C53.4635417,2.109375 54.4401042,2.3359375 55.2265625,2.7890625 C56.0130208,3.2421875 56.6054688,3.90625 57.0039062,4.78125 C57.4023438,5.65625 57.6015625,6.72135417 57.6015625,7.9765625 C57.6015625,9.2421875 57.4010417,10.3138021 57,11.1914062 C56.5989583,12.0690104 55.9947917,12.7382812 55.1875,13.1992188 C54.3802083,13.6601562 53.3671875,13.890625 52.1484375,13.890625 L52.1484375,13.890625 Z M66.28125,16.265625 C66.9427083,16.265625 67.5104167,16.1692708 67.984375,15.9765625 C68.4583333,15.7838542 68.8463542,15.5416667 69.1484375,15.25 C69.4505208,14.9583333 69.6770833,14.6614583 69.828125,14.359375 L69.828125,14.359375 L69.921875,14.359375 L69.921875,16 L72.203125,16 L72.203125,8.03125 C72.203125,7.15625 72.0520833,6.44401042 71.75,5.89453125 C71.4479167,5.34505208 71.0611979,4.921875 70.5898438,4.625 C70.1184896,4.328125 69.6132812,4.12369792 69.0742188,4.01171875 C68.5351562,3.89973958 68.0260417,3.84375 67.546875,3.84375 C66.8229167,3.84375 66.1328125,3.94661458 65.4765625,4.15234375 C64.8203125,4.35807292 64.2408854,4.68619792 63.7382812,5.13671875 C63.2356771,5.58723958 62.8541667,6.17708333 62.59375,6.90625 L62.59375,6.90625 L64.7890625,7.40625 C64.9609375,6.984375 65.2721354,6.60026042 65.7226562,6.25390625 C66.1731771,5.90755208 66.7916667,5.734375 67.578125,5.734375 C68.3333333,5.734375 68.9023438,5.921875 69.2851562,6.296875 C69.6679688,6.671875 69.859375,7.20052083 69.859375,7.8828125 L69.859375,7.8828125 L69.859375,7.9375 C69.859375,8.21875 69.7578125,8.421875 69.5546875,8.546875 C69.3515625,8.671875 69.0260417,8.76171875 68.578125,8.81640625 C68.1302083,8.87109375 67.546875,8.94010417 66.828125,9.0234375 C66.2604167,9.09114583 65.703125,9.19010417 65.15625,9.3203125 C64.609375,9.45052083 64.1145833,9.64322917 63.671875,9.8984375 C63.2291667,10.1536458 62.8776042,10.5 62.6171875,10.9375 C62.3567708,11.375 62.2265625,11.9322917 62.2265625,12.609375 C62.2265625,13.3958333 62.4049479,14.0598958 62.7617188,14.6015625 C63.1184896,15.1432292 63.6041667,15.5559896 64.21875,15.8398438 C64.8333333,16.1236979 65.5208333,16.265625 66.28125,16.265625 Z M66.7890625,14.390625 C66.1276042,14.390625 65.5833333,14.2434896 65.15625,13.9492188 C64.7291667,13.6549479 64.515625,13.21875 64.515625,12.640625 C64.515625,12.2239583 64.6263021,11.8893229 64.8476562,11.6367188 C65.0690104,11.3841146 65.3658854,11.1901042 65.7382812,11.0546875 C66.1106771,10.9192708 66.5234375,10.8229167 66.9765625,10.765625 C67.1692708,10.7395833 67.4088542,10.7070312 67.6953125,10.6679688 C67.9817708,10.6289062 68.2760417,10.5846354 68.578125,10.5351562 C68.8802083,10.4856771 69.1497396,10.4257812 69.3867188,10.3554688 C69.6236979,10.2851562 69.7838542,10.2083333 69.8671875,10.125 L69.8671875,10.125 L69.8671875,11.671875 C69.8671875,12.1458333 69.7460938,12.5898438 69.5039062,13.0039062 C69.2617188,13.4179688 68.9101562,13.7526042 68.4492188,14.0078125 C67.9882812,14.2630208 67.4348958,14.390625 66.7890625,14.390625 Z M77.6484375,16 L77.6484375,8.875 C77.6484375,8.23958333 77.7695312,7.69661458 78.0117188,7.24609375 C78.2539062,6.79557292 78.5846354,6.453125 79.0039062,6.21875 C79.4231771,5.984375 79.9036458,5.8671875 80.4453125,5.8671875 C81.2369792,5.8671875 81.859375,6.11328125 82.3125,6.60546875 C82.765625,7.09765625 82.9921875,7.77864583 82.9921875,8.6484375 L82.9921875,8.6484375 L82.9921875,16 L85.328125,16 L85.328125,8.3671875 C85.328125,7.37760417 85.1588542,6.546875 84.8203125,5.875 C84.4817708,5.203125 84.0052083,4.69661458 83.390625,4.35546875 C82.7760417,4.01432292 82.0598958,3.84375 81.2421875,3.84375 C80.3411458,3.84375 79.5950521,4.03645833 79.0039062,4.421875 C78.4127604,4.80729167 77.9791667,5.31770833 77.703125,5.953125 L77.703125,5.953125 L77.5546875,5.953125 L77.5546875,4 L75.3125,4 L75.3125,16 L77.6484375,16 Z M92.9453125,16.234375 C93.6744792,16.234375 94.2682292,16.1119792 94.7265625,15.8671875 C95.1848958,15.6223958 95.5455729,15.3359375 95.8085938,15.0078125 C96.0716146,14.6796875 96.2734375,14.3880208 96.4140625,14.1328125 L96.4140625,14.1328125 L96.609375,14.1328125 L96.609375,16 L98.890625,16 L98.890625,0 L96.5546875,0 L96.5546875,5.9453125 L96.4140625,5.9453125 C96.2734375,5.6953125 96.0768229,5.40625 95.8242188,5.078125 C95.5716146,4.75 95.2174479,4.46223958 94.7617188,4.21484375 C94.3059896,3.96744792 93.7057292,3.84375 92.9609375,3.84375 C91.9973958,3.84375 91.1354167,4.08854167 90.375,4.578125 C89.6145833,5.06770833 89.0169271,5.7734375 88.5820312,6.6953125 C88.1471354,7.6171875 87.9296875,8.7265625 87.9296875,10.0234375 C87.9296875,11.3203125 88.1445312,12.4309896 88.5742188,13.3554688 C89.0039062,14.2799479 89.5976562,14.9908854 90.3554688,15.4882812 C91.1132812,15.9856771 91.9765625,16.234375 92.9453125,16.234375 Z M93.4609375,14.2421875 C92.7682292,14.2421875 92.1861979,14.0559896 91.7148438,13.6835938 C91.2434896,13.3111979 90.8880208,12.8046875 90.6484375,12.1640625 C90.4088542,11.5234375 90.2890625,10.8020833 90.2890625,10 C90.2890625,9.20833333 90.4075521,8.49739583 90.6445312,7.8671875 C90.8815104,7.23697917 91.234375,6.73958333 91.703125,6.375 C92.171875,6.01041667 92.7578125,5.828125 93.4609375,5.828125 C94.1432292,5.828125 94.7161458,6.00260417 95.1796875,6.3515625 C95.6432292,6.70052083 95.9947917,7.1875 96.234375,7.8125 C96.4739583,8.4375 96.59375,9.16666667 96.59375,10 C96.59375,10.84375 96.4726562,11.5833333 96.2304688,12.21875 C95.9882812,12.8541667 95.6341146,13.3502604 95.1679688,13.7070312 C94.7018229,14.0638021 94.1328125,14.2421875 93.4609375,14.2421875 Z M103.695312,20.46875 C104.341146,20.46875 104.908854,20.359375 105.398438,20.140625 C105.888021,19.921875 106.309896,19.5989583 106.664062,19.171875 C107.018229,18.7447917 107.309896,18.2213542 107.539062,17.6015625 L107.539062,17.6015625 L112.5,4.0234375 L109.976562,4 L106.9375,13.3125 L106.8125,13.3125 L103.773438,4 L101.273438,4 L105.664062,16.15625 L105.375,16.953125 C105.078125,17.7291667 104.71224,18.1914062 104.277344,18.3398438 C103.842448,18.4882812 103.304688,18.4739583 102.664062,18.296875 L102.664062,18.296875 L102.101562,20.2109375 C102.242188,20.2734375 102.455729,20.3320312 102.742188,20.3867188 C103.028646,20.4414062 103.346354,20.46875 103.695312,20.46875 Z M126.28125,16 L129.648438,4.015625 L129.773438,4.015625 L133.140625,16 L135.570312,16 L140.015625,0 L137.46875,0 L134.359375,12.3984375 L134.210938,12.3984375 L130.96875,0 L128.453125,0 L125.210938,12.390625 L125.0625,12.390625 L121.945312,0 L119.40625,0 L123.84375,16 L126.28125,16 Z M145.53125,16.265625 C146.192708,16.265625 146.760417,16.1692708 147.234375,15.9765625 C147.708333,15.7838542 148.096354,15.5416667 148.398438,15.25 C148.700521,14.9583333 148.927083,14.6614583 149.078125,14.359375 L149.078125,14.359375 L149.171875,14.359375 L149.171875,16 L151.453125,16 L151.453125,8.03125 C151.453125,7.15625 151.302083,6.44401042 151,5.89453125 C150.697917,5.34505208 150.311198,4.921875 149.839844,4.625 C149.36849,4.328125 148.863281,4.12369792 148.324219,4.01171875 C147.785156,3.89973958 147.276042,3.84375 146.796875,3.84375 C146.072917,3.84375 145.382812,3.94661458 144.726562,4.15234375 C144.070312,4.35807292 143.490885,4.68619792 142.988281,5.13671875 C142.485677,5.58723958 142.104167,6.17708333 141.84375,6.90625 L141.84375,6.90625 L144.039062,7.40625 C144.210938,6.984375 144.522135,6.60026042 144.972656,6.25390625 C145.423177,5.90755208 146.041667,5.734375 146.828125,5.734375 C147.583333,5.734375 148.152344,5.921875 148.535156,6.296875 C148.917969,6.671875 149.109375,7.20052083 149.109375,7.8828125 L149.109375,7.8828125 L149.109375,7.9375 C149.109375,8.21875 149.007812,8.421875 148.804688,8.546875 C148.601562,8.671875 148.276042,8.76171875 147.828125,8.81640625 C147.380208,8.87109375 146.796875,8.94010417 146.078125,9.0234375 C145.510417,9.09114583 144.953125,9.19010417 144.40625,9.3203125 C143.859375,9.45052083 143.364583,9.64322917 142.921875,9.8984375 C142.479167,10.1536458 142.127604,10.5 141.867188,10.9375 C141.606771,11.375 141.476562,11.9322917 141.476562,12.609375 C141.476562,13.3958333 141.654948,14.0598958 142.011719,14.6015625 C142.36849,15.1432292 142.854167,15.5559896 143.46875,15.8398438 C144.083333,16.1236979 144.770833,16.265625 145.53125,16.265625 Z M146.039062,14.390625 C145.377604,14.390625 144.833333,14.2434896 144.40625,13.9492188 C143.979167,13.6549479 143.765625,13.21875 143.765625,12.640625 C143.765625,12.2239583 143.876302,11.8893229 144.097656,11.6367188 C144.31901,11.3841146 144.615885,11.1901042 144.988281,11.0546875 C145.360677,10.9192708 145.773438,10.8229167 146.226562,10.765625 C146.419271,10.7395833 146.658854,10.7070312 146.945312,10.6679688 C147.231771,10.6289062 147.526042,10.5846354 147.828125,10.5351562 C148.130208,10.4856771 148.39974,10.4257812 148.636719,10.3554688 C148.873698,10.2851562 149.033854,10.2083333 149.117188,10.125 L149.117188,10.125 L149.117188,11.671875 C149.117188,12.1458333 148.996094,12.5898438 148.753906,13.0039062 C148.511719,13.4179688 148.160156,13.7526042 147.699219,14.0078125 C147.238281,14.2630208 146.684896,14.390625 146.039062,14.390625 Z M156.898438,16 L156.898438,8.671875 C156.898438,8.15104167 157.023438,7.68619792 157.273438,7.27734375 C157.523438,6.86848958 157.863281,6.54817708 158.292969,6.31640625 C158.722656,6.08463542 159.213542,5.96875 159.765625,5.96875 C160.005208,5.96875 160.244792,5.98567708 160.484375,6.01953125 C160.723958,6.05338542 160.890625,6.08333333 160.984375,6.109375 L160.984375,6.109375 L160.984375,3.875 C160.869792,3.859375 160.71224,3.84635417 160.511719,3.8359375 C160.311198,3.82552083 160.138021,3.8203125 159.992188,3.8203125 C159.289062,3.8203125 158.660156,4.00651042 158.105469,4.37890625 C157.550781,4.75130208 157.164062,5.26041667 156.945312,5.90625 L156.945312,5.90625 L156.820312,5.90625 L156.820312,4 L154.5625,4 L154.5625,16 L156.898438,16 Z M165.351562,16 L165.351562,8.875 C165.351562,8.23958333 165.47526,7.69661458 165.722656,7.24609375 C165.970052,6.79557292 166.311198,6.453125 166.746094,6.21875 C167.18099,5.984375 167.674479,5.8671875 168.226562,5.8671875 C169.033854,5.8671875 169.664062,6.11067708 170.117188,6.59765625 C170.570312,7.08463542 170.796875,7.76822917 170.796875,8.6484375 L170.796875,8.6484375 L170.796875,16 L173.132812,16 L173.132812,8.3671875 C173.132812,7.3671875 172.96224,6.53255208 172.621094,5.86328125 C172.279948,5.19401042 171.800781,4.69010417 171.183594,4.3515625 C170.566406,4.01302083 169.846354,3.84375 169.023438,3.84375 C168.091146,3.84375 167.335938,4.03385417 166.757812,4.4140625 C166.179688,4.79427083 165.75,5.30729167 165.46875,5.953125 L165.46875,5.953125 L165.320312,5.953125 L165.320312,0 L163.015625,0 L163.015625,16 L165.351562,16 Z M181.3125,16.2421875 C182.4375,16.2421875 183.419271,15.984375 184.257812,15.46875 C185.096354,14.953125 185.747396,14.2317708 186.210938,13.3046875 C186.674479,12.3776042 186.90625,11.2942708 186.90625,10.0546875 C186.90625,8.80989583 186.674479,7.72135417 186.210938,6.7890625 C185.747396,5.85677083 185.096354,5.1328125 184.257812,4.6171875 C183.419271,4.1015625 182.4375,3.84375 181.3125,3.84375 C180.1875,3.84375 179.205729,4.1015625 178.367188,4.6171875 C177.528646,5.1328125 176.877604,5.85677083 176.414062,6.7890625 C175.950521,7.72135417 175.71875,8.80989583 175.71875,10.0546875 C175.71875,11.2942708 175.950521,12.3776042 176.414062,13.3046875 C176.877604,14.2317708 177.528646,14.953125 178.367188,15.46875 C179.205729,15.984375 180.1875,16.2421875 181.3125,16.2421875 Z M181.320312,14.28125 C180.585938,14.28125 179.977865,14.0885417 179.496094,13.703125 C179.014323,13.3177083 178.657552,12.8046875 178.425781,12.1640625 C178.19401,11.5234375 178.078125,10.8177083 178.078125,10.046875 C178.078125,9.28125 178.19401,8.57682292 178.425781,7.93359375 C178.657552,7.29036458 179.014323,6.7734375 179.496094,6.3828125 C179.977865,5.9921875 180.585938,5.796875 181.320312,5.796875 C182.049479,5.796875 182.653646,5.9921875 183.132812,6.3828125 C183.611979,6.7734375 183.967448,7.29036458 184.199219,7.93359375 C184.43099,8.57682292 184.546875,9.28125 184.546875,10.046875 C184.546875,10.8177083 184.43099,11.5234375 184.199219,12.1640625 C183.967448,12.8046875 183.611979,13.3177083 183.132812,13.703125 C182.653646,14.0885417 182.049479,14.28125 181.320312,14.28125 Z M191.84375,16 L191.84375,0 L189.507812,0 L189.507812,16 L191.84375,16 Z M199.304688,16.2421875 C200.273438,16.2421875 201.126302,16.0833333 201.863281,15.765625 C202.60026,15.4479167 203.175781,15.0091146 203.589844,14.4492188 C204.003906,13.8893229 204.210938,13.25 204.210938,12.53125 C204.210938,11.6822917 203.940104,10.9921875 203.398438,10.4609375 C202.856771,9.9296875 202.033854,9.53645833 200.929688,9.28125 L200.929688,9.28125 L199.023438,8.84375 C198.361979,8.6875 197.882812,8.48697917 197.585938,8.2421875 C197.289062,7.99739583 197.140625,7.67447917 197.140625,7.2734375 C197.140625,6.80989583 197.361979,6.43098958 197.804688,6.13671875 C198.247396,5.84244792 198.799479,5.6953125 199.460938,5.6953125 C199.945312,5.6953125 200.348958,5.7734375 200.671875,5.9296875 C200.994792,6.0859375 201.251302,6.28645833 201.441406,6.53125 C201.63151,6.77604167 201.770833,7.03385417 201.859375,7.3046875 L201.859375,7.3046875 L203.976562,6.9296875 C203.736979,5.9921875 203.244792,5.24348958 202.5,4.68359375 C201.755208,4.12369792 200.734375,3.84375 199.4375,3.84375 C198.536458,3.84375 197.736979,3.99348958 197.039062,4.29296875 C196.341146,4.59244792 195.794271,5.0078125 195.398438,5.5390625 C195.002604,6.0703125 194.804688,6.69010417 194.804688,7.3984375 C194.804688,8.25260417 195.071615,8.95833333 195.605469,9.515625 C196.139323,10.0729167 196.966146,10.4791667 198.085938,10.734375 L198.085938,10.734375 L200.117188,11.1796875 C200.690104,11.3098958 201.115885,11.5026042 201.394531,11.7578125 C201.673177,12.0130208 201.8125,12.328125 201.8125,12.703125 C201.8125,13.1666667 201.583333,13.5585938 201.125,13.8789062 C200.666667,14.1992188 200.054688,14.359375 199.289062,14.359375 C198.585938,14.359375 198.015625,14.2096354 197.578125,13.9101562 C197.140625,13.6106771 196.851562,13.1666667 196.710938,12.578125 L196.710938,12.578125 L194.453125,12.921875 C194.645833,13.984375 195.166667,14.8033854 196.015625,15.3789062 C196.864583,15.9544271 197.960938,16.2421875 199.304688,16.2421875 Z" id="TheDandyWarhols"></path>
                <path d="M22.1328125,48 C23.3723958,48 24.390625,47.8111979 25.1875,47.4335938 C25.984375,47.0559896 26.5742188,46.5429688 26.9570312,45.8945312 C27.3398438,45.2460938 27.53125,44.5130208 27.53125,43.6953125 C27.53125,42.8671875 27.3645833,42.1640625 27.03125,41.5859375 C26.6979167,41.0078125 26.2773438,40.5611979 25.7695312,40.2460938 C25.2617188,39.9309896 24.7421875,39.7604167 24.2109375,39.734375 L24.2109375,39.734375 L24.2109375,39.578125 C24.7005208,39.453125 25.1497396,39.2539062 25.5585938,38.9804688 C25.9674479,38.7070312 26.2942708,38.3424479 26.5390625,37.8867188 C26.7838542,37.4309896 26.90625,36.8697917 26.90625,36.203125 C26.90625,35.4114583 26.7213542,34.6992188 26.3515625,34.0664062 C25.9817708,33.4335938 25.4244792,32.9309896 24.6796875,32.5585938 C23.9348958,32.1861979 22.9947917,32 21.859375,32 L21.859375,32 L16,32 L16,48 L22.1328125,48 Z M21.6484375,38.921875 L18.4140625,38.921875 L18.4140625,34.0546875 L21.7109375,34.0546875 C22.6692708,34.0546875 23.3802083,34.2786458 23.84375,34.7265625 C24.3072917,35.1744792 24.5390625,35.7291667 24.5390625,36.390625 C24.5390625,36.90625 24.4101562,37.3528646 24.1523438,37.7304688 C23.8945312,38.1080729 23.5481771,38.4010417 23.1132812,38.609375 C22.6783854,38.8177083 22.1901042,38.921875 21.6484375,38.921875 L21.6484375,38.921875 Z M21.8984375,45.9296875 L18.4140625,45.9296875 L18.4140625,40.8046875 L21.984375,40.8046875 C22.6302083,40.8046875 23.1888021,40.9296875 23.6601562,41.1796875 C24.1315104,41.4296875 24.4947917,41.765625 24.75,42.1875 C25.0052083,42.609375 25.1328125,43.0729167 25.1328125,43.578125 C25.1328125,44.25 24.8828125,44.8098958 24.3828125,45.2578125 C23.8828125,45.7057292 23.0546875,45.9296875 21.8984375,45.9296875 L21.8984375,45.9296875 Z M35.2578125,48.2421875 C36.3828125,48.2421875 37.3645833,47.984375 38.203125,47.46875 C39.0416667,46.953125 39.6927083,46.2317708 40.15625,45.3046875 C40.6197917,44.3776042 40.8515625,43.2942708 40.8515625,42.0546875 C40.8515625,40.8098958 40.6197917,39.7213542 40.15625,38.7890625 C39.6927083,37.8567708 39.0416667,37.1328125 38.203125,36.6171875 C37.3645833,36.1015625 36.3828125,35.84375 35.2578125,35.84375 C34.1328125,35.84375 33.1510417,36.1015625 32.3125,36.6171875 C31.4739583,37.1328125 30.8229167,37.8567708 30.359375,38.7890625 C29.8958333,39.7213542 29.6640625,40.8098958 29.6640625,42.0546875 C29.6640625,43.2942708 29.8958333,44.3776042 30.359375,45.3046875 C30.8229167,46.2317708 31.4739583,46.953125 32.3125,47.46875 C33.1510417,47.984375 34.1328125,48.2421875 35.2578125,48.2421875 Z M35.265625,46.28125 C34.53125,46.28125 33.9231771,46.0885417 33.4414062,45.703125 C32.9596354,45.3177083 32.6028646,44.8046875 32.3710938,44.1640625 C32.1393229,43.5234375 32.0234375,42.8177083 32.0234375,42.046875 C32.0234375,41.28125 32.1393229,40.5768229 32.3710938,39.9335938 C32.6028646,39.2903646 32.9596354,38.7734375 33.4414062,38.3828125 C33.9231771,37.9921875 34.53125,37.796875 35.265625,37.796875 C35.9947917,37.796875 36.5989583,37.9921875 37.078125,38.3828125 C37.5572917,38.7734375 37.9127604,39.2903646 38.1445312,39.9335938 C38.3763021,40.5768229 38.4921875,41.28125 38.4921875,42.046875 C38.4921875,42.8177083 38.3763021,43.5234375 38.1445312,44.1640625 C37.9127604,44.8046875 37.5572917,45.3177083 37.078125,45.703125 C36.5989583,46.0885417 35.9947917,46.28125 35.265625,46.28125 Z M45.7890625,48 L45.7890625,40.875 C45.7890625,40.2395833 45.9127604,39.6966146 46.1601562,39.2460938 C46.4075521,38.7955729 46.7486979,38.453125 47.1835938,38.21875 C47.6184896,37.984375 48.1119792,37.8671875 48.6640625,37.8671875 C49.4713542,37.8671875 50.1015625,38.1106771 50.5546875,38.5976562 C51.0078125,39.0846354 51.234375,39.7682292 51.234375,40.6484375 L51.234375,40.6484375 L51.234375,48 L53.5703125,48 L53.5703125,40.3671875 C53.5703125,39.3671875 53.3997396,38.5325521 53.0585938,37.8632812 C52.7174479,37.1940104 52.2382812,36.6901042 51.6210938,36.3515625 C51.0039062,36.0130208 50.2838542,35.84375 49.4609375,35.84375 C48.5286458,35.84375 47.7734375,36.0338542 47.1953125,36.4140625 C46.6171875,36.7942708 46.1875,37.3072917 45.90625,37.953125 L45.90625,37.953125 L45.7578125,37.953125 L45.7578125,32 L43.453125,32 L43.453125,48 L45.7890625,48 Z M61.8671875,48.2421875 C62.7421875,48.2421875 63.5221354,48.1080729 64.2070312,47.8398438 C64.8919271,47.5716146 65.4622396,47.1940104 65.9179688,46.7070312 C66.3736979,46.2200521 66.6901042,45.6510417 66.8671875,45 L66.8671875,45 L64.65625,44.6015625 C64.515625,44.9765625 64.3125,45.2916667 64.046875,45.546875 C63.78125,45.8020833 63.4661458,45.9934896 63.1015625,46.1210938 C62.7369792,46.2486979 62.3333333,46.3125 61.890625,46.3125 C61.2083333,46.3125 60.6119792,46.1653646 60.1015625,45.8710938 C59.5911458,45.5768229 59.1940104,45.1484375 58.9101562,44.5859375 C58.6263021,44.0234375 58.484375,43.3411458 58.484375,42.5390625 L58.487125,42.704 L67.015625,42.703125 L67.015625,41.875 C67.015625,40.7864583 66.8697917,39.8606771 66.578125,39.0976562 C66.2864583,38.3346354 65.8880208,37.7135417 65.3828125,37.234375 C64.8776042,36.7552083 64.3072917,36.4036458 63.671875,36.1796875 C63.0364583,35.9557292 62.3802083,35.84375 61.703125,35.84375 C60.5885417,35.84375 59.6158854,36.1067708 58.7851562,36.6328125 C57.9544271,37.1588542 57.3085938,37.890625 56.8476562,38.828125 C56.3867188,39.765625 56.15625,40.8489583 56.15625,42.078125 C56.15625,43.3229167 56.3867188,44.4075521 56.8476562,45.3320312 C57.3085938,46.2565104 57.9648438,46.9726562 58.8164062,47.4804688 C59.6679688,47.9882812 60.6848958,48.2421875 61.8671875,48.2421875 Z M58.4924267,40.9178093 C58.5246333,40.4149394 58.6534598,39.9436384 58.8789062,39.5039062 C59.1419271,38.9908854 59.5169271,38.5742188 60.0039062,38.2539062 C60.4908854,37.9335938 61.0625,37.7734375 61.71875,37.7734375 C62.3229167,37.7734375 62.8502604,37.9114583 63.3007812,38.1875 C63.7513021,38.4635417 64.1015625,38.8398438 64.3515625,39.3164062 C64.6015625,39.7929688 64.7265625,40.3385417 64.7265625,40.953125 L64.7265625,40.953125 L58.491125,40.954 L58.4924267,40.9178093 Z M71.953125,48 L71.953125,40.6015625 C71.953125,40.0598958 72.0664062,39.5833333 72.2929688,39.171875 C72.5195312,38.7604167 72.8190104,38.4388021 73.1914062,38.2070312 C73.5638021,37.9752604 73.9713542,37.859375 74.4140625,37.859375 C75.0651042,37.859375 75.59375,38.0572917 76,38.453125 C76.40625,38.8489583 76.609375,39.3723958 76.609375,40.0234375 L76.609375,40.0234375 L76.609375,48 L78.9375,48 L78.9375,40.3515625 C78.9375,39.6223958 79.1484375,39.0247396 79.5703125,38.5585938 C79.9921875,38.0924479 80.5833333,37.859375 81.34375,37.859375 C81.9583333,37.859375 82.4869792,38.0416667 82.9296875,38.40625 C83.3723958,38.7708333 83.59375,39.359375 83.59375,40.171875 L83.59375,40.171875 L83.59375,48 L85.9296875,48 L85.9296875,39.953125 C85.9296875,38.578125 85.5846354,37.5494792 84.8945312,36.8671875 C84.2044271,36.1848958 83.3151042,35.84375 82.2265625,35.84375 C81.3619792,35.84375 80.6171875,36.0351562 79.9921875,36.4179688 C79.3671875,36.8007812 78.9114583,37.3125 78.625,37.953125 L78.625,37.953125 L78.5,37.953125 C78.2395833,37.296875 77.8372396,36.78125 77.2929688,36.40625 C76.7486979,36.03125 76.0755208,35.84375 75.2734375,35.84375 C74.4817708,35.84375 73.8020833,36.0299479 73.234375,36.4023438 C72.6666667,36.7747396 72.2578125,37.2916667 72.0078125,37.953125 L72.0078125,37.953125 L71.859375,37.953125 L71.859375,36 L69.6171875,36 L69.6171875,48 L71.953125,48 Z M90.234375,34.1484375 C90.640625,34.1484375 90.9882812,34.0117188 91.2773438,33.7382812 C91.5664062,33.4648438 91.7109375,33.1380208 91.7109375,32.7578125 C91.7109375,32.3723958 91.5664062,32.0429688 91.2773438,31.7695312 C90.9882812,31.4960938 90.640625,31.359375 90.234375,31.359375 C89.828125,31.359375 89.4804688,31.4960938 89.1914062,31.7695312 C88.9023438,32.0429688 88.7578125,32.3723958 88.7578125,32.7578125 C88.7578125,33.1380208 88.9023438,33.4648438 89.1914062,33.7382812 C89.4804688,34.0117188 89.828125,34.1484375 90.234375,34.1484375 Z M91.390625,48 L91.390625,36 L89.0546875,36 L89.0546875,48 L91.390625,48 Z M98.0234375,48.265625 C98.6848958,48.265625 99.2526042,48.1692708 99.7265625,47.9765625 C100.200521,47.7838542 100.588542,47.5416667 100.890625,47.25 C101.192708,46.9583333 101.419271,46.6614583 101.570312,46.359375 L101.570312,46.359375 L101.664062,46.359375 L101.664062,48 L103.945312,48 L103.945312,40.03125 C103.945312,39.15625 103.794271,38.4440104 103.492188,37.8945312 C103.190104,37.3450521 102.803385,36.921875 102.332031,36.625 C101.860677,36.328125 101.355469,36.1236979 100.816406,36.0117188 C100.277344,35.8997396 99.7682292,35.84375 99.2890625,35.84375 C98.5651042,35.84375 97.875,35.9466146 97.21875,36.1523438 C96.5625,36.3580729 95.9830729,36.6861979 95.4804688,37.1367188 C94.9778646,37.5872396 94.5963542,38.1770833 94.3359375,38.90625 L94.3359375,38.90625 L96.53125,39.40625 C96.703125,38.984375 97.0143229,38.6002604 97.4648438,38.2539062 C97.9153646,37.9075521 98.5338542,37.734375 99.3203125,37.734375 C100.075521,37.734375 100.644531,37.921875 101.027344,38.296875 C101.410156,38.671875 101.601562,39.2005208 101.601562,39.8828125 L101.601562,39.8828125 L101.601562,39.9375 C101.601562,40.21875 101.5,40.421875 101.296875,40.546875 C101.09375,40.671875 100.768229,40.7617188 100.320312,40.8164062 C99.8723958,40.8710938 99.2890625,40.9401042 98.5703125,41.0234375 C98.0026042,41.0911458 97.4453125,41.1901042 96.8984375,41.3203125 C96.3515625,41.4505208 95.8567708,41.6432292 95.4140625,41.8984375 C94.9713542,42.1536458 94.6197917,42.5 94.359375,42.9375 C94.0989583,43.375 93.96875,43.9322917 93.96875,44.609375 C93.96875,45.3958333 94.1471354,46.0598958 94.5039062,46.6015625 C94.8606771,47.1432292 95.3463542,47.5559896 95.9609375,47.8398438 C96.5755208,48.1236979 97.2630208,48.265625 98.0234375,48.265625 Z M98.53125,46.390625 C97.8697917,46.390625 97.3255208,46.2434896 96.8984375,45.9492188 C96.4713542,45.6549479 96.2578125,45.21875 96.2578125,44.640625 C96.2578125,44.2239583 96.3684896,43.8893229 96.5898438,43.6367188 C96.8111979,43.3841146 97.1080729,43.1901042 97.4804688,43.0546875 C97.8528646,42.9192708 98.265625,42.8229167 98.71875,42.765625 C98.9114583,42.7395833 99.1510417,42.7070312 99.4375,42.6679688 C99.7239583,42.6289062 100.018229,42.5846354 100.320312,42.5351562 C100.622396,42.4856771 100.891927,42.4257812 101.128906,42.3554688 C101.365885,42.2851562 101.526042,42.2083333 101.609375,42.125 L101.609375,42.125 L101.609375,43.671875 C101.609375,44.1458333 101.488281,44.5898438 101.246094,45.0039062 C101.003906,45.4179688 100.652344,45.7526042 100.191406,46.0078125 C99.7304688,46.2630208 99.1770833,46.390625 98.53125,46.390625 Z M109.390625,48 L109.390625,40.875 C109.390625,40.2395833 109.511719,39.6966146 109.753906,39.2460938 C109.996094,38.7955729 110.326823,38.453125 110.746094,38.21875 C111.165365,37.984375 111.645833,37.8671875 112.1875,37.8671875 C112.979167,37.8671875 113.601562,38.1132812 114.054688,38.6054688 C114.507812,39.0976562 114.734375,39.7786458 114.734375,40.6484375 L114.734375,40.6484375 L114.734375,48 L117.070312,48 L117.070312,40.3671875 C117.070312,39.3776042 116.901042,38.546875 116.5625,37.875 C116.223958,37.203125 115.747396,36.6966146 115.132812,36.3554688 C114.518229,36.0143229 113.802083,35.84375 112.984375,35.84375 C112.083333,35.84375 111.33724,36.0364583 110.746094,36.421875 C110.154948,36.8072917 109.721354,37.3177083 109.445312,37.953125 L109.445312,37.953125 L109.296875,37.953125 L109.296875,36 L107.054688,36 L107.054688,48 L109.390625,48 Z M128.359375,48 L128.359375,32 L126.023438,32 L126.023438,48 L128.359375,48 Z M132.679688,34.1484375 C133.085938,34.1484375 133.433594,34.0117188 133.722656,33.7382812 C134.011719,33.4648438 134.15625,33.1380208 134.15625,32.7578125 C134.15625,32.3723958 134.011719,32.0429688 133.722656,31.7695312 C133.433594,31.4960938 133.085938,31.359375 132.679688,31.359375 C132.273438,31.359375 131.925781,31.4960938 131.636719,31.7695312 C131.347656,32.0429688 131.203125,32.3723958 131.203125,32.7578125 C131.203125,33.1380208 131.347656,33.4648438 131.636719,33.7382812 C131.925781,34.0117188 132.273438,34.1484375 132.679688,34.1484375 Z M133.835938,48 L133.835938,36 L131.5,36 L131.5,48 L133.835938,48 Z M139.3125,32 L136.976562,32 L136.976562,48 L139.3125,48 L139.312125,43.742 L140.472125,42.583 L144.554688,48 L147.421875,48 L142.235125,41.151 L147.09375,36 L144.296875,36 L139.515625,41.078125 L139.312125,41.079 L139.3125,32 Z M154.390625,48.2421875 C155.265625,48.2421875 156.045573,48.1080729 156.730469,47.8398438 C157.415365,47.5716146 157.985677,47.1940104 158.441406,46.7070312 C158.897135,46.2200521 159.213542,45.6510417 159.390625,45 L159.390625,45 L157.179688,44.6015625 C157.039062,44.9765625 156.835938,45.2916667 156.570312,45.546875 C156.304688,45.8020833 155.989583,45.9934896 155.625,46.1210938 C155.260417,46.2486979 154.856771,46.3125 154.414062,46.3125 C153.731771,46.3125 153.135417,46.1653646 152.625,45.8710938 C152.114583,45.5768229 151.717448,45.1484375 151.433594,44.5859375 C151.14974,44.0234375 151.007812,43.3411458 151.007812,42.5390625 L151.011125,42.704 L159.539062,42.703125 L159.539062,41.875 C159.539062,40.7864583 159.393229,39.8606771 159.101562,39.0976562 C158.809896,38.3346354 158.411458,37.7135417 157.90625,37.234375 C157.401042,36.7552083 156.830729,36.4036458 156.195312,36.1796875 C155.559896,35.9557292 154.903646,35.84375 154.226562,35.84375 C153.111979,35.84375 152.139323,36.1067708 151.308594,36.6328125 C150.477865,37.1588542 149.832031,37.890625 149.371094,38.828125 C148.910156,39.765625 148.679688,40.8489583 148.679688,42.078125 C148.679688,43.3229167 148.910156,44.4075521 149.371094,45.3320312 C149.832031,46.2565104 150.488281,46.9726562 151.339844,47.4804688 C152.191406,47.9882812 153.208333,48.2421875 154.390625,48.2421875 Z M151.015864,40.9178093 C151.048071,40.4149394 151.176897,39.9436384 151.402344,39.5039062 C151.665365,38.9908854 152.040365,38.5742188 152.527344,38.2539062 C153.014323,37.9335938 153.585938,37.7734375 154.242188,37.7734375 C154.846354,37.7734375 155.373698,37.9114583 155.824219,38.1875 C156.27474,38.4635417 156.625,38.8398438 156.875,39.3164062 C157.125,39.7929688 157.25,40.3385417 157.25,40.953125 L157.25,40.953125 L151.014125,40.954 L151.015864,40.9178093 Z M169.445312,52.46875 C170.091146,52.46875 170.658854,52.359375 171.148438,52.140625 C171.638021,51.921875 172.059896,51.5989583 172.414062,51.171875 C172.768229,50.7447917 173.059896,50.2213542 173.289062,49.6015625 L173.289062,49.6015625 L178.25,36.0234375 L175.726562,36 L172.6875,45.3125 L172.5625,45.3125 L169.523438,36 L167.023438,36 L171.414062,48.15625 L171.125,48.953125 C170.828125,49.7291667 170.46224,50.1914062 170.027344,50.3398438 C169.592448,50.4882812 169.054688,50.4739583 168.414062,50.296875 L168.414062,50.296875 L167.851562,52.2109375 C167.992188,52.2734375 168.205729,52.3320312 168.492188,52.3867188 C168.778646,52.4414062 169.096354,52.46875 169.445312,52.46875 Z M185.5,48.2421875 C186.625,48.2421875 187.606771,47.984375 188.445312,47.46875 C189.283854,46.953125 189.934896,46.2317708 190.398438,45.3046875 C190.861979,44.3776042 191.09375,43.2942708 191.09375,42.0546875 C191.09375,40.8098958 190.861979,39.7213542 190.398438,38.7890625 C189.934896,37.8567708 189.283854,37.1328125 188.445312,36.6171875 C187.606771,36.1015625 186.625,35.84375 185.5,35.84375 C184.375,35.84375 183.393229,36.1015625 182.554688,36.6171875 C181.716146,37.1328125 181.065104,37.8567708 180.601562,38.7890625 C180.138021,39.7213542 179.90625,40.8098958 179.90625,42.0546875 C179.90625,43.2942708 180.138021,44.3776042 180.601562,45.3046875 C181.065104,46.2317708 181.716146,46.953125 182.554688,47.46875 C183.393229,47.984375 184.375,48.2421875 185.5,48.2421875 Z M185.507812,46.28125 C184.773438,46.28125 184.165365,46.0885417 183.683594,45.703125 C183.201823,45.3177083 182.845052,44.8046875 182.613281,44.1640625 C182.38151,43.5234375 182.265625,42.8177083 182.265625,42.046875 C182.265625,41.28125 182.38151,40.5768229 182.613281,39.9335938 C182.845052,39.2903646 183.201823,38.7734375 183.683594,38.3828125 C184.165365,37.9921875 184.773438,37.796875 185.507812,37.796875 C186.236979,37.796875 186.841146,37.9921875 187.320312,38.3828125 C187.799479,38.7734375 188.154948,39.2903646 188.386719,39.9335938 C188.61849,40.5768229 188.734375,41.28125 188.734375,42.046875 C188.734375,42.8177083 188.61849,43.5234375 188.386719,44.1640625 C188.154948,44.8046875 187.799479,45.3177083 187.320312,45.703125 C186.841146,46.0885417 186.236979,46.28125 185.507812,46.28125 Z M197.632812,48.15625 C198.533854,48.15625 199.28776,47.9440104 199.894531,47.5195312 C200.501302,47.0950521 200.942708,46.5625 201.21875,45.921875 L201.21875,45.921875 L201.34375,45.921875 L201.34375,48 L203.640625,48 L203.640625,36 L201.296875,36 L201.296875,43.0234375 C201.302083,43.7057292 201.160156,44.2682292 200.871094,44.7109375 C200.582031,45.1536458 200.220052,45.484375 199.785156,45.703125 C199.35026,45.921875 198.914062,46.03125 198.476562,46.03125 C197.752604,46.03125 197.164062,45.7890625 196.710938,45.3046875 C196.257812,44.8203125 196.03125,44.1692708 196.03125,43.3515625 L196.03125,43.3515625 L196.03125,36 L193.695312,36 L193.695312,43.6328125 C193.695312,44.6223958 193.863281,45.453125 194.199219,46.125 C194.535156,46.796875 194.998698,47.3033854 195.589844,47.6445312 C196.18099,47.9856771 196.861979,48.15625 197.632812,48.15625 Z" id="Bohemianlikeyou" opacity="0.3"></path>
            </g>
        </g>
    </g>
</svg>