<?xml version="1.0" encoding="UTF-8"?>
<svg width="287px" height="132px" viewBox="0 0 287 132" version="1.1" xmlns="http://www.w3.org/2000/svg" xmlns:xlink="http://www.w3.org/1999/xlink">
    <!-- Generator: Sketch 64 (93537) - https://sketch.com -->
    <title>Group</title>
    <desc>Created with Sketch.</desc>
    <g id="Page-1" stroke="none" stroke-width="1" fill="none" fill-rule="evenodd">
        <g id="MPG/start-1.2" transform="translate(-121.000000, -120.000000)">
            <g id="Group" transform="translate(121.938920, 120.000000)">
                <path d="M13.5724432,46.0795455 C16.2542614,46.0795455 18.5497159,45.3721591 20.4588068,43.9573864 C22.3678977,42.5426136 23.828125,40.4914773 24.8394886,37.8039773 C25.8508523,35.1164773 26.3565341,31.8693182 26.3565341,28.0625 C26.3565341,24.2784091 25.8480114,21.0482955 24.8309659,18.3721591 C23.8139205,15.6960227 22.3508523,13.6505682 20.4417614,12.2357955 C18.5326705,10.8210227 16.2428977,10.1136364 13.5724432,10.1136364 C10.9019886,10.1136364 8.609375,10.8181818 6.69460227,12.2272727 C4.77982955,13.6363636 3.31392045,15.6818182 2.296875,18.3636364 C1.27982955,21.0454545 0.771306818,24.2784091 0.771306818,28.0625 C0.771306818,31.8579545 1.27698864,35.1022727 2.28835227,37.7954545 C3.29971591,40.4886364 4.75994318,42.5397727 6.66903409,43.9488636 C8.578125,45.3579545 10.8792614,46.0681818 13.5724432,46.0795455 Z M13.5724432,41.5284091 C11.9928977,41.5284091 10.640625,41.0142045 9.515625,39.9857955 C8.390625,38.9573864 7.52414773,37.4403409 6.91619318,35.4346591 C6.30823864,33.4289773 6.00426136,30.9715909 6.00426136,28.0625 C6.015625,23.7102273 6.69176136,20.375 8.03267045,18.0568182 C9.37357955,15.7386364 11.2201705,14.5795455 13.5724432,14.5795455 C15.1292614,14.5795455 16.4730114,15.0994318 17.6036932,16.1392045 C18.734375,17.1789773 19.6036932,18.7017045 20.2116477,20.7073864 C20.8196023,22.7130682 21.1235795,25.1647727 21.1235795,28.0625 C21.1235795,32.4261364 20.4559659,35.7613636 19.1207386,38.0681818 C17.7855114,40.375 15.9360795,41.5284091 13.5724432,41.5284091 Z M39.1065341,45.5 L54.2940341,15.2613636 L54.2940341,10.5909091 L31.2144886,10.5909091 L31.2144886,15.1079545 L48.8394886,15.1079545 L48.8394886,15.3636364 L33.6008523,45.5 L39.1065341,45.5 Z M63.6349432,23.6818182 C64.2599432,23.6818182 64.828125,23.5284091 65.3394886,23.2215909 C65.8508523,22.9147727 66.2627841,22.5028409 66.5752841,21.9857955 C66.8877841,21.46875 67.0440341,20.8977273 67.0440341,20.2727273 C67.0440341,19.3409091 66.7088068,18.5426136 66.0383523,17.8778409 C65.3678977,17.2130682 64.5667614,16.8806818 63.6349432,16.8806818 C62.703125,16.8806818 61.9019886,17.2130682 61.2315341,17.8778409 C60.5610795,18.5426136 60.2258523,19.3409091 60.2258523,20.2727273 C60.2258523,21.2159091 60.5610795,22.0198864 61.2315341,22.6846591 C61.9019886,23.3494318 62.703125,23.6818182 63.6349432,23.6818182 Z M63.6349432,41.1704545 C64.2599432,41.1704545 64.828125,41.0170455 65.3394886,40.7102273 C65.8508523,40.4034091 66.2627841,39.9914773 66.5752841,39.4744318 C66.8877841,38.9573864 67.0440341,38.3863636 67.0440341,37.7613636 C67.0440341,36.8295455 66.7088068,36.03125 66.0383523,35.3664773 C65.3678977,34.7017045 64.5667614,34.3693182 63.6349432,34.3693182 C62.703125,34.3693182 61.9019886,34.7017045 61.2315341,35.3664773 C60.5610795,36.03125 60.2258523,36.8295455 60.2258523,37.7613636 C60.2258523,38.7045455 60.5610795,39.5085227 61.2315341,40.1732955 C61.9019886,40.8380682 62.703125,41.1704545 63.6349432,41.1704545 Z M85.9474432,45.9772727 C88.3338068,45.9772727 90.453125,45.5426136 92.3053977,44.6732955 C94.1576705,43.8039773 95.6207386,42.6079545 96.6946023,41.0852273 C97.7684659,39.5625 98.2997159,37.8409091 98.2885308,35.9204545 C98.2997159,33.7159091 97.6661932,31.8693182 96.3877841,30.3806818 C95.109375,28.8920455 93.3110795,27.9715909 90.9928977,27.6193182 L90.9928977,27.6193182 L90.9928977,27.3465909 C92.8110795,26.8806818 94.2684659,25.9659091 95.3650568,24.6022727 C96.4616477,23.2386364 97.0042614,21.5795455 96.9928977,19.625 C97.0042614,17.9090909 96.5639205,16.3295455 95.671875,14.8863636 C94.7798295,13.4431818 93.5184659,12.2869318 91.8877841,11.4176136 C90.2571023,10.5482955 88.3224432,10.1136364 86.0838068,10.1136364 C83.9474432,10.1136364 82.0042614,10.5170455 80.2542614,11.3238636 C78.5042614,12.1306818 77.0980114,13.25 76.0355114,14.6818182 C74.9730114,16.1136364 74.4133523,17.7727273 74.3565341,19.6590909 L74.3565341,19.6590909 L79.453125,19.6590909 C79.4985795,18.5909091 79.828125,17.6732955 80.4417614,16.90625 C81.0553977,16.1392045 81.8536932,15.5482955 82.8366477,15.1335227 C83.8196023,14.71875 84.8792614,14.5113636 86.015625,14.5113636 C87.2088068,14.5113636 88.2457386,14.7386364 89.1264205,15.1931818 C90.0071023,15.6477273 90.6889205,16.2755682 91.171875,17.0767045 C91.6548295,17.8778409 91.8963068,18.8181818 91.8963068,19.8977273 C91.8963068,21.0227273 91.6178977,22.0028409 91.0610795,22.8380682 C90.5042614,23.6732955 89.734375,24.3238636 88.7514205,24.7897727 C87.7684659,25.2556818 86.6292614,25.4886364 85.3338068,25.4886364 L85.3338068,25.4886364 L82.3849432,25.4886364 L82.3849432,29.7840909 L85.3338068,29.7840909 C86.9474432,29.7840909 88.3252841,30.0397727 89.4673295,30.5511364 C90.609375,31.0625 91.4786932,31.7642045 92.0752841,32.65625 C92.671875,33.5482955 92.9701705,34.5795455 92.9701705,35.75 C92.9701705,36.875 92.6690341,37.8664773 92.0667614,38.7244318 C91.4644886,39.5823864 90.6321023,40.25 89.5696023,40.7272727 C88.5071023,41.2045455 87.2883523,41.4431818 85.9133523,41.4431818 C84.6633523,41.4431818 83.5269886,41.2386364 82.5042614,40.8295455 C81.4815341,40.4204545 80.6548295,39.8380682 80.0241477,39.0823864 C79.3934659,38.3267045 79.0440341,37.4318182 78.9758523,36.3977273 L78.9758523,36.3977273 L73.6235795,36.3977273 C73.703125,38.2954545 74.2741477,39.9630682 75.3366477,41.4005682 C76.3991477,42.8380682 77.8480114,43.9602273 79.6832386,44.7670455 C81.5184659,45.5738636 83.6065341,45.9772727 85.9474432,45.9772727 Z M116.237216,45.9772727 C118.578125,45.9772727 120.65483,45.46875 122.46733,44.4517045 C124.27983,43.4346591 125.700284,42.0397727 126.728693,40.2670455 C127.757102,38.4943182 128.265625,36.4772727 128.254461,34.2159091 C128.265625,31.9545455 127.791193,29.9517045 126.830966,28.2073864 C125.870739,26.4630682 124.558239,25.0852273 122.893466,24.0738636 C121.228693,23.0625 119.333807,22.5568182 117.208807,22.5568182 C115.913352,22.5568182 114.700284,22.7784091 113.569602,23.2215909 C112.43892,23.6647727 111.53267,24.2159091 110.850852,24.875 L110.850852,24.875 L110.646307,24.875 L111.754261,15.1079545 L126.566761,15.1079545 L126.566761,10.5909091 L107.37358,10.5909091 L105.413352,28.1818182 L110.237216,28.8977273 C110.896307,28.3068182 111.759943,27.8295455 112.828125,27.4659091 C113.896307,27.1022727 114.958807,26.9204545 116.015625,26.9204545 C117.401989,26.9318182 118.632102,27.2556818 119.705966,27.8920455 C120.77983,28.5284091 121.62358,29.4034091 122.237216,30.5170455 C122.850852,31.6306818 123.15767,32.8977273 123.15767,34.3181818 C123.15767,35.7159091 122.859375,36.9602273 122.262784,38.0511364 C121.666193,39.1420455 120.848011,39.9971591 119.808239,40.6164773 C118.768466,41.2357955 117.578125,41.5454545 116.237216,41.5454545 C114.555398,41.5454545 113.112216,41.0625 111.90767,40.0965909 C110.703125,39.1306818 110.038352,37.8977273 109.913352,36.3977273 L109.913352,36.3977273 L104.799716,36.3977273 C104.867898,38.25 105.40767,39.8977273 106.419034,41.3409091 C107.430398,42.7840909 108.785511,43.9176136 110.484375,44.7414773 C112.183239,45.5653409 114.100852,45.9772727 116.237216,45.9772727 Z" id="07:35" fill="#FFFFFF" fill-rule="nonzero"></path>
                <path d="M253.245739,38.5 L253.245739,18.1363636 L250.252841,18.1363636 L245.171875,21.4573864 L245.171875,24.4005682 L250.044034,21.21875 L250.163352,21.21875 L250.163352,38.5 L253.245739,38.5 Z M265.863636,38.7784091 C267.282197,38.7916667 268.52178,38.491714 269.582386,37.8785511 C270.642992,37.2653883 271.466619,36.4318182 272.053267,35.3778409 C272.639915,34.3238636 272.933239,33.1472538 272.933239,31.8480114 C272.933239,30.5487689 272.648201,29.3953598 272.078125,28.3877841 C271.508049,27.3802083 270.744081,26.5897254 269.786222,26.0163352 C268.828362,25.4429451 267.75947,25.15625 266.579545,25.15625 C265.870265,25.15625 265.195786,25.2672822 264.556108,25.4893466 C263.91643,25.711411 263.339725,26.0262784 262.825994,26.4339489 C262.312263,26.8416193 261.879735,27.3338068 261.528409,27.9105114 L261.528409,27.9105114 L261.379261,27.9105114 C261.38589,25.577178 261.805161,23.759233 262.637074,22.4566761 C263.468987,21.1541193 264.630682,20.5028409 266.122159,20.5028409 C267.10322,20.5028409 267.898674,20.772964 268.508523,21.3132102 C269.118371,21.8534564 269.526042,22.5577652 269.731534,23.4261364 L269.731534,23.4261364 L272.764205,23.4261364 C272.605114,22.3323864 272.232244,21.3645833 271.645597,20.5227273 C271.058949,19.6808712 270.294981,19.0179924 269.353693,18.5340909 C268.412405,18.0501894 267.335227,17.8082386 266.122159,17.8082386 C264.942235,17.8082386 263.878314,18.0568182 262.930398,18.5539773 C261.982481,19.0511364 261.173769,19.7769886 260.504261,20.7315341 C259.834754,21.6860795 259.32268,22.8577178 258.96804,24.2464489 C258.6134,25.6351799 258.43608,27.2211174 258.43608,29.0042614 C258.43608,30.8802083 258.649858,32.4446023 259.077415,33.6974432 C259.504972,34.9502841 260.076705,35.9479167 260.792614,36.6903409 C261.508523,37.4327652 262.305634,37.9630682 263.183949,38.28125 C264.062263,38.5994318 264.955492,38.7651515 265.863636,38.7784091 Z M265.853693,36.1931818 C265.071496,36.1931818 264.370502,35.9959754 263.75071,35.6015625 C263.130919,35.2071496 262.643703,34.6851326 262.289063,34.0355114 C261.934422,33.3858902 261.757102,32.6799242 261.757102,31.9176136 C261.757102,31.3475379 261.86482,30.8056345 262.080256,30.2919034 C262.295691,29.7781723 262.59233,29.3224432 262.97017,28.9247159 C263.348011,28.5269886 263.787169,28.2154356 264.287642,27.9900568 C264.788116,27.764678 265.333333,27.6519886 265.923295,27.6519886 C266.698864,27.6519886 267.389915,27.8409091 267.996449,28.21875 C268.602983,28.5965909 269.080256,29.1070076 269.428267,29.75 C269.776278,30.3929924 269.950284,31.1055871 269.950284,31.8877841 C269.950284,32.6898674 269.771307,33.4157197 269.413352,34.0653409 C269.055398,34.7149621 268.568182,35.2320076 267.951705,35.6164773 C267.335227,36.000947 266.63589,36.1931818 265.853693,36.1931818 Z M280.977273,27.34375 C281.839015,27.34375 282.624527,27.133286 283.333807,26.712358 C284.043087,26.2914299 284.608191,25.7263258 285.029119,25.0170455 C285.450047,24.3077652 285.660511,23.5222538 285.660511,22.6605114 C285.660511,21.7987689 285.450047,21.0149148 285.029119,20.3089489 C284.608191,19.602983 284.043087,19.039536 283.333807,18.618608 C282.624527,18.1976799 281.839015,17.9872159 280.977273,17.9872159 C280.11553,17.9872159 279.331676,18.1976799 278.62571,18.618608 C277.919744,19.039536 277.356297,19.602983 276.935369,20.3089489 C276.514441,21.0149148 276.303977,21.7987689 276.303977,22.6605114 C276.303977,23.5222538 276.514441,24.3077652 276.935369,25.0170455 C277.356297,25.7263258 277.919744,26.2914299 278.62571,26.712358 C279.331676,27.133286 280.11553,27.34375 280.977273,27.34375 Z M280.977273,25.0767045 C280.533144,25.0767045 280.128788,24.9673295 279.764205,24.7485795 C279.399621,24.5298295 279.109612,24.2381629 278.894176,23.8735795 C278.678741,23.5089962 278.571023,23.1046402 278.571023,22.6605114 C278.571023,22.2163826 278.678741,21.8120265 278.894176,21.4474432 C279.109612,21.0828598 279.399621,20.7928504 279.764205,20.5774148 C280.128788,20.3619792 280.533144,20.2542614 280.977273,20.2542614 C281.42803,20.2542614 281.835701,20.3619792 282.200284,20.5774148 C282.564867,20.7928504 282.854877,21.0828598 283.070313,21.4474432 C283.285748,21.8120265 283.393466,22.2163826 283.393466,22.6605114 C283.393466,23.1046402 283.285748,23.5089962 283.070313,23.8735795 C282.854877,24.2381629 282.564867,24.5298295 282.200284,24.7485795 C281.835701,24.9673295 281.42803,25.0767045 280.977273,25.0767045 Z" id="16°" fill="#FFFFFF" fill-rule="nonzero"></path>
                <path d="M3.22159091,97.5 L3.22159091,82.7542614 L3.41051136,82.7542614 L9.41619318,97.4701705 L11.8423295,97.4701705 L17.8480114,82.7642045 L18.0369318,82.7642045 L18.0369318,97.5 L20.9602273,97.5 L20.9602273,77.1363636 L17.2315341,77.1363636 L10.7485795,92.9659091 L10.5099432,92.9659091 L4.02698864,77.1363636 L0.298295455,77.1363636 L0.298295455,97.5 L3.22159091,97.5 Z M29.640625,97.8380682 C30.4824811,97.8380682 31.2050189,97.7154356 31.8082386,97.4701705 C32.4114583,97.2249053 32.905303,96.9166667 33.2897727,96.5454545 C33.6742424,96.1742424 33.9625947,95.7964015 34.1548295,95.4119318 L34.1548295,95.4119318 L34.2741477,95.4119318 L34.2741477,97.5 L37.1775568,97.5 L37.1775568,87.3579545 C37.1775568,86.2443182 36.985322,85.3378314 36.6008523,84.6384943 C36.2163826,83.9391572 35.7241951,83.4005682 35.1242898,83.0227273 C34.5243845,82.6448864 33.881392,82.3847064 33.1953125,82.2421875 C32.509233,82.0996686 31.8612689,82.0284091 31.2514205,82.0284091 C30.3300189,82.0284091 29.4517045,82.1593277 28.6164773,82.4211648 C27.78125,82.6830019 27.0437973,83.1006155 26.4041193,83.6740057 C25.7644413,84.2473958 25.2788826,84.9981061 24.9474432,85.9261364 L24.9474432,85.9261364 L27.7414773,86.5625 C27.9602273,86.0255682 28.3562973,85.5366951 28.9296875,85.0958807 C29.5030777,84.6550663 30.2902462,84.4346591 31.2911932,84.4346591 C32.2523674,84.4346591 32.9765625,84.6732955 33.4637784,85.1505682 C33.9509943,85.6278409 34.1946023,86.3006629 34.1946023,87.1690341 L34.1946023,87.1690341 L34.1946023,87.2386364 C34.1946023,87.5965909 34.0653409,87.8551136 33.8068182,88.0142045 C33.5482955,88.1732955 33.1339962,88.287642 32.5639205,88.3572443 C31.9938447,88.4268466 31.2514205,88.514678 30.3366477,88.6207386 C29.6141098,88.7069129 28.9048295,88.8328598 28.2088068,88.9985795 C27.5127841,89.1642992 26.8830492,89.4095644 26.3196023,89.734375 C25.7561553,90.0591856 25.3087121,90.5 24.9772727,91.0568182 C24.6458333,91.6136364 24.4801136,92.3229167 24.4801136,93.1846591 C24.4801136,94.1856061 24.7071496,95.0307765 25.1612216,95.7201705 C25.6152936,96.4095644 26.233428,96.9348958 27.015625,97.2961648 C27.797822,97.6574337 28.672822,97.8380682 29.640625,97.8380682 Z M30.2869318,95.4517045 C29.4450758,95.4517045 28.7523674,95.2644413 28.2088068,94.8899148 C27.6652462,94.5153883 27.3934659,93.9602273 27.3934659,93.2244318 C27.3934659,92.6941288 27.5343277,92.2682292 27.8160511,91.946733 C28.0977746,91.6252367 28.4756155,91.3783144 28.9495739,91.2059659 C29.4235322,91.0336174 29.9488636,90.9109848 30.5255682,90.8380682 C30.7708333,90.8049242 31.0757576,90.7634943 31.4403409,90.7137784 C31.8049242,90.6640625 32.1794508,90.6077178 32.5639205,90.5447443 C32.9483902,90.4817708 33.2914299,90.4055398 33.5930398,90.3160511 C33.8946496,90.2265625 34.0984848,90.1287879 34.2045455,90.0227273 L34.2045455,90.0227273 L34.2045455,91.9914773 C34.2045455,92.594697 34.0504261,93.1598011 33.7421875,93.6867898 C33.4339489,94.2137784 32.9865057,94.639678 32.399858,94.9644886 C31.8132102,95.2892992 31.1089015,95.4517045 30.2869318,95.4517045 Z M44.1079545,97.5 L44.1079545,88.1732955 C44.1079545,87.5104167 44.2670455,86.9187973 44.5852273,86.3984375 C44.9034091,85.8780777 45.3359375,85.4704072 45.8828125,85.1754261 C46.4296875,84.8804451 47.0544508,84.7329545 47.7571023,84.7329545 C48.0620265,84.7329545 48.3669508,84.7544981 48.671875,84.7975852 C48.9767992,84.8406723 49.1889205,84.8787879 49.3082386,84.9119318 L49.3082386,84.9119318 L49.3082386,82.0681818 C49.1624053,82.0482955 48.9618845,82.0317235 48.7066761,82.0184659 C48.4514678,82.0052083 48.2310606,81.9985795 48.0454545,81.9985795 C47.1505682,81.9985795 46.350142,82.2355587 45.6441761,82.709517 C44.9382102,83.1834754 44.4460227,83.8314394 44.1676136,84.6534091 L44.1676136,84.6534091 L44.0085227,84.6534091 L44.0085227,82.2272727 L41.1349432,82.2272727 L41.1349432,97.5 L44.1079545,97.5 Z M57.3721591,97.6988636 C57.8494318,97.6922348 58.2471591,97.6541193 58.5653409,97.584517 C58.8835227,97.5149148 59.1287879,97.4469697 59.3011364,97.3806818 L59.3011364,97.3806818 L58.7642045,94.9247159 C58.6647727,94.9446023 58.5255682,94.9711174 58.3465909,95.0042614 C58.1676136,95.0374053 57.9588068,95.0539773 57.7201705,95.0539773 C57.3953598,95.0539773 57.0954072,95.0026042 56.8203125,94.899858 C56.5452178,94.7971117 56.3214962,94.6015625 56.1491477,94.3132102 C55.9767992,94.024858 55.890625,93.5923295 55.890625,93.015625 L55.890625,93.015625 L55.8900795,84.614 L59.0227273,84.6136364 L59.0227273,82.2272727 L55.8900795,82.228 L55.890625,78.5681818 L52.9176136,78.5681818 L52.9170795,82.228 L50.6803977,82.2272727 L50.6803977,84.6136364 L52.9170795,84.614 L52.9176136,93.6321023 C52.9176136,94.4613636 53.0867472,95.164446 53.4250142,95.7413494 L53.5440341,95.9289773 C53.9616477,96.5388258 54.5085227,96.9895833 55.1846591,97.28125 C55.8607955,97.5729167 56.5899621,97.7121212 57.3721591,97.6988636 Z M68.8863636,97.8082386 C70,97.8082386 70.992661,97.6375473 71.8643466,97.2961648 C72.7360322,96.9547822 73.4618845,96.4741951 74.0419034,95.8544034 C74.6219223,95.2346117 75.0246212,94.5104167 75.25,93.6818182 L75.25,93.6818182 L72.4360795,93.1747159 C72.2571023,93.6519886 71.9985795,94.0530303 71.6605114,94.3778409 C71.3224432,94.7026515 70.9214015,94.9462595 70.4573864,95.1086648 C69.9933712,95.2710701 69.4796402,95.3522727 68.9161932,95.3522727 C68.047822,95.3522727 67.2888258,95.1650095 66.6392045,94.790483 C65.9895833,94.4159564 65.4841383,93.8707386 65.1228693,93.1548295 C64.7616004,92.4389205 64.5809659,91.5705492 64.5809659,90.5497159 L64.5840795,90.759 L75.4389205,90.7585227 L75.4389205,89.7045455 C75.4389205,88.3191288 75.2533144,87.1408617 74.8821023,86.1697443 C74.5108902,85.1986269 74.0037879,84.4081439 73.3607955,83.7982955 C72.717803,83.188447 71.9919508,82.7410038 71.1832386,82.4559659 C70.3745265,82.170928 69.5392992,82.0284091 68.6775568,82.0284091 C67.2589962,82.0284091 66.0210701,82.3631629 64.9637784,83.0326705 C63.9064867,83.702178 63.084517,84.6335227 62.4978693,85.8267045 C61.9112216,87.0198864 61.6178977,88.3986742 61.6178977,89.9630682 C61.6178977,91.5473485 61.9112216,92.9277936 62.4978693,94.1044034 C63.084517,95.2810133 63.9197443,96.1924716 65.0035511,96.8387784 C66.087358,97.4850852 67.3816288,97.8082386 68.8863636,97.8082386 Z M64.5888117,88.5263561 C64.6254254,87.8712972 64.790187,87.2581084 65.0830966,86.6867898 C65.4178504,86.0338542 65.8951231,85.5035511 66.5149148,85.0958807 C67.1347064,84.6882102 67.8622159,84.484375 68.6974432,84.484375 C69.4663826,84.484375 70.1375473,84.6600379 70.7109375,85.0113636 C71.2843277,85.3626894 71.7301136,85.8416193 72.0482955,86.4481534 C72.3664773,87.0546875 72.5255682,87.749053 72.5255682,88.53125 L72.5255682,88.53125 L64.5880795,88.532 L64.5888117,88.5263561 Z M84.4673295,97.7982955 C85.3953598,97.7982955 86.1510417,97.6425189 86.734375,97.3309659 C87.3177083,97.0194129 87.7767519,96.6548295 88.1115057,96.2372159 C88.4462595,95.8196023 88.703125,95.4483902 88.8821023,95.1235795 L88.8821023,95.1235795 L89.1306818,95.1235795 L89.1306818,97.5 L92.0340909,97.5 L92.0340909,77.1363636 L89.0610795,77.1363636 L89.0610795,84.703125 L88.8821023,84.703125 C88.703125,84.3849432 88.4528883,84.0170455 88.131392,83.5994318 C87.8098958,83.1818182 87.3591383,82.8155777 86.7791193,82.5007102 C86.1991004,82.1858428 85.4351326,82.0284091 84.4872159,82.0284091 C83.2608902,82.0284091 82.1638258,82.3399621 81.1960227,82.9630682 C80.2282197,83.5861742 79.4675663,84.484375 78.9140625,85.6576705 C78.3605587,86.8309659 78.0838068,88.2428977 78.0838068,89.8934659 C78.0838068,91.5440341 78.3572443,92.9576231 78.9041193,94.134233 C79.4509943,95.3108428 80.2066761,96.2156723 81.1711648,96.8487216 C82.1356534,97.4817708 83.234375,97.7982955 84.4673295,97.7982955 Z M85.1235795,95.2627841 C84.2419508,95.2627841 83.5011837,95.0258049 82.9012784,94.5518466 C82.3013731,94.0778883 81.8489583,93.4332386 81.5440341,92.6178977 C81.2391098,91.8025568 81.0866477,90.8844697 81.0866477,89.8636364 C81.0866477,88.8560606 81.2374527,87.9512311 81.5390625,87.1491477 C81.8406723,86.3470644 82.2897727,85.7140152 82.8863636,85.25 C83.4829545,84.7859848 84.2286932,84.5539773 85.1235795,84.5539773 C85.9919508,84.5539773 86.7211174,84.7760417 87.3110795,85.2201705 C87.9010417,85.6642992 88.3484848,86.2840909 88.6534091,87.0795455 C88.9583333,87.875 89.1107955,88.8030303 89.1107955,89.8636364 C89.1107955,90.9375 88.9566761,91.8787879 88.6484375,92.6875 C88.3401989,93.4962121 87.8894413,94.1276042 87.2961648,94.5816761 C86.7028883,95.0357481 85.9786932,95.2627841 85.1235795,95.2627841 Z M98.9943182,80.1889205 L96.6775568,75.6051136 L93.5454545,75.6051136 L96.6178977,80.1889205 L98.9943182,80.1889205 Z M99.2428977,97.5 L99.2428977,82.2272727 L96.2698864,82.2272727 L96.2698864,97.5 L99.2428977,97.5 Z M105.119318,102.471591 C105.278409,102.034091 105.482244,101.444129 105.730824,100.701705 C105.979403,99.9592803 106.221354,99.1555398 106.456676,98.290483 C106.691998,97.4254261 106.859375,96.5951705 106.958807,95.7997159 L106.958807,95.7997159 L107.107955,94.7159091 L104.244318,94.7159091 L104.144886,95.8295455 C104.07197,96.7244318 103.962595,97.6027462 103.816761,98.4644886 C103.670928,99.3262311 103.52178,100.106771 103.369318,100.806108 C103.216856,101.505445 103.097538,102.060606 103.011364,102.471591 L103.011364,102.471591 L105.119318,102.471591 Z M13.4232955,131.5 L13.4232955,128.865057 L4.25568182,128.865057 L4.25568182,128.715909 L8.30255682,124.480114 C9.54214015,123.220644 10.5099432,122.148438 11.2059659,121.263494 C11.9019886,120.378551 12.3908617,119.574811 12.6725852,118.852273 C12.9543087,118.129735 13.0951705,117.390625 13.0951705,116.634943 C13.0951705,115.541193 12.8200758,114.558475 12.2698864,113.68679 C11.719697,112.815104 10.9557292,112.12571 9.97798295,111.618608 C9.00023674,111.111506 7.87168561,110.857955 6.59232955,110.857955 C5.32623106,110.857955 4.19602273,111.11482 3.20170455,111.628551 C2.20738636,112.142282 1.42518939,112.863163 0.855113636,113.791193 C0.285037879,114.719223 2.48689958e-13,115.80303 2.48689958e-13,117.042614 L2.48689958e-13,117.042614 L2.93323864,117.042614 C2.93323864,116.313447 3.07907197,115.677083 3.37073864,115.133523 C3.6624053,114.589962 4.08001894,114.169034 4.62357955,113.870739 C5.16714015,113.572443 5.80350379,113.423295 6.53267045,113.423295 C7.22206439,113.423295 7.84185606,113.557528 8.39204545,113.825994 C8.94223485,114.09446 9.37642045,114.475616 9.69460227,114.96946 C10.0127841,115.463305 10.171875,116.048295 10.171875,116.724432 C10.171875,117.321023 10.0525568,117.88447 9.81392045,118.414773 C9.57528409,118.945076 9.21567235,119.503551 8.73508523,120.090199 C8.25449811,120.676847 7.64630682,121.357955 6.91051136,122.133523 L6.91051136,122.133523 L0.0198863636,129.272727 L0.0198863636,131.5 L13.4232955,131.5 Z M24.28125,131.838068 C25.8456439,131.838068 27.1846591,131.425426 28.2982955,130.600142 C29.4119318,129.774858 30.2637311,128.578362 30.8536932,127.010653 C31.4436553,125.442945 31.7386364,123.548769 31.7386364,121.328125 C31.7386364,119.120739 31.4419981,117.236506 30.8487216,115.675426 C30.2554451,114.114347 29.4019886,112.921165 28.2883523,112.095881 C27.1747159,111.270597 25.8390152,110.857955 24.28125,110.857955 C22.7234848,110.857955 21.3861269,111.268939 20.2691761,112.090909 C19.1522254,112.912879 18.2971117,114.106061 17.7038352,115.670455 C17.1105587,117.234848 16.8139205,119.120739 16.8139205,121.328125 C16.8139205,123.54214 17.1089015,125.434659 17.6988636,127.005682 C18.2888258,128.576705 19.140625,129.773201 20.2542614,130.59517 C21.3678977,131.41714 22.7102273,131.831439 24.28125,131.838068 Z M24.28125,129.183239 C23.3598485,129.183239 22.5710227,128.883286 21.9147727,128.283381 C21.2585227,127.683475 20.7530777,126.798532 20.3984375,125.628551 C20.0437973,124.45857 19.8664773,123.025095 19.8664773,121.328125 C19.8731061,118.789299 20.2675189,116.84375 21.0497159,115.491477 C21.8319129,114.139205 22.9090909,113.463068 24.28125,113.463068 C25.1893939,113.463068 25.9732481,113.766335 26.6328125,114.372869 C27.2923769,114.979403 27.7994792,115.867661 28.1541193,117.037642 C28.5087595,118.207623 28.6860795,119.637784 28.6860795,121.328125 C28.6860795,123.87358 28.2966383,125.819129 27.5177557,127.164773 C26.7388731,128.510417 25.6600379,129.183239 24.28125,129.183239 Z M45.8977273,131.5 L45.8977273,116.754261 L46.0866477,116.754261 L52.0923295,131.47017 L54.5184659,131.47017 L60.5241477,116.764205 L60.7130682,116.764205 L60.7130682,131.5 L63.6363636,131.5 L63.6363636,111.136364 L59.9076705,111.136364 L53.4247159,126.965909 L53.1860795,126.965909 L46.703125,111.136364 L42.9744318,111.136364 L42.9744318,131.5 L45.8977273,131.5 Z M72.3167614,131.838068 C73.1586174,131.838068 73.8811553,131.715436 74.484375,131.47017 C75.0875947,131.224905 75.5814394,130.916667 75.9659091,130.545455 C76.3503788,130.174242 76.6387311,129.796402 76.8309659,129.411932 L76.8309659,129.411932 L76.9502841,129.411932 L76.9502841,131.5 L79.8536932,131.5 L79.8536932,121.357955 C79.8536932,120.244318 79.6614583,119.337831 79.2769886,118.638494 C78.8925189,117.939157 78.4003314,117.400568 77.8004261,117.022727 C77.2005208,116.644886 76.5575284,116.384706 75.8714489,116.242188 C75.1853693,116.099669 74.5374053,116.028409 73.9275568,116.028409 C73.0061553,116.028409 72.1278409,116.159328 71.2926136,116.421165 C70.4573864,116.683002 69.7199337,117.100616 69.0802557,117.674006 C68.4405777,118.247396 67.9550189,118.998106 67.6235795,119.926136 L67.6235795,119.926136 L70.4176136,120.5625 C70.6363636,120.025568 71.0324337,119.536695 71.6058239,119.095881 C72.179214,118.655066 72.9663826,118.434659 73.9673295,118.434659 C74.9285038,118.434659 75.6526989,118.673295 76.1399148,119.150568 C76.6271307,119.627841 76.8707386,120.300663 76.8707386,121.169034 L76.8707386,121.169034 L76.8707386,121.238636 C76.8707386,121.596591 76.7414773,121.855114 76.4829545,122.014205 C76.2244318,122.173295 75.8101326,122.287642 75.2400568,122.357244 C74.6699811,122.426847 73.9275568,122.514678 73.0127841,122.620739 C72.2902462,122.706913 71.5809659,122.83286 70.8849432,122.99858 C70.1889205,123.164299 69.5591856,123.409564 68.9957386,123.734375 C68.4322917,124.059186 67.9848485,124.5 67.6534091,125.056818 C67.3219697,125.613636 67.15625,126.322917 67.15625,127.184659 C67.15625,128.185606 67.383286,129.030777 67.837358,129.72017 C68.2914299,130.409564 68.9095644,130.934896 69.6917614,131.296165 C70.4739583,131.657434 71.3489583,131.838068 72.3167614,131.838068 Z M72.9630682,129.451705 C72.1212121,129.451705 71.4285038,129.264441 70.8849432,128.889915 C70.3413826,128.515388 70.0696023,127.960227 70.0696023,127.224432 C70.0696023,126.694129 70.210464,126.268229 70.4921875,125.946733 C70.773911,125.625237 71.1517519,125.378314 71.6257102,125.205966 C72.0996686,125.033617 72.625,124.910985 73.2017045,124.838068 C73.4469697,124.804924 73.7518939,124.763494 74.1164773,124.713778 C74.4810606,124.664063 74.8555871,124.607718 75.2400568,124.544744 C75.6245265,124.481771 75.9675663,124.40554 76.2691761,124.316051 C76.570786,124.226563 76.7746212,124.128788 76.8806818,124.022727 L76.8806818,124.022727 L76.8806818,125.991477 C76.8806818,126.594697 76.7265625,127.159801 76.4183239,127.68679 C76.1100852,128.213778 75.662642,128.639678 75.0759943,128.964489 C74.4893466,129.289299 73.7850379,129.451705 72.9630682,129.451705 Z M86.7840909,131.5 L86.7840909,122.173295 C86.7840909,121.510417 86.9431818,120.918797 87.2613636,120.398438 C87.5795455,119.878078 88.0120739,119.470407 88.5589489,119.175426 C89.1058239,118.880445 89.7305871,118.732955 90.4332386,118.732955 C90.7381629,118.732955 91.0430871,118.754498 91.3480114,118.797585 C91.6529356,118.840672 91.8650568,118.878788 91.984375,118.911932 L91.984375,118.911932 L91.984375,116.068182 C91.8385417,116.048295 91.6380208,116.031723 91.3828125,116.018466 C91.1276042,116.005208 90.907197,115.99858 90.7215909,115.99858 C89.8267045,115.99858 89.0262784,116.235559 88.3203125,116.709517 C87.6143466,117.183475 87.1221591,117.831439 86.84375,118.653409 L86.84375,118.653409 L86.6846591,118.653409 L86.6846591,116.227273 L83.8110795,116.227273 L83.8110795,131.5 L86.7840909,131.5 Z M106.511364,131.5 L106.511364,128.914773 L98.2784091,128.914773 L98.2784091,128.775568 L106.232955,118.394886 L106.232955,116.227273 L94.5198864,116.227273 L94.5198864,118.8125 L102.524148,118.8125 L102.524148,118.951705 L94.2514205,129.461648 L94.2514205,131.5 L106.511364,131.5 Z M116.444602,131.808239 C117.87642,131.808239 119.125947,131.480114 120.193182,130.823864 C121.260417,130.167614 122.089015,129.249527 122.678977,128.069602 C123.268939,126.889678 123.56392,125.51089 123.56392,123.933239 C123.56392,122.348958 123.268939,120.963542 122.678977,119.776989 C122.089015,118.590436 121.260417,117.669034 120.193182,117.012784 C119.125947,116.356534 117.87642,116.028409 116.444602,116.028409 C115.012784,116.028409 113.763258,116.356534 112.696023,117.012784 C111.628788,117.669034 110.800189,118.590436 110.210227,119.776989 C109.620265,120.963542 109.325284,122.348958 109.325284,123.933239 C109.325284,125.51089 109.620265,126.889678 110.210227,128.069602 C110.800189,129.249527 111.628788,130.167614 112.696023,130.823864 C113.763258,131.480114 115.012784,131.808239 116.444602,131.808239 Z M116.454545,129.3125 C115.519886,129.3125 114.745975,129.067235 114.132813,128.576705 C113.51965,128.086174 113.065578,127.433239 112.770597,126.617898 C112.475616,125.802557 112.328125,124.904356 112.328125,123.923295 C112.328125,122.948864 112.475616,122.05232 112.770597,121.233665 C113.065578,120.415009 113.51965,119.757102 114.132813,119.259943 C114.745975,118.762784 115.519886,118.514205 116.454545,118.514205 C117.382576,118.514205 118.151515,118.762784 118.761364,119.259943 C119.371212,119.757102 119.823627,120.415009 120.118608,121.233665 C120.413589,122.05232 120.56108,122.948864 120.56108,123.923295 C120.56108,124.904356 120.413589,125.802557 120.118608,126.617898 C119.823627,127.433239 119.371212,128.086174 118.761364,128.576705 C118.151515,129.067235 117.382576,129.3125 116.454545,129.3125 Z" id="Martedì,20Marzo" fill="#FFFFFF" fill-rule="nonzero"></path>
                <g id="icon/weather/sun" transform="translate(160.061080, 0.000000)" fill="#FFDE4F">
                    <g id="Group-5">
                        <path d="M39.7416131,24.7337185 C40.802207,31.960242 35.8048948,38.6797917 28.5795989,39.7403856 C21.354303,40.8034346 14.6347533,35.8036673 13.5717043,28.5783714 C12.5098829,21.3518479 17.5084226,14.6322982 24.7337185,13.5704768 C31.960242,12.5098829 38.6785642,17.5059675 39.7416131,24.7337185 Z M35.4399844,25.3655536 C34.7264051,20.5138732 30.2166824,17.160215 25.3658259,17.8721463 C20.5157935,18.5849017 17.1604873,23.0954484 17.8732427,27.9463048 C18.586822,32.7963373 23.0973687,36.1524675 27.9474012,35.4388881 C32.7974336,34.7269567 36.1519158,30.2164101 35.4399844,25.3655536 Z" id="Combined-Shape"></path>
                        <path d="M26.5517041,4.17443857e-13 C25.4125477,0.00125813114 24.4918933,0.928050249 24.4967839,2.06966173 L24.5188991,7.63409706 C24.5238093,8.77693608 25.4493739,9.69390788 26.5897578,9.69145772 C27.7301418,9.68777019 28.6520237,8.75729545 28.643431,7.61813905 L28.6250179,2.05370372 C28.6213353,0.912092239 27.6933156,-0.00610710423 26.5517041,4.17443857e-13" id="Fill-59"></path>
                        <path d="M26.7616133,53.3133174 C27.8995422,53.3096042 28.8201966,52.3852672 28.816525,51.2424282 L28.7944183,45.6779928 C28.7895081,44.5351538 27.862716,43.618182 26.7235596,43.6206322 C25.5831757,43.6255472 24.6612937,44.5547944 24.6698865,45.6927233 L24.687072,51.2583862 C24.6919822,52.3999977 25.6187743,53.3194245 26.7616133,53.3133174" id="Fill-60"></path>
                        <path d="M9.23705556e-14,26.7603858 C0.00248567033,27.8983146 0.928050249,28.8201966 2.06966173,28.816525 L7.63409706,28.7931907 C8.77816362,28.7895081 9.69513542,27.8614885 9.69268526,26.7235596 C9.68777019,25.5819481 8.75852299,24.6625212 7.61936659,24.6686284 L2.05493126,24.687072 C0.912092239,24.6919822 -0.00610710427,25.6187743 9.23705556e-14,26.7603858" id="Fill-61"></path>
                        <path d="M53.314534,26.5517041 C53.3108318,25.4137752 52.3852672,24.4918933 51.2436557,24.4967839 L45.6779928,24.5188991 C44.5351538,24.5225818 43.618182,25.4506014 43.6206322,26.5885303 C43.6255472,27.7301418 44.5547944,28.6507962 45.6939508,28.643431 L51.2596137,28.6250179 C52.3999977,28.6213353 53.3194245,27.6945431 53.314534,26.5517041" id="Fill-62"></path>
                        <path d="M7.73475527,7.8796049 C6.92948954,8.68732571 6.9343997,9.99342745 7.74334805,10.7974656 L11.6947968,14.7169984 C12.5049727,15.5222641 13.8098469,15.5148989 14.6138851,14.7071781 C15.4166958,13.8982297 15.4117856,12.5896729 14.6003822,11.7893173 L10.652616,7.86610197 C9.84244013,7.06329131 8.53633839,7.06942901 7.73475527,7.8796049" id="Fill-63"></path>
                        <path d="M45.5797897,45.4300299 C46.3838279,44.6247642 46.3789177,43.3174349 45.5711969,42.5146242 L41.6185206,38.5938639 C40.8071172,37.7898258 39.5034705,37.7959634 38.7006599,38.6036843 C37.8966217,39.4138602 37.9015318,40.7236445 38.7117077,41.5227725 L42.661929,45.4435328 C43.4721048,46.2487986 44.776979,46.2426609 45.5797897,45.4300299" id="Fill-64"></path>
                        <path d="M7.88083244,45.5785622 C8.68732571,46.3826004 9.99465499,46.3789177 10.7986932,45.5675143 L14.7182259,41.6185206 C15.5234917,40.8071172 15.5161264,39.502243 14.7084056,38.6982048 C13.8994573,37.8941666 12.5896729,37.9015318 11.7905449,38.7117077 L7.86978459,42.6594739 C7.06329131,43.4696498 7.06942901,44.774524 7.88083244,45.5785622" id="Fill-65"></path>
                        <path d="M45.4337125,7.73352773 C44.6247642,6.93071708 43.3186624,6.93194462 42.5158518,7.74212051 L38.596319,11.6947968 C37.7910533,12.5049727 37.797191,13.8098469 38.6061393,14.6126576 C39.4163152,15.4166958 40.7236445,15.4105581 41.5227725,14.5991546 L45.4459879,10.6513885 C46.2487986,9.84244013 46.2438884,8.53633839 45.4337125,7.73352773" id="Fill-66"></path>
                    </g>
                </g>
            </g>
        </g>
    </g>
</svg>