<?xml version="1.0" encoding="UTF-8"?>
<svg width="354px" height="53px" viewBox="0 0 354 53" version="1.1" xmlns="http://www.w3.org/2000/svg" xmlns:xlink="http://www.w3.org/1999/xlink">
    <!-- Generator: Sketch 64 (93537) - https://sketch.com -->
    <title>Group</title>
    <desc>Created with Sketch.</desc>
    <g id="Symbols" stroke="none" stroke-width="1" fill="none" fill-rule="evenodd">
        <g id="elements/esercizio-progress-bar" transform="translate(-5.000000, -337.000000)" fill="#FFFFFF">
            <g id="Group" transform="translate(0.000000, 329.000000)">
                <g id="stats/icon+label">
                    <g id="icon/misc/hearth_outline" transform="translate(0.000000, 2.000000)">
                        <path d="M44,7.99999997 C39.36,7.99999997 34.9066667,10.16 32,13.56 C29.0933333,10.16 24.64,7.99999997 20,7.99999997 C11.7733333,7.99999997 5.3333333,14.44 5.3333333,22.6666667 C5.3333333,32.7333333 14.4,40.96 28.1333333,53.4266667 L32,56.9333334 L35.8666667,53.4266667 C49.6,40.96 58.6666667,32.7333333 58.6666667,22.6666667 C58.6666667,14.44 52.2266667,7.99999997 44,7.99999997 Z M32.28,49.48 L32,49.7333333 L31.72,49.48 C19.04,37.9733333 10.6666666,30.3733333 10.6666666,22.6666667 C10.6666666,17.3466666 14.68,13.3333333 20,13.3333333 C24.1066667,13.3333333 28.1066667,15.9866666 29.5066667,19.6266667 C30.1022222,20.9422222 30.9333333,21.6 32,21.6 C33.0666667,21.6 33.8933333,20.9422222 34.48,19.6266667 C35.8933333,15.9866666 39.8933333,13.3333333 44,13.3333333 C49.32,13.3333333 53.3333334,17.3466666 53.3333334,22.6666667 C53.3333334,30.3733333 44.96,37.9733333 32.28,49.48 Z" id="ic_favorite_border_48px"></path>
                    </g>
                    <path d="M96.6022727,51 L96.6022727,16.0909091 L91.4715909,16.0909091 L82.7613636,21.7840909 L82.7613636,26.8295455 L91.1136364,21.375 L91.3181818,21.375 L91.3181818,51 L96.6022727,51 Z M129.022727,51 L129.022727,46.4829545 L113.306818,46.4829545 L113.306818,46.2272727 L120.244318,38.9659091 C122.369318,36.8068182 124.028409,34.96875 125.221591,33.4517045 C126.414773,31.9346591 127.252841,30.5568182 127.735795,29.3181818 C128.21875,28.0795455 128.460227,26.8125 128.460227,25.5170455 C128.460227,23.6420455 127.988636,21.9573864 127.045455,20.4630682 C126.102273,18.96875 124.792614,17.7869318 123.116477,16.9176136 C121.440341,16.0482955 119.505682,15.6136364 117.3125,15.6136364 C115.142045,15.6136364 113.204545,16.0539773 111.5,16.9346591 C109.795455,17.8153409 108.454545,19.0511364 107.477273,20.6420455 C106.5,22.2329545 106.011364,24.0909091 106.011364,26.2159091 L106.011364,26.2159091 L111.039773,26.2159091 C111.039773,24.9659091 111.289773,23.875 111.789773,22.9431818 C112.289773,22.0113636 113.005682,21.2897727 113.9375,20.7784091 C114.869318,20.2670455 115.960227,20.0113636 117.210227,20.0113636 C118.392045,20.0113636 119.454545,20.2414773 120.397727,20.7017045 C121.340909,21.1619318 122.085227,21.8153409 122.630682,22.6619318 C123.176136,23.5085227 123.448864,24.5113636 123.448864,25.6704545 C123.448864,26.6931818 123.244318,27.6590909 122.835227,28.5681818 C122.426136,29.4772727 121.809659,30.4346591 120.985795,31.4403409 C120.161932,32.4460227 119.119318,33.6136364 117.857955,34.9431818 L117.857955,34.9431818 L106.045455,47.1818182 L106.045455,51 L129.022727,51 Z M147.636364,51.5795455 C150.318182,51.5795455 152.613636,50.8721591 154.522727,49.4573864 C156.431818,48.0426136 157.892045,45.9914773 158.903409,43.3039773 C159.914773,40.6164773 160.420455,37.3693182 160.420455,33.5625 C160.420455,29.7784091 159.911932,26.5482955 158.894886,23.8721591 C157.877841,21.1960227 156.414773,19.1505682 154.505682,17.7357955 C152.596591,16.3210227 150.306818,15.6136364 147.636364,15.6136364 C144.965909,15.6136364 142.673295,16.3181818 140.758523,17.7272727 C138.84375,19.1363636 137.377841,21.1818182 136.360795,23.8636364 C135.34375,26.5454545 134.835227,29.7784091 134.835227,33.5625 C134.835227,37.3579545 135.340909,40.6022727 136.352273,43.2954545 C137.363636,45.9886364 138.823864,48.0397727 140.732955,49.4488636 C142.642045,50.8579545 144.943182,51.5681818 147.636364,51.5795455 Z M147.636364,47.0284091 C146.056818,47.0284091 144.704545,46.5142045 143.579545,45.4857955 C142.454545,44.4573864 141.588068,42.9403409 140.980114,40.9346591 C140.372159,38.9289773 140.068182,36.4715909 140.068182,33.5625 C140.079545,29.2102273 140.755682,25.875 142.096591,23.5568182 C143.4375,21.2386364 145.284091,20.0795455 147.636364,20.0795455 C149.193182,20.0795455 150.536932,20.5994318 151.667614,21.6392045 C152.798295,22.6789773 153.667614,24.2017045 154.275568,26.2073864 C154.883523,28.2130682 155.1875,30.6647727 155.1875,33.5625 C155.1875,37.9261364 154.519886,41.2613636 153.184659,43.5681818 C151.849432,45.875 150,47.0284091 147.636364,47.0284091 Z" id="120" fill-rule="nonzero"></path>
                </g>
                <g id="stats/icon+label" transform="translate(228.000000, 0.000000)">
                    <g id="icon/misc/fire" transform="translate(0.000000, 2.000000)">
                        <path d="M34.4008,6.66666664 C28.2658667,11.90156 27.3397333,15.9732 28.4973333,22.3713333 C29.1918667,26.3266667 30.4652,35.6330667 25.8349333,35.6330667 C21.4362667,35.6330667 20.5101333,30.2818667 20.5101333,21.4406667 C17.9636,23.8837333 12.0600133,34.7024 13.5648,43.66 C16.806,62.0402667 43.1982667,63.2036 48.1757334,49.0112 C54.4265334,30.9798667 33.1276,25.6286667 34.4008,6.66666664 Z M41.9249333,45.5212 C37.8734667,52.5010667 30.0021333,49.2438667 28.9604,46.2192 C36.716,44.2416 35.3269333,38.1924 34.5166667,34.9350667 C32.7802667,27.9552 33.1276,24.3489333 33.1276,24.3489333 C35.6741333,32.7248 45.8606667,38.774 41.9249333,45.5212 Z" id="ic_flash_on_48px"></path>
                    </g>
                    <path d="M96.6022727,51 L96.6022727,16.0909091 L91.4715909,16.0909091 L82.7613636,21.7840909 L82.7613636,26.8295455 L91.1136364,21.375 L91.3181818,21.375 L91.3181818,51 L96.6022727,51 Z M117.840909,51.4772727 C120.261364,51.4772727 122.40625,51.0568182 124.275568,50.2159091 C126.144886,49.375 127.607955,48.2159091 128.664773,46.7386364 C129.721591,45.2613636 130.255682,43.5795455 130.267045,41.6931818 C130.255682,40.2159091 129.934659,38.8551136 129.303977,37.6107955 C128.673295,36.3664773 127.832386,35.3267045 126.78125,34.4914773 C125.730114,33.65625 124.551136,33.125 123.244318,32.8977273 L123.244318,32.8977273 L123.244318,32.6931818 C124.9375,32.2727273 126.3125,31.3409091 127.369318,29.8977273 C128.426136,28.4545455 128.960227,26.7954545 128.971591,24.9204545 C128.960227,23.1477273 128.471591,21.5596591 127.505682,20.15625 C126.539773,18.7528409 125.21875,17.6448864 123.542614,16.8323864 C121.866477,16.0198864 119.965909,15.6136364 117.840909,15.6136364 C115.693182,15.6136364 113.778409,16.0170455 112.096591,16.8238636 C110.414773,17.6306818 109.09375,18.7357955 108.133523,20.1392045 C107.173295,21.5426136 106.698864,23.1363636 106.710227,24.9204545 C106.698864,26.7954545 107.215909,28.4545455 108.261364,29.8977273 C109.306818,31.3409091 110.698864,32.2727273 112.4375,32.6931818 L112.4375,32.6931818 L112.4375,32.8977273 C111.119318,33.125 109.926136,33.65625 108.857955,34.4914773 C107.789773,35.3267045 106.946023,36.3664773 106.326705,37.6107955 C105.707386,38.8551136 105.403409,40.2159091 105.414773,41.6931818 C105.403409,43.5795455 105.926136,45.2613636 106.982955,46.7386364 C108.039773,48.2159091 109.502841,49.375 111.372159,50.2159091 C113.241477,51.0568182 115.397727,51.4772727 117.840909,51.4772727 Z M117.840909,30.9204545 C116.659091,30.9204545 115.616477,30.6875 114.713068,30.2215909 C113.809659,29.7556818 113.102273,29.1079545 112.590909,28.2784091 C112.079545,27.4488636 111.829545,26.4772727 111.840909,25.3636364 C111.829545,24.2727273 112.073864,23.3181818 112.573864,22.5 C113.073864,21.6818182 113.775568,21.0482955 114.678977,20.5994318 C115.582386,20.1505682 116.636364,19.9261364 117.840909,19.9261364 C119.022727,19.9261364 120.0625,20.1505682 120.960227,20.5994318 C121.857955,21.0482955 122.559659,21.6818182 123.065341,22.5 C123.571023,23.3181818 123.829545,24.2727273 123.840909,25.3636364 C123.829545,26.4772727 123.565341,27.4488636 123.048295,28.2784091 C122.53125,29.1079545 121.823864,29.7556818 120.926136,30.2215909 C120.028409,30.6875 119,30.9204545 117.840909,30.9204545 Z M117.840909,47.1647727 C116.386364,47.1647727 115.125,46.9232955 114.056818,46.4403409 C112.988636,45.9573864 112.167614,45.28125 111.59375,44.4119318 C111.019886,43.5426136 110.738636,42.5227273 110.75,41.3522727 C110.738636,40.1363636 111.039773,39.0625 111.653409,38.1306818 C112.267045,37.1988636 113.107955,36.4659091 114.176136,35.9318182 C115.244318,35.3977273 116.465909,35.1306818 117.840909,35.1306818 C119.204545,35.1306818 120.414773,35.3977273 121.471591,35.9318182 C122.528409,36.4659091 123.366477,37.1988636 123.985795,38.1306818 C124.605114,39.0625 124.920455,40.1363636 124.931818,41.3522727 C124.920455,42.5227273 124.625,43.5426136 124.045455,44.4119318 C123.465909,45.28125 122.647727,45.9573864 121.590909,46.4403409 C120.534091,46.9232955 119.284091,47.1647727 117.840909,47.1647727 Z" id="18" fill-rule="nonzero"></path>
                </g>
            </g>
        </g>
    </g>
</svg>