<?xml version="1.0" encoding="UTF-8"?>
<svg width="80px" height="80px" viewBox="0 0 80 80" version="1.1" xmlns="http://www.w3.org/2000/svg" xmlns:xlink="http://www.w3.org/1999/xlink">
    <!-- Generator: Sketch 64 (93537) - https://sketch.com -->
    <title>play copy</title>
    <desc>Created with Sketch.</desc>
    <g id="play-copy" stroke="none" stroke-width="1" fill="none" fill-rule="evenodd">
        <path d="M70,16.4285714 L70,63.5714286 C70,67.1205357 67.1205357,70 63.5714286,70 L52.1473214,70 L52.1473214,46.2678571 L60.2633929,46.2678571 L61.4285714,37.2142857 L52.1473214,37.2142857 L52.1473214,31.4285714 C52.1473214,28.8035714 52.8705357,27.0223214 56.6339286,27.0223214 L61.4285714,27.0223214 L61.4285714,18.9330357 C60.5982143,18.8258929 57.7589286,18.5714286 54.4375,18.5714286 C47.5267857,18.5714286 42.7857143,22.7901786 42.7857143,30.5446429 L42.7857143,37.2276786 L34.6428571,37.2276786 L34.6428571,46.28125 L42.7991071,46.28125 L42.7991071,70 L16.4285714,70 C12.8794643,70 10,67.1205357 10,63.5714286 L10,16.4285714 C10,12.8794643 12.8794643,10 16.4285714,10 L63.5714286,10 C67.1205357,10 70,12.8794643 70,16.4285714 Z" id="Path" fill="#FFFFFF"></path>
    </g>
</svg>