<?xml version="1.0" encoding="UTF-8"?>
<svg width="340px" height="268px" viewBox="0 0 340 268" version="1.1" xmlns="http://www.w3.org/2000/svg" xmlns:xlink="http://www.w3.org/1999/xlink">
    <!-- Generator: Sketch 64 (93537) - https://sketch.com -->
    <title>forma</title>
    <desc>Created with Sketch.</desc>
    <defs>
        <radialGradient cx="50%" cy="100%" fx="50%" fy="100%" r="97.8726774%" gradientTransform="translate(0.500000,1.000000),scale(0.852340,1.000000),rotate(90.000000),translate(-0.500000,-1.000000)" id="radialGradient-1">
            <stop stop-color="#FF8B00" offset="0%"></stop>
            <stop stop-color="#FF0000" offset="100%"></stop>
        </radialGradient>
        <radialGradient cx="50%" cy="100%" fx="50%" fy="100%" r="97.8726774%" gradientTransform="translate(0.500000,1.000000),scale(0.993547,1.000000),rotate(90.000000),translate(-0.500000,-1.000000)" id="radialGradient-2">
            <stop stop-color="#FF8B00" offset="0%"></stop>
            <stop stop-color="#FF0000" offset="100%"></stop>
        </radialGradient>
    </defs>
    <g id="forma" stroke="none" stroke-width="1" fill="none" fill-rule="evenodd">
        <g id="obiettivo/icon/icon-cardio" transform="translate(70.295455, 8.000000)">
            <g id="Group" transform="translate(10.950000, 27.903368)">
                <path d="M161.082811,13.1805189 C144.232303,-3.9833196 116.446593,-4.44980678 99.056529,12.1674573 C94.6921905,16.338183 91.3747649,21.1764394 89.1001238,26.3622907 C86.8254828,21.1764394 83.5076444,16.338183 79.1437187,12.1674573 C61.7536546,-4.44980678 33.9675315,-3.9833196 17.1170238,13.1805189 C0.160008462,30.4529291 0.257434103,58.2014855 17.4097136,75.353765 L84.2424649,142.186929 C87.0162059,144.96067 91.514711,144.955716 94.2818469,142.17537 L160.790534,75.353765 C177.942814,58.2014855 178.040239,30.4529291 161.082811,13.1805189" id="Fill-1" fill-opacity="0.75" fill="url(#radialGradient-1)" opacity="0.885091146"></path>
                <path d="M160.790534,75.353765 C177.942814,58.2014855 178.040239,30.4529291 161.082811,13.1805189 C144.232716,-3.9833196 116.446593,-4.44939396 99.056529,12.1674573 C94.6921905,16.338183 91.3747649,21.1764394 89.1001238,26.3622907 C86.8254828,21.1764394 83.5076444,16.338183 79.1433059,12.1674573 C71.647311,5.0046086 62.2193162,1.01882655 52.5679854,0.173782962 C42.6264418,29.1298394 49.2080392,62.5034881 72.3148418,85.6107035 L111.540221,124.83567 L160.790534,75.353765 Z" id="Fill-4" fill-opacity="0.75" fill="url(#radialGradient-2)" opacity="0.885091146"></path>
                <path d="M93.5974576,109.469811 C93.5843034,109.469811 93.5711492,109.469811 93.5569831,109.469811 C92.1201356,109.450586 90.8937559,108.426579 90.6185288,107.01604 L75.9464949,31.9326657 L66.1749203,68.7625063 C65.8227915,70.0920962 64.617661,71.018964 63.2415254,71.018964 L3.03559322,71.018964 C1.3589339,71.018964 0,69.6600301 0,67.9833707 C0,66.3067114 1.3589339,64.9477775 3.03559322,64.9477775 L60.9061424,64.9477775 L73.4623678,17.6228792 C73.8246153,16.2568623 75.0955169,15.3218996 76.4969492,15.3674335 C77.9095119,15.4149911 79.1035119,16.4319148 79.3746915,17.8201928 L93.7947712,91.615464 L103.283024,49.109064 C103.56331,47.8543521 104.601483,46.9133182 105.876432,46.7564792 C107.158464,46.5996402 108.385856,47.2634233 108.961607,48.4118894 L117.228539,64.9477775 L176.064407,64.9477775 C177.741066,64.9477775 179.1,66.3067114 179.1,67.9833707 C179.1,69.6600301 177.741066,71.018964 176.064407,71.018964 L115.352542,71.018964 C114.202053,71.018964 113.151737,70.369347 112.636698,69.3412928 L107.348695,58.7632623 L96.5601966,107.094966 C96.2495542,108.484255 95.0171034,109.469811 93.5974576,109.469811" id="Fill-1" fill-opacity="0.8" fill="#FFFFFF"></path>
            </g>
        </g>
        <path d="M25.5454545,259.613636 C28.2272727,259.613636 30.5085227,259.164773 32.3892045,258.267045 C34.2698864,257.369318 35.7017045,256.159091 36.6846591,254.636364 C37.6676136,253.113636 38.1590909,251.409091 38.1590909,249.522727 C38.1590909,247.886364 37.8238636,246.505682 37.1534091,245.380682 C36.4829545,244.255682 35.6335227,243.332386 34.6051136,242.610795 C33.5767045,241.889205 32.5028409,241.318182 31.3835227,240.897727 C30.2642045,240.477273 29.25,240.147727 28.3409091,239.909091 L28.3409091,239.909091 L24.7954545,238.954545 C24.1477273,238.784091 23.4375,238.559659 22.6647727,238.28125 C21.8920455,238.002841 21.1534091,237.644886 20.4488636,237.207386 C19.7443182,236.769886 19.1676136,236.21875 18.71875,235.553977 C18.2698864,234.889205 18.0454545,234.090909 18.0454545,233.159091 C18.0454545,232.045455 18.3664773,231.051136 19.0085227,230.176136 C19.6505682,229.301136 20.5482955,228.613636 21.7017045,228.113636 C22.8551136,227.613636 24.2045455,227.363636 25.75,227.363636 C27.8636364,227.363636 29.6477273,227.840909 31.1022727,228.795455 C32.5568182,229.75 33.3863636,231.090909 33.5909091,232.818182 L33.5909091,232.818182 L37.6818182,232.818182 C37.625,231.056818 37.0823864,229.482955 36.0539773,228.096591 C35.0255682,226.710227 33.6363636,225.616477 31.8863636,224.815341 C30.1363636,224.014205 28.1363636,223.613636 25.8863636,223.613636 C23.6590909,223.613636 21.6448864,224.019886 19.84375,224.832386 C18.0426136,225.644886 16.6107955,226.78125 15.5482955,228.241477 C14.4857955,229.701705 13.9545455,231.409091 13.9545455,233.363636 C13.9545455,235.715909 14.75,237.619318 16.3409091,239.073864 C17.9318182,240.528409 20.0909091,241.647727 22.8181818,242.431818 L22.8181818,242.431818 L27.1136364,243.659091 C28.3409091,244 29.4829545,244.397727 30.5397727,244.852273 C31.5965909,245.306818 32.4488636,245.897727 33.0965909,246.625 C33.7443182,247.352273 34.0681818,248.295455 34.0681818,249.454545 C34.0681818,250.727273 33.6931818,251.838068 32.9431818,252.786932 C32.1931818,253.735795 31.1761364,254.474432 29.8920455,255.002841 C28.6079545,255.53125 27.1590909,255.795455 25.5454545,255.795455 C24.1590909,255.795455 22.8664773,255.588068 21.6676136,255.173295 C20.46875,254.758523 19.4801136,254.122159 18.7017045,253.264205 C17.9232955,252.40625 17.4772727,251.318182 17.3636364,250 L17.3636364,250 L13,250 C13.1363636,251.909091 13.7244318,253.585227 14.7642045,255.028409 C15.8039773,256.471591 17.2357955,257.596591 19.0596591,258.403409 C20.8835227,259.210227 23.0454545,259.613636 25.5454545,259.613636 Z M53.4318182,259.340909 C54.1818182,259.340909 54.8011364,259.286932 55.2897727,259.178977 C55.7784091,259.071023 56.1590909,258.965909 56.4318182,258.863636 L56.4318182,258.863636 L55.6136364,255.25 C55.4431818,255.284091 55.2159091,255.326705 54.9318182,255.377841 C54.6477273,255.428977 54.2840909,255.454545 53.8409091,255.454545 C53.25,255.454545 52.6903409,255.360795 52.1619318,255.173295 C51.6335227,254.985795 51.2017045,254.610795 50.8664773,254.048295 C50.53125,253.485795 50.3636364,252.636364 50.3636364,251.5 L50.3636364,251.5 L50.3634545,236.228 L55.9545455,236.227273 L55.9545455,232.818182 L50.3634545,232.819 L50.3636364,226.545455 L46.3409091,226.545455 L46.3404545,232.819 L42.3863636,232.818182 L42.3863636,236.227273 L46.3404545,236.228 L46.3409091,252.590909 C46.3409091,254.00487 46.647104,255.193472 47.2594939,256.156714 L47.40625,256.375 C48.1164773,257.375 49.0142045,258.119318 50.0994318,258.607955 C51.1846591,259.096591 52.2954545,259.340909 53.4318182,259.340909 Z M69.7272727,259.613636 C71.25,259.613636 72.5397727,259.386364 73.5965909,258.931818 C74.6534091,258.477273 75.5,257.926136 76.1363636,257.278409 C76.7727273,256.630682 77.2272727,256.022727 77.5,255.454545 L77.5,255.454545 L77.7045455,255.454545 L77.7045455,259 L81.7272727,259 L81.7272727,241.75 C81.7272727,239.670455 81.3863636,238.011364 80.7045455,236.772727 C80.0227273,235.534091 79.1676136,234.607955 78.1392045,233.994318 C77.1107955,233.380682 76.0482955,232.974432 74.9517045,232.775568 C73.8551136,232.576705 72.8863636,232.477273 72.0454545,232.477273 C70.7272727,232.477273 69.3892045,232.65625 68.03125,233.014205 C66.6732955,233.372159 65.4232955,233.997159 64.28125,234.889205 C63.1392045,235.78125 62.2272727,237.022727 61.5454545,238.613636 L61.5454545,238.613636 L65.3636364,239.977273 C65.8068182,239.022727 66.5738636,238.125 67.6647727,237.284091 C68.7556818,236.443182 70.2613636,236.022727 72.1818182,236.022727 C74.0340909,236.022727 75.4176136,236.488636 76.3323864,237.420455 C77.2471591,238.352273 77.7045455,239.659091 77.7045455,241.340909 L77.7045455,241.340909 L77.7045455,241.477273 C77.7045455,242.125 77.4744318,242.579545 77.0142045,242.840909 C76.5539773,243.102273 75.8267045,243.286932 74.8323864,243.394886 C73.8380682,243.502841 72.5454545,243.659091 70.9545455,243.863636 C69.7386364,244.022727 68.53125,244.235795 67.3323864,244.502841 C66.1335227,244.769886 65.0397727,245.170455 64.0511364,245.704545 C63.0625,246.238636 62.2727273,246.974432 61.6818182,247.911932 C61.0909091,248.849432 60.7954545,250.068182 60.7954545,251.568182 C60.7954545,253.272727 61.1931818,254.724432 61.9886364,255.923295 C62.7840909,257.122159 63.8579545,258.036932 65.2102273,258.667614 C66.5625,259.298295 68.0681818,259.613636 69.7272727,259.613636 Z M70.3409091,256 C68.7386364,256 67.4176136,255.644886 66.3778409,254.934659 C65.3380682,254.224432 64.8181818,253.170455 64.8181818,251.772727 C64.8181818,250.75 65.09375,249.940341 65.6448864,249.34375 C66.1960227,248.747159 66.9232955,248.298295 67.8267045,247.997159 C68.7301136,247.696023 69.7045455,247.477273 70.75,247.340909 C71.1818182,247.284091 71.7471591,247.213068 72.4460227,247.127841 C73.1448864,247.042614 73.8664773,246.940341 74.6107955,246.821023 C75.3551136,246.701705 76.0142045,246.559659 76.5880682,246.394886 C77.1619318,246.230114 77.5340909,246.045455 77.7045455,245.840909 L77.7045455,245.840909 L77.7045455,249.522727 C77.7045455,250.613636 77.4232955,251.653409 76.8607955,252.642045 C76.2982955,253.630682 75.46875,254.4375 74.3721591,255.0625 C73.2755682,255.6875 71.9318182,256 70.3409091,256 Z M93.1136364,259 L93.1136364,242.431818 C93.1136364,241.25 93.4005682,240.196023 93.9744318,239.269886 C94.5482955,238.34375 95.3323864,237.616477 96.3267045,237.088068 C97.3210227,236.559659 98.4545455,236.295455 99.7272727,236.295455 C100.261364,236.295455 100.769886,236.332386 101.252841,236.40625 C101.735795,236.480114 102.045455,236.534091 102.181818,236.568182 L102.181818,236.568182 L102.181818,232.477273 C101.954545,232.454545 101.619318,232.4375 101.176136,232.426136 C100.732955,232.414773 100.363636,232.409091 100.068182,232.409091 C98.5,232.409091 97.0909091,232.8125 95.8409091,233.619318 C94.5909091,234.426136 93.7272727,235.477273 93.25,236.772727 L93.25,236.772727 L92.9772727,236.772727 L92.9772727,232.818182 L89.0909091,232.818182 L89.0909091,259 L93.1136364,259 Z M117.931818,259.545455 C119.704545,259.545455 121.301136,259.269886 122.721591,258.71875 C124.142045,258.167614 125.335227,257.394886 126.301136,256.400568 C127.267045,255.40625 127.954545,254.25 128.363636,252.931818 L128.363636,252.931818 L124.477273,251.840909 C124.136364,252.75 123.653409,253.508523 123.028409,254.116477 C122.403409,254.724432 121.661932,255.178977 120.803977,255.480114 C119.946023,255.78125 118.988636,255.931818 117.931818,255.931818 C116.306818,255.931818 114.880682,255.576705 113.653409,254.866477 C112.426136,254.15625 111.46875,253.116477 110.78125,251.747159 C110.191964,250.573458 109.85523,249.176426 109.771046,247.556064 L109.759455,247.273 L128.772727,247.272727 L128.772727,245.568182 C128.772727,243.125 128.448864,241.068182 127.801136,239.397727 C127.153409,237.727273 126.284091,236.383523 125.193182,235.366477 C124.102273,234.349432 122.892045,233.613636 121.5625,233.159091 C120.232955,232.704545 118.886364,232.477273 117.522727,232.477273 C115.159091,232.477273 113.09375,233.053977 111.326705,234.207386 C109.559659,235.360795 108.184659,236.963068 107.201705,239.014205 C106.21875,241.065341 105.727273,243.431818 105.727273,246.113636 C105.727273,248.795455 106.21875,251.144886 107.201705,253.161932 C108.184659,255.178977 109.588068,256.747159 111.411932,257.866477 C113.235795,258.985795 115.409091,259.545455 117.931818,259.545455 Z M109.776042,243.695076 C109.862847,242.517677 110.166667,241.403409 110.6875,240.352273 C111.3125,239.090909 112.207386,238.065341 113.372159,237.275568 C114.536932,236.485795 115.920455,236.090909 117.522727,236.090909 C118.977273,236.090909 120.241477,236.426136 121.315341,237.096591 C122.389205,237.767045 123.21875,238.681818 123.803977,239.840909 C124.389205,241 124.681818,242.318182 124.681818,243.795455 L124.681818,243.795455 L109.770455,243.796 L109.776042,243.695076 Z M150.454545,228.454545 C151.238636,228.454545 151.911932,228.1875 152.474432,227.653409 C153.036932,227.119318 153.318182,226.477273 153.318182,225.727273 C153.318182,224.977273 153.036932,224.335227 152.474432,223.801136 C151.911932,223.267045 151.238636,223 150.454545,223 C149.670455,223 148.997159,223.267045 148.434659,223.801136 C147.872159,224.335227 147.590909,224.977273 147.590909,225.727273 C147.590909,226.477273 147.872159,227.119318 148.434659,227.653409 C148.997159,228.1875 149.670455,228.454545 150.454545,228.454545 Z M152.431818,259 L152.431818,232.818182 L148.409091,232.818182 L148.409091,259 L152.431818,259 Z M163.818182,259 L163.818182,243.25 C163.818182,241.727273 164.107955,240.431818 164.6875,239.363636 C165.267045,238.295455 166.059659,237.482955 167.065341,236.926136 C168.071023,236.369318 169.215909,236.090909 170.5,236.090909 C172.363636,236.090909 173.829545,236.667614 174.897727,237.821023 C175.965909,238.974432 176.5,240.579545 176.5,242.636364 L176.5,242.636364 L176.5,259 L180.522727,259 L180.522727,242.363636 C180.522727,240.136364 180.153409,238.292614 179.414773,236.832386 C178.676136,235.372159 177.642045,234.28125 176.3125,233.559659 C174.982955,232.838068 173.431818,232.477273 171.659091,232.477273 C169.681818,232.477273 168.068182,232.883523 166.818182,233.696023 C165.568182,234.508523 164.636364,235.579545 164.022727,236.909091 L164.022727,236.909091 L163.681818,236.909091 L163.681818,232.818182 L159.795455,232.818182 L159.795455,259 L163.818182,259 Z M207.181818,259 L207.181455,236.228 L213.045455,236.227273 L213.045455,232.818182 L207.181455,232.819 L207.181818,230.159091 C207.181818,228.956169 207.434123,228.022698 207.938732,227.358679 L208.059659,227.210227 C208.644886,226.539773 209.602273,226.204545 210.931818,226.204545 C211.511364,226.204545 211.980114,226.255682 212.338068,226.357955 C212.696023,226.460227 212.977273,226.545455 213.181818,226.613636 L213.181818,226.613636 L214.340909,223.136364 C214.034091,223 213.568182,222.852273 212.943182,222.693182 C212.318182,222.534091 211.511364,222.454545 210.522727,222.454545 C209.272727,222.454545 208.085227,222.704545 206.960227,223.204545 C205.835227,223.704545 204.920455,224.454545 204.215909,225.454545 C203.511364,226.454545 203.159091,227.704545 203.159091,229.204545 L203.159091,229.204545 L203.158455,232.819 L198.931818,232.818182 L198.931818,236.227273 L203.158455,236.228 L203.159091,259 L207.181818,259 Z M229.340909,259.545455 C231.704545,259.545455 233.775568,258.982955 235.553977,257.857955 C237.332386,256.732955 238.71875,255.159091 239.713068,253.136364 C240.707386,251.113636 241.204545,248.75 241.204545,246.045455 C241.204545,243.318182 240.707386,240.9375 239.713068,238.903409 C238.71875,236.869318 237.332386,235.289773 235.553977,234.164773 C233.775568,233.039773 231.704545,232.477273 229.340909,232.477273 C226.977273,232.477273 224.90625,233.039773 223.127841,234.164773 C221.349432,235.289773 219.963068,236.869318 218.96875,238.903409 C217.974432,240.9375 217.477273,243.318182 217.477273,246.045455 C217.477273,248.75 217.974432,251.113636 218.96875,253.136364 C219.963068,255.159091 221.349432,256.732955 223.127841,257.857955 C224.90625,258.982955 226.977273,259.545455 229.340909,259.545455 Z M229.340909,255.931818 C227.545455,255.931818 226.068182,255.471591 224.909091,254.551136 C223.75,253.630682 222.892045,252.420455 222.335227,250.920455 C221.778409,249.420455 221.5,247.795455 221.5,246.045455 C221.5,244.295455 221.778409,242.664773 222.335227,241.153409 C222.892045,239.642045 223.75,238.420455 224.909091,237.488636 C226.068182,236.556818 227.545455,236.090909 229.340909,236.090909 C231.136364,236.090909 232.613636,236.556818 233.772727,237.488636 C234.931818,238.420455 235.789773,239.642045 236.346591,241.153409 C236.903409,242.664773 237.181818,244.295455 237.181818,246.045455 C237.181818,247.795455 236.903409,249.420455 236.346591,250.920455 C235.789773,252.420455 234.931818,253.630682 233.772727,254.551136 C232.613636,255.471591 231.136364,255.931818 229.340909,255.931818 Z M251.363636,259 L251.363636,242.431818 C251.363636,241.25 251.650568,240.196023 252.224432,239.269886 C252.798295,238.34375 253.582386,237.616477 254.576705,237.088068 C255.571023,236.559659 256.704545,236.295455 257.977273,236.295455 C258.511364,236.295455 259.019886,236.332386 259.502841,236.40625 C259.985795,236.480114 260.295455,236.534091 260.431818,236.568182 L260.431818,236.568182 L260.431818,232.477273 C260.204545,232.454545 259.869318,232.4375 259.426136,232.426136 C258.982955,232.414773 258.613636,232.409091 258.318182,232.409091 C256.75,232.409091 255.340909,232.8125 254.090909,233.619318 C252.840909,234.426136 251.977273,235.477273 251.5,236.772727 L251.5,236.772727 L251.227273,236.772727 L251.227273,232.818182 L247.340909,232.818182 L247.340909,259 L251.363636,259 Z M269.227273,259 L269.227273,242.636364 C269.227273,241.352273 269.502841,240.21875 270.053977,239.235795 C270.605114,238.252841 271.332386,237.482955 272.235795,236.926136 C273.139205,236.369318 274.113636,236.090909 275.159091,236.090909 C276.681818,236.090909 277.926136,236.548295 278.892045,237.463068 C279.857955,238.377841 280.340909,239.579545 280.340909,241.068182 L280.340909,241.068182 L280.340909,259 L284.431818,259 L284.431818,241.954545 C284.431818,240.261364 284.9375,238.860795 285.948864,237.752841 C286.960227,236.644886 288.386364,236.090909 290.227273,236.090909 C291.659091,236.090909 292.903409,236.505682 293.960227,237.335227 C295.017045,238.164773 295.545455,239.545455 295.545455,241.477273 L295.545455,241.477273 L295.545455,259 L299.568182,259 L299.568182,241.477273 C299.568182,238.397727 298.823864,236.127841 297.335227,234.667614 C295.846591,233.207386 293.931818,232.477273 291.590909,232.477273 C289.715909,232.477273 288.107955,232.877841 286.767045,233.678977 C285.426136,234.480114 284.420455,235.556818 283.75,236.909091 L283.75,236.909091 L283.477273,236.909091 C282.829545,235.511364 281.928977,234.423295 280.775568,233.644886 C279.622159,232.866477 278.181818,232.477273 276.454545,232.477273 C274.75,232.477273 273.289773,232.866477 272.073864,233.644886 C270.857955,234.423295 269.977273,235.511364 269.431818,236.909091 L269.431818,236.909091 L269.090909,236.909091 L269.090909,232.818182 L265.204545,232.818182 L265.204545,259 L269.227273,259 Z M314.636364,259.613636 C316.159091,259.613636 317.448864,259.386364 318.505682,258.931818 C319.5625,258.477273 320.409091,257.926136 321.045455,257.278409 C321.681818,256.630682 322.136364,256.022727 322.409091,255.454545 L322.409091,255.454545 L322.613636,255.454545 L322.613636,259 L326.636364,259 L326.636364,241.75 C326.636364,239.670455 326.295455,238.011364 325.613636,236.772727 C324.931818,235.534091 324.076705,234.607955 323.048295,233.994318 C322.019886,233.380682 320.957386,232.974432 319.860795,232.775568 C318.764205,232.576705 317.795455,232.477273 316.954545,232.477273 C315.636364,232.477273 314.298295,232.65625 312.940341,233.014205 C311.582386,233.372159 310.332386,233.997159 309.190341,234.889205 C308.048295,235.78125 307.136364,237.022727 306.454545,238.613636 L306.454545,238.613636 L310.272727,239.977273 C310.715909,239.022727 311.482955,238.125 312.573864,237.284091 C313.664773,236.443182 315.170455,236.022727 317.090909,236.022727 C318.943182,236.022727 320.326705,236.488636 321.241477,237.420455 C322.15625,238.352273 322.613636,239.659091 322.613636,241.340909 L322.613636,241.340909 L322.613636,241.477273 C322.613636,242.125 322.383523,242.579545 321.923295,242.840909 C321.463068,243.102273 320.735795,243.286932 319.741477,243.394886 C318.747159,243.502841 317.454545,243.659091 315.863636,243.863636 C314.647727,244.022727 313.440341,244.235795 312.241477,244.502841 C311.042614,244.769886 309.948864,245.170455 308.960227,245.704545 C307.971591,246.238636 307.181818,246.974432 306.590909,247.911932 C306,248.849432 305.704545,250.068182 305.704545,251.568182 C305.704545,253.272727 306.102273,254.724432 306.897727,255.923295 C307.693182,257.122159 308.767045,258.036932 310.119318,258.667614 C311.471591,259.298295 312.977273,259.613636 314.636364,259.613636 Z M315.25,256 C313.647727,256 312.326705,255.644886 311.286932,254.934659 C310.247159,254.224432 309.727273,253.170455 309.727273,251.772727 C309.727273,250.75 310.002841,249.940341 310.553977,249.34375 C311.105114,248.747159 311.832386,248.298295 312.735795,247.997159 C313.639205,247.696023 314.613636,247.477273 315.659091,247.340909 C316.090909,247.284091 316.65625,247.213068 317.355114,247.127841 C318.053977,247.042614 318.775568,246.940341 319.519886,246.821023 C320.264205,246.701705 320.923295,246.559659 321.497159,246.394886 C322.071023,246.230114 322.443182,246.045455 322.613636,245.840909 L322.613636,245.840909 L322.613636,249.522727 C322.613636,250.613636 322.332386,251.653409 321.769886,252.642045 C321.207386,253.630682 320.377841,254.4375 319.28125,255.0625 C318.184659,255.6875 316.840909,256 315.25,256 Z" id="Stareinforma" fill="#D02302" fill-rule="nonzero"></path>
    </g>
</svg>