<?xml version="1.0" encoding="UTF-8"?>
<svg width="80px" height="80px" viewBox="0 0 80 80" version="1.1" xmlns="http://www.w3.org/2000/svg" xmlns:xlink="http://www.w3.org/1999/xlink">
    <!-- Generator: Sketch 64 (93537) - https://sketch.com -->
    <title>forward</title>
    <desc>Created with Sketch.</desc>
    <g id="forward" stroke="none" stroke-width="1" fill="none" fill-rule="evenodd">
        <path d="M56.6666667,20 C58.5076159,20 60,21.4923842 60,23.3333333 L60,56.6666667 C60,58.5076158 58.5076159,60 56.6666667,60 C54.8257175,60 53.3333334,58.5076158 53.3333334,56.6666667 L53.3333334,23.3333333 C53.3333334,21.4923842 54.8257175,20 56.6666667,20 Z M20.3660643,22.706475 C21.0030509,21.8040772 22.2509686,21.588919 23.1533664,22.2259057 L23.1533664,22.2259057 L46.0185911,38.3660643 C46.2050244,38.4976643 46.3675604,38.6602003 46.4991604,38.8466336 C47.1361471,39.7490314 46.9209889,40.9969491 46.0185911,41.6339357 L46.0185911,41.6339357 L23.1533664,57.7740943 C22.815933,58.0122826 22.4130314,58.1401586 22,58.1401586 C20.8954305,58.1401586 20,57.2447281 20,56.1401586 L20,56.1401586 L20,23.8598414 C20,23.44681 20.127876,23.0439084 20.3660643,22.706475 Z" id="Combined-Shape" fill="#FFFFFF"></path>
    </g>
</svg>