<?xml version="1.0" encoding="UTF-8"?>
<svg width="240px" height="241px" viewBox="0 0 240 241" version="1.1" xmlns="http://www.w3.org/2000/svg" xmlns:xlink="http://www.w3.org/1999/xlink">
    <!-- Generator: Sketch 64 (93537) - https://sketch.com -->
    <title>button/round-icon-big</title>
    <desc>Created with Sketch.</desc>
    <g id="Page-1" stroke="none" stroke-width="1" fill="none" fill-rule="evenodd">
        <g id="MPG/Profilo-2" transform="translate(-960.000000, -1057.000000)" fill="#FFFFFF">
            <g id="Group" transform="translate(680.000000, 859.666667)">
                <g id="button/round/icon-big" transform="translate(280.000000, 197.666667)">
                    <g id="button/round-icon-big">
                        <circle id="Oval" fill-opacity="0.15" cx="120" cy="120" r="120"></circle>
                        <g id="icon/misc/add-photo" transform="translate(80.000000, 80.000000)" fill-opacity="0.4">
                            <path d="M16.8353293,26.875 L16.8353293,18.313997 L25.4090909,18.313997 L25.4090909,12.561003 L16.8353293,12.561003 L16.8353293,4 L11.0737616,4 L11.0737616,12.561003 L2.5,12.561003 L2.5,18.313997 L11.0737616,18.313997 L11.0737616,26.875 L16.8353293,26.875 Z M63.2220405,65 C64.793438,65 66.1568563,64.4422857 67.3122956,63.3268571 C68.4677349,62.2114286 69.0454545,60.863619 69.0454545,59.2834286 L69.0454545,59.2834286 L69.0454545,24.4262857 C69.0454545,22.8460952 68.4677349,21.4750476 67.3122956,20.3131429 C66.1568563,19.1512381 64.793438,18.5702857 63.2220405,18.5702857 L63.2220405,18.5702857 L54.0016351,18.5702857 L48.7328319,12.7142857 L28.558862,12.7142857 L28.558862,21.4285714 L19.8930674,21.4285714 L19.8930674,30.1428571 L11.2272727,30.1428571 L11.2272727,59.2834286 C11.2272727,60.863619 11.8049924,62.2114286 12.9604317,63.3268571 C14.1158709,64.4422857 15.4792893,65 17.0506867,65 L17.0506867,65 L63.2220405,65 Z M39.5227273,56.2857143 C36.9318182,56.2857143 34.5568182,55.6376417 32.3977273,54.3414964 C30.2386364,53.0453511 28.5340909,51.2778803 27.2840909,49.039084 C26.0340909,46.8002876 25.4090909,44.3376116 25.4090909,41.651056 C25.4090909,38.9645003 26.0340909,36.4900412 27.2840909,34.2276786 C28.5340909,31.9653159 30.25,30.1742788 32.4318182,28.8545673 C34.6136364,27.5348558 36.9886364,26.875 39.5568182,26.875 C42.125,26.875 44.5,27.5348558 46.6818182,28.8545673 C48.8636364,30.1742788 50.5909091,31.9653159 51.8636364,34.2276786 C53.1363636,36.4900412 53.7727273,38.9527172 53.7727273,41.6157066 C53.7727273,44.2786959 53.1363636,46.7413719 51.8636364,49.0037345 C50.5909091,51.2660972 48.8636364,53.0453511 46.6818182,54.3414964 C44.5,55.6376417 42.1136364,56.2857143 39.5227273,56.2857143 Z M40.0671642,50.8392857 C41.7279512,50.8392857 43.2849389,50.4247068 44.7381275,49.595549 C46.1913161,48.7663913 47.3331072,47.6493315 48.1635007,46.2443697 C48.9938942,44.8394079 49.4090909,43.3077692 49.4090909,41.6494536 C49.4090909,39.9911381 48.9823609,38.4479833 48.1289009,37.0199893 C47.275441,35.5919954 46.1336499,34.4519034 44.7035278,33.5997135 C43.2734057,32.7475235 41.7279512,32.3214286 40.0671642,32.3214286 C38.4063772,32.3214286 36.8724559,32.7360075 35.4654003,33.5651652 C34.0583446,34.394323 32.9396201,35.534415 32.1092266,36.9854411 C31.2788331,38.4364672 30.8636364,39.9911381 30.8636364,41.6494536 C30.8636364,43.3077692 31.2788331,44.8394079 32.1092266,46.2443697 C32.9396201,47.6493315 34.0583446,48.7663913 35.4654003,49.595549 C36.8724559,50.4247068 38.4063772,50.8392857 40.0671642,50.8392857 Z" id="î "></path>
                        </g>
                    </g>
                </g>
            </g>
        </g>
    </g>
</svg>