<?xml version="1.0" encoding="UTF-8"?>
<svg width="80px" height="80px" viewBox="0 0 80 80" version="1.1" xmlns="http://www.w3.org/2000/svg" xmlns:xlink="http://www.w3.org/1999/xlink">
    <!-- Generator: Sketch 64 (93537) - https://sketch.com -->
    <title>play copy 2</title>
    <desc>Created with Sketch.</desc>
    <g id="play-copy-2" stroke="none" stroke-width="1" fill="none" fill-rule="evenodd">
        <path d="M40.000062,9 C31.580905,9 30.5252194,9.03568617 27.21874,9.18655154 C23.9191517,9.33704621 21.6656506,9.86113737 19.693822,10.627522 C17.6552982,11.4196249 15.9265031,12.479617 14.2029987,14.2029987 C12.479617,15.9265031 11.4196249,17.6552982 10.627522,19.693822 C9.86113738,21.6656506 9.33704621,23.9191517 9.18655154,27.21874 C9.03568617,30.5252194 9,31.580905 9,40.000062 C9,48.419095 9.03568617,49.4747806 9.18655154,52.78126 C9.33704621,56.0808483 9.86113738,58.3343494 10.627522,60.306178 C11.4196249,62.3447018 12.479617,64.0734969 14.2029987,65.7970013 C15.9265031,67.520383 17.6552982,68.5803751 19.693822,69.372602 C21.6656506,70.1388626 23.9191517,70.6629538 27.21874,70.8134485 C30.5252194,70.9643138 31.580905,71 40.000062,71 C48.419095,71 49.4747806,70.9643138 52.78126,70.8134485 C56.0808483,70.6629538 58.3343494,70.1388626 60.306178,69.372602 C62.3447018,68.5803751 64.0734969,67.520383 65.7970013,65.7970013 C67.520383,64.0734969 68.5803751,62.3447018 69.372602,60.306178 C70.1388626,58.3343494 70.6629538,56.0808483 70.8134485,52.78126 C70.9643138,49.4747806 71,48.419095 71,40.000062 C71,31.580905 70.9643138,30.5252194 70.8134485,27.21874 C70.6629538,23.9191517 70.1388626,21.6656506 69.372602,19.693822 C68.5803751,17.6552982 67.520383,15.9265031 65.7970013,14.2029987 C64.0734969,12.479617 62.3447018,11.4196249 60.306178,10.627522 C58.3343494,9.86113737 56.0808483,9.33704621 52.78126,9.18655154 C49.4747806,9.03568617 48.419095,9 40.000062,9 Z M40.000062,14.5855761 C48.2773358,14.5855761 49.2578348,14.6172013 52.5266608,14.7663436 C55.5491298,14.9041644 57.1905566,15.4091803 58.2829126,15.8337188 C59.7299125,16.3960795 60.7625884,17.0678353 61.8473146,18.1526854 C62.9321647,19.2374116 63.6039205,20.2700875 64.1662812,21.7170874 C64.5908197,22.8094434 65.0958356,24.4508702 65.2336564,27.4733392 C65.3827987,30.7421652 65.4144239,31.7226642 65.4144239,40.000062 C65.4144239,48.2773358 65.3827987,49.2578348 65.2336564,52.5266608 C65.0958356,55.5491298 64.5908197,57.1905566 64.1662812,58.2829126 C63.6039205,59.7299125 62.9321647,60.7625884 61.8473146,61.8473146 C60.7625884,62.9321647 59.7299125,63.6039205 58.2829126,64.1662812 C57.1905566,64.5908197 55.5491298,65.0958356 52.5266608,65.2336564 C49.258327,65.3827987 48.2779507,65.4144239 40.000062,65.4144239 C31.7220493,65.4144239 30.7417957,65.3827987 27.4733392,65.2336564 C24.4508702,65.0958356 22.8094434,64.5908197 21.7170874,64.1662812 C20.2700875,63.6039205 19.2374116,62.9321647 18.1526854,61.8473146 C17.067958,60.7625884 16.3960795,59.7299125 15.8337188,58.2829126 C15.4091803,57.1905566 14.9041644,55.5491298 14.7663436,52.5266608 C14.6172013,49.2578348 14.5855761,48.2773358 14.5855761,40.000062 C14.5855761,31.7226642 14.6172013,30.7421652 14.7663436,27.4733392 C14.9041644,24.4508702 15.4091803,22.8094434 15.8337188,21.7170874 C16.3960795,20.2700875 17.0678352,19.2374116 18.1526854,18.1526854 C19.2374116,17.0678353 20.2700875,16.3960795 21.7170874,15.8337188 C22.8094434,15.4091803 24.4508702,14.9041644 27.4733392,14.7663436 C30.7421652,14.6172013 31.7226642,14.5855761 40.000062,14.5855761 Z M40.000062,24.0810905 C31.2081727,24.0810905 24.0810905,31.2081727 24.0810905,40.000062 C24.0810905,48.7918273 31.2081727,55.9189095 40.000062,55.9189095 C48.7918273,55.9189095 55.9189095,48.7918273 55.9189095,40.000062 C55.9189095,31.2081727 48.7918273,24.0810905 40.000062,24.0810905 Z M40.000062,50.3333333 C34.2930305,50.3333333 29.6666667,45.7069695 29.6666667,40.000062 C29.6666667,34.2930305 34.2930305,29.6666667 40.000062,29.6666667 C45.7069695,29.6666667 50.3333333,34.2930305 50.3333333,40.000062 C50.3333333,45.7069695 45.7069695,50.3333333 40.000062,50.3333333 Z M60.2679085,23.4521587 C60.2679085,25.5066798 58.6023625,27.1721018 56.5478413,27.1721018 C54.4934429,27.1721018 52.8278982,25.5066798 52.8278982,23.4521587 C52.8278982,21.3976375 54.4934429,19.7320915 56.5478413,19.7320915 C58.6023625,19.7320915 60.2679085,21.3976375 60.2679085,23.4521587 Z" id="Instagram" fill="#FFFFFF"></path>
    </g>
</svg>