<?xml version="1.0" encoding="UTF-8"?>
<svg width="80px" height="80px" viewBox="0 0 80 80" version="1.1" xmlns="http://www.w3.org/2000/svg" xmlns:xlink="http://www.w3.org/1999/xlink">
    <!-- Generator: Sketch 64 (93537) - https://sketch.com -->
    <title>lock</title>
    <desc>Created with Sketch.</desc>
    <g id="lock" stroke="none" stroke-width="1" fill="none" fill-rule="evenodd">
        <path d="M56.25,63 C58.0191761,63 59.4545455,61.5646307 59.4545455,59.7954545 L59.4545455,40.5681818 C59.4545455,38.7990057 58.0191761,37.3636364 56.25,37.3636364 L55.1818182,37.3636364 L55.1818182,30.9545455 C55.1818182,22.7428977 48.4389205,16 40.2272727,16 C32.015625,16 25.2727273,22.7428977 25.2727273,30.9545455 L25.2727273,37.3636364 L24.2045455,37.3636364 C22.4353693,37.3636364 21,38.7990057 21,40.5681818 L21,59.7954545 C21,61.5646307 22.4353693,63 24.2045455,63 L56.25,63 Z M48.7727273,37.3636364 L31.6818182,37.3636364 L31.6818182,30.9545455 C31.6818182,26.2478693 35.5205966,22.4090909 40.2272727,22.4090909 C44.9339489,22.4090909 48.7727273,26.2478693 48.7727273,30.9545455 L48.7727273,37.3636364 Z" id="" fill="#FFFFFF"></path>
    </g>
</svg>