<?xml version="1.0" encoding="UTF-8"?>
<svg width="241px" height="258px" viewBox="0 0 241 258" version="1.1" xmlns="http://www.w3.org/2000/svg" xmlns:xlink="http://www.w3.org/1999/xlink">
    <!-- Generator: Sketch 64 (93537) - https://sketch.com -->
    <title>logo</title>
    <desc>Created with Sketch.</desc>
    <g id="Page-1" stroke="none" stroke-width="1" fill="none" fill-rule="evenodd">
        <g id="MPG/start-1.1" transform="translate(-965.000000, -945.000000)" fill="#FFFFFF" fill-rule="nonzero">
            <g id="elements/logo" transform="translate(920.000000, 926.000000)">
                <path d="M53.68,276.4 C81.28,276.4 95.68,245.44 79.36,198.16 C90.16,197.44 101.2,188.08 107.44,166 C108.64,161.92 102.88,160.48 98.56,163.12 C90.88,186.88 79.36,192.64 70.48,179.2 C76,134.32 82.24,94 94.48,38.08 C97.84,22.48 79.6,22.72 71.2,32.32 C64.72,68.8 58.24,111.04 53.2,158.56 C49.84,161.44 47.2,166.24 47.92,171.76 C48.88,174.64 49.84,177.28 51.28,179.92 C48.64,208.96 46.48,239.92 45.52,272.56 C48.4,275.68 51.28,276.4 53.68,276.4 Z M60.64,266.8 L66.64,210.88 C80.32,244.48 70.72,265.84 60.64,266.8 Z M137.44,207.04 C148.96,207.04 160.48,202.72 171.28,196 C178.24,202.96 187.84,205.6 199.12,205.6 C220.24,205.6 238,180.64 240.64,166 L240.64,165.52 C240.64,163.84 239.2,161.68 236.32,161.68 C235.12,161.68 233.44,162.16 231.76,163.12 C226.24,179.44 215.92,195.76 203.92,195.76 C195.04,195.76 188.8,192.88 185.44,185.44 C206.32,166.72 221.68,139.36 221.68,118.96 C221.68,103.84 214.48,93.76 201.04,93.76 C183.28,93.76 160.96,118.48 160.96,162.88 C160.96,173.68 162.64,181.84 165.76,188.32 C157.6,193.36 148.96,196.24 141.04,196.24 C130.96,196.24 123.52,191.2 119.92,179.44 C137.68,165.28 154.96,142.72 154.96,116.56 C154.96,104.32 149.2,94.48 135.04,94.48 C123.52,94.48 97.12,106 97.12,160.72 C97.12,194.08 116.8,207.04 137.44,207.04 Z M182.32,174.16 C182.08,171.04 181.84,167.2 181.84,163.12 C181.84,128.08 193.36,106 198.64,106 C202,106 204.16,108.4 204.16,119.2 C204.16,140.56 195.04,160.24 182.32,174.16 Z M118.24,168.4 C118,166.48 118,164.32 118,161.92 C118,122.56 129.28,106.48 133.6,106.48 C136.24,106.48 137.44,108.88 137.44,114.16 C137.44,137.44 128.56,156.16 118.24,168.4 Z M254.08,199.12 C268.24,199.12 279.28,185.68 285.04,171.28 C286.72,166.96 281.92,165.28 276.64,167.92 C269.92,184.24 264.16,187.6 259.12,187.6 C251.44,187.6 246.88,169.6 247.84,141.52 C281.92,94.72 286.96,28.48 257.68,20.08 C255.04,19.36 251.92,19.36 249.28,22 C223.12,133.36 216.88,199.12 254.08,199.12 Z M249.28,121.36 C251.2,103.12 255.28,82 261.76,59.44 C265.36,77.44 259.84,99.76 249.28,121.36 Z" id="fel"></path>
            </g>
        </g>
    </g>
</svg>