<?xml version="1.0" encoding="UTF-8"?>
<svg width="80px" height="80px" viewBox="0 0 80 80" version="1.1" xmlns="http://www.w3.org/2000/svg" xmlns:xlink="http://www.w3.org/1999/xlink">
    <!-- Generator: Sketch 64 (93537) - https://sketch.com -->
    <title>more</title>
    <desc>Created with Sketch.</desc>
    <g id="more" stroke="none" stroke-width="1" fill="none" fill-rule="evenodd">
        <path d="M19.6666667,33 C15.9833333,33 13,35.9833333 13,39.6666667 C13,43.35 15.9833333,46.3333334 19.6666667,46.3333334 C23.35,46.3333334 26.3333334,43.35 26.3333334,39.6666667 C26.3333334,35.9833333 23.35,33 19.6666667,33 Z M59.6666667,33 C55.9833334,33 53,35.9833333 53,39.6666667 C53,43.35 55.9833334,46.3333334 59.6666667,46.3333334 C63.3500001,46.3333334 66.3333334,43.35 66.3333334,39.6666667 C66.3333334,35.9833333 63.3500001,33 59.6666667,33 Z M39.6666667,33 C35.9833334,33 33,35.9833333 33,39.6666667 C33,43.35 35.9833334,46.3333334 39.6666667,46.3333334 C43.35,46.3333334 46.3333334,43.35 46.3333334,39.6666667 C46.3333334,35.9833333 43.35,33 39.6666667,33 Z" id="ic_more_horiz_48px" fill="#FFFFFF"></path>
    </g>
</svg>