<?xml version="1.0" encoding="UTF-8"?>
<svg width="80px" height="80px" viewBox="0 0 80 80" version="1.1" xmlns="http://www.w3.org/2000/svg" xmlns:xlink="http://www.w3.org/1999/xlink">
    <!-- Generator: Sketch 64 (93537) - https://sketch.com -->
    <title>button/round-icon</title>
    <desc>Created with Sketch.</desc>
    <g id="Symbols" stroke="none" stroke-width="1" fill="none" fill-rule="evenodd">
        <g id="elements/esercizio-progress-bar" transform="translate(-1820.000000, -460.000000)" fill="#FFFFFF">
            <g id="button/round/round-icon" transform="translate(1820.000000, 460.000000)">
                <circle id="Oval" fill-opacity="0.15" cx="40" cy="40" r="40"></circle>
                <g id="icon/controls/fast_forward" transform="translate(13.333333, 13.333333)">
                    <path d="M12.0422553,37.7740943 L25.4630355,28.3006024 C26.3654333,27.6636157 26.5805915,26.4156981 25.9436048,25.5133003 C25.8120048,25.3268669 25.6494688,25.1643309 25.4630355,25.0327309 L12.0422553,15.559239 C11.1398575,14.9222523 9.89193981,15.1374106 9.25495314,16.0398083 C9.01676486,16.3772417 8.88888887,16.7801433 8.88888887,17.1931747 L8.88888887,36.1401586 C8.88888887,37.2447281 9.78431937,38.1401586 10.8888889,38.1401586 C11.3019203,38.1401586 11.7048219,38.0122826 12.0422553,37.7740943 Z M28.8888889,17.1931747 L28.8888889,36.1401586 C28.8888889,37.2447281 29.7843194,38.1401586 30.8888889,38.1401586 C31.3019203,38.1401586 31.7048219,38.0122826 32.0422553,37.7740943 L45.4630355,28.3006024 C46.3654333,27.6636157 46.5805915,26.4156981 45.9436049,25.5133003 C45.8120048,25.3268669 45.6494689,25.1643309 45.4630355,25.0327309 L32.0422553,15.559239 C31.1398575,14.9222523 29.8919398,15.1374106 29.2549532,16.0398083 C29.0167649,16.3772417 28.8888889,16.7801433 28.8888889,17.1931747 Z" id="ic_fast_forward_48px"></path>
                </g>
            </g>
        </g>
    </g>
</svg>