<?xml version="1.0" encoding="UTF-8"?>
<svg width="340px" height="268px" viewBox="0 0 340 268" version="1.1" xmlns="http://www.w3.org/2000/svg" xmlns:xlink="http://www.w3.org/1999/xlink">
    <!-- Generator: Sketch 64 (93537) - https://sketch.com -->
    <title>no-stress</title>
    <desc>Created with Sketch.</desc>
    <defs>
        <radialGradient cx="50%" cy="100%" fx="50%" fy="100%" r="211.653758%" gradientTransform="translate(0.500000,1.000000),scale(1.000000,0.462419),rotate(90.000000),translate(-0.500000,-1.000000)" id="radialGradient-1">
            <stop stop-color="#00C1FF" offset="0%"></stop>
            <stop stop-color="#00FFAE" offset="100%"></stop>
        </radialGradient>
        <radialGradient cx="50%" cy="100%" fx="50%" fy="100%" r="187.536576%" gradientTransform="translate(0.500000,1.000000),scale(1.000000,0.521886),rotate(90.000000),translate(-0.500000,-1.000000)" id="radialGradient-2">
            <stop stop-color="#00C1FF" offset="0%"></stop>
            <stop stop-color="#00FFAE" offset="100%"></stop>
        </radialGradient>
        <radialGradient cx="50%" cy="100%" fx="50%" fy="100%" r="126.926119%" gradientTransform="translate(0.500000,1.000000),scale(1.000000,0.771100),rotate(90.000000),translate(-0.500000,-1.000000)" id="radialGradient-3">
            <stop stop-color="#00C1FF" offset="0%"></stop>
            <stop stop-color="#00FFAE" offset="100%"></stop>
        </radialGradient>
        <radialGradient cx="50%" cy="100%" fx="50%" fy="100%" r="97.8726774%" gradientTransform="translate(0.500000,1.000000),scale(0.771402,1.000000),rotate(90.000000),translate(-0.500000,-1.000000)" id="radialGradient-4">
            <stop stop-color="#00C1FF" offset="0%"></stop>
            <stop stop-color="#00FFAE" offset="100%"></stop>
        </radialGradient>
        <radialGradient cx="50%" cy="100%" fx="50%" fy="100%" r="187.535413%" gradientTransform="translate(0.500000,1.000000),scale(1.000000,0.521889),rotate(90.000000),translate(-0.500000,-1.000000)" id="radialGradient-5">
            <stop stop-color="#00C1FF" offset="0%"></stop>
            <stop stop-color="#00FFAE" offset="100%"></stop>
        </radialGradient>
        <radialGradient cx="50%" cy="100%" fx="50%" fy="100%" r="126.926416%" gradientTransform="translate(0.500000,1.000000),scale(1.000000,0.771098),rotate(90.000000),translate(-0.500000,-1.000000)" id="radialGradient-6">
            <stop stop-color="#00C1FF" offset="0%"></stop>
            <stop stop-color="#00FFAE" offset="100%"></stop>
        </radialGradient>
        <radialGradient cx="50%" cy="100%" fx="50%" fy="100%" r="97.8726774%" gradientTransform="translate(0.500000,1.000000),scale(0.771385,1.000000),rotate(90.000000),translate(-0.500000,-1.000000)" id="radialGradient-7">
            <stop stop-color="#00C1FF" offset="0%"></stop>
            <stop stop-color="#00FFAE" offset="100%"></stop>
        </radialGradient>
    </defs>
    <g id="no-stress" stroke="none" stroke-width="1" fill="none" fill-rule="evenodd">
        <g id="obiettivo/icon/icon-nostress" transform="translate(68.943182, 8.000000)" fill-opacity="0.5" opacity="0.885091146">
            <g id="Group-3" transform="translate(-0.095745, 35.500000)">
                <path d="M99.8792289,1.77635684e-13 C99.8792289,1.77635684e-13 32.4589523,59.6862225 99.8792289,129.600299 C167.300586,59.6862225 99.8792289,1.77635684e-13 99.8792289,1.77635684e-13" id="Fill-1" fill="url(#radialGradient-1)"></path>
                <path d="M60.4343893,7.81692935 C60.4343893,7.81692935 15.2457684,89.8141182 99.8789046,129.599615 C141.954424,37.9922322 60.4343893,7.81692935 60.4343893,7.81692935" id="Fill-4" fill="url(#radialGradient-2)"></path>
                <path d="M25.7451372,30.3216267 C25.7451372,30.3216267 8.24042417,124.741527 99.8791208,129.599615 C111.534877,27.3461474 25.7451372,30.3216267 25.7451372,30.3216267" id="Fill-6" fill="url(#radialGradient-3)"></path>
                <path d="M7.2475359e-13,64.8010611 C7.2475359e-13,64.8010611 12.2881053,160.253433 99.8786884,129.599501 C79.7083819,29.0326322 7.2475359e-13,64.8010611 7.2475359e-13,64.8010611" id="Fill-8" fill="url(#radialGradient-4)"></path>
                <path d="M139.324393,7.81692935 C139.324393,7.81692935 184.513014,89.8141182 99.8787965,129.599615 C57.8043586,37.9922322 139.324393,7.81692935 139.324393,7.81692935" id="Fill-10" fill="url(#radialGradient-5)"></path>
                <path d="M174.013645,30.3216267 C174.013645,30.3216267 191.517277,124.741527 99.8796613,129.599615 C88.2239048,27.3461474 174.013645,30.3216267 174.013645,30.3216267" id="Fill-12" fill="url(#radialGradient-6)"></path>
                <path d="M199.759863,64.8010611 C199.759863,64.8010611 187.470677,160.253433 99.8790127,129.599501 C120.049319,29.0326322 199.759863,64.8010611 199.759863,64.8010611" id="Fill-14" fill="url(#radialGradient-7)"></path>
            </g>
        </g>
        <path d="M66.2272727,259 L66.2272727,231.590909 L66.5681818,231.590909 L85.5909091,259 L89.6818182,259 L89.6818182,224.090909 L85.5227273,224.090909 L85.5227273,251.568182 L85.1818182,251.568182 L66.0909091,224.090909 L62,224.090909 L62,259 L66.2272727,259 Z M108.227273,259.545455 C110.590909,259.545455 112.661932,258.982955 114.440341,257.857955 C116.21875,256.732955 117.605114,255.159091 118.599432,253.136364 C119.59375,251.113636 120.090909,248.75 120.090909,246.045455 C120.090909,243.318182 119.59375,240.9375 118.599432,238.903409 C117.605114,236.869318 116.21875,235.289773 114.440341,234.164773 C112.661932,233.039773 110.590909,232.477273 108.227273,232.477273 C105.863636,232.477273 103.792614,233.039773 102.014205,234.164773 C100.235795,235.289773 98.8494318,236.869318 97.8551136,238.903409 C96.8607955,240.9375 96.3636364,243.318182 96.3636364,246.045455 C96.3636364,248.75 96.8607955,251.113636 97.8551136,253.136364 C98.8494318,255.159091 100.235795,256.732955 102.014205,257.857955 C103.792614,258.982955 105.863636,259.545455 108.227273,259.545455 Z M108.227273,255.931818 C106.431818,255.931818 104.954545,255.471591 103.795455,254.551136 C102.636364,253.630682 101.778409,252.420455 101.221591,250.920455 C100.664773,249.420455 100.386364,247.795455 100.386364,246.045455 C100.386364,244.295455 100.664773,242.664773 101.221591,241.153409 C101.778409,239.642045 102.636364,238.420455 103.795455,237.488636 C104.954545,236.556818 106.431818,236.090909 108.227273,236.090909 C110.022727,236.090909 111.5,236.556818 112.659091,237.488636 C113.818182,238.420455 114.676136,239.642045 115.232955,241.153409 C115.789773,242.664773 116.068182,244.295455 116.068182,246.045455 C116.068182,247.795455 115.789773,249.420455 115.232955,250.920455 C114.676136,252.420455 113.818182,253.630682 112.659091,254.551136 C111.5,255.471591 110.022727,255.931818 108.227273,255.931818 Z M151.318182,259.613636 C154,259.613636 156.28125,259.164773 158.161932,258.267045 C160.042614,257.369318 161.474432,256.159091 162.457386,254.636364 C163.440341,253.113636 163.931818,251.409091 163.931818,249.522727 C163.931818,247.886364 163.596591,246.505682 162.926136,245.380682 C162.255682,244.255682 161.40625,243.332386 160.377841,242.610795 C159.349432,241.889205 158.275568,241.318182 157.15625,240.897727 C156.036932,240.477273 155.022727,240.147727 154.113636,239.909091 L154.113636,239.909091 L150.568182,238.954545 C149.920455,238.784091 149.210227,238.559659 148.4375,238.28125 C147.664773,238.002841 146.926136,237.644886 146.221591,237.207386 C145.517045,236.769886 144.940341,236.21875 144.491477,235.553977 C144.042614,234.889205 143.818182,234.090909 143.818182,233.159091 C143.818182,232.045455 144.139205,231.051136 144.78125,230.176136 C145.423295,229.301136 146.321023,228.613636 147.474432,228.113636 C148.627841,227.613636 149.977273,227.363636 151.522727,227.363636 C153.636364,227.363636 155.420455,227.840909 156.875,228.795455 C158.329545,229.75 159.159091,231.090909 159.363636,232.818182 L159.363636,232.818182 L163.454545,232.818182 C163.397727,231.056818 162.855114,229.482955 161.826705,228.096591 C160.798295,226.710227 159.409091,225.616477 157.659091,224.815341 C155.909091,224.014205 153.909091,223.613636 151.659091,223.613636 C149.431818,223.613636 147.417614,224.019886 145.616477,224.832386 C143.815341,225.644886 142.383523,226.78125 141.321023,228.241477 C140.258523,229.701705 139.727273,231.409091 139.727273,233.363636 C139.727273,235.715909 140.522727,237.619318 142.113636,239.073864 C143.704545,240.528409 145.863636,241.647727 148.590909,242.431818 L148.590909,242.431818 L152.886364,243.659091 C154.113636,244 155.255682,244.397727 156.3125,244.852273 C157.369318,245.306818 158.221591,245.897727 158.869318,246.625 C159.517045,247.352273 159.840909,248.295455 159.840909,249.454545 C159.840909,250.727273 159.465909,251.838068 158.715909,252.786932 C157.965909,253.735795 156.948864,254.474432 155.664773,255.002841 C154.380682,255.53125 152.931818,255.795455 151.318182,255.795455 C149.931818,255.795455 148.639205,255.588068 147.440341,255.173295 C146.241477,254.758523 145.252841,254.122159 144.474432,253.264205 C143.696023,252.40625 143.25,251.318182 143.136364,250 L143.136364,250 L138.772727,250 C138.909091,251.909091 139.497159,253.585227 140.536932,255.028409 C141.576705,256.471591 143.008523,257.596591 144.832386,258.403409 C146.65625,259.210227 148.818182,259.613636 151.318182,259.613636 Z M179.204545,259.340909 C179.954545,259.340909 180.573864,259.286932 181.0625,259.178977 C181.551136,259.071023 181.931818,258.965909 182.204545,258.863636 L182.204545,258.863636 L181.386364,255.25 C181.215909,255.284091 180.988636,255.326705 180.704545,255.377841 C180.420455,255.428977 180.056818,255.454545 179.613636,255.454545 C179.022727,255.454545 178.463068,255.360795 177.934659,255.173295 C177.40625,254.985795 176.974432,254.610795 176.639205,254.048295 C176.303977,253.485795 176.136364,252.636364 176.136364,251.5 L176.136364,251.5 L176.136182,236.228 L181.727273,236.227273 L181.727273,232.818182 L176.136182,232.819 L176.136364,226.545455 L172.113636,226.545455 L172.113182,232.819 L168.159091,232.818182 L168.159091,236.227273 L172.113182,236.228 L172.113636,252.590909 C172.113636,254.00487 172.419831,255.193472 173.032221,256.156714 L173.178977,256.375 C173.889205,257.375 174.786932,258.119318 175.872159,258.607955 C176.957386,259.096591 178.068182,259.340909 179.204545,259.340909 Z M191.818182,259 L191.818182,242.431818 C191.818182,241.25 192.105114,240.196023 192.678977,239.269886 C193.252841,238.34375 194.036932,237.616477 195.03125,237.088068 C196.025568,236.559659 197.159091,236.295455 198.431818,236.295455 C198.965909,236.295455 199.474432,236.332386 199.957386,236.40625 C200.440341,236.480114 200.75,236.534091 200.886364,236.568182 L200.886364,236.568182 L200.886364,232.477273 C200.659091,232.454545 200.323864,232.4375 199.880682,232.426136 C199.4375,232.414773 199.068182,232.409091 198.772727,232.409091 C197.204545,232.409091 195.795455,232.8125 194.545455,233.619318 C193.295455,234.426136 192.431818,235.477273 191.954545,236.772727 L191.954545,236.772727 L191.681818,236.772727 L191.681818,232.818182 L187.795455,232.818182 L187.795455,259 L191.818182,259 Z M216.636364,259.545455 C218.409091,259.545455 220.005682,259.269886 221.426136,258.71875 C222.846591,258.167614 224.039773,257.394886 225.005682,256.400568 C225.971591,255.40625 226.659091,254.25 227.068182,252.931818 L227.068182,252.931818 L223.181818,251.840909 C222.840909,252.75 222.357955,253.508523 221.732955,254.116477 C221.107955,254.724432 220.366477,255.178977 219.508523,255.480114 C218.650568,255.78125 217.693182,255.931818 216.636364,255.931818 C215.011364,255.931818 213.585227,255.576705 212.357955,254.866477 C211.130682,254.15625 210.173295,253.116477 209.485795,251.747159 C208.89651,250.573458 208.559775,249.176426 208.475591,247.556064 L208.464182,247.273 L227.477273,247.272727 L227.477273,245.568182 C227.477273,243.125 227.153409,241.068182 226.505682,239.397727 C225.857955,237.727273 224.988636,236.383523 223.897727,235.366477 C222.806818,234.349432 221.596591,233.613636 220.267045,233.159091 C218.9375,232.704545 217.590909,232.477273 216.227273,232.477273 C213.863636,232.477273 211.798295,233.053977 210.03125,234.207386 C208.264205,235.360795 206.889205,236.963068 205.90625,239.014205 C204.923295,241.065341 204.431818,243.431818 204.431818,246.113636 C204.431818,248.795455 204.923295,251.144886 205.90625,253.161932 C206.889205,255.178977 208.292614,256.747159 210.116477,257.866477 C211.940341,258.985795 214.113636,259.545455 216.636364,259.545455 Z M208.480587,243.695076 C208.567393,242.517677 208.871212,241.403409 209.392045,240.352273 C210.017045,239.090909 210.911932,238.065341 212.076705,237.275568 C213.241477,236.485795 214.625,236.090909 216.227273,236.090909 C217.681818,236.090909 218.946023,236.426136 220.019886,237.096591 C221.09375,237.767045 221.923295,238.681818 222.508523,239.840909 C223.09375,241 223.386364,242.318182 223.386364,243.795455 L223.386364,243.795455 L208.474182,243.796 L208.480587,243.695076 Z M242.409091,259.545455 C244.443182,259.545455 246.227273,259.204545 247.761364,258.522727 C249.295455,257.840909 250.491477,256.909091 251.349432,255.727273 C252.207386,254.545455 252.636364,253.204545 252.636364,251.704545 C252.636364,249.875 252.0625,248.377841 250.914773,247.213068 C249.767045,246.048295 248.022727,245.181818 245.681818,244.613636 L245.681818,244.613636 L241.795455,243.659091 C240.25,243.272727 239.113636,242.789773 238.386364,242.210227 C237.659091,241.630682 237.295455,240.840909 237.295455,239.840909 C237.295455,238.715909 237.826705,237.786932 238.889205,237.053977 C239.951705,236.321023 241.284091,235.954545 242.886364,235.954545 C244.056818,235.954545 245.017045,236.142045 245.767045,236.517045 C246.517045,236.892045 247.110795,237.366477 247.548295,237.940341 C247.985795,238.514205 248.318182,239.102273 248.545455,239.704545 L248.545455,239.704545 L252.159091,238.681818 C251.534091,236.818182 250.480114,235.318182 248.997159,234.181818 C247.514205,233.045455 245.477273,232.477273 242.886364,232.477273 C241.045455,232.477273 239.400568,232.801136 237.951705,233.448864 C236.502841,234.096591 235.360795,234.988636 234.525568,236.125 C233.690341,237.261364 233.272727,238.568182 233.272727,240.045455 C233.272727,241.852273 233.832386,243.355114 234.951705,244.553977 C236.071023,245.752841 237.829545,246.636364 240.227273,247.204545 L240.227273,247.204545 L244.590909,248.227273 C245.909091,248.534091 246.886364,248.997159 247.522727,249.616477 C248.159091,250.235795 248.477273,251 248.477273,251.909091 C248.477273,253.034091 247.923295,253.997159 246.815341,254.798295 C245.707386,255.599432 244.215909,256 242.340909,256 C240.693182,256 239.360795,255.647727 238.34375,254.943182 C237.326705,254.238636 236.636364,253.181818 236.272727,251.772727 L236.272727,251.772727 L232.454545,252.727273 C232.920455,254.954545 234.028409,256.647727 235.778409,257.806818 C237.528409,258.965909 239.738636,259.545455 242.409091,259.545455 Z M267.5,259.545455 C269.534091,259.545455 271.318182,259.204545 272.852273,258.522727 C274.386364,257.840909 275.582386,256.909091 276.440341,255.727273 C277.298295,254.545455 277.727273,253.204545 277.727273,251.704545 C277.727273,249.875 277.153409,248.377841 276.005682,247.213068 C274.857955,246.048295 273.113636,245.181818 270.772727,244.613636 L270.772727,244.613636 L266.886364,243.659091 C265.340909,243.272727 264.204545,242.789773 263.477273,242.210227 C262.75,241.630682 262.386364,240.840909 262.386364,239.840909 C262.386364,238.715909 262.917614,237.786932 263.980114,237.053977 C265.042614,236.321023 266.375,235.954545 267.977273,235.954545 C269.147727,235.954545 270.107955,236.142045 270.857955,236.517045 C271.607955,236.892045 272.201705,237.366477 272.639205,237.940341 C273.076705,238.514205 273.409091,239.102273 273.636364,239.704545 L273.636364,239.704545 L277.25,238.681818 C276.625,236.818182 275.571023,235.318182 274.088068,234.181818 C272.605114,233.045455 270.568182,232.477273 267.977273,232.477273 C266.136364,232.477273 264.491477,232.801136 263.042614,233.448864 C261.59375,234.096591 260.451705,234.988636 259.616477,236.125 C258.78125,237.261364 258.363636,238.568182 258.363636,240.045455 C258.363636,241.852273 258.923295,243.355114 260.042614,244.553977 C261.161932,245.752841 262.920455,246.636364 265.318182,247.204545 L265.318182,247.204545 L269.681818,248.227273 C271,248.534091 271.977273,248.997159 272.613636,249.616477 C273.25,250.235795 273.568182,251 273.568182,251.909091 C273.568182,253.034091 273.014205,253.997159 271.90625,254.798295 C270.798295,255.599432 269.306818,256 267.431818,256 C265.784091,256 264.451705,255.647727 263.434659,254.943182 C262.417614,254.238636 261.727273,253.181818 261.363636,251.772727 L261.363636,251.772727 L257.545455,252.727273 C258.011364,254.954545 259.119318,256.647727 260.869318,257.806818 C262.619318,258.965909 264.829545,259.545455 267.5,259.545455 Z" id="NoStress" fill="#50E3C2" fill-rule="nonzero"></path>
    </g>
</svg>