<?xml version="1.0" encoding="UTF-8"?>
<svg width="340px" height="268px" viewBox="0 0 340 268" version="1.1" xmlns="http://www.w3.org/2000/svg" xmlns:xlink="http://www.w3.org/1999/xlink">
    <!-- Generator: Sketch 64 (93537) - https://sketch.com -->
    <title>peso</title>
    <desc>Created with Sketch.</desc>
    <defs>
        <linearGradient x1="50%" y1="19.0679542%" x2="112.399195%" y2="100.891541%" id="linearGradient-1">
            <stop stop-color="#0085FF" offset="0%"></stop>
            <stop stop-color="#DD00FF" offset="100%"></stop>
        </linearGradient>
        <linearGradient x1="50%" y1="44.5956252%" x2="112.399195%" y2="58.8916511%" id="linearGradient-2">
            <stop stop-color="#0085FF" offset="0%"></stop>
            <stop stop-color="#DD00FF" offset="100%"></stop>
        </linearGradient>
        <linearGradient x1="50%" y1="24.6434712%" x2="112.399195%" y2="91.7183144%" id="linearGradient-3">
            <stop stop-color="#0085FF" offset="0%"></stop>
            <stop stop-color="#DD00FF" offset="100%"></stop>
        </linearGradient>
    </defs>
    <g id="peso" stroke="none" stroke-width="1" fill="none" fill-rule="evenodd">
        <g id="obiettivo/icon/icon-balance" transform="translate(68.920455, 4.000000)">
            <path d="M54.0743486,44.0765465 L49.7664304,44.0770317 C48.9119049,44.0770317 48.0583528,44.1346801 47.2115879,44.2495842 C36.9264987,45.6452478 29.6867304,55.0266139 30.8960472,65.2931071 L30.9389829,65.6318742 L40.9597155,139.477841 C42.2223643,148.782702 50.0859284,155.751291 59.4400424,155.919873 L59.787163,155.922999 L140.212837,155.922999 C149.602976,155.922999 157.565656,149.067884 158.990511,139.821389 L159.040284,139.477841 L169.061017,65.6318742 C169.175921,64.7851093 169.23357,63.9315572 169.23357,63.0770317 C169.23357,52.6964538 160.908934,44.2601988 150.571369,44.0799742 L150.23357,44.0770317 L145.925349,44.0765465 L147,37.0765465 L150.23357,37.0770317 C164.592973,37.0770317 176.23357,48.7176282 176.23357,63.0770317 C176.23357,64.2463823 176.154682,65.414401 175.997445,66.573132 L165.976712,140.419099 C164.227546,153.309263 153.221138,162.922999 140.212837,162.922999 L59.787163,162.922999 C46.7788615,162.922999 35.7724539,153.309263 34.0232875,140.419099 L24.0025549,66.573132 C22.071712,52.3441364 32.0413345,39.243999 46.2703301,37.3131561 C47.4290611,37.1559189 48.5970797,37.0770317 49.7664304,37.0770317 L53,37.0765465 L54.0743486,44.0765465 Z" id="Combined-Shape" fill-opacity="0.8" fill="#FFFFFF"></path>
            <path d="M49.7664304,37.0770317 L150.23357,37.0770317 C164.592973,37.0770317 176.23357,48.7176282 176.23357,63.0770317 C176.23357,64.2463823 176.154682,65.414401 175.997445,66.573132 L165.976712,140.419099 C164.227546,153.309263 153.221138,162.922999 140.212837,162.922999 L59.787163,162.922999 C46.7788615,162.922999 35.7724539,153.309263 34.0232875,140.419099 L24.0025549,66.573132 C22.071712,52.3441364 32.0413345,39.243999 46.2703301,37.3131561 C47.4290611,37.1559189 48.5970797,37.0770317 49.7664304,37.0770317 Z" id="Rectangle" fill-opacity="0.5" fill="url(#linearGradient-1)" opacity="0.885091146"></path>
            <path d="M146.998459,37.0765465 L145.641166,45.9253862 C143.693632,58.6129722 132.778352,67.9806096 119.942163,67.9806096 L80.0562523,67.9806096 C67.2200641,67.9806096 56.3047841,58.6129722 54.3572497,45.9253862 L52.9984591,37.0765465 L146.998459,37.0765465 Z" id="Combined-Shape" fill-opacity="0.5" fill="url(#linearGradient-2)" opacity="0.885091146"></path>
            <path d="M175.383765,63.0765465 C175.383765,64.2458972 175.304878,65.4139159 175.14764,66.5726468 L165.126908,140.418614 C163.377741,153.308778 152.371334,162.922514 139.363032,162.922514 L58.9373582,162.922514 C47.0075439,162.922514 36.7614394,154.8368 33.7952993,143.553517 L175.365504,62.0929769 C175.377642,62.4193316 175.383765,62.7472241 175.383765,63.0765465 Z" id="Combined-Shape" fill-opacity="0.5" fill="url(#linearGradient-3)" opacity="0.885091146"></path>
            <rect id="Rectangle" fill-opacity="0.8" fill="#FFFFFF" x="99.1501952" y="44.0770317" width="1.7998048" height="16.9030928" rx="0.8999024"></rect>
        </g>
        <path d="M25.2272727,255 L25.2264545,242.25 L32.8636364,242.25 C35.4197861,242.25 37.5430953,241.80961 39.233564,240.92883 L39.5454545,240.758523 C41.2840909,239.764205 42.5710227,238.426136 43.40625,236.744318 C44.2414773,235.0625 44.6590909,233.193182 44.6590909,231.136364 C44.6590909,229.079545 44.2386364,227.215909 43.3977273,225.545455 C42.5568182,223.875 41.2642045,222.548295 39.5198864,221.565341 C37.7755682,220.582386 35.5340909,220.090909 32.7954545,220.090909 L32.7954545,220.090909 L21,220.090909 L21,255 L25.2272727,255 Z M25.2272727,223.840909 L32.6590909,223.840909 C34.5568182,223.840909 36.0795455,224.15625 37.2272727,224.786932 C38.375,225.417614 39.2073864,226.284091 39.7244318,227.386364 C40.2414773,228.488636 40.5,229.738636 40.5,231.136364 C40.5,232.534091 40.2414773,233.786932 39.7244318,234.894886 C39.2073864,236.002841 38.3806818,236.880682 37.2443182,237.528409 C36.1079545,238.176136 34.6022727,238.5 32.7272727,238.5 L32.7272727,238.5 L25.2264545,238.5 L25.2272727,223.840909 Z M61.9090909,255.545455 C63.6818182,255.545455 65.2784091,255.269886 66.6988636,254.71875 C68.1193182,254.167614 69.3125,253.394886 70.2784091,252.400568 C71.2443182,251.40625 71.9318182,250.25 72.3409091,248.931818 L72.3409091,248.931818 L68.4545455,247.840909 C68.1136364,248.75 67.6306818,249.508523 67.0056818,250.116477 C66.3806818,250.724432 65.6392045,251.178977 64.78125,251.480114 C63.9232955,251.78125 62.9659091,251.931818 61.9090909,251.931818 C60.2840909,251.931818 58.8579545,251.576705 57.6306818,250.866477 C56.4034091,250.15625 55.4460227,249.116477 54.7585227,247.747159 C54.169237,246.573458 53.8325023,245.176426 53.7483186,243.556064 L53.7374545,243.273 L72.75,243.272727 L72.75,241.568182 C72.75,239.125 72.4261364,237.068182 71.7784091,235.397727 C71.1306818,233.727273 70.2613636,232.383523 69.1704545,231.366477 C68.0795455,230.349432 66.8693182,229.613636 65.5397727,229.159091 C64.2102273,228.704545 62.8636364,228.477273 61.5,228.477273 C59.1363636,228.477273 57.0710227,229.053977 55.3039773,230.207386 C53.5369318,231.360795 52.1619318,232.963068 51.1789773,235.014205 C50.1960227,237.065341 49.7045455,239.431818 49.7045455,242.113636 C49.7045455,244.795455 50.1960227,247.144886 51.1789773,249.161932 C52.1619318,251.178977 53.5653409,252.747159 55.3892045,253.866477 C57.2130682,254.985795 59.3863636,255.545455 61.9090909,255.545455 Z M53.7533144,239.695076 C53.8401199,238.517677 54.1439394,237.403409 54.6647727,236.352273 C55.2897727,235.090909 56.1846591,234.065341 57.3494318,233.275568 C58.5142045,232.485795 59.8977273,232.090909 61.5,232.090909 C62.9545455,232.090909 64.21875,232.426136 65.2926136,233.096591 C66.3664773,233.767045 67.1960227,234.681818 67.78125,235.840909 C68.3664773,237 68.6590909,238.318182 68.6590909,239.795455 L68.6590909,239.795455 L53.7474545,239.796 L53.7533144,239.695076 Z M82.9090909,255 L82.9090909,238.431818 C82.9090909,237.25 83.1960227,236.196023 83.7698864,235.269886 C84.34375,234.34375 85.1278409,233.616477 86.1221591,233.088068 C87.1164773,232.559659 88.25,232.295455 89.5227273,232.295455 C90.0568182,232.295455 90.5653409,232.332386 91.0482955,232.40625 C91.53125,232.480114 91.8409091,232.534091 91.9772727,232.568182 L91.9772727,232.568182 L91.9772727,228.477273 C91.75,228.454545 91.4147727,228.4375 90.9715909,228.426136 C90.5284091,228.414773 90.1590909,228.409091 89.8636364,228.409091 C88.2954545,228.409091 86.8863636,228.8125 85.6363636,229.619318 C84.3863636,230.426136 83.5227273,231.477273 83.0454545,232.772727 L83.0454545,232.772727 L82.7727273,232.772727 L82.7727273,228.818182 L78.8863636,228.818182 L78.8863636,255 L82.9090909,255 Z M106.636364,255.545455 C108.318182,255.545455 109.664773,255.264205 110.676136,254.701705 C111.6875,254.139205 112.465909,253.497159 113.011364,252.775568 C113.556818,252.053977 113.977273,251.454545 114.272727,250.977273 L114.272727,250.977273 L114.75,250.977273 L114.75,255 L118.636364,255 L118.636364,220.090909 L114.613636,220.090909 L114.613636,232.977273 L114.272727,232.977273 C113.977273,232.522727 113.565341,231.940341 113.036932,231.230114 C112.508523,230.519886 111.747159,229.883523 110.752841,229.321023 C109.758523,228.758523 108.409091,228.477273 106.704545,228.477273 C104.5,228.477273 102.556818,229.028409 100.875,230.130682 C99.1931818,231.232955 97.8806818,232.795455 96.9375,234.818182 C95.9943182,236.840909 95.5227273,239.227273 95.5227273,241.977273 C95.5227273,244.75 95.9943182,247.150568 96.9375,249.178977 C97.8806818,251.207386 99.1875,252.775568 100.857955,253.883523 C102.528409,254.991477 104.454545,255.545455 106.636364,255.545455 Z M107.181818,251.931818 C105.5,251.931818 104.09375,251.485795 102.963068,250.59375 C101.832386,249.701705 100.980114,248.497159 100.40625,246.980114 C99.8323864,245.463068 99.5454545,243.772727 99.5454545,241.909091 C99.5454545,240.068182 99.8267045,238.40625 100.389205,236.923295 C100.951705,235.440341 101.798295,234.264205 102.928977,233.394886 C104.059659,232.525568 105.477273,232.090909 107.181818,232.090909 C108.818182,232.090909 110.193182,232.502841 111.306818,233.326705 C112.420455,234.150568 113.261364,235.298295 113.829545,236.769886 C114.397727,238.241477 114.681818,239.954545 114.681818,241.909091 C114.681818,243.886364 114.392045,245.627841 113.8125,247.133523 C113.232955,248.639205 112.386364,249.815341 111.272727,250.661932 C110.159091,251.508523 108.795455,251.931818 107.181818,251.931818 Z M137.522727,255.545455 C139.295455,255.545455 140.892045,255.269886 142.3125,254.71875 C143.732955,254.167614 144.926136,253.394886 145.892045,252.400568 C146.857955,251.40625 147.545455,250.25 147.954545,248.931818 L147.954545,248.931818 L144.068182,247.840909 C143.727273,248.75 143.244318,249.508523 142.619318,250.116477 C141.994318,250.724432 141.252841,251.178977 140.394886,251.480114 C139.536932,251.78125 138.579545,251.931818 137.522727,251.931818 C135.897727,251.931818 134.471591,251.576705 133.244318,250.866477 C132.017045,250.15625 131.059659,249.116477 130.372159,247.747159 C129.782873,246.573458 129.446139,245.176426 129.361955,243.556064 L129.350455,243.273 L148.363636,243.272727 L148.363636,241.568182 C148.363636,239.125 148.039773,237.068182 147.392045,235.397727 C146.744318,233.727273 145.875,232.383523 144.784091,231.366477 C143.693182,230.349432 142.482955,229.613636 141.153409,229.159091 C139.823864,228.704545 138.477273,228.477273 137.113636,228.477273 C134.75,228.477273 132.684659,229.053977 130.917614,230.207386 C129.150568,231.360795 127.775568,232.963068 126.792614,235.014205 C125.809659,237.065341 125.318182,239.431818 125.318182,242.113636 C125.318182,244.795455 125.809659,247.144886 126.792614,249.161932 C127.775568,251.178977 129.178977,252.747159 131.002841,253.866477 C132.826705,254.985795 135,255.545455 137.522727,255.545455 Z M129.366951,239.695076 C129.453756,238.517677 129.757576,237.403409 130.278409,236.352273 C130.903409,235.090909 131.798295,234.065341 132.963068,233.275568 C134.127841,232.485795 135.511364,232.090909 137.113636,232.090909 C138.568182,232.090909 139.832386,232.426136 140.90625,233.096591 C141.980114,233.767045 142.809659,234.681818 143.394886,235.840909 C143.980114,237 144.272727,238.318182 144.272727,239.795455 L144.272727,239.795455 L129.360455,239.796 L129.366951,239.695076 Z M158.522727,255 L158.522727,238.431818 C158.522727,237.25 158.809659,236.196023 159.383523,235.269886 C159.957386,234.34375 160.741477,233.616477 161.735795,233.088068 C162.730114,232.559659 163.863636,232.295455 165.136364,232.295455 C165.670455,232.295455 166.178977,232.332386 166.661932,232.40625 C167.144886,232.480114 167.454545,232.534091 167.590909,232.568182 L167.590909,232.568182 L167.590909,228.477273 C167.363636,228.454545 167.028409,228.4375 166.585227,228.426136 C166.142045,228.414773 165.772727,228.409091 165.477273,228.409091 C163.909091,228.409091 162.5,228.8125 161.25,229.619318 C160,230.426136 159.136364,231.477273 158.659091,232.772727 L158.659091,232.772727 L158.386364,232.772727 L158.386364,228.818182 L154.5,228.818182 L154.5,255 L158.522727,255 Z M183.340909,255.545455 C185.113636,255.545455 186.710227,255.269886 188.130682,254.71875 C189.551136,254.167614 190.744318,253.394886 191.710227,252.400568 C192.676136,251.40625 193.363636,250.25 193.772727,248.931818 L193.772727,248.931818 L189.886364,247.840909 C189.545455,248.75 189.0625,249.508523 188.4375,250.116477 C187.8125,250.724432 187.071023,251.178977 186.213068,251.480114 C185.355114,251.78125 184.397727,251.931818 183.340909,251.931818 C181.715909,251.931818 180.289773,251.576705 179.0625,250.866477 C177.835227,250.15625 176.877841,249.116477 176.190341,247.747159 C175.601055,246.573458 175.264321,245.176426 175.180137,243.556064 L175.168455,243.273 L194.181818,243.272727 L194.181818,241.568182 C194.181818,239.125 193.857955,237.068182 193.210227,235.397727 C192.5625,233.727273 191.693182,232.383523 190.602273,231.366477 C189.511364,230.349432 188.301136,229.613636 186.971591,229.159091 C185.642045,228.704545 184.295455,228.477273 182.931818,228.477273 C180.568182,228.477273 178.502841,229.053977 176.735795,230.207386 C174.96875,231.360795 173.59375,232.963068 172.610795,235.014205 C171.627841,237.065341 171.136364,239.431818 171.136364,242.113636 C171.136364,244.795455 171.627841,247.144886 172.610795,249.161932 C173.59375,251.178977 174.997159,252.747159 176.821023,253.866477 C178.644886,254.985795 180.818182,255.545455 183.340909,255.545455 Z M175.185133,239.695076 C175.271938,238.517677 175.575758,237.403409 176.096591,236.352273 C176.721591,235.090909 177.616477,234.065341 178.78125,233.275568 C179.946023,232.485795 181.329545,232.090909 182.931818,232.090909 C184.386364,232.090909 185.650568,232.426136 186.724432,233.096591 C187.798295,233.767045 188.627841,234.681818 189.213068,235.840909 C189.798295,237 190.090909,238.318182 190.090909,239.795455 L190.090909,239.795455 L175.179455,239.796 L175.185133,239.695076 Z M217.840909,264.818182 L217.840909,250.977273 L218.181818,250.977273 C218.477273,251.454545 218.897727,252.053977 219.443182,252.775568 C219.988636,253.497159 220.767045,254.139205 221.778409,254.701705 C222.789773,255.264205 224.136364,255.545455 225.818182,255.545455 C228,255.545455 229.926136,254.991477 231.596591,253.883523 C233.267045,252.775568 234.573864,251.207386 235.517045,249.178977 C236.460227,247.150568 236.931818,244.75 236.931818,241.977273 C236.931818,239.227273 236.460227,236.840909 235.517045,234.818182 C234.573864,232.795455 233.261364,231.232955 231.579545,230.130682 C229.897727,229.028409 227.954545,228.477273 225.75,228.477273 C224.045455,228.477273 222.696023,228.758523 221.701705,229.321023 C220.707386,229.883523 219.946023,230.519886 219.417614,231.230114 C218.889205,231.940341 218.477273,232.522727 218.181818,232.977273 L218.181818,232.977273 L217.704545,232.977273 L217.704545,228.818182 L213.818182,228.818182 L213.818182,264.818182 L217.840909,264.818182 Z M225.272727,251.931818 C223.659091,251.931818 222.295455,251.508523 221.181818,250.661932 C220.068182,249.815341 219.221591,248.639205 218.642045,247.133523 C218.0625,245.627841 217.772727,243.886364 217.772727,241.909091 C217.772727,239.954545 218.056818,238.241477 218.625,236.769886 C219.193182,235.298295 220.034091,234.150568 221.147727,233.326705 C222.261364,232.502841 223.636364,232.090909 225.272727,232.090909 C226.977273,232.090909 228.394886,232.525568 229.525568,233.394886 C230.65625,234.264205 231.502841,235.440341 232.065341,236.923295 C232.627841,238.40625 232.909091,240.068182 232.909091,241.909091 C232.909091,243.772727 232.622159,245.463068 232.048295,246.980114 C231.474432,248.497159 230.622159,249.701705 229.491477,250.59375 C228.360795,251.485795 226.954545,251.931818 225.272727,251.931818 Z M254.045455,255.545455 C255.818182,255.545455 257.414773,255.269886 258.835227,254.71875 C260.255682,254.167614 261.448864,253.394886 262.414773,252.400568 C263.380682,251.40625 264.068182,250.25 264.477273,248.931818 L264.477273,248.931818 L260.590909,247.840909 C260.25,248.75 259.767045,249.508523 259.142045,250.116477 C258.517045,250.724432 257.775568,251.178977 256.917614,251.480114 C256.059659,251.78125 255.102273,251.931818 254.045455,251.931818 C252.420455,251.931818 250.994318,251.576705 249.767045,250.866477 C248.539773,250.15625 247.582386,249.116477 246.894886,247.747159 C246.305601,246.573458 245.968866,245.176426 245.884682,243.556064 L245.873455,243.273 L264.886364,243.272727 L264.886364,241.568182 C264.886364,239.125 264.5625,237.068182 263.914773,235.397727 C263.267045,233.727273 262.397727,232.383523 261.306818,231.366477 C260.215909,230.349432 259.005682,229.613636 257.676136,229.159091 C256.346591,228.704545 255,228.477273 253.636364,228.477273 C251.272727,228.477273 249.207386,229.053977 247.440341,230.207386 C245.673295,231.360795 244.298295,232.963068 243.315341,235.014205 C242.332386,237.065341 241.840909,239.431818 241.840909,242.113636 C241.840909,244.795455 242.332386,247.144886 243.315341,249.161932 C244.298295,251.178977 245.701705,252.747159 247.525568,253.866477 C249.349432,254.985795 251.522727,255.545455 254.045455,255.545455 Z M245.889678,239.695076 C245.976484,238.517677 246.280303,237.403409 246.801136,236.352273 C247.426136,235.090909 248.321023,234.065341 249.485795,233.275568 C250.650568,232.485795 252.034091,232.090909 253.636364,232.090909 C255.090909,232.090909 256.355114,232.426136 257.428977,233.096591 C258.502841,233.767045 259.332386,234.681818 259.917614,235.840909 C260.502841,237 260.795455,238.318182 260.795455,239.795455 L260.795455,239.795455 L245.883455,239.796 L245.889678,239.695076 Z M279.818182,255.545455 C281.852273,255.545455 283.636364,255.204545 285.170455,254.522727 C286.704545,253.840909 287.900568,252.909091 288.758523,251.727273 C289.616477,250.545455 290.045455,249.204545 290.045455,247.704545 C290.045455,245.875 289.471591,244.377841 288.323864,243.213068 C287.176136,242.048295 285.431818,241.181818 283.090909,240.613636 L283.090909,240.613636 L279.204545,239.659091 C277.659091,239.272727 276.522727,238.789773 275.795455,238.210227 C275.068182,237.630682 274.704545,236.840909 274.704545,235.840909 C274.704545,234.715909 275.235795,233.786932 276.298295,233.053977 C277.360795,232.321023 278.693182,231.954545 280.295455,231.954545 C281.465909,231.954545 282.426136,232.142045 283.176136,232.517045 C283.926136,232.892045 284.519886,233.366477 284.957386,233.940341 C285.394886,234.514205 285.727273,235.102273 285.954545,235.704545 L285.954545,235.704545 L289.568182,234.681818 C288.943182,232.818182 287.889205,231.318182 286.40625,230.181818 C284.923295,229.045455 282.886364,228.477273 280.295455,228.477273 C278.454545,228.477273 276.809659,228.801136 275.360795,229.448864 C273.911932,230.096591 272.769886,230.988636 271.934659,232.125 C271.099432,233.261364 270.681818,234.568182 270.681818,236.045455 C270.681818,237.852273 271.241477,239.355114 272.360795,240.553977 C273.480114,241.752841 275.238636,242.636364 277.636364,243.204545 L277.636364,243.204545 L282,244.227273 C283.318182,244.534091 284.295455,244.997159 284.931818,245.616477 C285.568182,246.235795 285.886364,247 285.886364,247.909091 C285.886364,249.034091 285.332386,249.997159 284.224432,250.798295 C283.116477,251.599432 281.625,252 279.75,252 C278.102273,252 276.769886,251.647727 275.752841,250.943182 C274.735795,250.238636 274.045455,249.181818 273.681818,247.772727 L273.681818,247.772727 L269.863636,248.727273 C270.329545,250.954545 271.4375,252.647727 273.1875,253.806818 C274.9375,254.965909 277.147727,255.545455 279.818182,255.545455 Z M306.75,255.545455 C309.113636,255.545455 311.184659,254.982955 312.963068,253.857955 C314.741477,252.732955 316.127841,251.159091 317.122159,249.136364 C318.116477,247.113636 318.613636,244.75 318.613636,242.045455 C318.613636,239.318182 318.116477,236.9375 317.122159,234.903409 C316.127841,232.869318 314.741477,231.289773 312.963068,230.164773 C311.184659,229.039773 309.113636,228.477273 306.75,228.477273 C304.386364,228.477273 302.315341,229.039773 300.536932,230.164773 C298.758523,231.289773 297.372159,232.869318 296.377841,234.903409 C295.383523,236.9375 294.886364,239.318182 294.886364,242.045455 C294.886364,244.75 295.383523,247.113636 296.377841,249.136364 C297.372159,251.159091 298.758523,252.732955 300.536932,253.857955 C302.315341,254.982955 304.386364,255.545455 306.75,255.545455 Z M306.75,251.931818 C304.954545,251.931818 303.477273,251.471591 302.318182,250.551136 C301.159091,249.630682 300.301136,248.420455 299.744318,246.920455 C299.1875,245.420455 298.909091,243.795455 298.909091,242.045455 C298.909091,240.295455 299.1875,238.664773 299.744318,237.153409 C300.301136,235.642045 301.159091,234.420455 302.318182,233.488636 C303.477273,232.556818 304.954545,232.090909 306.75,232.090909 C308.545455,232.090909 310.022727,232.556818 311.181818,233.488636 C312.340909,234.420455 313.198864,235.642045 313.755682,237.153409 C314.3125,238.664773 314.590909,240.295455 314.590909,242.045455 C314.590909,243.795455 314.3125,245.420455 313.755682,246.920455 C313.198864,248.420455 312.340909,249.630682 311.181818,250.551136 C310.022727,251.471591 308.545455,251.931818 306.75,251.931818 Z" id="Perderepeso" fill="#9A6AFF" fill-rule="nonzero"></path>
    </g>
</svg>