<?xml version="1.0" encoding="UTF-8"?>
<svg width="144px" height="206px" viewBox="0 0 144 206" version="1.1" xmlns="http://www.w3.org/2000/svg" xmlns:xlink="http://www.w3.org/1999/xlink">
    <!-- Generator: Sketch 64 (93537) - https://sketch.com -->
    <title>button/round-icon-label</title>
    <desc>Created with Sketch.</desc>
    <g id="Page-1" stroke="none" stroke-width="1" fill="none" fill-rule="evenodd">
        <g id="MPG/overview" transform="translate(-328.000000, -1030.000000)" fill="#FFFFFF">
            <g id="button/round-icon-label" transform="translate(328.000000, 1030.000000)">
                <g id="button/round-icon" transform="translate(12.000000, 0.000000)">
                    <circle id="Oval" fill-opacity="0.15" cx="60" cy="60" r="60"></circle>
                    <path d="M43.1505682,77.4772727 C45.8664773,77.4772727 48.2386364,76.9517045 50.2670455,75.9005682 C52.2954545,74.8494318 53.875,73.3977273 55.0056818,71.5454545 C56.1363636,69.6931818 56.7017045,67.5681818 56.7017045,65.1704545 C56.7017045,62.9545455 56.2272727,60.9886364 55.2784091,59.2727273 C54.3295455,57.5568182 53.0340909,56.2130682 51.3920455,55.2414773 C49.75,54.2698864 47.8835227,53.7840909 45.7926136,53.7840909 C44.1448864,53.7840909 42.6761364,54.0994318 41.3863636,54.7301136 C40.0965909,55.3607955 39.1619318,56.1590909 38.5823864,57.125 L38.5823864,57.125 L38.3778409,57.125 L39.1789773,48.8920455 L54.6392045,48.8920455 L54.6392045,42.0909091 L32.2414773,42.0909091 L30.7244318,60.9090909 L38.1732955,62.3068182 C38.6392045,61.5227273 39.3238636,60.9034091 40.2272727,60.4488636 C41.1306818,59.9943182 42.0880682,59.7727273 43.0994318,59.7840909 C44.1676136,59.7840909 45.1136364,60.0198864 45.9375,60.4914773 C46.7613636,60.9630682 47.4090909,61.6193182 47.8806818,62.4602273 C48.3522727,63.3011364 48.5823864,64.2840909 48.5710227,65.4090909 C48.5823864,66.5113636 48.3551136,67.4857955 47.8892045,68.3323864 C47.4232955,69.1789773 46.78125,69.8352273 45.9630682,70.3011364 C45.1448864,70.7670455 44.2073864,71 43.1505682,71 C41.7982955,71 40.6335227,70.6107955 39.65625,69.8323864 C38.6789773,69.0539773 38.15625,68.0227273 38.0880682,66.7386364 L38.0880682,66.7386364 L29.90625,66.7386364 C29.9517045,68.8295455 30.5454545,70.6818182 31.6875,72.2954545 C32.8295455,73.9090909 34.3892045,75.1761364 36.3664773,76.0965909 C38.34375,77.0170455 40.6051136,77.4772727 43.1505682,77.4772727 Z M75.7585227,77.8522727 C78.8153409,77.8522727 81.4431818,77.1335227 83.6420455,75.6960227 C85.8409091,74.2585227 87.5369318,72.1761364 88.7301136,69.4488636 C89.9232955,66.7215909 90.5200472,63.4375 90.5200472,59.5965909 C90.53125,55.7784091 89.9403409,52.5284091 88.7471591,49.8465909 C87.5539773,47.1647727 85.8522727,45.1221591 83.6420455,43.71875 C81.4318182,42.3153409 78.8039773,41.6136364 75.7585227,41.6136364 C72.7130682,41.6136364 70.0909091,42.3153409 67.8920455,43.71875 C65.6931818,45.1221591 64,47.1619318 62.8125,49.8380682 C61.625,52.5142045 61.0255682,55.7670455 61.0140437,59.5965909 C61.0028409,63.4261364 61.59375,66.7017045 62.7869318,69.4232955 C63.9801136,72.1448864 65.6789773,74.2301136 67.8835227,75.6789773 C70.0880682,77.1278409 72.7130682,77.8522727 75.7585227,77.8522727 Z M75.7585227,70.9488636 C74.5539773,70.9488636 73.4914773,70.5369318 72.5710227,69.7130682 C71.6505682,68.8892045 70.9375,67.6363636 70.4318182,65.9545455 C69.9261364,64.2727273 69.6789773,62.1534091 69.6903409,59.5965909 C69.7017045,55.8238636 70.2642045,53.0255682 71.3778409,51.2017045 C72.4914773,49.3778409 73.9517045,48.4659091 75.7585227,48.4659091 C76.9744318,48.4659091 78.0369318,48.8693182 78.9460227,49.6761364 C79.8551136,50.4829545 80.5653409,51.7073864 81.0767045,53.3494318 C81.5880682,54.9914773 81.84375,57.0738636 81.84375,59.5965909 C81.8551136,63.4488636 81.2982955,66.3039773 80.1732955,68.1619318 C79.0482955,70.0198864 77.5767045,70.9488636 75.7585227,70.9488636 Z" id="50" fill-rule="nonzero"></path>
                </g>
                <path d="M42.9857955,171 L42.985,163.841 L47.1619318,163.840909 C48.6182255,163.840909 49.8471793,163.5938 50.848793,163.099583 L51.0944602,162.970881 C52.1384943,162.390862 52.9206913,161.602036 53.4410511,160.604403 C53.961411,159.606771 54.2215909,158.481534 54.2215909,157.228693 C54.2215909,155.982481 53.9630682,154.860559 53.4460227,153.862926 C52.9289773,152.865294 52.1500947,152.078125 51.109375,151.50142 C50.0686553,150.924716 48.7561553,150.636364 47.171875,150.636364 L47.171875,150.636364 L39.9133523,150.636364 L39.9133523,171 L42.9857955,171 Z M42.9857955,153.271307 L46.84375,153.271307 C47.8645833,153.271307 48.6882102,153.440341 49.3146307,153.778409 C49.9410511,154.116477 50.4000947,154.583807 50.6917614,155.180398 C50.983428,155.776989 51.1292614,156.459754 51.1292614,157.228693 C51.1292614,157.997633 50.983428,158.683712 50.6917614,159.286932 C50.4000947,159.890152 49.9427083,160.365767 49.3196023,160.713778 C48.6964962,161.06179 47.8844697,161.235795 46.8835227,161.235795 L46.8835227,161.235795 L42.985,161.236 L42.9857955,153.271307 Z M62.5838068,171.198864 C63.7305871,171.198864 64.6901042,170.928741 65.462358,170.388494 C66.2346117,169.848248 66.7964015,169.170455 67.1477273,168.355114 L67.1477273,168.355114 L67.3068182,168.355114 L67.3068182,171 L70.2301136,171 L70.2301136,155.727273 L67.2471591,155.727273 L67.2471591,164.666193 C67.2537879,165.534564 67.0731534,166.250473 66.7052557,166.81392 C66.337358,167.377367 65.8766572,167.798295 65.3231534,168.076705 C64.7696496,168.355114 64.2144886,168.494318 63.6576705,168.494318 C62.7362689,168.494318 61.9872159,168.18608 61.4105114,167.569602 C60.8338068,166.953125 60.5454545,166.124527 60.5454545,165.083807 L60.5454545,165.083807 L60.5454545,155.727273 L57.5724432,155.727273 L57.5724432,165.441761 C57.5724432,166.701231 57.7862216,167.758523 58.2137784,168.613636 C58.6413352,169.46875 59.2312973,170.1134 59.9836648,170.547585 C60.7360322,170.981771 61.6027462,171.198864 62.5838068,171.198864 Z M77.1903409,171 L77.1903409,161.931818 C77.1903409,161.123106 77.3444602,160.432055 77.6526989,159.858665 C77.9609375,159.285275 78.3818655,158.849432 78.915483,158.551136 C79.4491004,158.252841 80.0606061,158.103693 80.75,158.103693 C81.7575758,158.103693 82.5497159,158.416903 83.1264205,159.043324 C83.703125,159.669744 83.9914773,160.536458 83.9914773,161.643466 L83.9914773,161.643466 L83.9914773,171 L86.9644886,171 L86.9644886,161.285511 C86.9644886,160.026042 86.749053,158.96875 86.3181818,158.113636 C85.8873106,157.258523 85.2807765,156.613873 84.4985795,156.179687 C83.7163826,155.745502 82.8049242,155.528409 81.7642045,155.528409 C80.6174242,155.528409 79.6678504,155.773674 78.915483,156.264205 C78.1631155,156.754735 77.6112689,157.404356 77.2599432,158.213068 L77.2599432,158.213068 L77.0710227,158.213068 L77.0710227,155.727273 L74.2173295,155.727273 L74.2173295,171 L77.1903409,171 Z M96.4204545,171.198864 C96.8977273,171.192235 97.2954545,171.154119 97.6136364,171.084517 C97.9318182,171.014915 98.1770833,170.94697 98.3494318,170.880682 L98.3494318,170.880682 L97.8125,168.424716 C97.7130682,168.444602 97.5738636,168.471117 97.3948864,168.504261 C97.2159091,168.537405 97.0071023,168.553977 96.7684659,168.553977 C96.4436553,168.553977 96.1437027,168.502604 95.868608,168.399858 C95.5935133,168.297112 95.3697917,168.101562 95.1974432,167.81321 C95.0250947,167.524858 94.9389205,167.09233 94.9389205,166.515625 L94.9389205,166.515625 L94.938,158.114 L98.0710227,158.113636 L98.0710227,155.727273 L94.938,155.728 L94.9389205,152.068182 L91.9659091,152.068182 L91.965,155.728 L89.7286932,155.727273 L89.7286932,158.113636 L91.965,158.114 L91.9659091,167.132102 C91.9659091,167.961364 92.1350426,168.664446 92.4733097,169.241349 L92.5923295,169.428977 C93.0099432,170.038826 93.5568182,170.489583 94.2329545,170.78125 C94.9090909,171.072917 95.6382576,171.212121 96.4204545,171.198864 Z M102.853693,153.370739 C103.370739,153.370739 103.81321,153.196733 104.181108,152.848722 C104.549006,152.50071 104.732955,152.084754 104.732955,151.600852 C104.732955,151.110322 104.549006,150.691051 104.181108,150.34304 C103.81321,149.995028 103.370739,149.821023 102.853693,149.821023 C102.336648,149.821023 101.894176,149.995028 101.526278,150.34304 C101.158381,150.691051 100.974432,151.110322 100.974432,151.600852 C100.974432,152.084754 101.158381,152.50071 101.526278,152.848722 C101.894176,153.196733 102.336648,153.370739 102.853693,153.370739 Z M104.325284,171 L104.325284,155.727273 L101.352273,155.727273 L101.352273,171 L104.325284,171 Z M6.23579545,205.308239 C7.46875,205.308239 8.55421402,205.106061 9.4921875,204.701705 C10.430161,204.297348 11.162642,203.738873 11.6896307,203.026278 C12.2166193,202.313684 12.4801136,201.5 12.4801136,200.585227 C12.4801136,199.504735 12.1354167,198.62642 11.4460227,197.950284 C10.7566288,197.274148 9.7092803,196.773674 8.30397727,196.448864 L8.30397727,196.448864 L5.87784091,195.892045 C5.03598485,195.693182 4.42613636,195.437973 4.04829545,195.12642 C3.67045455,194.814867 3.48153409,194.403883 3.48153409,193.893466 C3.48153409,193.303504 3.76325758,192.821259 4.32670455,192.446733 C4.89015152,192.072206 5.59280303,191.884943 6.43465909,191.884943 C7.05113636,191.884943 7.56486742,191.984375 7.97585227,192.183239 C8.38683712,192.382102 8.71330492,192.637311 8.95525568,192.948864 C9.19720644,193.260417 9.37452652,193.588542 9.48721591,193.933239 L9.48721591,193.933239 L12.1818182,193.455966 C11.8768939,192.262784 11.2504735,191.309896 10.3025568,190.597301 C9.35464015,189.884706 8.05539773,189.528409 6.40482955,189.528409 C5.25804924,189.528409 4.2405303,189.718987 3.35227273,190.100142 C2.46401515,190.481297 1.76799242,191.009943 1.26420455,191.68608 C0.760416667,192.362216 0.508522727,193.151042 0.508522727,194.052557 C0.508522727,195.139678 0.848248106,196.037879 1.52769886,196.747159 C2.20714962,197.456439 3.2594697,197.973485 4.68465909,198.298295 L4.68465909,198.298295 L7.26988636,198.865057 C7.99905303,199.030777 8.54095644,199.276042 8.89559659,199.600852 C9.25023674,199.925663 9.42755682,200.326705 9.42755682,200.803977 C9.42755682,201.393939 9.13589015,201.892756 8.55255682,202.300426 C7.96922348,202.708097 7.19034091,202.911932 6.21590909,202.911932 C5.32102273,202.911932 4.59517045,202.721354 4.03835227,202.340199 C3.48153409,201.959044 3.11363636,201.393939 2.93465909,200.644886 L2.93465909,200.644886 L0.0610795455,201.082386 C0.306344697,202.434659 0.969223485,203.477036 2.04971591,204.209517 C3.13020833,204.941998 4.52556818,205.308239 6.23579545,205.308239 Z M22.3238636,205.308239 C23.4375,205.308239 24.430161,205.137547 25.3018466,204.796165 C26.1735322,204.454782 26.8993845,203.974195 27.4794034,203.354403 C28.0594223,202.734612 28.4621212,202.010417 28.6875,201.181818 L28.6875,201.181818 L25.8735795,200.674716 C25.6946023,201.151989 25.4360795,201.55303 25.0980114,201.877841 C24.7599432,202.202652 24.3589015,202.446259 23.8948864,202.608665 C23.4308712,202.77107 22.9171402,202.852273 22.3536932,202.852273 C21.485322,202.852273 20.7263258,202.665009 20.0767045,202.290483 C19.4270833,201.915956 18.9216383,201.370739 18.5603693,200.65483 C18.1991004,199.93892 18.0184659,199.070549 18.0184659,198.049716 L18.022,198.259 L28.8764205,198.258523 L28.8764205,197.204545 C28.8764205,195.819129 28.6908144,194.640862 28.3196023,193.669744 C27.9483902,192.698627 27.4412879,191.908144 26.7982955,191.298295 C26.155303,190.688447 25.4294508,190.241004 24.6207386,189.955966 C23.8120265,189.670928 22.9767992,189.528409 22.1150568,189.528409 C20.6964962,189.528409 19.4585701,189.863163 18.4012784,190.53267 C17.3439867,191.202178 16.522017,192.133523 15.9353693,193.326705 C15.3487216,194.519886 15.0553977,195.898674 15.0553977,197.463068 C15.0553977,199.047348 15.3487216,200.427794 15.9353693,201.604403 C16.522017,202.781013 17.3572443,203.692472 18.4410511,204.338778 C19.524858,204.985085 20.8191288,205.308239 22.3238636,205.308239 Z M18.0263117,196.026356 C18.0629254,195.371297 18.227687,194.758108 18.5205966,194.18679 C18.8553504,193.533854 19.3326231,193.003551 19.9524148,192.595881 C20.5722064,192.18821 21.2997159,191.984375 22.1349432,191.984375 C22.9038826,191.984375 23.5750473,192.160038 24.1484375,192.511364 C24.7218277,192.862689 25.1676136,193.341619 25.4857955,193.948153 C25.8039773,194.554687 25.9630682,195.249053 25.9630682,196.03125 L25.9630682,196.03125 L18.026,196.032 L18.0263117,196.026356 Z M37.6661932,205.198864 C38.1434659,205.192235 38.5411932,205.154119 38.859375,205.084517 C39.1775568,205.014915 39.422822,204.94697 39.5951705,204.880682 L39.5951705,204.880682 L39.0582386,202.424716 C38.9588068,202.444602 38.8196023,202.471117 38.640625,202.504261 C38.4616477,202.537405 38.2528409,202.553977 38.0142045,202.553977 C37.6893939,202.553977 37.3894413,202.502604 37.1143466,202.399858 C36.8392519,202.297112 36.6155303,202.101562 36.4431818,201.81321 C36.2708333,201.524858 36.1846591,201.09233 36.1846591,200.515625 L36.1846591,200.515625 L36.184,192.114 L39.3167614,192.113636 L39.3167614,189.727273 L36.184,189.728 L36.1846591,186.068182 L33.2116477,186.068182 L33.211,189.728 L30.9744318,189.727273 L30.9744318,192.113636 L33.211,192.114 L33.2116477,201.132102 C33.2116477,201.961364 33.3807813,202.664446 33.7190483,203.241349 L33.8380682,203.428977 C34.2556818,204.038826 34.8025568,204.489583 35.4786932,204.78125 C36.1548295,205.072917 36.8839962,205.212121 37.6661932,205.198864 Z M48.0767045,205.198864 C48.5539773,205.192235 48.9517045,205.154119 49.2698864,205.084517 C49.5880682,205.014915 49.8333333,204.94697 50.0056818,204.880682 L50.0056818,204.880682 L49.46875,202.424716 C49.3693182,202.444602 49.2301136,202.471117 49.0511364,202.504261 C48.8721591,202.537405 48.6633523,202.553977 48.4247159,202.553977 C48.0999053,202.553977 47.7999527,202.502604 47.524858,202.399858 C47.2497633,202.297112 47.0260417,202.101562 46.8536932,201.81321 C46.6813447,201.524858 46.5951705,201.09233 46.5951705,200.515625 L46.5951705,200.515625 L46.595,192.114 L49.7272727,192.113636 L49.7272727,189.727273 L46.595,189.728 L46.5951705,186.068182 L43.6221591,186.068182 L43.622,189.728 L41.3849432,189.727273 L41.3849432,192.113636 L43.622,192.114 L43.6221591,201.132102 C43.6221591,201.961364 43.7912926,202.664446 44.1295597,203.241349 L44.2485795,203.428977 C44.6661932,204.038826 45.2130682,204.489583 45.8892045,204.78125 C46.5653409,205.072917 47.2945076,205.212121 48.0767045,205.198864 Z M54.5099432,187.370739 C55.0269886,187.370739 55.4694602,187.196733 55.837358,186.848722 C56.2052557,186.50071 56.3892045,186.084754 56.3892045,185.600852 C56.3892045,185.110322 56.2052557,184.691051 55.837358,184.34304 C55.4694602,183.995028 55.0269886,183.821023 54.5099432,183.821023 C53.9928977,183.821023 53.5504261,183.995028 53.1825284,184.34304 C52.8146307,184.691051 52.6306818,185.110322 52.6306818,185.600852 C52.6306818,186.084754 52.8146307,186.50071 53.1825284,186.848722 C53.5504261,187.196733 53.9928977,187.370739 54.5099432,187.370739 Z M55.9815341,205 L55.9815341,189.727273 L53.0085227,189.727273 L53.0085227,205 L55.9815341,205 Z M62.9517045,205 L62.9517045,195.583807 C62.9517045,194.894413 63.0958807,194.287879 63.384233,193.764205 C63.6725852,193.24053 64.0537405,192.831203 64.5276989,192.536222 C65.0016572,192.241241 65.5203598,192.09375 66.0838068,192.09375 C66.9124053,192.09375 67.5852273,192.345644 68.1022727,192.849432 C68.6193182,193.35322 68.8778409,194.019413 68.8778409,194.848011 L68.8778409,194.848011 L68.8778409,205 L71.8409091,205 L71.8409091,195.265625 C71.8409091,194.337595 72.109375,193.576941 72.6463068,192.983665 C73.1832386,192.390388 73.9356061,192.09375 74.9034091,192.09375 C75.6856061,192.09375 76.358428,192.325758 76.921875,192.789773 C77.485322,193.253788 77.7670455,194.002841 77.7670455,195.036932 L77.7670455,195.036932 L77.7670455,205 L80.7400568,205 L80.7400568,194.758523 C80.7400568,193.008523 80.3008996,191.699337 79.4225852,190.830966 C78.5442708,189.962595 77.4124053,189.528409 76.0269886,189.528409 C74.9266098,189.528409 73.9786932,189.772017 73.1832386,190.259233 C72.3877841,190.746449 71.8077652,191.397727 71.4431818,192.213068 L71.4431818,192.213068 L71.2840909,192.213068 C70.9526515,191.377841 70.4405777,190.721591 69.7478693,190.244318 C69.055161,189.767045 68.1983902,189.528409 67.1775568,189.528409 C66.1699811,189.528409 65.3049242,189.765388 64.5823864,190.239347 C63.8598485,190.713305 63.3394886,191.371212 63.0213068,192.213068 L63.0213068,192.213068 L62.8323864,192.213068 L62.8323864,189.727273 L59.9786932,189.727273 L59.9786932,205 L62.9517045,205 Z M89.1619318,205.338068 C90.0037879,205.338068 90.7263258,205.215436 91.3295455,204.97017 C91.9327652,204.724905 92.4266098,204.416667 92.8110795,204.045455 C93.1955492,203.674242 93.4839015,203.296402 93.6761364,202.911932 L93.6761364,202.911932 L93.7954545,202.911932 L93.7954545,205 L96.6988636,205 L96.6988636,194.857955 C96.6988636,193.744318 96.5066288,192.837831 96.1221591,192.138494 C95.7376894,191.439157 95.2455019,190.900568 94.6455966,190.522727 C94.0456913,190.144886 93.4026989,189.884706 92.7166193,189.742187 C92.0305398,189.599669 91.3825758,189.528409 90.7727273,189.528409 C89.8513258,189.528409 88.9730114,189.659328 88.1377841,189.921165 C87.3025568,190.183002 86.5651042,190.600616 85.9254261,191.174006 C85.2857481,191.747396 84.8001894,192.498106 84.46875,193.426136 L84.46875,193.426136 L87.2627841,194.0625 C87.4815341,193.525568 87.8776042,193.036695 88.4509943,192.595881 C89.0243845,192.155066 89.811553,191.934659 90.8125,191.934659 C91.7736742,191.934659 92.4978693,192.173295 92.9850852,192.650568 C93.4723011,193.127841 93.7159091,193.800663 93.7159091,194.669034 L93.7159091,194.669034 L93.7159091,194.738636 C93.7159091,195.096591 93.5866477,195.355114 93.328125,195.514205 C93.0696023,195.673295 92.655303,195.787642 92.0852273,195.857244 C91.5151515,195.926847 90.7727273,196.014678 89.8579545,196.120739 C89.1354167,196.206913 88.4261364,196.33286 87.7301136,196.49858 C87.0340909,196.664299 86.4043561,196.909564 85.8409091,197.234375 C85.2774621,197.559186 84.8300189,198 84.4985795,198.556818 C84.1671402,199.113636 84.0014205,199.822917 84.0014205,200.684659 C84.0014205,201.685606 84.2284564,202.530777 84.6825284,203.22017 C85.1366004,203.909564 85.7547348,204.434896 86.5369318,204.796165 C87.3191288,205.157434 88.1941288,205.338068 89.1619318,205.338068 Z M89.8082386,202.951705 C88.9663826,202.951705 88.2736742,202.764441 87.7301136,202.389915 C87.186553,202.015388 86.9147727,201.460227 86.9147727,200.724432 C86.9147727,200.194129 87.0556345,199.768229 87.337358,199.446733 C87.6190814,199.125237 87.9969223,198.878314 88.4708807,198.705966 C88.944839,198.533617 89.4701705,198.410985 90.046875,198.338068 C90.2921402,198.304924 90.5970644,198.263494 90.9616477,198.213778 C91.3262311,198.164062 91.7007576,198.107718 92.0852273,198.044744 C92.469697,197.981771 92.8127367,197.90554 93.1143466,197.816051 C93.4159564,197.726562 93.6197917,197.628788 93.7258523,197.522727 L93.7258523,197.522727 L93.7258523,199.491477 C93.7258523,200.094697 93.571733,200.659801 93.2634943,201.18679 C92.9552557,201.713778 92.5078125,202.139678 91.9211648,202.464489 C91.334517,202.789299 90.6302083,202.951705 89.8082386,202.951705 Z M103.629261,205 L103.629261,195.931818 C103.629261,195.123106 103.783381,194.432055 104.091619,193.858665 C104.399858,193.285275 104.820786,192.849432 105.354403,192.551136 C105.888021,192.252841 106.499527,192.103693 107.18892,192.103693 C108.196496,192.103693 108.988636,192.416903 109.565341,193.043324 C110.142045,193.669744 110.430398,194.536458 110.430398,195.643466 L110.430398,195.643466 L110.430398,205 L113.403409,205 L113.403409,195.285511 C113.403409,194.026042 113.187973,192.96875 112.757102,192.113636 C112.326231,191.258523 111.719697,190.613873 110.9375,190.179687 C110.155303,189.745502 109.243845,189.528409 108.203125,189.528409 C107.056345,189.528409 106.106771,189.773674 105.354403,190.264205 C104.602036,190.754735 104.050189,191.404356 103.698864,192.213068 L103.698864,192.213068 L103.509943,192.213068 L103.509943,189.727273 L100.65625,189.727273 L100.65625,205 L103.629261,205 Z M121.825284,205.338068 C122.66714,205.338068 123.389678,205.215436 123.992898,204.97017 C124.596117,204.724905 125.089962,204.416667 125.474432,204.045455 C125.858902,203.674242 126.147254,203.296402 126.339489,202.911932 L126.339489,202.911932 L126.458807,202.911932 L126.458807,205 L129.362216,205 L129.362216,194.857955 C129.362216,193.744318 129.169981,192.837831 128.785511,192.138494 C128.401042,191.439157 127.908854,190.900568 127.308949,190.522727 C126.709044,190.144886 126.066051,189.884706 125.379972,189.742187 C124.693892,189.599669 124.045928,189.528409 123.43608,189.528409 C122.514678,189.528409 121.636364,189.659328 120.801136,189.921165 C119.965909,190.183002 119.228456,190.600616 118.588778,191.174006 C117.9491,191.747396 117.463542,192.498106 117.132102,193.426136 L117.132102,193.426136 L119.926136,194.0625 C120.144886,193.525568 120.540956,193.036695 121.114347,192.595881 C121.687737,192.155066 122.474905,191.934659 123.475852,191.934659 C124.437027,191.934659 125.161222,192.173295 125.648438,192.650568 C126.135653,193.127841 126.379261,193.800663 126.379261,194.669034 L126.379261,194.669034 L126.379261,194.738636 C126.379261,195.096591 126.25,195.355114 125.991477,195.514205 C125.732955,195.673295 125.318655,195.787642 124.74858,195.857244 C124.178504,195.926847 123.43608,196.014678 122.521307,196.120739 C121.798769,196.206913 121.089489,196.33286 120.393466,196.49858 C119.697443,196.664299 119.067708,196.909564 118.504261,197.234375 C117.940814,197.559186 117.493371,198 117.161932,198.556818 C116.830492,199.113636 116.664773,199.822917 116.664773,200.684659 C116.664773,201.685606 116.891809,202.530777 117.345881,203.22017 C117.799953,203.909564 118.418087,204.434896 119.200284,204.796165 C119.982481,205.157434 120.857481,205.338068 121.825284,205.338068 Z M122.471591,202.951705 C121.629735,202.951705 120.937027,202.764441 120.393466,202.389915 C119.849905,202.015388 119.578125,201.460227 119.578125,200.724432 C119.578125,200.194129 119.718987,199.768229 120.00071,199.446733 C120.282434,199.125237 120.660275,198.878314 121.134233,198.705966 C121.608191,198.533617 122.133523,198.410985 122.710227,198.338068 C122.955492,198.304924 123.260417,198.263494 123.625,198.213778 C123.989583,198.164062 124.36411,198.107718 124.74858,198.044744 C125.133049,197.981771 125.476089,197.90554 125.777699,197.816051 C126.079309,197.726562 126.283144,197.628788 126.389205,197.522727 L126.389205,197.522727 L126.389205,199.491477 C126.389205,200.094697 126.235085,200.659801 125.926847,201.18679 C125.618608,201.713778 125.171165,202.139678 124.584517,202.464489 C123.997869,202.789299 123.293561,202.951705 122.471591,202.951705 Z M136.292614,205 L136.292614,184.636364 L133.319602,184.636364 L133.319602,205 L136.292614,205 Z M141.791193,187.370739 C142.308239,187.370739 142.75071,187.196733 143.118608,186.848722 C143.486506,186.50071 143.670455,186.084754 143.670455,185.600852 C143.670455,185.110322 143.486506,184.691051 143.118608,184.34304 C142.75071,183.995028 142.308239,183.821023 141.791193,183.821023 C141.274148,183.821023 140.831676,183.995028 140.463778,184.34304 C140.095881,184.691051 139.911932,185.110322 139.911932,185.600852 C139.911932,186.084754 140.095881,186.50071 140.463778,186.848722 C140.831676,187.196733 141.274148,187.370739 141.791193,187.370739 Z M143.262784,205 L143.262784,189.727273 L140.289773,189.727273 L140.289773,205 L143.262784,205 Z" id="Puntisettimanali" fill-rule="nonzero"></path>
            </g>
        </g>
    </g>
</svg>