<?xml version="1.0" encoding="UTF-8"?>
<svg width="80px" height="80px" viewBox="0 0 80 80" version="1.1" xmlns="http://www.w3.org/2000/svg" xmlns:xlink="http://www.w3.org/1999/xlink">
    <!-- Generator: Sketch 64 (93537) - https://sketch.com -->
    <title>button/round-icon</title>
    <desc>Created with Sketch.</desc>
    <g id="Page-1" stroke="none" stroke-width="1" fill="none" fill-rule="evenodd">
        <g id="MPG/overview" transform="translate(-1940.000000, -272.000000)" fill="#FFFFFF">
            <g id="button/round/round-icon" transform="translate(1940.000000, 272.000000)">
                <circle id="Oval" fill-opacity="0.15" cx="40" cy="40" r="40"></circle>
                <g id="icon/misc/settings" transform="translate(13.333333, 13.333333)" fill-opacity="0.4">
                    <path d="M43.1777778,28.8333333 C43.2666667,28.1222222 43.3333334,27.4 43.3333334,26.6666667 C43.3333334,25.9333333 43.2666667,25.2111111 43.1777778,24.5 L47.8777778,20.8222222 C48.3,20.4888889 48.4222222,19.8888889 48.1444445,19.4 L43.7,11.7 C43.4222222,11.2222222 42.8444445,11.0222222 42.3444445,11.2222222 L36.8111111,13.4555555 C35.6666667,12.5777778 34.4111111,11.8333333 33.0555556,11.2666666 L32.2222222,5.37777775 C32.1222222,4.85555553 31.6666667,4.44444442 31.1111111,4.44444442 L22.2222222,4.44444442 C21.6666667,4.44444442 21.2111111,4.85555553 21.1222222,5.37777775 L20.2888889,11.2666666 C18.9333333,11.8333333 17.6777778,12.5666666 16.5333333,13.4555555 L11.0000111,11.2222222 C10.5000111,11.0333333 9.92223331,11.2222222 9.64445553,11.7 L5.20001108,19.4 C4.92223331,19.8777778 5.04445553,20.4777778 5.46667775,20.8222222 L10.1555666,24.5 C10.0666778,25.2111111 10.0000111,25.9333333 10.0000111,26.6666667 C10.0000111,27.4 10.0666778,28.1222222 10.1555666,28.8333333 L5.46667775,32.5111111 C5.04445553,32.8444445 4.92223331,33.4444444 5.20001108,33.9333333 L9.64445553,41.6333334 C9.92223331,42.1111111 10.5000111,42.3111111 11.0000111,42.1111111 L16.5333333,39.8777778 C17.6777778,40.7555556 18.9333333,41.5 20.2888889,42.0666667 L21.1222222,47.9555556 C21.2111111,48.4777778 21.6666667,48.8888889 22.2222222,48.8888889 L31.1111111,48.8888889 C31.6666667,48.8888889 32.1222222,48.4777778 32.2111111,47.9555556 L33.0444445,42.0666667 C34.4,41.5 35.6555556,40.7666667 36.8,39.8777778 L42.3333334,42.1111111 C42.8333334,42.3 43.4111111,42.1111111 43.6888889,41.6333334 L48.1333334,33.9333333 C48.4111111,33.4555556 48.2888889,32.8555556 47.8666667,32.5111111 L43.1777778,28.8333333 Z M26.6666667,34.4444445 C22.3666667,34.4444445 18.8888889,30.9666667 18.8888889,26.6666667 C18.8888889,22.3666667 22.3666667,18.8888889 26.6666667,18.8888889 C30.9666667,18.8888889 34.4444445,22.3666667 34.4444445,26.6666667 C34.4444445,30.9666667 30.9666667,34.4444445 26.6666667,34.4444445 Z" id="ic_settings_48px"></path>
                </g>
            </g>
        </g>
    </g>
</svg>