<?xml version="1.0" encoding="UTF-8"?>
<svg width="360px" height="360px" viewBox="0 0 360 360" version="1.1" xmlns="http://www.w3.org/2000/svg" xmlns:xlink="http://www.w3.org/1999/xlink">
    <!-- Generator: Sketch 64 (93537) - https://sketch.com -->
    <title>spinner</title>
    <desc>Created with Sketch.</desc>
    <defs>
        <linearGradient x1="0%" y1="100%" x2="100%" y2="0%" id="linearGradient-1">
            <stop stop-color="#FFFFFF" stop-opacity="0" offset="0%"></stop>
            <stop stop-color="#FFFFFF" offset="100%"></stop>
        </linearGradient>
    </defs>
    <g id="spinner" stroke="none" stroke-width="1" fill="none" fill-rule="evenodd">
        <path d="M125.431941,350.951814 C145.782595,357.911957 165.865477,360.856633 185.680587,359.785842 C206.566784,358.715051 226.114122,354.699584 244.322601,347.739441 C264.137711,339.708507 280.73956,330.071386 294.128148,318.828079 C298.94804,314.544914 305.642333,307.584771 314.21103,297.94765 C319.030921,292.058299 324.386356,284.027365 330.277335,273.854848 C333.490596,267.430101 336.971629,259.934563 340.720434,251.368233 C342.862608,246.014277 344.201466,241.99881 344.73701,239.321832 C345.808097,237.18025 346.879184,232.897085 347.950271,226.472338 C349.556901,220.582986 349.824673,213.622844 348.753586,205.59191 C348.753586,206.662701 348.485814,208.135039 347.950271,210.008923 L347.737147,210.787432 C347.343686,212.295281 347.146956,213.508116 347.146956,214.425937 C346.075869,219.779893 345.004782,223.259964 343.933695,224.866151 C342.327064,229.684711 339.381575,236.377156 335.097227,244.943486 C332.419509,250.832838 327.867389,259.131469 321.440867,269.839381 C318.227606,275.193337 315.549888,279.208804 313.407714,281.885782 C309.123366,287.239738 305.910105,290.987507 303.767931,293.12909 C297.341409,300.089233 290.111572,306.51398 282.078419,312.403331 C272.438636,319.363474 263.869939,324.449732 256.37233,327.662106 C237.092764,336.763831 217.545426,342.117787 197.730316,343.723974 C176.308575,345.330161 155.957922,343.456276 136.678355,338.10232 C117.934332,332.212968 100.529168,323.378941 84.4628626,311.600238 C70.0031878,300.892326 57.1501434,286.97204 45.9037297,269.839381 C35.1928594,254.312909 27.6952502,236.377156 23.4109021,216.032124 C22.8753586,214.425937 22.3398151,211.882808 21.8042716,208.402736 C21.2687281,204.922665 21.0009563,202.379536 21.0009563,200.773349 C20.4654128,198.096371 20.1976411,193.813206 20.1976411,187.923855 C20.1976411,175.609756 20.7331846,166.508031 21.8042716,160.618679 C25.0175327,140.809042 31.4440548,122.070196 41.0838381,104.402142 C50.7236213,87.804878 61.9700351,73.8845925 74.8230794,62.6412849 C88.7472107,50.3271862 104.010201,40.9577632 120.61205,34.5330161 C131.32292,30.2498513 141.230475,27.3051755 150.334715,25.6989887 C156.761237,24.6281975 162.116672,24.0928019 166.40102,24.0928019 C166.936564,24.0928019 168.007651,23.958953 169.614281,23.6912552 C171.220912,23.4235574 172.55977,23.2897085 173.630858,23.2897085 L173.630858,23.2897085 L176.844119,23.2897085 C193.981511,23.2897085 211.118903,25.6989887 228.256296,30.5175491 C247.535862,36.9422963 264.137711,45.7763236 278.061843,57.0196312 C292.521517,68.7983343 305.10679,83.7894111 315.81766,101.992861 C324.386356,117.519334 330.277335,133.045806 333.490596,148.572278 C334.02614,150.178465 334.293911,152.186199 334.293911,154.595479 C334.293911,157.004759 334.561683,158.744795 335.097227,159.815586 C336.168314,164.634146 338.042716,167.578822 340.720434,168.649613 C348.753586,173.468174 354.912337,171.594289 359.196685,163.02796 C359.732228,161.421773 360,159.012493 360,155.800119 C360,153.658537 358.393369,146.698394 355.180108,134.919691 C351.966847,123.140988 349.28913,114.574658 347.146956,109.220702 C340.18489,93.158834 330.545107,77.6323617 318.227606,62.6412849 C304.839018,46.579417 289.576028,33.7299227 272.438636,24.0928019 C254.7657,13.9202855 236.55722,6.96014277 217.813197,3.21237359 C204.960153,1.0707912 194.784826,2.55795385e-13 187.287217,2.55795385e-13 C177.11189,2.55795385e-13 169.346509,0.267697799 163.991074,0.803093397 C144.711508,2.40928019 124.896398,8.03093397 104.545744,17.6680547 C87.4083519,25.1635931 72.6809053,34.8007139 60.3634045,46.579417 C46.4392732,59.4289114 35.1928594,72.8138013 26.6241632,86.7340869 C15.3777494,104.937537 7.88014026,123.140988 4.13133567,141.344438 C0.918074594,157.406306 -0.420784189,172.932778 0.114759324,187.923855 C1.18584635,204.521118 3.86356391,219.512195 8.14791202,232.897085 C11.3611731,241.463415 14.8422059,250.297442 18.5910105,259.399167 C22.3398151,267.430101 27.1597067,275.728733 33.0506854,284.295062 C44.2970991,299.821535 57.685687,313.206425 73.2164488,324.449732 C90.8893848,336.763831 108.294549,345.597858 125.431941,350.951814 Z" fill="url(#linearGradient-1)"></path>
    </g>
</svg>