<?xml version="1.0" encoding="UTF-8"?>
<svg width="340px" height="268px" viewBox="0 0 340 268" version="1.1" xmlns="http://www.w3.org/2000/svg" xmlns:xlink="http://www.w3.org/1999/xlink">
    <!-- Generator: Sketch 64 (93537) - https://sketch.com -->
    <title>sport</title>
    <desc>Created with Sketch.</desc>
    <defs>
        <linearGradient x1="35.4760764%" y1="0%" x2="67.7432964%" y2="93.9659362%" id="linearGradient-1">
            <stop stop-color="#CFD3D7" offset="0%"></stop>
            <stop stop-color="#797F99" offset="100%"></stop>
        </linearGradient>
        <linearGradient x1="30.4937561%" y1="0%" x2="73.8299977%" y2="93.9659362%" id="linearGradient-2">
            <stop stop-color="#CFD3D7" offset="0%"></stop>
            <stop stop-color="#797F99" offset="100%"></stop>
        </linearGradient>
        <linearGradient x1="18.898329%" y1="0%" x2="87.995667%" y2="93.9659362%" id="linearGradient-3">
            <stop stop-color="#CFD3D7" offset="0%"></stop>
            <stop stop-color="#797F99" offset="100%"></stop>
        </linearGradient>
        <linearGradient x1="17.6570011%" y1="14.6422704%" x2="89.5121476%" y2="81.0907136%" id="linearGradient-4">
            <stop stop-color="#CFD3D7" offset="0%"></stop>
            <stop stop-color="#797F99" offset="100%"></stop>
        </linearGradient>
        <linearGradient x1="-5.06089418%" y1="27.0153374%" x2="108.307531%" y2="27.0153374%" id="linearGradient-5">
            <stop stop-color="#252741" offset="0%"></stop>
            <stop stop-color="#535669" offset="100%"></stop>
        </linearGradient>
        <linearGradient x1="-5.06089418%" y1="27.0153374%" x2="108.307531%" y2="27.0153374%" id="linearGradient-6">
            <stop stop-color="#252741" offset="0%"></stop>
            <stop stop-color="#535669" offset="100%"></stop>
        </linearGradient>
        <linearGradient x1="17.6570011%" y1="47.0739863%" x2="89.5121476%" y2="52.5728986%" id="linearGradient-7">
            <stop stop-color="#CFD3D7" offset="0%"></stop>
            <stop stop-color="#797F99" offset="100%"></stop>
        </linearGradient>
        <linearGradient x1="17.6570011%" y1="4.77511035%" x2="89.5121476%" y2="89.7670922%" id="linearGradient-8">
            <stop stop-color="#CFD3D7" offset="0%"></stop>
            <stop stop-color="#797F99" offset="100%"></stop>
        </linearGradient>
        <linearGradient x1="17.6570011%" y1="3.04755284%" x2="89.5121476%" y2="91.2861659%" id="linearGradient-9">
            <stop stop-color="#CFD3D7" offset="0%"></stop>
            <stop stop-color="#797F99" offset="100%"></stop>
        </linearGradient>
    </defs>
    <g id="sport" stroke="none" stroke-width="1" fill="none" fill-rule="evenodd">
        <g id="obiettivo/icon/icon-trofeo" transform="translate(69.329545, 4.000000)">
            <g id="vetro" transform="translate(43.000000, 11.353594)">
                <path d="M1.98951966e-13,1.42108547e-14 L47.8504683,144.284843 L35.7541874,144.284843 L1.98951966e-13,1.42108547e-14 Z M77.5790949,144.284843 L69.5149076,144.284843 L96.6879932,53.6651506 L77.5790949,144.284843 Z" id="Combined-Shape" fill="#FFFFFF"></path>
                <polygon id="Stroke-1" fill-opacity="0.8" fill="url(#linearGradient-1)" points="96.6879932 53.6651506 0 0 35.7541874 144.284843 77.5790949 144.284843"></polygon>
                <polygon id="Stroke-3" fill-opacity="0.4" fill="url(#linearGradient-1)" points="96.6879932 53.6651506 0 0 47.8504683 144.284843 69.5149076 144.284843"></polygon>
                <polygon id="Stroke-5" fill-opacity="0.4" fill="url(#linearGradient-1)" points="96.6879932 53.6651506 0 0 47.8504683 144.284843 65.4828139 144.284843"></polygon>
                <polygon id="Stroke-8" fill-opacity="0.4" fill="url(#linearGradient-2)" points="35.754147 144.284883 77.5790546 144.284883 87.9766145 94.978829 11.282161 45.5280227"></polygon>
                <polygon id="Stroke-9" fill-opacity="0.4" fill="url(#linearGradient-3)" points="35.754147 144.284883 77.5790546 144.284883 81.2401956 126.923897 20.3733225 82.2152365"></polygon>
                <polygon id="Stroke-10" fill-opacity="0.4" fill="url(#linearGradient-4)" points="58.7807888 144.284883 29.6924587 119.823784 35.7543083 144.284883"></polygon>
            </g>
            <g id="Base" transform="translate(57.270910, 155.638477)">
                <path d="M70.4157176,0 L14.7062955,0 C13.0075745,0 11.5036035,1.09834231 10.9866891,2.7164215 L4.54985481,22.8801155 L80.5717552,22.8801155 L74.1349208,2.7164215 C73.6180064,1.09834231 72.1144387,0 70.4157176,0 Z" id="Stroke-11" fill="url(#linearGradient-5)"></path>
                <path d="M82.5631659,23.7712485 L2.55876664,23.7712485 C1.14551781,23.7712485 4.76063633e-13,24.9167663 4.76063633e-13,26.3300152 L4.76063633e-13,30.8076552 C4.76063633e-13,32.220904 1.14551781,33.3664218 2.55876664,33.3664218 L82.5631659,33.3664218 C83.9760115,33.3664218 85.1215293,32.220904 85.1215293,30.8076552 L85.1215293,26.3300152 C85.1215293,24.9167663 83.9760115,23.7712485 82.5631659,23.7712485 Z" id="Stroke-13" fill="url(#linearGradient-6)"></path>
                <path d="M65.5752295,5.53545979 L19.5464611,5.53545979 C18.7767344,5.53545979 18.1525663,6.15962789 18.1525663,6.92935457 L18.1525663,15.9507609 C18.1525663,16.7204876 18.7767344,17.3446557 19.5464611,17.3446557 L65.5752295,17.3446557 C66.3449562,17.3446557 66.9691243,16.7204876 66.9691243,15.9507609 L66.9691243,6.92935457 C66.9691243,6.15962789 66.3449562,5.53545979 65.5752295,5.53545979 Z" id="Stroke-19" fill-opacity="0.8" fill="url(#linearGradient-7)"></path>
            </g>
            <g id="Stella" transform="translate(65.181233, 10.500000)" fill-opacity="0.8">
                <polygon id="Stroke-15" fill="url(#linearGradient-8)" points="29.9564399 0.106971445 38.9496216 18.3288091 59.0588823 21.2508674 44.5078627 35.4349665 47.9424001 55.4627789 29.9564399 46.0067129 11.9704797 55.4627789 15.4054203 35.4349665 0.853997438 21.2508674 20.9632582 18.3288091"></polygon>
                <polygon id="Stroke-17" fill="url(#linearGradient-9)" points="29.9564399 44.3479499 47.6299128 53.6395065 44.5078627 35.4350068 44.7514012 35.1971133 44.5078627 33.7758003 57.5778943 21.0355939 38.9496216 18.3288494 29.9564399 0.107011766 20.9632582 18.3288494 2.33538865 21.0355939 15.4054203 33.7758003 15.1618818 35.1971133 15.4054203 35.4350068 12.2829669 53.6395065"></polygon>
            </g>
        </g>
        <path d="M52.2272727,255 L52.2272727,220.090909 L48,220.090909 L48,255 L52.2272727,255 Z M64.1590909,255 L64.1590909,220.090909 L60.1363636,220.090909 L60.1363636,255 L64.1590909,255 Z M89.0454545,255 L89.0454545,238.636364 C89.0454545,237.352273 89.3210227,236.21875 89.8721591,235.235795 C90.4232955,234.252841 91.1505682,233.482955 92.0539773,232.926136 C92.9573864,232.369318 93.9318182,232.090909 94.9772727,232.090909 C96.5,232.090909 97.7443182,232.548295 98.7102273,233.463068 C99.6761364,234.377841 100.159091,235.579545 100.159091,237.068182 L100.159091,237.068182 L100.159091,255 L104.25,255 L104.25,237.954545 C104.25,236.261364 104.755682,234.860795 105.767045,233.752841 C106.778409,232.644886 108.204545,232.090909 110.045455,232.090909 C111.477273,232.090909 112.721591,232.505682 113.778409,233.335227 C114.835227,234.164773 115.363636,235.545455 115.363636,237.477273 L115.363636,237.477273 L115.363636,255 L119.386364,255 L119.386364,237.477273 C119.386364,234.397727 118.642045,232.127841 117.153409,230.667614 C115.664773,229.207386 113.75,228.477273 111.409091,228.477273 C109.534091,228.477273 107.926136,228.877841 106.585227,229.678977 C105.244318,230.480114 104.238636,231.556818 103.568182,232.909091 L103.568182,232.909091 L103.295455,232.909091 C102.647727,231.511364 101.747159,230.423295 100.59375,229.644886 C99.4403409,228.866477 98,228.477273 96.2727273,228.477273 C94.5681818,228.477273 93.1079545,228.866477 91.8920455,229.644886 C90.6761364,230.423295 89.7954545,231.511364 89.25,232.909091 L89.25,232.909091 L88.9090909,232.909091 L88.9090909,228.818182 L85.0227273,228.818182 L85.0227273,255 L89.0454545,255 Z M128.795455,224.454545 C129.579545,224.454545 130.252841,224.1875 130.815341,223.653409 C131.377841,223.119318 131.659091,222.477273 131.659091,221.727273 C131.659091,220.977273 131.377841,220.335227 130.815341,219.801136 C130.252841,219.267045 129.579545,219 128.795455,219 C128.011364,219 127.338068,219.267045 126.775568,219.801136 C126.213068,220.335227 125.931818,220.977273 125.931818,221.727273 C125.931818,222.477273 126.213068,223.119318 126.775568,223.653409 C127.338068,224.1875 128.011364,224.454545 128.795455,224.454545 Z M130.772727,255 L130.772727,228.818182 L126.75,228.818182 L126.75,255 L130.772727,255 Z M148.772727,255.545455 C151.136364,255.545455 153.207386,254.982955 154.985795,253.857955 C156.764205,252.732955 158.150568,251.159091 159.144886,249.136364 C160.139205,247.113636 160.636364,244.75 160.636364,242.045455 C160.636364,239.318182 160.139205,236.9375 159.144886,234.903409 C158.150568,232.869318 156.764205,231.289773 154.985795,230.164773 C153.207386,229.039773 151.136364,228.477273 148.772727,228.477273 C146.409091,228.477273 144.338068,229.039773 142.559659,230.164773 C140.78125,231.289773 139.394886,232.869318 138.400568,234.903409 C137.40625,236.9375 136.909091,239.318182 136.909091,242.045455 C136.909091,244.75 137.40625,247.113636 138.400568,249.136364 C139.394886,251.159091 140.78125,252.732955 142.559659,253.857955 C144.338068,254.982955 146.409091,255.545455 148.772727,255.545455 Z M148.772727,251.931818 C146.977273,251.931818 145.5,251.471591 144.340909,250.551136 C143.181818,249.630682 142.323864,248.420455 141.767045,246.920455 C141.210227,245.420455 140.931818,243.795455 140.931818,242.045455 C140.931818,240.295455 141.210227,238.664773 141.767045,237.153409 C142.323864,235.642045 143.181818,234.420455 144.340909,233.488636 C145.5,232.556818 146.977273,232.090909 148.772727,232.090909 C150.568182,232.090909 152.045455,232.556818 153.204545,233.488636 C154.363636,234.420455 155.221591,235.642045 155.778409,237.153409 C156.335227,238.664773 156.613636,240.295455 156.613636,242.045455 C156.613636,243.795455 156.335227,245.420455 155.778409,246.920455 C155.221591,248.420455 154.363636,249.630682 153.204545,250.551136 C152.045455,251.471591 150.568182,251.931818 148.772727,251.931818 Z M189.068182,255.545455 C191.102273,255.545455 192.886364,255.204545 194.420455,254.522727 C195.954545,253.840909 197.150568,252.909091 198.008523,251.727273 C198.866477,250.545455 199.295455,249.204545 199.295455,247.704545 C199.295455,245.875 198.721591,244.377841 197.573864,243.213068 C196.426136,242.048295 194.681818,241.181818 192.340909,240.613636 L192.340909,240.613636 L188.454545,239.659091 C186.909091,239.272727 185.772727,238.789773 185.045455,238.210227 C184.318182,237.630682 183.954545,236.840909 183.954545,235.840909 C183.954545,234.715909 184.485795,233.786932 185.548295,233.053977 C186.610795,232.321023 187.943182,231.954545 189.545455,231.954545 C190.715909,231.954545 191.676136,232.142045 192.426136,232.517045 C193.176136,232.892045 193.769886,233.366477 194.207386,233.940341 C194.644886,234.514205 194.977273,235.102273 195.204545,235.704545 L195.204545,235.704545 L198.818182,234.681818 C198.193182,232.818182 197.139205,231.318182 195.65625,230.181818 C194.173295,229.045455 192.136364,228.477273 189.545455,228.477273 C187.704545,228.477273 186.059659,228.801136 184.610795,229.448864 C183.161932,230.096591 182.019886,230.988636 181.184659,232.125 C180.349432,233.261364 179.931818,234.568182 179.931818,236.045455 C179.931818,237.852273 180.491477,239.355114 181.610795,240.553977 C182.730114,241.752841 184.488636,242.636364 186.886364,243.204545 L186.886364,243.204545 L191.25,244.227273 C192.568182,244.534091 193.545455,244.997159 194.181818,245.616477 C194.818182,246.235795 195.136364,247 195.136364,247.909091 C195.136364,249.034091 194.582386,249.997159 193.474432,250.798295 C192.366477,251.599432 190.875,252 189,252 C187.352273,252 186.019886,251.647727 185.002841,250.943182 C183.985795,250.238636 183.295455,249.181818 182.931818,247.772727 L182.931818,247.772727 L179.113636,248.727273 C179.579545,250.954545 180.6875,252.647727 182.4375,253.806818 C184.1875,254.965909 186.397727,255.545455 189.068182,255.545455 Z M209.386364,264.818182 L209.386364,250.977273 L209.727273,250.977273 C210.022727,251.454545 210.443182,252.053977 210.988636,252.775568 C211.534091,253.497159 212.3125,254.139205 213.323864,254.701705 C214.335227,255.264205 215.681818,255.545455 217.363636,255.545455 C219.545455,255.545455 221.471591,254.991477 223.142045,253.883523 C224.8125,252.775568 226.119318,251.207386 227.0625,249.178977 C228.005682,247.150568 228.477273,244.75 228.477273,241.977273 C228.477273,239.227273 228.005682,236.840909 227.0625,234.818182 C226.119318,232.795455 224.806818,231.232955 223.125,230.130682 C221.443182,229.028409 219.5,228.477273 217.295455,228.477273 C215.590909,228.477273 214.241477,228.758523 213.247159,229.321023 C212.252841,229.883523 211.491477,230.519886 210.963068,231.230114 C210.434659,231.940341 210.022727,232.522727 209.727273,232.977273 L209.727273,232.977273 L209.25,232.977273 L209.25,228.818182 L205.363636,228.818182 L205.363636,264.818182 L209.386364,264.818182 Z M216.818182,251.931818 C215.204545,251.931818 213.840909,251.508523 212.727273,250.661932 C211.613636,249.815341 210.767045,248.639205 210.1875,247.133523 C209.607955,245.627841 209.318182,243.886364 209.318182,241.909091 C209.318182,239.954545 209.602273,238.241477 210.170455,236.769886 C210.738636,235.298295 211.579545,234.150568 212.693182,233.326705 C213.806818,232.502841 215.181818,232.090909 216.818182,232.090909 C218.522727,232.090909 219.940341,232.525568 221.071023,233.394886 C222.201705,234.264205 223.048295,235.440341 223.610795,236.923295 C224.173295,238.40625 224.454545,240.068182 224.454545,241.909091 C224.454545,243.772727 224.167614,245.463068 223.59375,246.980114 C223.019886,248.497159 222.167614,249.701705 221.036932,250.59375 C219.90625,251.485795 218.5,251.931818 216.818182,251.931818 Z M245.25,255.545455 C247.613636,255.545455 249.684659,254.982955 251.463068,253.857955 C253.241477,252.732955 254.627841,251.159091 255.622159,249.136364 C256.616477,247.113636 257.113636,244.75 257.113636,242.045455 C257.113636,239.318182 256.616477,236.9375 255.622159,234.903409 C254.627841,232.869318 253.241477,231.289773 251.463068,230.164773 C249.684659,229.039773 247.613636,228.477273 245.25,228.477273 C242.886364,228.477273 240.815341,229.039773 239.036932,230.164773 C237.258523,231.289773 235.872159,232.869318 234.877841,234.903409 C233.883523,236.9375 233.386364,239.318182 233.386364,242.045455 C233.386364,244.75 233.883523,247.113636 234.877841,249.136364 C235.872159,251.159091 237.258523,252.732955 239.036932,253.857955 C240.815341,254.982955 242.886364,255.545455 245.25,255.545455 Z M245.25,251.931818 C243.454545,251.931818 241.977273,251.471591 240.818182,250.551136 C239.659091,249.630682 238.801136,248.420455 238.244318,246.920455 C237.6875,245.420455 237.409091,243.795455 237.409091,242.045455 C237.409091,240.295455 237.6875,238.664773 238.244318,237.153409 C238.801136,235.642045 239.659091,234.420455 240.818182,233.488636 C241.977273,232.556818 243.454545,232.090909 245.25,232.090909 C247.045455,232.090909 248.522727,232.556818 249.681818,233.488636 C250.840909,234.420455 251.698864,235.642045 252.255682,237.153409 C252.8125,238.664773 253.090909,240.295455 253.090909,242.045455 C253.090909,243.795455 252.8125,245.420455 252.255682,246.920455 C251.698864,248.420455 250.840909,249.630682 249.681818,250.551136 C248.522727,251.471591 247.045455,251.931818 245.25,251.931818 Z M267.272727,255 L267.272727,238.431818 C267.272727,237.25 267.559659,236.196023 268.133523,235.269886 C268.707386,234.34375 269.491477,233.616477 270.485795,233.088068 C271.480114,232.559659 272.613636,232.295455 273.886364,232.295455 C274.420455,232.295455 274.928977,232.332386 275.411932,232.40625 C275.894886,232.480114 276.204545,232.534091 276.340909,232.568182 L276.340909,232.568182 L276.340909,228.477273 C276.113636,228.454545 275.778409,228.4375 275.335227,228.426136 C274.892045,228.414773 274.522727,228.409091 274.227273,228.409091 C272.659091,228.409091 271.25,228.8125 270,229.619318 C268.75,230.426136 267.886364,231.477273 267.409091,232.772727 L267.409091,232.772727 L267.136364,232.772727 L267.136364,228.818182 L263.25,228.818182 L263.25,255 L267.272727,255 Z M289.977273,255.340909 C290.727273,255.340909 291.346591,255.286932 291.835227,255.178977 C292.323864,255.071023 292.704545,254.965909 292.977273,254.863636 L292.977273,254.863636 L292.159091,251.25 C291.988636,251.284091 291.761364,251.326705 291.477273,251.377841 C291.193182,251.428977 290.829545,251.454545 290.386364,251.454545 C289.795455,251.454545 289.235795,251.360795 288.707386,251.173295 C288.178977,250.985795 287.747159,250.610795 287.411932,250.048295 C287.076705,249.485795 286.909091,248.636364 286.909091,247.5 L286.909091,247.5 L286.908545,232.228 L292.5,232.227273 L292.5,228.818182 L286.908545,228.819 L286.909091,222.545455 L282.886364,222.545455 L282.885545,228.819 L278.931818,228.818182 L278.931818,232.227273 L282.885545,232.228 L282.886364,248.590909 C282.886364,250.00487 283.192559,251.193472 283.804948,252.156714 L283.951705,252.375 C284.661932,253.375 285.559659,254.119318 286.644886,254.607955 C287.730114,255.096591 288.840909,255.340909 289.977273,255.340909 Z" id="Ilmiosport" fill="#7F8BB7" fill-rule="nonzero"></path>
    </g>
</svg>