<?xml version="1.0" encoding="UTF-8"?>
<svg width="80px" height="80px" viewBox="0 0 80 80" version="1.1" xmlns="http://www.w3.org/2000/svg" xmlns:xlink="http://www.w3.org/1999/xlink">
    <!-- Generator: Sketch 64 (93537) - https://sketch.com -->
    <title>button/round-icon</title>
    <desc>Created with Sketch.</desc>
    <g id="Page-1" stroke="none" stroke-width="1" fill="none" fill-rule="evenodd">
        <g id="MPG/overview" transform="translate(-1940.000000, -384.000000)" fill="#FFFFFF">
            <g id="button/round/round-icon" transform="translate(1940.000000, 384.000000)">
                <circle id="Oval" fill-opacity="0.15" cx="40" cy="40" r="40"></circle>
                <g id="icon/misc/spotify" transform="translate(13.333333, 13.333333)" fill-opacity="0.4">
                    <path d="M26.6666667,3.3333333 C13.7863333,3.3333333 3.3333333,13.7863333 3.3333333,26.6666667 C3.3333333,39.547 13.7863333,50 26.6666667,50 C39.547,50 50,39.547 50,26.6666667 C50,13.7863333 39.547,3.3333333 26.6666667,3.3333333 Z M36.1411111,37.6653333 C35.746,37.6653333 35.5013333,37.543 35.1344445,37.3266667 C29.2634444,33.789 22.4327778,33.6384445 15.6867778,35.0215556 C15.3198889,35.1155556 14.84,35.2661111 14.5672222,35.2661111 C13.6545555,35.2661111 13.0806666,34.5416667 13.0806666,33.7795556 C13.0806666,32.8104445 13.6545555,32.3494445 14.3602222,32.1988889 C22.0658889,30.496 29.9408889,30.6465556 36.6585556,34.664 C37.2325556,35.0308889 37.5712222,35.3602222 37.5712222,36.2164445 C37.5712222,37.0725556 36.9032222,37.6653333 36.1411111,37.6653333 Z M38.672,31.4933333 C38.1827778,31.4933333 37.8534445,31.2768889 37.5147778,31.0981111 C31.6344445,27.6168889 22.8655556,26.215 15.0658889,28.332 C14.6142222,28.4543333 14.3696667,28.5766667 13.9462222,28.5766667 C12.9395555,28.5766667 12.121,27.7581111 12.121,26.7513333 C12.121,25.7446667 12.6102222,25.0766667 13.5793333,24.8037778 C16.1948889,24.0698889 18.8668889,23.5242222 22.7808889,23.5242222 C28.8871111,23.5242222 34.7863333,25.039 39.4341111,27.8051111 C40.1962222,28.2566667 40.4973334,28.84 40.4973334,29.6585556 C40.4878889,30.6747778 39.6975556,31.4933333 38.672,31.4933333 Z M41.5886667,24.3238889 C41.0994445,24.3238889 40.7984445,24.2016667 40.375,23.957 C33.6761111,19.9583333 21.6988889,18.9986667 13.9462222,21.1626667 C13.6075555,21.2566667 13.1841111,21.4072222 12.7325555,21.4072222 C11.4905555,21.4072222 10.5403222,20.4382222 10.5403222,19.1867778 C10.5403222,17.9072222 11.3306666,17.1827778 12.1774444,16.9382222 C15.4892222,15.9691111 19.1962222,15.5081111 23.2325556,15.5081111 C30.1007778,15.5081111 37.2983333,16.9382222 42.5577778,20.0053333 C43.2916667,20.4287778 43.7715556,21.0121111 43.7715556,22.1316667 C43.7715556,23.4113333 42.7365556,24.3238889 41.5886667,24.3238889 Z" id="spotify+"></path>
                </g>
            </g>
        </g>
    </g>
</svg>