<?xml version="1.0" encoding="UTF-8"?>
<svg width="197px" height="99px" viewBox="0 0 197 99" version="1.1" xmlns="http://www.w3.org/2000/svg" xmlns:xlink="http://www.w3.org/1999/xlink">
    <!-- Generator: Sketch 64 (93537) - https://sketch.com -->
    <title>Group</title>
    <desc>Created with Sketch.</desc>
    <g id="Page-1" stroke="none" stroke-width="1" fill="none" fill-rule="evenodd">
        <g id="MPG/programma/esercizio-music-controls" transform="translate(-1884.000000, -504.000000)" fill="#FFFFFF">
            <g id="Group" transform="translate(1860.000000, 480.000000)">
                <g id="button/round/round-icon" transform="translate(80.000000, 0.000000)">
                    <circle id="Oval" fill-opacity="0" cx="40" cy="40" r="40"></circle>
                    <g id="icon/controls/pause" transform="translate(13.333333, 13.333333)">
                        <path d="M17.3333333,42.2222222 L18.2222222,42.2222222 C20.4313612,42.2222222 22.2222222,40.4313612 22.2222222,38.2222222 L22.2222222,15.1111111 C22.2222222,12.9019721 20.4313612,11.1111111 18.2222222,11.1111111 L17.3333333,11.1111111 C15.1241943,11.1111111 13.3333333,12.9019721 13.3333333,15.1111111 L13.3333333,38.2222222 C13.3333333,40.4313612 15.1241943,42.2222222 17.3333333,42.2222222 Z M31.1111111,15.1111111 L31.1111111,38.2222222 C31.1111111,40.4313612 32.9019721,42.2222222 35.1111111,42.2222222 L36,42.2222222 C38.209139,42.2222222 40,40.4313612 40,38.2222222 L40,15.1111111 C40,12.9019721 38.209139,11.1111111 36,11.1111111 L35.1111111,11.1111111 C32.9019721,11.1111111 31.1111111,12.9019721 31.1111111,15.1111111 Z" id="ic_pause_48px"></path>
                    </g>
                </g>
                <g id="button/round/round-icon" transform="translate(80.000000, 66.000000)">
                    <circle id="Oval" fill-opacity="0" cx="40" cy="40" r="40"></circle>
                    <g id="icon/controls/random" transform="translate(13.333333, 13.333333)" fill-opacity="0.4">
                        <path d="M11.3052779,16.6866561 C16.2191829,16.6866561 20.8286867,19.0348939 23.6552692,22.9921094 L23.6552692,22.9921094 L27.7864282,28.7322462 C30.134666,31.9502016 33.9179379,33.9070665 37.9186393,33.9070665 L37.9186393,33.9070665 L40.310363,33.9070665 L40.310363,31.2109416 C40.310363,30.5151675 41.0931089,30.1237945 41.6584254,30.5586533 L41.6584254,30.5586533 L46.9637033,34.6463265 C47.442048,34.9942136 47.442048,35.6465018 46.9637033,35.950903 L46.9637033,35.950903 L41.6584254,40.0385762 C41.0931089,40.473435 40.310363,40.0820621 40.310363,39.3862879 L40.310363,39.3862879 L40.310363,36.6901631 L37.9186393,36.6901631 C33.0482202,36.6901631 28.4387165,34.3419253 25.612134,30.3847098 L25.612134,30.3847098 L21.4809749,24.644573 C19.1327372,21.4266176 15.3494652,19.4697528 11.3487638,19.4697528 L11.3487638,19.4697528 L7.39154831,19.4697528 C6.60880238,19.4697528 6,18.8609504 6,18.0782045 C6,17.2954585 6.60880238,16.6866561 7.39154831,16.6866561 L7.39154831,16.6866561 Z M21.6984043,28.4713309 L23.3943538,30.8195686 C20.4807996,34.5158688 16.0452393,36.6901631 11.3487638,36.6901631 L11.3487638,36.6901631 L7.39154831,36.6901631 C6.60880238,36.6901631 6,36.0813607 6,35.2986148 C6,34.5158688 6.60880238,33.9070665 7.39154831,33.9070665 L7.39154831,33.9070665 L11.3052779,33.9070665 C15.3059793,33.9070665 19.0892513,31.9936875 21.437489,28.7322462 L21.437489,28.7322462 L21.6984043,28.4713309 Z M40.3538489,13.9470454 C40.3538489,13.2512713 41.1365948,12.8598983 41.7019113,13.2947571 L41.7019113,13.2947571 L47.0071892,17.3824303 C47.442048,17.7303174 47.442048,18.3826056 47.0071892,18.7304927 L47.0071892,18.7304927 L41.7019113,22.8181659 C41.1365948,23.2530247 40.3538489,22.8616518 40.3538489,22.1658776 L40.3538489,22.1658776 L40.3538489,19.4697528 L37.9621252,19.4697528 C33.9614238,19.4697528 30.1781518,21.3831317 27.8299141,24.644573 L27.8299141,24.644573 L27.6124847,24.9054883 L25.9165352,22.5572506 C28.7866035,18.8609504 33.2656497,16.6866561 37.9621252,16.6866561 L37.9621252,16.6866561 L40.3538489,16.6866561 Z" id="Combined-Shape"></path>
                    </g>
                </g>
                <g id="button/round/round-icon" transform="translate(160.000000, 66.000000)">
                    <circle id="Oval" fill-opacity="0" cx="40" cy="40" r="40"></circle>
                    <g id="icon/controls/loop" transform="translate(13.333333, 13.333333)" fill-opacity="0.4">
                        <path d="M22.2339683,17.2320233 C22.2339683,17.2320233 20.5653651,18.3638486 20.9281676,20.7619968 L20.9281676,20.7619968 L15.043085,20.7619968 C12.0033646,20.7619968 9.52997352,23.2353878 9.52997352,26.2751841 L9.52997352,26.2751841 L9.52997352,26.8811429 C9.52997352,29.9208634 12.0029099,32.3945575 15.043085,32.3945575 L15.043085,32.3945575 L25.2746738,32.3945575 L24.0291128,29.2401163 C23.9850128,29.1294874 24.0207778,29.002264 24.1161763,28.9302037 C24.2120295,28.8576129 24.3437234,28.8580675 24.4386673,28.9311129 L24.4386673,28.9311129 L30.9637309,33.9479095 C31.0300325,33.9985261 31.0680707,34.0759664 31.0680707,34.159317 C31.0680707,34.2422129 31.0300325,34.3201078 30.9637309,34.3707244 L30.9637309,34.3707244 L24.4381369,39.3869148 C24.3903998,39.4245741 24.3325848,39.4424566 24.2757548,39.4424566 C24.2193795,39.4424566 24.1629284,39.424953 24.1151913,39.3886576 C24.0198685,39.3169761 23.9840277,39.1898285 24.0281278,39.0782903 L24.0281278,39.0782903 L25.2736888,35.9238491 L23.1389285,35.9238491 L23.1389285,35.9243795 L15.043085,35.9243795 C10.0571282,35.9243795 6,31.8679333 6,26.8812187 L6,26.8812187 L6,26.2752598 C6,21.2885452 10.0571282,17.2320233 15.043085,17.2320233 L15.043085,17.2320233 Z M29.0576543,13.8908767 C29.1141054,13.8908767 29.1704807,13.9083803 29.2179905,13.9444484 C29.3133891,14.0165846 29.3491541,14.1435048 29.3048267,14.2545884 L28.0597203,17.4094842 L38.2901725,17.4090296 C43.2759779,17.408575 47.3333333,21.4656274 47.3333333,26.4518873 L47.3333333,27.0576946 C47.3333333,32.0444092 43.2759779,36.100325 38.2902483,36.100325 L31.0991377,36.100325 C31.0991377,36.100325 32.7678924,34.9689543 32.40509,32.5701242 L38.2902483,32.5701242 C41.3304234,32.5701242 43.8035871,30.0974151 43.8035871,27.05724 L43.8035871,26.4514327 C43.8035871,23.4110303 41.3299688,20.9380939 38.2902483,20.9380939 L28.0588868,20.9380939 L29.3048267,24.0926866 C29.3486994,24.2039975 29.3128587,24.3307662 29.2175359,24.402675 C29.1216069,24.4751901 28.9899888,24.4747354 28.8950449,24.4013111 L22.3692236,19.3852722 C22.3031493,19.334883 22.2651111,19.2567608 22.2651111,19.1743195 C22.2651111,19.0917266 22.3031493,19.0133013 22.3692236,18.962912 L28.8950449,13.9464185 C28.9429336,13.908835 29.0002939,13.8908767 29.0576543,13.8908767 Z" id="Combined-Shape"></path>
                    </g>
                </g>
                <g id="button/round/round-icon" transform="translate(0.000000, 66.000000)">
                    <circle id="Oval" fill-opacity="0" cx="40" cy="40" r="40"></circle>
                    <g id="icon/controls/library" transform="translate(13.333333, 13.333333)" fill-opacity="0.4">
                        <path d="M29.7377996,10.6537762 L44.6183951,41.1635183 C45.0219046,41.9908353 44.6783407,42.9886174 43.8510236,43.3921269 C43.0237066,43.7956364 42.0259245,43.4520725 41.622415,42.6247554 L26.7418195,12.1150133 C26.33831,11.2876963 26.6818739,10.2899142 27.509191,9.88640467 C28.3365081,9.48289517 29.3342901,9.82645909 29.7377996,10.6537762 Z M13,9.88640467 C13.9204746,9.88640467 14.6666667,10.6325968 14.6666667,11.5530713 L14.6666667,41.7254602 C14.6666667,42.6459348 13.9204746,43.3921269 13,43.3921269 C12.0795254,43.3921269 11.3333333,42.6459348 11.3333333,41.7254602 L11.3333333,11.5530713 C11.3333333,10.6325968 12.0795254,9.88640467 13,9.88640467 Z M22,9.88640467 C22.9204746,9.88640467 23.6666667,10.6325968 23.6666667,11.5530713 L23.6666667,41.7254602 C23.6666667,42.6459348 22.9204746,43.3921269 22,43.3921269 C21.0795254,43.3921269 20.3333333,42.6459348 20.3333333,41.7254602 L20.3333333,11.5530713 C20.3333333,10.6325968 21.0795254,9.88640467 22,9.88640467 Z" id="Combined-Shape"></path>
                    </g>
                </g>
                <g id="button/round/round-icon" transform="translate(160.000000, 0.000000)">
                    <circle id="Oval" fill-opacity="0" cx="40" cy="40" r="40"></circle>
                    <g id="icon/controls/forward" transform="translate(13.333333, 13.333333)">
                        <path d="M37.7777778,13.3333333 C39.0050772,13.3333333 40,14.3282561 40,15.5555556 L40,37.7777778 C40,39.0050773 39.0050772,40 37.7777778,40 C36.5504783,40 35.5555556,39.0050773 35.5555556,37.7777778 L35.5555556,15.5555556 C35.5555556,14.3282561 36.5504783,13.3333333 37.7777778,13.3333333 Z M13.6993976,16.0398084 C14.3363843,15.1374106 15.5843019,14.9222524 16.4866997,15.559239 L16.4866997,15.559239 L29.9074799,25.032731 C30.0939133,25.164331 30.2564493,25.3268669 30.3880493,25.5133003 C31.025036,26.4156981 30.8098777,27.6636157 29.9074799,28.3006024 L29.9074799,28.3006024 L16.4866997,37.7740943 C16.1492663,38.0122826 15.7463647,38.1401586 15.3333333,38.1401586 C14.2287638,38.1401586 13.3333333,37.2447281 13.3333333,36.1401586 L13.3333333,36.1401586 L13.3333333,17.1931748 C13.3333333,16.7801433 13.4612093,16.3772418 13.6993976,16.0398084 Z" id="Combined-Shape"></path>
                    </g>
                </g>
                <g id="button/round/round-icon">
                    <circle id="Oval" fill-opacity="0" cx="40" cy="40" r="40"></circle>
                    <g id="icon/controls/rewind" transform="translate(13.333333, 13.333333)">
                        <path d="M16.1111111,13.3333333 C17.3384105,13.3333333 18.3333333,14.3282561 18.3333333,15.5555556 L18.3333333,37.7777778 C18.3333333,39.0050773 17.3384105,40 16.1111111,40 C14.8838117,40 13.8888889,39.0050773 13.8888889,37.7777778 L13.8888889,15.5555556 C13.8888889,14.3282561 14.8838117,13.3333333 16.1111111,13.3333333 Z M37.4444445,15.1931748 C38.549014,15.1931748 39.4444445,16.0886053 39.4444445,17.1931748 L39.4444445,17.1931748 L39.4444445,36.1401586 C39.4444445,36.55319 39.3165685,36.9560916 39.0783802,37.293525 C38.4413935,38.1959228 37.1934758,38.411081 36.2910781,37.7740943 L36.2910781,37.7740943 L22.8702978,28.3006024 C22.6838645,28.1690024 22.5213285,28.0064664 22.3897285,27.8200331 C21.7527418,26.9176353 21.9679,25.6697176 22.8702978,25.032731 L22.8702978,25.032731 L36.2910781,15.559239 C36.6285115,15.3210507 37.031413,15.1931748 37.4444445,15.1931748 Z" id="Combined-Shape"></path>
                    </g>
                </g>
            </g>
        </g>
    </g>
</svg>