<?xml version="1.0" encoding="UTF-8"?>
<svg width="80px" height="80px" viewBox="0 0 80 80" version="1.1" xmlns="http://www.w3.org/2000/svg" xmlns:xlink="http://www.w3.org/1999/xlink">
    <!-- Generator: Sketch 64 (93537) - https://sketch.com -->
    <title>button/round-icon</title>
    <desc>Created with Sketch.</desc>
    <g id="Page-1" stroke="none" stroke-width="1" fill="none" fill-rule="evenodd">
        <g id="button/round/round-icon" fill="#FFFFFF">
            <circle id="Oval" fill-opacity="0.15" cx="40" cy="40" r="40"></circle>
            <g id="icon/misc/terrain" transform="translate(13.333333, 13.333333)">
                <path d="M16.5475469,28.1665814 L25.0524531,36.6714876 C25.8335017,37.4525362 25.8335017,38.7188661 25.0524531,39.4999147 C24.6773803,39.8749875 24.1686725,40.0857011 23.6382395,40.0857011 L6.62842712,40.0857011 C5.52385763,40.0857011 4.62842712,39.1902706 4.62842712,38.0857011 C4.62842712,37.5552682 4.83914081,37.0465603 5.21421356,36.6714876 L13.7191198,28.1665814 C14.5001684,27.3855328 15.7664983,27.3855328 16.5475469,28.1665814 Z M31.5960938,21.8619288 L46.4056526,36.6714876 C47.1867012,37.4525362 47.1867012,38.7188661 46.4056526,39.4999147 C46.0305798,39.8749875 45.521872,40.0857011 44.991439,40.0857011 L27.080504,40.0859268 C28.0045701,38.4342256 27.8092157,36.3248642 26.494441,34.8666684 L26.3312948,34.6948815 L21.1333333,29.495 L28.7676667,21.8619288 C29.5487153,21.0808802 30.8150452,21.0808802 31.5960938,21.8619288 Z M13.3333333,10.5810486 C15.5424723,10.5810486 17.3333333,12.3719096 17.3333333,14.5810486 C17.3333333,16.7901876 15.5424723,18.5810486 13.3333333,18.5810486 C11.1241943,18.5810486 9.33333333,16.7901876 9.33333333,14.5810486 C9.33333333,12.3719096 11.1241943,10.5810486 13.3333333,10.5810486 Z" id="Combined-Shape"></path>
            </g>
        </g>
    </g>
</svg>