<?xml version="1.0" encoding="UTF-8"?>
<svg width="1280px" height="144px" viewBox="0 0 1280 144" version="1.1" xmlns="http://www.w3.org/2000/svg" xmlns:xlink="http://www.w3.org/1999/xlink">
    <!-- Generator: Sketch 64 (93537) - https://sketch.com -->
    <title>Group 8</title>
    <desc>Created with Sketch.</desc>
    <g id="Page-1" stroke="none" stroke-width="1" fill="none" fill-rule="evenodd">
        <g id="Group-8" transform="translate(0.000000, 0.849432)">
            <path d="M1078.34943,28.1505682 L1078.34943,16.734375 L1089.47159,16.734375 L1089.47159,13.3465909 L1078.34943,13.3465909 L1078.34943,5.36931818 L1090.63494,5.36931818 L1090.63494,1.96875 L1074.39915,1.96875 L1074.39915,28.1505682 L1078.34943,28.1505682 Z M1103.45739,28.546875 C1105.2983,28.546875 1106.90483,28.125 1108.27699,27.28125 C1109.64915,26.4375 1110.71449,25.2571023 1111.47301,23.7400568 C1112.23153,22.2230114 1112.6108,20.4502841 1112.6108,18.421875 C1112.6108,16.3849432 1112.23153,14.6036932 1111.47301,13.078125 C1110.71449,11.5525568 1109.64915,10.3678977 1108.27699,9.52414773 C1106.90483,8.68039773 1105.2983,8.25852273 1103.45739,8.25852273 C1101.61648,8.25852273 1100.00994,8.68039773 1098.63778,9.52414773 C1097.26563,10.3678977 1096.20028,11.5525568 1095.44176,13.078125 C1094.68324,14.6036932 1094.30398,16.3849432 1094.30398,18.421875 C1094.30398,20.4502841 1094.68324,22.2230114 1095.44176,23.7400568 C1096.20028,25.2571023 1097.26563,26.4375 1098.63778,27.28125 C1100.00994,28.125 1101.61648,28.546875 1103.45739,28.546875 Z M1103.47017,25.3380682 C1102.26847,25.3380682 1101.27344,25.0227273 1100.48509,24.3920455 C1099.69673,23.7613636 1099.11293,22.921875 1098.73366,21.8735795 C1098.3544,20.8252841 1098.16477,19.6704545 1098.16477,18.4090909 C1098.16477,17.15625 1098.3544,16.0035511 1098.73366,14.9509943 C1099.11293,13.8984375 1099.69673,13.0525568 1100.48509,12.4133523 C1101.27344,11.7741477 1102.26847,11.4545455 1103.47017,11.4545455 C1104.66335,11.4545455 1105.65199,11.7741477 1106.43608,12.4133523 C1107.22017,13.0525568 1107.80185,13.8984375 1108.18111,14.9509943 C1108.56037,16.0035511 1108.75,17.15625 1108.75,18.4090909 C1108.75,19.6704545 1108.56037,20.8252841 1108.18111,21.8735795 C1107.80185,22.921875 1107.22017,23.7613636 1106.43608,24.3920455 C1105.65199,25.0227273 1104.66335,25.3380682 1103.47017,25.3380682 Z M1120.69034,28.1505682 L1120.69034,16.1590909 C1120.69034,15.3068182 1120.89489,14.5461648 1121.30398,13.8771307 C1121.71307,13.2080966 1122.26918,12.6839489 1122.9723,12.3046875 C1123.67543,11.9254261 1124.47869,11.7357955 1125.3821,11.7357955 C1125.77415,11.7357955 1126.16619,11.7634943 1126.55824,11.818892 C1126.95028,11.8742898 1127.22301,11.9232955 1127.37642,11.9659091 L1127.37642,11.9659091 L1127.37642,8.30965909 C1127.18892,8.28409091 1126.93111,8.26278409 1126.60298,8.24573864 C1126.27486,8.22869318 1125.99148,8.22017045 1125.75284,8.22017045 C1124.60227,8.22017045 1123.57315,8.52485795 1122.66548,9.13423295 C1121.75781,9.74360795 1121.125,10.5767045 1120.76705,11.6335227 L1120.76705,11.6335227 L1120.5625,11.6335227 L1120.5625,8.51420455 L1116.8679,8.51420455 L1116.8679,28.1505682 L1120.69034,28.1505682 Z M1146.05398,28.1505682 L1146.05398,24.8267045 L1135.46875,24.8267045 L1135.46875,24.6477273 L1145.69602,11.3011364 L1145.69602,8.51420455 L1130.63636,8.51420455 L1130.63636,11.8380682 L1140.92756,11.8380682 L1140.92756,12.0170455 L1130.29119,25.5298295 L1130.29119,28.1505682 L1146.05398,28.1505682 Z M1156.26847,28.5852273 C1157.35085,28.5852273 1158.27983,28.4275568 1159.0554,28.1122159 C1159.83097,27.796875 1160.46591,27.4005682 1160.96023,26.9232955 C1161.45455,26.4460227 1161.82528,25.9602273 1162.07244,25.4659091 L1162.07244,25.4659091 L1162.22585,25.4659091 L1162.22585,28.1505682 L1165.95881,28.1505682 L1165.95881,15.1107955 C1165.95881,13.6789773 1165.71165,12.5134943 1165.21733,11.6143466 C1164.72301,10.7151989 1164.0902,10.0227273 1163.31889,9.53693182 C1162.54759,9.05113636 1161.72088,8.71661932 1160.83878,8.53338068 C1159.95668,8.35014205 1159.12358,8.25852273 1158.33949,8.25852273 C1157.15483,8.25852273 1156.02557,8.42684659 1154.9517,8.76349432 C1153.87784,9.10014205 1152.92969,9.63707386 1152.10724,10.3742898 C1151.2848,11.1115057 1150.66051,12.0767045 1150.23438,13.2698864 L1150.23438,13.2698864 L1153.8267,14.0880682 C1154.10795,13.3977273 1154.61719,12.7691761 1155.3544,12.2024148 C1156.09162,11.6356534 1157.10369,11.3522727 1158.39063,11.3522727 C1159.62642,11.3522727 1160.55753,11.6590909 1161.18395,12.2727273 C1161.81037,12.8863636 1162.12358,13.7514205 1162.12358,14.8678977 L1162.12358,14.8678977 L1162.12358,14.9573864 C1162.12358,15.4176136 1161.95739,15.75 1161.625,15.9545455 C1161.29261,16.1590909 1160.75994,16.306108 1160.02699,16.3955966 C1159.29403,16.4850852 1158.33949,16.5980114 1157.16335,16.734375 C1156.23438,16.8451705 1155.32244,17.0071023 1154.42756,17.2201705 C1153.53267,17.4332386 1152.72301,17.7485795 1151.99858,18.1661932 C1151.27415,18.5838068 1150.69886,19.1505682 1150.27273,19.8664773 C1149.84659,20.5823864 1149.63352,21.4943182 1149.63352,22.6022727 C1149.63352,23.8892045 1149.92543,24.9758523 1150.50923,25.8622159 C1151.09304,26.7485795 1151.88778,27.4240057 1152.89347,27.8884943 C1153.89915,28.352983 1155.02415,28.5852273 1156.26847,28.5852273 Z M1157.09943,25.5170455 C1156.01705,25.5170455 1155.12642,25.2762784 1154.42756,24.7947443 C1153.72869,24.3132102 1153.37926,23.5994318 1153.37926,22.6534091 C1153.37926,21.9715909 1153.56037,21.4240057 1153.92259,21.0106534 C1154.2848,20.5973011 1154.7706,20.2798295 1155.37997,20.0582386 C1155.98935,19.8366477 1156.66477,19.6789773 1157.40625,19.5852273 C1157.72159,19.5426136 1158.11364,19.4893466 1158.58239,19.4254261 C1159.05114,19.3615057 1159.53267,19.2890625 1160.02699,19.2080966 C1160.52131,19.1271307 1160.96236,19.0291193 1161.35014,18.9140625 C1161.73793,18.7990057 1162,18.6732955 1162.13636,18.5369318 L1162.13636,18.5369318 L1162.13636,21.0681818 C1162.13636,21.84375 1161.93821,22.5703125 1161.5419,23.2478693 C1161.1456,23.9254261 1160.57031,24.4730114 1159.81605,24.890625 C1159.06179,25.3082386 1158.15625,25.5170455 1157.09943,25.5170455 Z" id="Forza" fill="#FFFFFF" fill-rule="nonzero"></path>
            <g id="widget/progress-bar/progress-bar" transform="translate(960.000000, 65.150568)">
                <rect id="Back" fill-opacity="0.15" fill="#FFFFFF" x="0" y="0" width="320" height="12" rx="6"></rect>
                <rect id="fill-10%" fill-opacity="0" fill="#FFFFFF" x="0" y="0" width="32" height="12" rx="6"></rect>
                <rect id="fill-20%" fill-opacity="0" fill="#FFFFFF" x="0" y="0" width="64" height="12" rx="6"></rect>
                <rect id="fill-30%" fill-opacity="0" fill="#FFFFFF" x="0" y="0" width="96" height="12" rx="6"></rect>
                <rect id="fill-40%" fill-opacity="0" fill="#FFFFFF" x="0" y="0" width="128" height="12" rx="6"></rect>
                <rect id="fill-50%" fill="#F8E71C" x="0" y="0" width="160" height="12" rx="6"></rect>
                <rect id="fill-60%" fill-opacity="0" fill="#FFFFFF" x="0" y="0" width="192" height="12" rx="6"></rect>
                <rect id="fill-70%" fill-opacity="0" fill="#FFFFFF" x="0" y="0" width="224" height="12" rx="6"></rect>
                <rect id="fill-80%" fill-opacity="0" fill="#FFFFFF" x="0" y="0" width="256" height="12" rx="6"></rect>
                <rect id="fill-90%" fill-opacity="0" fill="#FFFFFF" x="0" y="0" width="288" height="12" rx="6"></rect>
                <rect id="fill-100%" fill-opacity="0" fill="#FFFFFF" x="0" y="0" width="320" height="12" rx="6"></rect>
            </g>
            <path d="M604.019176,28.1505682 L604.019176,16.734375 L615.141335,16.734375 L615.141335,13.3465909 L604.019176,13.3465909 L604.019176,5.36931818 L616.304688,5.36931818 L616.304688,1.96875 L600.068892,1.96875 L600.068892,28.1505682 L604.019176,28.1505682 Z M622.786222,5.484375 C623.450994,5.484375 624.019886,5.26065341 624.492898,4.81321023 C624.965909,4.36576705 625.202415,3.83096591 625.202415,3.20880682 C625.202415,2.578125 624.965909,2.0390625 624.492898,1.59161932 C624.019886,1.14417614 623.450994,0.920454545 622.786222,0.920454545 C622.121449,0.920454545 621.552557,1.14417614 621.079545,1.59161932 C620.606534,2.0390625 620.370028,2.578125 620.370028,3.20880682 C620.370028,3.83096591 620.606534,4.36576705 621.079545,4.81321023 C621.552557,5.26065341 622.121449,5.484375 622.786222,5.484375 Z M624.678267,28.1505682 L624.678267,8.51420455 L620.855824,8.51420455 L620.855824,28.1505682 L624.678267,28.1505682 Z M635.53196,28.5852273 C636.614347,28.5852273 637.543324,28.4275568 638.318892,28.1122159 C639.09446,27.796875 639.729403,27.4005682 640.223722,26.9232955 C640.71804,26.4460227 641.088778,25.9602273 641.335938,25.4659091 L641.335938,25.4659091 L641.489347,25.4659091 L641.489347,28.1505682 L645.222301,28.1505682 L645.222301,15.1107955 C645.222301,13.6789773 644.975142,12.5134943 644.480824,11.6143466 C643.986506,10.7151989 643.353693,10.0227273 642.582386,9.53693182 C641.81108,9.05113636 640.984375,8.71661932 640.102273,8.53338068 C639.22017,8.35014205 638.387074,8.25852273 637.602983,8.25852273 C636.418324,8.25852273 635.289063,8.42684659 634.215199,8.76349432 C633.141335,9.10014205 632.193182,9.63707386 631.370739,10.3742898 C630.548295,11.1115057 629.924006,12.0767045 629.497869,13.2698864 L629.497869,13.2698864 L633.090199,14.0880682 C633.371449,13.3977273 633.880682,12.7691761 634.617898,12.2024148 C635.355114,11.6356534 636.367188,11.3522727 637.654119,11.3522727 C638.889915,11.3522727 639.821023,11.6590909 640.447443,12.2727273 C641.073864,12.8863636 641.387074,13.7514205 641.387074,14.8678977 L641.387074,14.8678977 L641.387074,14.9573864 C641.387074,15.4176136 641.220881,15.75 640.888494,15.9545455 C640.556108,16.1590909 640.023438,16.306108 639.290483,16.3955966 C638.557528,16.4850852 637.602983,16.5980114 636.426847,16.734375 C635.497869,16.8451705 634.585938,17.0071023 633.691051,17.2201705 C632.796165,17.4332386 631.986506,17.7485795 631.262074,18.1661932 C630.537642,18.5838068 629.962358,19.1505682 629.536222,19.8664773 C629.110085,20.5823864 628.897017,21.4943182 628.897017,22.6022727 C628.897017,23.8892045 629.18892,24.9758523 629.772727,25.8622159 C630.356534,26.7485795 631.151278,27.4240057 632.15696,27.8884943 C633.162642,28.352983 634.287642,28.5852273 635.53196,28.5852273 Z M636.362926,25.5170455 C635.28054,25.5170455 634.389915,25.2762784 633.691051,24.7947443 C632.992188,24.3132102 632.642756,23.5994318 632.642756,22.6534091 C632.642756,21.9715909 632.823864,21.4240057 633.18608,21.0106534 C633.548295,20.5973011 634.034091,20.2798295 634.643466,20.0582386 C635.252841,19.8366477 635.928267,19.6789773 636.669744,19.5852273 C636.985085,19.5426136 637.377131,19.4893466 637.845881,19.4254261 C638.314631,19.3615057 638.796165,19.2890625 639.290483,19.2080966 C639.784801,19.1271307 640.225852,19.0291193 640.613636,18.9140625 C641.00142,18.7990057 641.263494,18.6732955 641.399858,18.5369318 L641.399858,18.5369318 L641.399858,21.0681818 C641.399858,21.84375 641.201705,22.5703125 640.805398,23.2478693 C640.409091,23.9254261 639.833807,24.4730114 639.079545,24.890625 C638.325284,25.3082386 637.419744,25.5170455 636.362926,25.5170455 Z M657.354403,28.40625 C657.96804,28.3977273 658.479403,28.3487216 658.888494,28.259233 C659.297585,28.1697443 659.612926,28.0823864 659.834517,27.9971591 L659.834517,27.9971591 L659.144176,24.8394886 C659.016335,24.8650568 658.837358,24.8991477 658.607244,24.9417614 C658.377131,24.984375 658.108665,25.0056818 657.801847,25.0056818 C657.384233,25.0056818 656.99858,24.9396307 656.644886,24.8075284 C656.291193,24.6754261 656.003551,24.4240057 655.78196,24.053267 C655.560369,23.6825284 655.449574,23.1264205 655.449574,22.3849432 L655.449574,22.3849432 L655.449,11.5825682 L659.476563,11.5823864 L659.476563,8.51420455 L655.449,8.51456818 L655.449574,3.80965909 L651.627131,3.80965909 L651.627,8.51456818 L648.75071,8.51420455 L648.75071,11.5823864 L651.627,11.5825682 L651.627131,23.1775568 C651.627131,24.2634943 651.852717,25.1811375 652.303888,25.9304865 L652.432528,26.1306818 C652.96946,26.9147727 653.672585,27.4943182 654.541903,27.8693182 C655.411222,28.2443182 656.348722,28.4232955 657.354403,28.40625 Z M671.966619,28.546875 C673.807528,28.546875 675.414063,28.125 676.786222,27.28125 C678.158381,26.4375 679.223722,25.2571023 679.982244,23.7400568 C680.740767,22.2230114 681.120028,20.4502841 681.120028,18.421875 C681.120028,16.3849432 680.740767,14.6036932 679.982244,13.078125 C679.223722,11.5525568 678.158381,10.3678977 676.786222,9.52414773 C675.414063,8.68039773 673.807528,8.25852273 671.966619,8.25852273 C670.12571,8.25852273 668.519176,8.68039773 667.147017,9.52414773 C665.774858,10.3678977 664.709517,11.5525568 663.950994,13.078125 C663.192472,14.6036932 662.81321,16.3849432 662.81321,18.421875 C662.81321,20.4502841 663.192472,22.2230114 663.950994,23.7400568 C664.709517,25.2571023 665.774858,26.4375 667.147017,27.28125 C668.519176,28.125 670.12571,28.546875 671.966619,28.546875 Z M671.979403,25.3380682 C670.777699,25.3380682 669.78267,25.0227273 668.994318,24.3920455 C668.205966,23.7613636 667.622159,22.921875 667.242898,21.8735795 C666.863636,20.8252841 666.674006,19.6704545 666.674006,18.4090909 C666.674006,17.15625 666.863636,16.0035511 667.242898,14.9509943 C667.622159,13.8984375 668.205966,13.0525568 668.994318,12.4133523 C669.78267,11.7741477 670.777699,11.4545455 671.979403,11.4545455 C673.172585,11.4545455 674.161222,11.7741477 674.945313,12.4133523 C675.729403,13.0525568 676.31108,13.8984375 676.690341,14.9509943 C677.069602,16.0035511 677.259233,17.15625 677.259233,18.4090909 C677.259233,19.6704545 677.069602,20.8252841 676.690341,21.8735795 C676.31108,22.921875 675.729403,23.7613636 674.945313,24.3920455 C674.161222,25.0227273 673.172585,25.3380682 671.979403,25.3380682 Z" id="Fiato" fill="#FFFFFF" fill-rule="nonzero"></path>
            <g id="widget/progress-bar/progress-bar" transform="translate(480.000000, 65.150568)">
                <rect id="Back" fill-opacity="0.15" fill="#FFFFFF" x="0" y="0" width="320" height="12" rx="6"></rect>
                <rect id="fill-10%" fill-opacity="0" fill="#FFFFFF" x="0" y="0" width="32" height="12" rx="6"></rect>
                <rect id="fill-20%" fill-opacity="0" fill="#FFFFFF" x="0" y="0" width="64" height="12" rx="6"></rect>
                <rect id="fill-30%" fill="#F5A623" x="0" y="0" width="96" height="12" rx="6"></rect>
                <rect id="fill-40%" fill-opacity="0" fill="#FFFFFF" x="0" y="0" width="128" height="12" rx="6"></rect>
                <rect id="fill-50%" fill-opacity="0" fill="#FFFFFF" x="0" y="0" width="160" height="12" rx="6"></rect>
                <rect id="fill-60%" fill-opacity="0" fill="#FFFFFF" x="0" y="0" width="192" height="12" rx="6"></rect>
                <rect id="fill-70%" fill-opacity="0" fill="#FFFFFF" x="0" y="0" width="224" height="12" rx="6"></rect>
                <rect id="fill-80%" fill-opacity="0" fill="#FFFFFF" x="0" y="0" width="256" height="12" rx="6"></rect>
                <rect id="fill-90%" fill-opacity="0" fill="#FFFFFF" x="0" y="0" width="288" height="12" rx="6"></rect>
                <rect id="fill-100%" fill-opacity="0" fill="#FFFFFF" x="0" y="0" width="320" height="12" rx="6"></rect>
            </g>
            <path d="M75.8103693,28.1505682 L75.8103693,16.734375 L86.9325284,16.734375 L86.9325284,13.3465909 L75.8103693,13.3465909 L75.8103693,5.36931818 L88.0958807,5.36931818 L88.0958807,1.96875 L71.8600852,1.96875 L71.8600852,28.1505682 L75.8103693,28.1505682 Z M96.4694602,28.1505682 L96.4694602,1.96875 L92.647017,1.96875 L92.647017,28.1505682 L96.4694602,28.1505682 Z M110.071733,28.546875 C111.503551,28.546875 112.77983,28.3274148 113.900568,27.8884943 C115.021307,27.4495739 115.954545,26.8316761 116.700284,26.0348011 C117.446023,25.2379261 117.963778,24.3068182 118.253551,23.2414773 L118.253551,23.2414773 L114.635653,22.5894886 C114.40554,23.203125 114.073153,23.71875 113.638494,24.1363636 C113.203835,24.5539773 112.68821,24.8671875 112.091619,25.0759943 C111.495028,25.2848011 110.834517,25.3892045 110.110085,25.3892045 C108.993608,25.3892045 108.017756,25.1484375 107.182528,24.6669034 C106.347301,24.1853693 105.697443,23.484375 105.232955,22.5639205 C104.768466,21.6434659 104.536222,20.5269886 104.536222,19.2144886 L104.54,19.4835682 L118.496449,19.4829545 L118.496449,18.1278409 C118.496449,16.3465909 118.257812,14.8316761 117.78054,13.5830966 C117.303267,12.334517 116.651278,11.3181818 115.824574,10.5340909 C114.997869,9.75 114.064631,9.17471591 113.024858,8.80823864 C111.985085,8.44176136 110.911222,8.25852273 109.803267,8.25852273 C107.979403,8.25852273 106.387784,8.68892045 105.028409,9.54971591 C103.669034,10.4105114 102.612216,11.6079545 101.857955,13.1420455 C101.103693,14.6761364 100.726562,16.4488636 100.726562,18.4602273 C100.726562,20.4971591 101.103693,22.272017 101.857955,23.7848011 C102.612216,25.2975852 103.68608,26.4694602 105.079545,27.3004261 C106.473011,28.131392 108.137074,28.546875 110.071733,28.546875 Z M104.568103,16.3342803 C104.642493,15.5962753 104.847064,14.9008049 105.181818,14.2478693 C105.612216,13.4083807 106.225852,12.7265625 107.022727,12.2024148 C107.819602,11.678267 108.754972,11.4161932 109.828835,11.4161932 C110.817472,11.4161932 111.680398,11.6420455 112.417614,12.09375 C113.15483,12.5454545 113.727983,13.1612216 114.137074,13.9410511 C114.546165,14.7208807 114.75071,15.6136364 114.75071,16.6193182 L114.75071,16.6193182 L104.547,16.6195682 L104.568103,16.3342803 Z M129.823153,28.546875 C131.408381,28.546875 132.803977,28.2869318 134.009943,27.7670455 C135.215909,27.2471591 136.15767,26.5291193 136.835227,25.6129261 C137.512784,24.696733 137.851562,23.6505682 137.851562,22.4744318 C137.851562,21.0852273 137.408381,19.9559659 136.522017,19.0866477 C135.635653,18.2173295 134.289062,17.5738636 132.482244,17.15625 L132.482244,17.15625 L129.362926,16.4403409 C128.28054,16.1846591 127.496449,15.8565341 127.010653,15.4559659 C126.524858,15.0553977 126.28196,14.5269886 126.28196,13.8707386 C126.28196,13.1122159 126.644176,12.4921875 127.368608,12.0106534 C128.09304,11.5291193 128.996449,11.2883523 130.078835,11.2883523 C130.871449,11.2883523 131.53196,11.4161932 132.060369,11.671875 C132.588778,11.9275568 133.008523,12.2556818 133.319602,12.65625 C133.630682,13.0568182 133.858665,13.4786932 134.003551,13.921875 L134.003551,13.921875 L137.46804,13.3082386 C137.075994,11.7741477 136.270597,10.5490057 135.051847,9.6328125 C133.833097,8.71661932 132.162642,8.25852273 130.040483,8.25852273 C128.566051,8.25852273 127.257812,8.50355114 126.115767,8.99360795 C124.973722,9.48366477 124.078835,10.1633523 123.431108,11.0326705 C122.783381,11.9019886 122.459517,12.9161932 122.459517,14.0752841 C122.459517,15.4730114 122.896307,16.6278409 123.769886,17.5397727 C124.643466,18.4517045 125.996449,19.1164773 127.828835,19.5340909 L127.828835,19.5340909 L131.152699,20.2627841 C132.090199,20.4758523 132.786932,20.7911932 133.242898,21.2088068 C133.698864,21.6264205 133.926847,22.1420455 133.926847,22.7556818 C133.926847,23.5142045 133.551847,24.1555398 132.801847,24.6796875 C132.051847,25.2038352 131.050426,25.4659091 129.797585,25.4659091 C128.647017,25.4659091 127.713778,25.2208807 126.997869,24.7308239 C126.28196,24.240767 125.808949,23.5142045 125.578835,22.5511364 L125.578835,22.5511364 L121.884233,23.1136364 C122.199574,24.8522727 123.051847,26.1924716 124.441051,27.134233 C125.830256,28.0759943 127.62429,28.546875 129.823153,28.546875 Z M149.114347,28.546875 C150.699574,28.546875 152.09517,28.2869318 153.301136,27.7670455 C154.507102,27.2471591 155.448864,26.5291193 156.12642,25.6129261 C156.803977,24.696733 157.142756,23.6505682 157.142756,22.4744318 C157.142756,21.0852273 156.699574,19.9559659 155.81321,19.0866477 C154.926847,18.2173295 153.580256,17.5738636 151.773437,17.15625 L151.773437,17.15625 L148.654119,16.4403409 C147.571733,16.1846591 146.787642,15.8565341 146.301847,15.4559659 C145.816051,15.0553977 145.573153,14.5269886 145.573153,13.8707386 C145.573153,13.1122159 145.935369,12.4921875 146.659801,12.0106534 C147.384233,11.5291193 148.287642,11.2883523 149.370028,11.2883523 C150.162642,11.2883523 150.823153,11.4161932 151.351562,11.671875 C151.879972,11.9275568 152.299716,12.2556818 152.610795,12.65625 C152.921875,13.0568182 153.149858,13.4786932 153.294744,13.921875 L153.294744,13.921875 L156.759233,13.3082386 C156.367187,11.7741477 155.56179,10.5490057 154.34304,9.6328125 C153.12429,8.71661932 151.453835,8.25852273 149.331676,8.25852273 C147.857244,8.25852273 146.549006,8.50355114 145.40696,8.99360795 C144.264915,9.48366477 143.370028,10.1633523 142.722301,11.0326705 C142.074574,11.9019886 141.75071,12.9161932 141.75071,14.0752841 C141.75071,15.4730114 142.1875,16.6278409 143.06108,17.5397727 C143.934659,18.4517045 145.287642,19.1164773 147.120028,19.5340909 L147.120028,19.5340909 L150.443892,20.2627841 C151.381392,20.4758523 152.078125,20.7911932 152.534091,21.2088068 C152.990057,21.6264205 153.21804,22.1420455 153.21804,22.7556818 C153.21804,23.5142045 152.84304,24.1555398 152.09304,24.6796875 C151.34304,25.2038352 150.341619,25.4659091 149.088778,25.4659091 C147.93821,25.4659091 147.004972,25.2208807 146.289062,24.7308239 C145.573153,24.240767 145.100142,23.5142045 144.870028,22.5511364 L144.870028,22.5511364 L141.175426,23.1136364 C141.490767,24.8522727 142.34304,26.1924716 143.732244,27.134233 C145.121449,28.0759943 146.915483,28.546875 149.114347,28.546875 Z M163.266335,5.484375 C163.931108,5.484375 164.5,5.26065341 164.973011,4.81321023 C165.446023,4.36576705 165.682528,3.83096591 165.682528,3.20880682 C165.682528,2.578125 165.446023,2.0390625 164.973011,1.59161932 C164.5,1.14417614 163.931108,0.920454545 163.266335,0.920454545 C162.601562,0.920454545 162.03267,1.14417614 161.559659,1.59161932 C161.086648,2.0390625 160.850142,2.578125 160.850142,3.20880682 C160.850142,3.83096591 161.086648,4.36576705 161.559659,4.81321023 C162.03267,5.26065341 162.601562,5.484375 163.266335,5.484375 Z M165.158381,28.1505682 L165.158381,8.51420455 L161.335937,8.51420455 L161.335937,28.1505682 L165.158381,28.1505682 Z M180.333097,28.5340909 C181.918324,28.5340909 183.328835,28.1271307 184.564631,27.3132102 C185.800426,26.4992898 186.772017,25.3359375 187.479403,23.8231534 C188.18679,22.3103693 188.540483,20.4928977 188.540483,18.3707386 C188.540483,16.2485795 188.184659,14.4332386 187.473011,12.9247159 C186.761364,11.4161932 185.783381,10.2613636 184.539062,9.46022727 C183.294744,8.65909091 181.879972,8.25852273 180.294744,8.25852273 C179.075994,8.25852273 178.095881,8.4609375 177.354403,8.86576705 C176.612926,9.27059659 176.033381,9.74147727 175.615767,10.2784091 C175.198153,10.8153409 174.878551,11.2883523 174.65696,11.6974432 L174.65696,11.6974432 L174.426847,11.6974432 L174.426847,1.96875 L170.604403,1.96875 L170.604403,28.1505682 L174.337358,28.1505682 L174.337358,25.0951705 L174.65696,25.0951705 C174.887074,25.5127841 175.215199,25.9900568 175.641335,26.5269886 C176.067472,27.0639205 176.65767,27.5326705 177.411932,27.9332386 C178.166193,28.3338068 179.139915,28.5340909 180.333097,28.5340909 Z M179.476562,25.2741477 C178.377131,25.2741477 177.448153,24.9822443 176.689631,24.3984375 C175.931108,23.8146307 175.351562,23.0028409 174.950994,21.9630682 C174.550426,20.9232955 174.350142,19.7130682 174.350142,18.3323864 C174.350142,16.96875 174.546165,15.7755682 174.93821,14.7528409 C175.330256,13.7301136 175.90767,12.9332386 176.670455,12.3622159 C177.433239,11.7911932 178.368608,11.5056818 179.476562,11.5056818 C180.627131,11.5056818 181.588068,11.8039773 182.359375,12.4005682 C183.130682,12.9971591 183.710227,13.8110795 184.098011,14.8423295 C184.485795,15.8735795 184.679687,17.0369318 184.679687,18.3323864 C184.679687,19.6448864 184.481534,20.8252841 184.085227,21.8735795 C183.68892,22.921875 183.107244,23.7507102 182.340199,24.3600852 C181.573153,24.9694602 180.618608,25.2741477 179.476562,25.2741477 Z M194.753551,5.484375 C195.418324,5.484375 195.987216,5.26065341 196.460227,4.81321023 C196.933239,4.36576705 197.169744,3.83096591 197.169744,3.20880682 C197.169744,2.578125 196.933239,2.0390625 196.460227,1.59161932 C195.987216,1.14417614 195.418324,0.920454545 194.753551,0.920454545 C194.088778,0.920454545 193.519886,1.14417614 193.046875,1.59161932 C192.573864,2.0390625 192.337358,2.578125 192.337358,3.20880682 C192.337358,3.83096591 192.573864,4.36576705 193.046875,4.81321023 C193.519886,5.26065341 194.088778,5.484375 194.753551,5.484375 Z M196.645597,28.1505682 L196.645597,8.51420455 L192.823153,8.51420455 L192.823153,28.1505682 L196.645597,28.1505682 Z M205.607244,28.1505682 L205.607244,1.96875 L201.784801,1.96875 L201.784801,28.1505682 L205.607244,28.1505682 Z M212.676847,5.484375 C213.341619,5.484375 213.910511,5.26065341 214.383523,4.81321023 C214.856534,4.36576705 215.09304,3.83096591 215.09304,3.20880682 C215.09304,2.578125 214.856534,2.0390625 214.383523,1.59161932 C213.910511,1.14417614 213.341619,0.920454545 212.676847,0.920454545 C212.012074,0.920454545 211.443182,1.14417614 210.97017,1.59161932 C210.497159,2.0390625 210.260653,2.578125 210.260653,3.20880682 C210.260653,3.83096591 210.497159,4.36576705 210.97017,4.81321023 C211.443182,5.26065341 212.012074,5.484375 212.676847,5.484375 Z M214.568892,28.1505682 L214.568892,8.51420455 L210.746449,8.51420455 L210.746449,28.1505682 L214.568892,28.1505682 Z M226.752131,28.40625 C227.365767,28.3977273 227.877131,28.3487216 228.286222,28.259233 C228.695312,28.1697443 229.010653,28.0823864 229.232244,27.9971591 L229.232244,27.9971591 L228.541903,24.8394886 C228.414062,24.8650568 228.235085,24.8991477 228.004972,24.9417614 C227.774858,24.984375 227.506392,25.0056818 227.199574,25.0056818 C226.78196,25.0056818 226.396307,24.9396307 226.042614,24.8075284 C225.68892,24.6754261 225.401278,24.4240057 225.179687,24.053267 C224.958097,23.6825284 224.847301,23.1264205 224.847301,22.3849432 L224.847301,22.3849432 L224.847,11.5825682 L228.87429,11.5823864 L228.87429,8.51420455 L224.847,8.51456818 L224.847301,3.80965909 L221.024858,3.80965909 L221.024,8.51456818 L218.148437,8.51420455 L218.148437,11.5823864 L221.024,11.5825682 L221.024858,23.1775568 C221.024858,24.2634943 221.250444,25.1811375 221.701616,25.9304865 L221.830256,26.1306818 C222.367187,26.9147727 223.070312,27.4943182 223.939631,27.8693182 C224.808949,28.2443182 225.746449,28.4232955 226.752131,28.40625 Z M242.642756,5.89346591 L239.664062,-1.42108547e-14 L235.637074,-1.42108547e-14 L239.587358,5.89346591 L242.642756,5.89346591 Z M238.807528,28.5852273 C239.889915,28.5852273 240.818892,28.4275568 241.59446,28.1122159 C242.370028,27.796875 243.004972,27.4005682 243.49929,26.9232955 C243.993608,26.4460227 244.364347,25.9602273 244.611506,25.4659091 L244.611506,25.4659091 L244.764915,25.4659091 L244.764915,28.1505682 L248.497869,28.1505682 L248.497869,15.1107955 C248.497869,13.6789773 248.25071,12.5134943 247.756392,11.6143466 C247.262074,10.7151989 246.629261,10.0227273 245.857955,9.53693182 C245.086648,9.05113636 244.259943,8.71661932 243.377841,8.53338068 C242.495739,8.35014205 241.662642,8.25852273 240.878551,8.25852273 C239.693892,8.25852273 238.564631,8.42684659 237.490767,8.76349432 C236.416903,9.10014205 235.46875,9.63707386 234.646307,10.3742898 C233.823864,11.1115057 233.199574,12.0767045 232.773437,13.2698864 L232.773437,13.2698864 L236.365767,14.0880682 C236.647017,13.3977273 237.15625,12.7691761 237.893466,12.2024148 C238.630682,11.6356534 239.642756,11.3522727 240.929687,11.3522727 C242.165483,11.3522727 243.096591,11.6590909 243.723011,12.2727273 C244.349432,12.8863636 244.662642,13.7514205 244.662642,14.8678977 L244.662642,14.8678977 L244.662642,14.9573864 C244.662642,15.4176136 244.496449,15.75 244.164062,15.9545455 C243.831676,16.1590909 243.299006,16.306108 242.566051,16.3955966 C241.833097,16.4850852 240.878551,16.5980114 239.702415,16.734375 C238.773437,16.8451705 237.861506,17.0071023 236.966619,17.2201705 C236.071733,17.4332386 235.262074,17.7485795 234.537642,18.1661932 C233.81321,18.5838068 233.237926,19.1505682 232.81179,19.8664773 C232.385653,20.5823864 232.172585,21.4943182 232.172585,22.6022727 C232.172585,23.8892045 232.464489,24.9758523 233.048295,25.8622159 C233.632102,26.7485795 234.426847,27.4240057 235.432528,27.8884943 C236.43821,28.352983 237.56321,28.5852273 238.807528,28.5852273 Z M239.638494,25.5170455 C238.556108,25.5170455 237.665483,25.2762784 236.966619,24.7947443 C236.267756,24.3132102 235.918324,23.5994318 235.918324,22.6534091 C235.918324,21.9715909 236.099432,21.4240057 236.461648,21.0106534 C236.823864,20.5973011 237.309659,20.2798295 237.919034,20.0582386 C238.528409,19.8366477 239.203835,19.6789773 239.945312,19.5852273 C240.260653,19.5426136 240.652699,19.4893466 241.121449,19.4254261 C241.590199,19.3615057 242.071733,19.2890625 242.566051,19.2080966 C243.060369,19.1271307 243.50142,19.0291193 243.889205,18.9140625 C244.276989,18.7990057 244.539062,18.6732955 244.675426,18.5369318 L244.675426,18.5369318 L244.675426,21.0681818 C244.675426,21.84375 244.477273,22.5703125 244.080966,23.2478693 C243.684659,23.9254261 243.109375,24.4730114 242.355114,24.890625 C241.600852,25.3082386 240.695312,25.5170455 239.638494,25.5170455 Z" id="Flessibilità" fill="#FFFFFF" fill-rule="nonzero"></path>
            <g id="widget/progress-bar/progress-bar" transform="translate(0.000000, 65.150568)">
                <rect id="Back" fill-opacity="0.15" fill="#FFFFFF" x="0" y="0" width="320" height="12" rx="6"></rect>
                <rect id="fill-10%" fill-opacity="0" fill="#FFFFFF" x="0" y="0" width="32" height="12" rx="6"></rect>
                <rect id="fill-20%" fill-opacity="0" fill="#FFFFFF" x="0" y="0" width="64" height="12" rx="6"></rect>
                <rect id="fill-30%" fill-opacity="0" fill="#FFFFFF" x="0" y="0" width="96" height="12" rx="6"></rect>
                <rect id="fill-40%" fill-opacity="0" fill="#FFFFFF" x="0" y="0" width="128" height="12" rx="6"></rect>
                <rect id="fill-50%" fill-opacity="0" fill="#FFFFFF" x="0" y="0" width="160" height="12" rx="6"></rect>
                <rect id="fill-60%" fill-opacity="0" fill="#FFFFFF" x="0" y="0" width="192" height="12" rx="6"></rect>
                <rect id="fill-70%" fill="#B8E986" x="0" y="0" width="224" height="12" rx="6"></rect>
                <rect id="fill-80%" fill-opacity="0" fill="#FFFFFF" x="0" y="0" width="256" height="12" rx="6"></rect>
                <rect id="fill-90%" fill-opacity="0" fill="#FFFFFF" x="0" y="0" width="288" height="12" rx="6"></rect>
                <rect id="fill-100%" fill-opacity="0" fill="#FFFFFF" x="0" y="0" width="320" height="12" rx="6"></rect>
            </g>
            <path d="M118.004261,135.150568 C120.03267,135.150568 121.698864,134.841619 123.002841,134.223722 C124.306818,133.605824 125.272017,132.766335 125.898438,131.705256 C126.524858,130.644176 126.838068,129.444602 126.838068,128.106534 C126.838068,126.75142 126.565341,125.600852 126.019886,124.65483 C125.474432,123.708807 124.786222,122.977983 123.955256,122.462358 C123.12429,121.946733 122.274148,121.667614 121.40483,121.625 L121.40483,121.625 L121.40483,121.369318 C122.205966,121.164773 122.941051,120.838778 123.610085,120.391335 C124.279119,119.943892 124.81392,119.347301 125.214489,118.601562 C125.615057,117.855824 125.815341,116.9375 125.815341,115.846591 C125.815341,114.551136 125.512784,113.385653 124.90767,112.350142 C124.302557,111.314631 123.390625,110.492188 122.171875,109.882812 C120.953125,109.273438 119.414773,108.96875 117.556818,108.96875 L117.556818,108.96875 L107.96875,108.96875 L107.96875,135.150568 L118.004261,135.150568 Z M117.211648,120.295455 L111.919034,120.295455 L111.919034,112.330966 L117.31392,112.330966 C118.882102,112.330966 120.045455,112.697443 120.803977,113.430398 C121.5625,114.163352 121.941761,115.071023 121.941761,116.153409 C121.941761,116.997159 121.730824,117.727983 121.308949,118.345881 C120.887074,118.963778 120.320313,119.443182 119.608665,119.784091 C118.897017,120.125 118.098011,120.295455 117.211648,120.295455 L117.211648,120.295455 Z M117.620739,131.762784 L111.919034,131.762784 L111.919034,123.37642 L117.761364,123.37642 C118.818182,123.37642 119.732244,123.580966 120.503551,123.990057 C121.274858,124.399148 121.869318,124.948864 122.286932,125.639205 C122.704545,126.329545 122.913352,127.088068 122.913352,127.914773 C122.913352,129.014205 122.504261,129.930398 121.68608,130.663352 C120.867898,131.396307 119.512784,131.762784 117.620739,131.762784 L117.620739,131.762784 Z M137.653409,135.40625 C139.127841,135.40625 140.361506,135.058949 141.354403,134.364347 C142.347301,133.669744 143.069602,132.798295 143.521307,131.75 L143.521307,131.75 L143.725852,131.75 L143.725852,135.150568 L147.484375,135.150568 L147.484375,115.514205 L143.649148,115.514205 L143.649148,127.007102 C143.65767,128.12358 143.425426,129.044034 142.952415,129.768466 C142.479403,130.492898 141.887074,131.034091 141.175426,131.392045 C140.463778,131.75 139.75,131.928977 139.034091,131.928977 C137.849432,131.928977 136.886364,131.53267 136.144886,130.740057 C135.403409,129.947443 135.03267,128.882102 135.03267,127.544034 L135.03267,127.544034 L135.03267,115.514205 L131.210227,115.514205 L131.210227,128.004261 C131.210227,129.62358 131.485085,130.982955 132.034801,132.082386 C132.584517,133.181818 133.34304,134.010653 134.310369,134.568892 C135.277699,135.127131 136.392045,135.40625 137.653409,135.40625 Z M160.882102,135.546875 C162.723011,135.546875 164.329545,135.125 165.701705,134.28125 C167.073864,133.4375 168.139205,132.257102 168.897727,130.740057 C169.65625,129.223011 170.035511,127.450284 170.035511,125.421875 C170.035511,123.384943 169.65625,121.603693 168.897727,120.078125 C168.139205,118.552557 167.073864,117.367898 165.701705,116.524148 C164.329545,115.680398 162.723011,115.258523 160.882102,115.258523 C159.041193,115.258523 157.434659,115.680398 156.0625,116.524148 C154.690341,117.367898 153.625,118.552557 152.866477,120.078125 C152.107955,121.603693 151.728693,123.384943 151.728693,125.421875 C151.728693,127.450284 152.107955,129.223011 152.866477,130.740057 C153.625,132.257102 154.690341,133.4375 156.0625,134.28125 C157.434659,135.125 159.041193,135.546875 160.882102,135.546875 Z M160.894886,132.338068 C159.693182,132.338068 158.698153,132.022727 157.909801,131.392045 C157.121449,130.761364 156.537642,129.921875 156.158381,128.87358 C155.779119,127.825284 155.589489,126.670455 155.589489,125.409091 C155.589489,124.15625 155.779119,123.003551 156.158381,121.950994 C156.537642,120.898437 157.121449,120.052557 157.909801,119.413352 C158.698153,118.774148 159.693182,118.454545 160.894886,118.454545 C162.088068,118.454545 163.076705,118.774148 163.860795,119.413352 C164.644886,120.052557 165.226563,120.898437 165.605824,121.950994 C165.985085,123.003551 166.174716,124.15625 166.174716,125.409091 C166.174716,126.670455 165.985085,127.825284 165.605824,128.87358 C165.226563,129.921875 164.644886,130.761364 163.860795,131.392045 C163.076705,132.022727 162.088068,132.338068 160.894886,132.338068 Z M178.115057,135.150568 L178.115057,123.491477 C178.115057,122.451705 178.31321,121.56321 178.709517,120.825994 C179.105824,120.088778 179.647017,119.528409 180.333097,119.144886 C181.019176,118.761364 181.805398,118.569602 182.691761,118.569602 C183.987216,118.569602 185.005682,118.972301 185.747159,119.777699 C186.488636,120.583097 186.859375,121.697443 186.859375,123.120739 L186.859375,123.120739 L186.859375,135.150568 L190.681818,135.150568 L190.681818,122.660511 C190.681818,121.041193 190.40483,119.681818 189.850852,118.582386 C189.296875,117.482955 188.517045,116.654119 187.511364,116.095881 C186.505682,115.537642 185.333807,115.258523 183.995739,115.258523 C182.521307,115.258523 181.300426,115.573864 180.333097,116.204545 C179.365767,116.835227 178.65625,117.670455 178.204545,118.710227 L178.204545,118.710227 L177.961648,118.710227 L177.961648,115.514205 L174.292614,115.514205 L174.292614,135.150568 L178.115057,135.150568 Z M204.066761,135.546875 C205.90767,135.546875 207.514205,135.125 208.886364,134.28125 C210.258523,133.4375 211.323864,132.257102 212.082386,130.740057 C212.840909,129.223011 213.22017,127.450284 213.22017,125.421875 C213.22017,123.384943 212.840909,121.603693 212.082386,120.078125 C211.323864,118.552557 210.258523,117.367898 208.886364,116.524148 C207.514205,115.680398 205.90767,115.258523 204.066761,115.258523 C202.225852,115.258523 200.619318,115.680398 199.247159,116.524148 C197.875,117.367898 196.809659,118.552557 196.051136,120.078125 C195.292614,121.603693 194.913352,123.384943 194.913352,125.421875 C194.913352,127.450284 195.292614,129.223011 196.051136,130.740057 C196.809659,132.257102 197.875,133.4375 199.247159,134.28125 C200.619318,135.125 202.225852,135.546875 204.066761,135.546875 Z M204.079545,132.338068 C202.877841,132.338068 201.882813,132.022727 201.09446,131.392045 C200.306108,130.761364 199.722301,129.921875 199.34304,128.87358 C198.963778,127.825284 198.774148,126.670455 198.774148,125.409091 C198.774148,124.15625 198.963778,123.003551 199.34304,121.950994 C199.722301,120.898437 200.306108,120.052557 201.09446,119.413352 C201.882813,118.774148 202.877841,118.454545 204.079545,118.454545 C205.272727,118.454545 206.261364,118.774148 207.045455,119.413352 C207.829545,120.052557 208.411222,120.898437 208.790483,121.950994 C209.169744,123.003551 209.359375,124.15625 209.359375,125.409091 C209.359375,126.670455 209.169744,127.825284 208.790483,128.87358 C208.411222,129.921875 207.829545,130.761364 207.045455,131.392045 C206.261364,132.022727 205.272727,132.338068 204.079545,132.338068 Z" id="Buono" fill="#FFFFFF" fill-rule="nonzero"></path>
            <path d="M596.93679,135.508523 C598.377131,135.508523 599.706676,135.295455 600.925426,134.869318 C602.144176,134.443182 603.228693,133.840199 604.178977,133.060369 C605.129261,132.28054 605.909091,131.351563 606.518466,130.273438 C607.127841,129.195313 607.539063,128.012784 607.752131,126.725852 L607.752131,126.725852 L603.763494,126.713068 C603.601563,127.548295 603.309659,128.287642 602.887784,128.931108 C602.465909,129.574574 601.952415,130.117898 601.347301,130.56108 C600.742188,131.004261 600.066761,131.338778 599.321023,131.564631 C598.575284,131.790483 597.789063,131.903409 596.962358,131.903409 C595.470881,131.903409 594.128551,131.528409 592.935369,130.778409 C591.742188,130.028409 590.802557,128.920455 590.116477,127.454545 C589.430398,125.988636 589.087358,124.190341 589.087358,122.059659 C589.087358,119.946023 589.430398,118.15625 590.116477,116.690341 C590.802557,115.224432 591.740057,114.112216 592.928977,113.353693 C594.117898,112.59517 595.466619,112.215909 596.975142,112.215909 C597.810369,112.215909 598.600852,112.330966 599.346591,112.56108 C600.09233,112.791193 600.767756,113.132102 601.372869,113.583807 C601.977983,114.035511 602.489347,114.585227 602.90696,115.232955 C603.324574,115.880682 603.610085,116.630682 603.763494,117.482955 L603.763494,117.482955 L607.752131,117.482955 C607.53054,116.076705 607.104403,114.825994 606.473722,113.730824 C605.84304,112.635653 605.046165,111.706676 604.083097,110.943892 C603.120028,110.181108 602.035511,109.601563 600.829545,109.205256 C599.62358,108.808949 598.325994,108.610795 596.93679,108.610795 C594.678267,108.610795 592.662642,109.149858 590.889915,110.227983 C589.117188,111.306108 587.71946,112.848722 586.696733,114.855824 C585.674006,116.862926 585.162642,119.264205 585.162642,122.059659 C585.162642,124.846591 585.671875,127.245739 586.690341,129.257102 C587.708807,131.268466 589.104403,132.81321 590.877131,133.891335 C592.649858,134.96946 594.669744,135.508523 596.93679,135.508523 Z M615.997869,135.150568 L615.997869,123.159091 C615.997869,122.306818 616.202415,121.546165 616.611506,120.877131 C617.020597,120.208097 617.576705,119.683949 618.27983,119.304688 C618.982955,118.925426 619.786222,118.735795 620.689631,118.735795 C621.081676,118.735795 621.473722,118.763494 621.865767,118.818892 C622.257813,118.87429 622.53054,118.923295 622.683949,118.965909 L622.683949,118.965909 L622.683949,115.309659 C622.496449,115.284091 622.238636,115.262784 621.910511,115.245739 C621.582386,115.228693 621.299006,115.22017 621.060369,115.22017 C619.909801,115.22017 618.880682,115.524858 617.973011,116.134233 C617.065341,116.743608 616.432528,117.576705 616.074574,118.633523 L616.074574,118.633523 L615.870028,118.633523 L615.870028,115.514205 L612.175426,115.514205 L612.175426,135.150568 L615.997869,135.150568 Z M627.93821,112.484375 C628.602983,112.484375 629.171875,112.260653 629.644886,111.81321 C630.117898,111.365767 630.354403,110.830966 630.354403,110.208807 C630.354403,109.578125 630.117898,109.039063 629.644886,108.591619 C629.171875,108.144176 628.602983,107.920455 627.93821,107.920455 C627.273438,107.920455 626.704545,108.144176 626.231534,108.591619 C625.758523,109.039063 625.522017,109.578125 625.522017,110.208807 C625.522017,110.830966 625.758523,111.365767 626.231534,111.81321 C626.704545,112.260653 627.273438,112.484375 627.93821,112.484375 Z M629.830256,135.150568 L629.830256,115.514205 L626.007813,115.514205 L626.007813,135.150568 L629.830256,135.150568 Z M642.013494,135.40625 C642.627131,135.397727 643.138494,135.348722 643.547585,135.259233 C643.956676,135.169744 644.272017,135.082386 644.493608,134.997159 L644.493608,134.997159 L643.803267,131.839489 C643.675426,131.865057 643.496449,131.899148 643.266335,131.941761 C643.036222,131.984375 642.767756,132.005682 642.460938,132.005682 C642.043324,132.005682 641.65767,131.939631 641.303977,131.807528 C640.950284,131.675426 640.662642,131.424006 640.441051,131.053267 C640.21946,130.682528 640.108665,130.12642 640.108665,129.384943 L640.108665,129.384943 L640.108,118.582568 L644.135653,118.582386 L644.135653,115.514205 L640.108,115.514568 L640.108665,110.809659 L636.286222,110.809659 L636.286,115.514568 L633.409801,115.514205 L633.409801,118.582386 L636.286,118.582568 L636.286222,130.177557 C636.286222,131.263494 636.511808,132.181138 636.962979,132.930487 L637.091619,133.130682 C637.628551,133.914773 638.331676,134.494318 639.200994,134.869318 C640.070313,135.244318 641.007813,135.423295 642.013494,135.40625 Z M650.284801,112.484375 C650.949574,112.484375 651.518466,112.260653 651.991477,111.81321 C652.464489,111.365767 652.700994,110.830966 652.700994,110.208807 C652.700994,109.578125 652.464489,109.039063 651.991477,108.591619 C651.518466,108.144176 650.949574,107.920455 650.284801,107.920455 C649.620028,107.920455 649.051136,108.144176 648.578125,108.591619 C648.105114,109.039063 647.868608,109.578125 647.868608,110.208807 C647.868608,110.830966 648.105114,111.365767 648.578125,111.81321 C649.051136,112.260653 649.620028,112.484375 650.284801,112.484375 Z M652.176847,135.150568 L652.176847,115.514205 L648.354403,115.514205 L648.354403,135.150568 L652.176847,135.150568 Z M665.587358,135.546875 C667.138494,135.546875 668.491477,135.261364 669.646307,134.690341 C670.801136,134.119318 671.723722,133.335227 672.414063,132.338068 C673.104403,131.340909 673.517756,130.207386 673.654119,128.9375 L673.654119,128.9375 L669.933949,128.9375 C669.772017,129.644886 669.488636,130.25 669.083807,130.752841 C668.678977,131.255682 668.180398,131.641335 667.588068,131.909801 C666.995739,132.178267 666.337358,132.3125 665.612926,132.3125 C664.53054,132.3125 663.590909,132.026989 662.794034,131.455966 C661.997159,130.884943 661.381392,130.079545 660.946733,129.039773 C660.512074,128 660.294744,126.764205 660.294744,125.332386 C660.294744,123.934659 660.516335,122.722301 660.959517,121.695313 C661.402699,120.668324 662.022727,119.87571 662.819602,119.317472 C663.616477,118.759233 664.547585,118.480114 665.612926,118.480114 C666.831676,118.480114 667.805398,118.8125 668.534091,119.477273 C669.262784,120.142045 669.729403,120.934659 669.933949,121.855114 L669.933949,121.855114 L673.654119,121.855114 C673.517756,120.534091 673.089489,119.379261 672.369318,118.390625 C671.649148,117.401989 670.705256,116.632813 669.537642,116.083097 C668.370028,115.533381 667.040483,115.258523 665.549006,115.258523 C663.699574,115.258523 662.09304,115.68892 660.729403,116.549716 C659.365767,117.410511 658.308949,118.605824 657.558949,120.135653 C656.808949,121.665483 656.433949,123.427557 656.433949,125.421875 C656.433949,127.390625 656.800426,129.137784 657.533381,130.663352 C658.266335,132.18892 659.316761,133.384233 660.684659,134.24929 C662.052557,135.114347 663.68679,135.546875 665.587358,135.546875 Z M686.029119,135.546875 C687.870028,135.546875 689.476563,135.125 690.848722,134.28125 C692.220881,133.4375 693.286222,132.257102 694.044744,130.740057 C694.803267,129.223011 695.182528,127.450284 695.182528,125.421875 C695.182528,123.384943 694.803267,121.603693 694.044744,120.078125 C693.286222,118.552557 692.220881,117.367898 690.848722,116.524148 C689.476563,115.680398 687.870028,115.258523 686.029119,115.258523 C684.18821,115.258523 682.581676,115.680398 681.209517,116.524148 C679.837358,117.367898 678.772017,118.552557 678.013494,120.078125 C677.254972,121.603693 676.87571,123.384943 676.87571,125.421875 C676.87571,127.450284 677.254972,129.223011 678.013494,130.740057 C678.772017,132.257102 679.837358,133.4375 681.209517,134.28125 C682.581676,135.125 684.18821,135.546875 686.029119,135.546875 Z M686.041903,132.338068 C684.840199,132.338068 683.84517,132.022727 683.056818,131.392045 C682.268466,130.761364 681.684659,129.921875 681.305398,128.87358 C680.926136,127.825284 680.736506,126.670455 680.736506,125.409091 C680.736506,124.15625 680.926136,123.003551 681.305398,121.950994 C681.684659,120.898438 682.268466,120.052557 683.056818,119.413352 C683.84517,118.774148 684.840199,118.454545 686.041903,118.454545 C687.235085,118.454545 688.223722,118.774148 689.007813,119.413352 C689.791903,120.052557 690.37358,120.898438 690.752841,121.950994 C691.132102,123.003551 691.321733,124.15625 691.321733,125.409091 C691.321733,126.670455 691.132102,127.825284 690.752841,128.87358 C690.37358,129.921875 689.791903,130.761364 689.007813,131.392045 C688.223722,132.022727 687.235085,132.338068 686.041903,132.338068 Z" id="Critico" fill="#FFFFFF" fill-rule="nonzero"></path>
            <path d="M1017.40128,135.150568 C1020.06037,135.150568 1022.32741,134.62429 1024.20241,133.571733 C1026.07741,132.519176 1027.51136,131.012784 1028.50426,129.052557 C1029.49716,127.09233 1029.99361,124.74858 1029.99361,122.021307 C1029.99361,119.302557 1029.50142,116.96946 1028.51705,115.022017 C1027.53267,113.074574 1026.12003,111.578835 1024.27912,110.534801 C1022.43821,109.490767 1020.23509,108.96875 1017.66974,108.96875 L1017.66974,108.96875 L1008.92543,108.96875 L1008.92543,135.150568 L1017.40128,135.150568 Z M1017.18395,131.698864 L1012.87571,131.698864 L1012.87571,112.420455 L1017.42685,112.420455 C1019.33594,112.420455 1020.93395,112.791193 1022.22088,113.53267 C1023.50781,114.274148 1024.47727,115.360795 1025.12926,116.792614 C1025.78125,118.224432 1026.10724,119.96733 1026.10724,122.021307 C1026.10724,124.09233 1025.77912,125.845881 1025.12287,127.28196 C1024.46662,128.71804 1023.47798,129.81321 1022.15696,130.567472 C1020.83594,131.321733 1019.17827,131.698864 1017.18395,131.698864 L1017.18395,131.698864 Z M1040.31037,135.585227 C1041.39276,135.585227 1042.32173,135.427557 1043.0973,135.112216 C1043.87287,134.796875 1044.50781,134.400568 1045.00213,133.923295 C1045.49645,133.446023 1045.86719,132.960227 1046.11435,132.465909 L1046.11435,132.465909 L1046.26776,132.465909 L1046.26776,135.150568 L1050.00071,135.150568 L1050.00071,122.110795 C1050.00071,120.678977 1049.75355,119.513494 1049.25923,118.614347 C1048.76491,117.715199 1048.1321,117.022727 1047.3608,116.536932 C1046.58949,116.051136 1045.76278,115.716619 1044.88068,115.533381 C1043.99858,115.350142 1043.16548,115.258523 1042.38139,115.258523 C1041.19673,115.258523 1040.06747,115.426847 1038.99361,115.763494 C1037.91974,116.100142 1036.97159,116.637074 1036.14915,117.37429 C1035.3267,118.111506 1034.70241,119.076705 1034.27628,120.269886 L1034.27628,120.269886 L1037.86861,121.088068 C1038.14986,120.397727 1038.65909,119.769176 1039.39631,119.202415 C1040.13352,118.635653 1041.1456,118.352273 1042.43253,118.352273 C1043.66832,118.352273 1044.59943,118.659091 1045.22585,119.272727 C1045.85227,119.886364 1046.16548,120.75142 1046.16548,121.867898 L1046.16548,121.867898 L1046.16548,121.957386 C1046.16548,122.417614 1045.99929,122.75 1045.6669,122.954545 C1045.33452,123.159091 1044.80185,123.306108 1044.06889,123.395597 C1043.33594,123.485085 1042.38139,123.598011 1041.20526,123.734375 C1040.27628,123.84517 1039.36435,124.007102 1038.46946,124.22017 C1037.57457,124.433239 1036.76491,124.74858 1036.04048,125.166193 C1035.31605,125.583807 1034.74077,126.150568 1034.31463,126.866477 C1033.88849,127.582386 1033.67543,128.494318 1033.67543,129.602273 C1033.67543,130.889205 1033.96733,131.975852 1034.55114,132.862216 C1035.13494,133.74858 1035.92969,134.424006 1036.93537,134.888494 C1037.94105,135.352983 1039.06605,135.585227 1040.31037,135.585227 Z M1041.14134,132.517045 C1040.05895,132.517045 1039.16832,132.276278 1038.46946,131.794744 C1037.7706,131.31321 1037.42116,130.599432 1037.42116,129.653409 C1037.42116,128.971591 1037.60227,128.424006 1037.96449,128.010653 C1038.3267,127.597301 1038.8125,127.27983 1039.42188,127.058239 C1040.03125,126.836648 1040.70668,126.678977 1041.44815,126.585227 C1041.76349,126.542614 1042.15554,126.489347 1042.62429,126.425426 C1043.09304,126.361506 1043.57457,126.289062 1044.06889,126.208097 C1044.56321,126.127131 1045.00426,126.029119 1045.39205,125.914062 C1045.77983,125.799006 1046.0419,125.673295 1046.17827,125.536932 L1046.17827,125.536932 L1046.17827,128.068182 C1046.17827,128.84375 1045.98011,129.570312 1045.58381,130.247869 C1045.1875,130.925426 1044.61222,131.473011 1043.85795,131.890625 C1043.10369,132.308239 1042.19815,132.517045 1041.14134,132.517045 Z M1068.44815,135.150568 L1068.44815,123.044034 C1068.44815,122.15767 1068.63352,121.377841 1069.00426,120.704545 C1069.375,120.03125 1069.86506,119.504972 1070.47443,119.12571 C1071.08381,118.746449 1071.75071,118.556818 1072.47514,118.556818 C1073.54048,118.556818 1074.40554,118.880682 1075.07031,119.528409 C1075.73509,120.176136 1076.06747,121.03267 1076.06747,122.098011 L1076.06747,122.098011 L1076.06747,135.150568 L1079.87713,135.150568 L1079.87713,122.634943 C1079.87713,121.441761 1080.2223,120.463778 1080.91264,119.700994 C1081.60298,118.93821 1082.57031,118.556818 1083.81463,118.556818 C1084.82031,118.556818 1085.68537,118.855114 1086.4098,119.451705 C1087.13423,120.048295 1087.49645,121.011364 1087.49645,122.340909 L1087.49645,122.340909 L1087.49645,135.150568 L1091.31889,135.150568 L1091.31889,121.982955 C1091.31889,119.732955 1090.75426,118.049716 1089.625,116.933239 C1088.49574,115.816761 1087.04048,115.258523 1085.25923,115.258523 C1083.84446,115.258523 1082.62571,115.571733 1081.60298,116.198153 C1080.58026,116.824574 1079.83452,117.661932 1079.36577,118.710227 L1079.36577,118.710227 L1079.16122,118.710227 C1078.73509,117.636364 1078.0767,116.792614 1077.18608,116.178977 C1076.29545,115.565341 1075.19389,115.258523 1073.88139,115.258523 C1072.58594,115.258523 1071.47372,115.56321 1070.54474,116.172585 C1069.61577,116.78196 1068.94673,117.627841 1068.53764,118.710227 L1068.53764,118.710227 L1068.29474,118.710227 L1068.29474,115.514205 L1064.62571,115.514205 L1064.62571,135.150568 L1068.44815,135.150568 Z M1098.36293,112.484375 C1099.0277,112.484375 1099.59659,112.260653 1100.0696,111.81321 C1100.54261,111.365767 1100.77912,110.830966 1100.77912,110.208807 C1100.77912,109.578125 1100.54261,109.039062 1100.0696,108.591619 C1099.59659,108.144176 1099.0277,107.920455 1098.36293,107.920455 C1097.69815,107.920455 1097.12926,108.144176 1096.65625,108.591619 C1096.18324,109.039062 1095.94673,109.578125 1095.94673,110.208807 C1095.94673,110.830966 1096.18324,111.365767 1096.65625,111.81321 C1097.12926,112.260653 1097.69815,112.484375 1098.36293,112.484375 Z M1100.25497,135.150568 L1100.25497,115.514205 L1096.43253,115.514205 L1096.43253,135.150568 L1100.25497,135.150568 Z M1113.62713,142.884943 C1115.29759,142.884943 1116.79972,142.625 1118.13352,142.105114 C1119.46733,141.585227 1120.52628,140.786222 1121.31037,139.708097 C1122.09446,138.629972 1122.48651,137.255682 1122.48651,135.585227 L1122.48651,135.585227 L1122.48651,115.514205 L1118.74077,115.514205 L1118.74077,118.697443 L1118.45952,118.697443 C1118.2294,118.288352 1117.90341,117.815341 1117.48153,117.278409 C1117.05966,116.741477 1116.47372,116.270597 1115.72372,115.865767 C1114.97372,115.460938 1113.98935,115.258523 1112.7706,115.258523 C1111.19389,115.258523 1109.78338,115.65696 1108.53906,116.453835 C1107.29474,117.25071 1106.31676,118.394886 1105.60511,119.886364 C1104.89347,121.377841 1104.53764,123.167614 1104.53764,125.255682 C1104.53764,127.34375 1104.89773,129.101562 1105.6179,130.529119 C1106.33807,131.956676 1107.31818,133.034801 1108.55824,133.763494 C1109.7983,134.492187 1111.19389,134.856534 1112.74503,134.856534 C1113.94673,134.856534 1114.92259,134.669034 1115.67259,134.294034 C1116.42259,133.919034 1117.01278,133.475852 1117.44318,132.964489 C1117.87358,132.453125 1118.20384,131.988636 1118.43395,131.571023 L1118.43395,131.571023 L1118.67685,131.571023 L1118.67685,135.431818 C1118.67685,136.948864 1118.20384,138.056818 1117.25781,138.755682 C1116.31179,139.454545 1115.11435,139.803977 1113.66548,139.803977 C1112.60866,139.803977 1111.74574,139.65483 1111.0767,139.356534 C1110.40767,139.058239 1109.87926,138.700284 1109.49148,138.28267 C1109.10369,137.865057 1108.79474,137.477273 1108.56463,137.119318 L1108.56463,137.119318 L1105.27912,138.474432 C1105.62855,139.258523 1106.15696,139.985085 1106.86435,140.654119 C1107.57173,141.323153 1108.4858,141.862216 1109.60653,142.271307 C1110.72727,142.680398 1112.06747,142.884943 1113.62713,142.884943 Z M1113.58878,131.68608 C1112.45526,131.68608 1111.50284,131.413352 1110.73153,130.867898 C1109.96023,130.322443 1109.37855,129.56392 1108.98651,128.59233 C1108.59446,127.620739 1108.39844,126.491477 1108.39844,125.204545 C1108.39844,123.951705 1108.59233,122.818182 1108.98011,121.803977 C1109.3679,120.789773 1109.94531,119.986506 1110.71236,119.394176 C1111.4794,118.801847 1112.43821,118.505682 1113.58878,118.505682 C1114.70526,118.505682 1115.64276,118.789062 1116.40128,119.355824 C1117.1598,119.922585 1117.73509,120.708807 1118.12713,121.714489 C1118.51918,122.72017 1118.7152,123.883523 1118.7152,125.204545 C1118.7152,126.559659 1118.51705,127.720881 1118.12074,128.68821 C1117.72443,129.65554 1117.14489,130.397017 1116.3821,130.912642 C1115.61932,131.428267 1114.68821,131.68608 1113.58878,131.68608 Z M1131.43537,135.150568 L1131.43537,108.96875 L1127.61293,108.96875 L1127.61293,135.150568 L1131.43537,135.150568 Z M1138.50497,112.484375 C1139.16974,112.484375 1139.73864,112.260653 1140.21165,111.81321 C1140.68466,111.365767 1140.92116,110.830966 1140.92116,110.208807 C1140.92116,109.578125 1140.68466,109.039062 1140.21165,108.591619 C1139.73864,108.144176 1139.16974,107.920455 1138.50497,107.920455 C1137.8402,107.920455 1137.27131,108.144176 1136.7983,108.591619 C1136.32528,109.039062 1136.08878,109.578125 1136.08878,110.208807 C1136.08878,110.830966 1136.32528,111.365767 1136.7983,111.81321 C1137.27131,112.260653 1137.8402,112.484375 1138.50497,112.484375 Z M1140.39702,135.150568 L1140.39702,115.514205 L1136.57457,115.514205 L1136.57457,135.150568 L1140.39702,135.150568 Z M1153.80753,135.546875 C1155.64844,135.546875 1157.25497,135.125 1158.62713,134.28125 C1159.99929,133.4375 1161.06463,132.257102 1161.82315,130.740057 C1162.58168,129.223011 1162.96094,127.450284 1162.96094,125.421875 C1162.96094,123.384943 1162.58168,121.603693 1161.82315,120.078125 C1161.06463,118.552557 1159.99929,117.367898 1158.62713,116.524148 C1157.25497,115.680398 1155.64844,115.258523 1153.80753,115.258523 C1151.96662,115.258523 1150.36009,115.680398 1148.98793,116.524148 C1147.61577,117.367898 1146.55043,118.552557 1145.7919,120.078125 C1145.03338,121.603693 1144.65412,123.384943 1144.65412,125.421875 C1144.65412,127.450284 1145.03338,129.223011 1145.7919,130.740057 C1146.55043,132.257102 1147.61577,133.4375 1148.98793,134.28125 C1150.36009,135.125 1151.96662,135.546875 1153.80753,135.546875 Z M1153.82031,132.338068 C1152.61861,132.338068 1151.62358,132.022727 1150.83523,131.392045 C1150.04688,130.761364 1149.46307,129.921875 1149.08381,128.87358 C1148.70455,127.825284 1148.51491,126.670455 1148.51491,125.409091 C1148.51491,124.15625 1148.70455,123.003551 1149.08381,121.950994 C1149.46307,120.898437 1150.04688,120.052557 1150.83523,119.413352 C1151.62358,118.774148 1152.61861,118.454545 1153.82031,118.454545 C1155.01349,118.454545 1156.00213,118.774148 1156.78622,119.413352 C1157.57031,120.052557 1158.15199,120.898437 1158.53125,121.950994 C1158.91051,123.003551 1159.10014,124.15625 1159.10014,125.409091 C1159.10014,126.670455 1158.91051,127.825284 1158.53125,128.87358 C1158.15199,129.921875 1157.57031,130.761364 1156.78622,131.392045 C1156.00213,132.022727 1155.01349,132.338068 1153.82031,132.338068 Z M1171.04048,135.150568 L1171.04048,123.159091 C1171.04048,122.306818 1171.24503,121.546165 1171.65412,120.877131 C1172.06321,120.208097 1172.61932,119.683949 1173.32244,119.304688 C1174.02557,118.925426 1174.82884,118.735795 1175.73224,118.735795 C1176.12429,118.735795 1176.51634,118.763494 1176.90838,118.818892 C1177.30043,118.87429 1177.57315,118.923295 1177.72656,118.965909 L1177.72656,118.965909 L1177.72656,115.309659 C1177.53906,115.284091 1177.28125,115.262784 1176.95313,115.245739 C1176.625,115.228693 1176.34162,115.22017 1176.10298,115.22017 C1174.95241,115.22017 1173.9233,115.524858 1173.01563,116.134233 C1172.10795,116.743608 1171.47514,117.576705 1171.11719,118.633523 L1171.11719,118.633523 L1170.91264,118.633523 L1170.91264,115.514205 L1167.21804,115.514205 L1167.21804,135.150568 L1171.04048,135.150568 Z M1186.76491,135.585227 C1187.8473,135.585227 1188.77628,135.427557 1189.55185,135.112216 C1190.32741,134.796875 1190.96236,134.400568 1191.45668,133.923295 C1191.95099,133.446023 1192.32173,132.960227 1192.56889,132.465909 L1192.56889,132.465909 L1192.7223,132.465909 L1192.7223,135.150568 L1196.45526,135.150568 L1196.45526,122.110795 C1196.45526,120.678977 1196.2081,119.513494 1195.71378,118.614347 C1195.21946,117.715199 1194.58665,117.022727 1193.81534,116.536932 C1193.04403,116.051136 1192.21733,115.716619 1191.33523,115.533381 C1190.45312,115.350142 1189.62003,115.258523 1188.83594,115.258523 C1187.65128,115.258523 1186.52202,115.426847 1185.44815,115.763494 C1184.37429,116.100142 1183.42614,116.637074 1182.60369,117.37429 C1181.78125,118.111506 1181.15696,119.076705 1180.73082,120.269886 L1180.73082,120.269886 L1184.32315,121.088068 C1184.6044,120.397727 1185.11364,119.769176 1185.85085,119.202415 C1186.58807,118.635653 1187.60014,118.352273 1188.88707,118.352273 C1190.12287,118.352273 1191.05398,118.659091 1191.6804,119.272727 C1192.30682,119.886364 1192.62003,120.75142 1192.62003,121.867898 L1192.62003,121.867898 L1192.62003,121.957386 C1192.62003,122.417614 1192.45384,122.75 1192.12145,122.954545 C1191.78906,123.159091 1191.25639,123.306108 1190.52344,123.395597 C1189.79048,123.485085 1188.83594,123.598011 1187.6598,123.734375 C1186.73082,123.84517 1185.81889,124.007102 1184.92401,124.22017 C1184.02912,124.433239 1183.21946,124.74858 1182.49503,125.166193 C1181.7706,125.583807 1181.19531,126.150568 1180.76918,126.866477 C1180.34304,127.582386 1180.12997,128.494318 1180.12997,129.602273 C1180.12997,130.889205 1180.42188,131.975852 1181.00568,132.862216 C1181.58949,133.74858 1182.38423,134.424006 1183.38991,134.888494 C1184.3956,135.352983 1185.5206,135.585227 1186.76491,135.585227 Z M1187.59588,132.517045 C1186.51349,132.517045 1185.62287,132.276278 1184.92401,131.794744 C1184.22514,131.31321 1183.87571,130.599432 1183.87571,129.653409 C1183.87571,128.971591 1184.05682,128.424006 1184.41903,128.010653 C1184.78125,127.597301 1185.26705,127.27983 1185.87642,127.058239 C1186.4858,126.836648 1187.16122,126.678977 1187.9027,126.585227 C1188.21804,126.542614 1188.61009,126.489347 1189.07884,126.425426 C1189.54759,126.361506 1190.02912,126.289062 1190.52344,126.208097 C1191.01776,126.127131 1191.45881,126.029119 1191.84659,125.914062 C1192.23438,125.799006 1192.49645,125.673295 1192.63281,125.536932 L1192.63281,125.536932 L1192.63281,128.068182 C1192.63281,128.84375 1192.43466,129.570312 1192.03835,130.247869 C1191.64205,130.925426 1191.06676,131.473011 1190.3125,131.890625 C1189.55824,132.308239 1188.6527,132.517045 1187.59588,132.517045 Z M1205.36577,135.150568 L1205.36577,123.159091 C1205.36577,122.306818 1205.57031,121.546165 1205.9794,120.877131 C1206.38849,120.208097 1206.9446,119.683949 1207.64773,119.304688 C1208.35085,118.925426 1209.15412,118.735795 1210.05753,118.735795 C1210.44957,118.735795 1210.84162,118.763494 1211.23366,118.818892 C1211.62571,118.87429 1211.89844,118.923295 1212.05185,118.965909 L1212.05185,118.965909 L1212.05185,115.309659 C1211.86435,115.284091 1211.60653,115.262784 1211.27841,115.245739 C1210.95028,115.228693 1210.6669,115.22017 1210.42827,115.22017 C1209.2777,115.22017 1208.24858,115.524858 1207.34091,116.134233 C1206.43324,116.743608 1205.80043,117.576705 1205.44247,118.633523 L1205.44247,118.633523 L1205.23793,118.633523 L1205.23793,115.514205 L1201.54332,115.514205 L1201.54332,135.150568 L1205.36577,135.150568 Z M1223.83878,135.546875 C1225.2706,135.546875 1226.54688,135.327415 1227.66761,134.888494 C1228.78835,134.449574 1229.72159,133.831676 1230.46733,133.034801 C1231.21307,132.237926 1231.73082,131.306818 1232.0206,130.241477 L1232.0206,130.241477 L1228.4027,129.589489 C1228.17259,130.203125 1227.8402,130.71875 1227.40554,131.136364 C1226.97088,131.553977 1226.45526,131.867187 1225.85866,132.075994 C1225.26207,132.284801 1224.60156,132.389205 1223.87713,132.389205 C1222.76065,132.389205 1221.7848,132.148438 1220.94957,131.666903 C1220.11435,131.185369 1219.46449,130.484375 1219,129.56392 C1218.53551,128.643466 1218.30327,127.526989 1218.30327,126.214489 L1218.308,126.483568 L1232.26349,126.482955 L1232.26349,125.127841 C1232.26349,123.346591 1232.02486,121.831676 1231.54759,120.583097 C1231.07031,119.334517 1230.41832,118.318182 1229.59162,117.534091 C1228.76491,116.75 1227.83168,116.174716 1226.7919,115.808239 C1225.75213,115.441761 1224.67827,115.258523 1223.57031,115.258523 C1221.74645,115.258523 1220.15483,115.68892 1218.79545,116.549716 C1217.43608,117.410511 1216.37926,118.607955 1215.625,120.142045 C1214.87074,121.676136 1214.49361,123.448864 1214.49361,125.460227 C1214.49361,127.497159 1214.87074,129.272017 1215.625,130.784801 C1216.37926,132.297585 1217.45312,133.46946 1218.84659,134.300426 C1220.24006,135.131392 1221.90412,135.546875 1223.83878,135.546875 Z M1218.33515,123.33428 C1218.40954,122.596275 1218.61411,121.900805 1218.94886,121.247869 C1219.37926,120.408381 1219.9929,119.726562 1220.78977,119.202415 C1221.58665,118.678267 1222.52202,118.416193 1223.59588,118.416193 C1224.58452,118.416193 1225.44744,118.642045 1226.18466,119.09375 C1226.92188,119.545455 1227.49503,120.161222 1227.90412,120.941051 C1228.31321,121.720881 1228.51776,122.613636 1228.51776,123.619318 L1228.51776,123.619318 L1218.314,123.619568 L1218.33515,123.33428 Z" id="Damigliorare" fill="#FFFFFF" fill-rule="nonzero"></path>
        </g>
    </g>
</svg>