<?xml version="1.0" encoding="UTF-8"?>
<svg width="1280px" height="78px" viewBox="0 0 1280 78" version="1.1" xmlns="http://www.w3.org/2000/svg" xmlns:xlink="http://www.w3.org/1999/xlink">
    <!-- Generator: Sketch 64 (93537) - https://sketch.com -->
    <title>valutazione</title>
    <desc>Created with Sketch.</desc>
    <g id="Page-1" stroke="none" stroke-width="1" fill="none" fill-rule="evenodd">
        <g id="MPG/overview" transform="translate(-440.000000, -564.000000)" fill="#FFFFFF">
            <g id="Group" transform="translate(400.000000, 342.000000)">
                <g id="valutazione" transform="translate(0.000000, 216.000000)">
                    <path d="M1118.34943,35 L1118.34943,23.5838068 L1129.47159,23.5838068 L1129.47159,20.1960227 L1118.34943,20.1960227 L1118.34943,12.21875 L1130.63494,12.21875 L1130.63494,8.81818182 L1114.39915,8.81818182 L1114.39915,35 L1118.34943,35 Z M1143.45739,35.3963068 C1145.2983,35.3963068 1146.90483,34.9744318 1148.27699,34.1306818 C1149.64915,33.2869318 1150.71449,32.1065341 1151.47301,30.5894886 C1152.23153,29.0724432 1152.6108,27.2997159 1152.6108,25.2713068 C1152.6108,23.234375 1152.23153,21.453125 1151.47301,19.9275568 C1150.71449,18.4019886 1149.64915,17.2173295 1148.27699,16.3735795 C1146.90483,15.5298295 1145.2983,15.1079545 1143.45739,15.1079545 C1141.61648,15.1079545 1140.00994,15.5298295 1138.63778,16.3735795 C1137.26562,17.2173295 1136.20028,18.4019886 1135.44176,19.9275568 C1134.68324,21.453125 1134.30398,23.234375 1134.30398,25.2713068 C1134.30398,27.2997159 1134.68324,29.0724432 1135.44176,30.5894886 C1136.20028,32.1065341 1137.26562,33.2869318 1138.63778,34.1306818 C1140.00994,34.9744318 1141.61648,35.3963068 1143.45739,35.3963068 Z M1143.47017,32.1875 C1142.26847,32.1875 1141.27344,31.8721591 1140.48509,31.2414773 C1139.69673,30.6107955 1139.11293,29.7713068 1138.73366,28.7230114 C1138.3544,27.6747159 1138.16477,26.5198864 1138.16477,25.2585227 C1138.16477,24.0056818 1138.3544,22.852983 1138.73366,21.8004261 C1139.11293,20.7478693 1139.69673,19.9019886 1140.48509,19.2627841 C1141.27344,18.6235795 1142.26847,18.3039773 1143.47017,18.3039773 C1144.66335,18.3039773 1145.65199,18.6235795 1146.43608,19.2627841 C1147.22017,19.9019886 1147.80185,20.7478693 1148.18111,21.8004261 C1148.56037,22.852983 1148.75,24.0056818 1148.75,25.2585227 C1148.75,26.5198864 1148.56037,27.6747159 1148.18111,28.7230114 C1147.80185,29.7713068 1147.22017,30.6107955 1146.43608,31.2414773 C1145.65199,31.8721591 1144.66335,32.1875 1143.47017,32.1875 Z M1160.69034,35 L1160.69034,23.0085227 C1160.69034,22.15625 1160.89489,21.3955966 1161.30398,20.7265625 C1161.71307,20.0575284 1162.26918,19.5333807 1162.9723,19.1541193 C1163.67543,18.774858 1164.47869,18.5852273 1165.3821,18.5852273 C1165.77415,18.5852273 1166.16619,18.6129261 1166.55824,18.6683239 C1166.95028,18.7237216 1167.22301,18.7727273 1167.37642,18.8153409 L1167.37642,18.8153409 L1167.37642,15.1590909 C1167.18892,15.1335227 1166.93111,15.1122159 1166.60298,15.0951705 C1166.27486,15.078125 1165.99148,15.0696023 1165.75284,15.0696023 C1164.60227,15.0696023 1163.57315,15.3742898 1162.66548,15.9836648 C1161.75781,16.5930398 1161.125,17.4261364 1160.76705,18.4829545 L1160.76705,18.4829545 L1160.5625,18.4829545 L1160.5625,15.3636364 L1156.8679,15.3636364 L1156.8679,35 L1160.69034,35 Z M1186.05398,35 L1186.05398,31.6761364 L1175.46875,31.6761364 L1175.46875,31.4971591 L1185.69602,18.1505682 L1185.69602,15.3636364 L1170.63636,15.3636364 L1170.63636,18.6875 L1180.92756,18.6875 L1180.92756,18.8664773 L1170.29119,32.3792614 L1170.29119,35 L1186.05398,35 Z M1196.26847,35.4346591 C1197.35085,35.4346591 1198.27983,35.2769886 1199.0554,34.9616477 C1199.83097,34.6463068 1200.46591,34.25 1200.96023,33.7727273 C1201.45455,33.2954545 1201.82528,32.8096591 1202.07244,32.3153409 L1202.07244,32.3153409 L1202.22585,32.3153409 L1202.22585,35 L1205.95881,35 L1205.95881,21.9602273 C1205.95881,20.5284091 1205.71165,19.3629261 1205.21733,18.4637784 C1204.72301,17.5646307 1204.0902,16.8721591 1203.31889,16.3863636 C1202.54759,15.9005682 1201.72088,15.5660511 1200.83878,15.3828125 C1199.95668,15.1995739 1199.12358,15.1079545 1198.33949,15.1079545 C1197.15483,15.1079545 1196.02557,15.2762784 1194.9517,15.6129261 C1193.87784,15.9495739 1192.92969,16.4865057 1192.10724,17.2237216 C1191.2848,17.9609375 1190.66051,18.9261364 1190.23438,20.1193182 L1190.23438,20.1193182 L1193.8267,20.9375 C1194.10795,20.2471591 1194.61719,19.618608 1195.3544,19.0518466 C1196.09162,18.4850852 1197.10369,18.2017045 1198.39062,18.2017045 C1199.62642,18.2017045 1200.55753,18.5085227 1201.18395,19.1221591 C1201.81037,19.7357955 1202.12358,20.6008523 1202.12358,21.7173295 L1202.12358,21.7173295 L1202.12358,21.8068182 C1202.12358,22.2670455 1201.95739,22.5994318 1201.625,22.8039773 C1201.29261,23.0085227 1200.75994,23.1555398 1200.02699,23.2450284 C1199.29403,23.334517 1198.33949,23.4474432 1197.16335,23.5838068 C1196.23438,23.6946023 1195.32244,23.8565341 1194.42756,24.0696023 C1193.53267,24.2826705 1192.72301,24.5980114 1191.99858,25.015625 C1191.27415,25.4332386 1190.69886,26 1190.27273,26.7159091 C1189.84659,27.4318182 1189.63352,28.34375 1189.63352,29.4517045 C1189.63352,30.7386364 1189.92543,31.8252841 1190.50923,32.7116477 C1191.09304,33.5980114 1191.88778,34.2734375 1192.89347,34.7379261 C1193.89915,35.2024148 1195.02415,35.4346591 1196.26847,35.4346591 Z M1197.09943,32.3664773 C1196.01705,32.3664773 1195.12642,32.1257102 1194.42756,31.6441761 C1193.72869,31.162642 1193.37926,30.4488636 1193.37926,29.5028409 C1193.37926,28.8210227 1193.56037,28.2734375 1193.92259,27.8600852 C1194.2848,27.446733 1194.7706,27.1292614 1195.37997,26.9076705 C1195.98935,26.6860795 1196.66477,26.5284091 1197.40625,26.4346591 C1197.72159,26.3920455 1198.11364,26.3387784 1198.58239,26.274858 C1199.05114,26.2109375 1199.53267,26.1384943 1200.02699,26.0575284 C1200.52131,25.9765625 1200.96236,25.8785511 1201.35014,25.7634943 C1201.73793,25.6484375 1202,25.5227273 1202.13636,25.3863636 L1202.13636,25.3863636 L1202.13636,27.9176136 C1202.13636,28.6931818 1201.93821,29.4197443 1201.5419,30.0973011 C1201.1456,30.774858 1200.57031,31.3224432 1199.81605,31.7400568 C1199.06179,32.1576705 1198.15625,32.3664773 1197.09943,32.3664773 Z" id="Forza" fill-rule="nonzero"></path>
                    <g id="widget/progress-bar/progress-bar" transform="translate(1000.000000, 72.000000)">
                        <rect id="Back" fill-opacity="0.15" x="0" y="0" width="320" height="12" rx="6"></rect>
                        <rect id="fill-10%" fill-opacity="0" x="0" y="0" width="32" height="12" rx="6"></rect>
                        <rect id="fill-20%" fill-opacity="0" x="0" y="0" width="64" height="12" rx="6"></rect>
                        <rect id="fill-30%" fill-opacity="0" x="0" y="0" width="96" height="12" rx="6"></rect>
                        <rect id="fill-40%" fill-opacity="0" x="0" y="0" width="128" height="12" rx="6"></rect>
                        <rect id="fill-50%" fill-opacity="0.8" x="0" y="0" width="160" height="12" rx="6"></rect>
                        <rect id="fill-60%" fill-opacity="0" x="0" y="0" width="192" height="12" rx="6"></rect>
                        <rect id="fill-70%" fill-opacity="0" x="0" y="0" width="224" height="12" rx="6"></rect>
                        <rect id="fill-80%" fill-opacity="0" x="0" y="0" width="256" height="12" rx="6"></rect>
                        <rect id="fill-90%" fill-opacity="0" x="0" y="0" width="288" height="12" rx="6"></rect>
                        <rect id="fill-100%" fill-opacity="0" x="0" y="0" width="320" height="12" rx="6"></rect>
                    </g>
                    <path d="M644.019176,35 L644.019176,23.5838068 L655.141335,23.5838068 L655.141335,20.1960227 L644.019176,20.1960227 L644.019176,12.21875 L656.304688,12.21875 L656.304688,8.81818182 L640.068892,8.81818182 L640.068892,35 L644.019176,35 Z M662.786222,12.3338068 C663.450994,12.3338068 664.019886,12.1100852 664.492898,11.662642 C664.965909,11.2151989 665.202415,10.6803977 665.202415,10.0582386 C665.202415,9.42755682 664.965909,8.88849432 664.492898,8.44105114 C664.019886,7.99360795 663.450994,7.76988636 662.786222,7.76988636 C662.121449,7.76988636 661.552557,7.99360795 661.079545,8.44105114 C660.606534,8.88849432 660.370028,9.42755682 660.370028,10.0582386 C660.370028,10.6803977 660.606534,11.2151989 661.079545,11.662642 C661.552557,12.1100852 662.121449,12.3338068 662.786222,12.3338068 Z M664.678267,35 L664.678267,15.3636364 L660.855824,15.3636364 L660.855824,35 L664.678267,35 Z M675.53196,35.4346591 C676.614347,35.4346591 677.543324,35.2769886 678.318892,34.9616477 C679.09446,34.6463068 679.729403,34.25 680.223722,33.7727273 C680.71804,33.2954545 681.088778,32.8096591 681.335938,32.3153409 L681.335938,32.3153409 L681.489347,32.3153409 L681.489347,35 L685.222301,35 L685.222301,21.9602273 C685.222301,20.5284091 684.975142,19.3629261 684.480824,18.4637784 C683.986506,17.5646307 683.353693,16.8721591 682.582386,16.3863636 C681.81108,15.9005682 680.984375,15.5660511 680.102273,15.3828125 C679.22017,15.1995739 678.387074,15.1079545 677.602983,15.1079545 C676.418324,15.1079545 675.289062,15.2762784 674.215199,15.6129261 C673.141335,15.9495739 672.193182,16.4865057 671.370739,17.2237216 C670.548295,17.9609375 669.924006,18.9261364 669.497869,20.1193182 L669.497869,20.1193182 L673.090199,20.9375 C673.371449,20.2471591 673.880682,19.618608 674.617898,19.0518466 C675.355114,18.4850852 676.367188,18.2017045 677.654119,18.2017045 C678.889915,18.2017045 679.821023,18.5085227 680.447443,19.1221591 C681.073864,19.7357955 681.387074,20.6008523 681.387074,21.7173295 L681.387074,21.7173295 L681.387074,21.8068182 C681.387074,22.2670455 681.220881,22.5994318 680.888494,22.8039773 C680.556108,23.0085227 680.023438,23.1555398 679.290483,23.2450284 C678.557528,23.334517 677.602983,23.4474432 676.426847,23.5838068 C675.497869,23.6946023 674.585938,23.8565341 673.691051,24.0696023 C672.796165,24.2826705 671.986506,24.5980114 671.262074,25.015625 C670.537642,25.4332386 669.962358,26 669.536222,26.7159091 C669.110085,27.4318182 668.897017,28.34375 668.897017,29.4517045 C668.897017,30.7386364 669.18892,31.8252841 669.772727,32.7116477 C670.356534,33.5980114 671.151278,34.2734375 672.15696,34.7379261 C673.162642,35.2024148 674.287642,35.4346591 675.53196,35.4346591 Z M676.362926,32.3664773 C675.28054,32.3664773 674.389915,32.1257102 673.691051,31.6441761 C672.992188,31.162642 672.642756,30.4488636 672.642756,29.5028409 C672.642756,28.8210227 672.823864,28.2734375 673.18608,27.8600852 C673.548295,27.446733 674.034091,27.1292614 674.643466,26.9076705 C675.252841,26.6860795 675.928267,26.5284091 676.669744,26.4346591 C676.985085,26.3920455 677.377131,26.3387784 677.845881,26.274858 C678.314631,26.2109375 678.796165,26.1384943 679.290483,26.0575284 C679.784801,25.9765625 680.225852,25.8785511 680.613636,25.7634943 C681.00142,25.6484375 681.263494,25.5227273 681.399858,25.3863636 L681.399858,25.3863636 L681.399858,27.9176136 C681.399858,28.6931818 681.201705,29.4197443 680.805398,30.0973011 C680.409091,30.774858 679.833807,31.3224432 679.079545,31.7400568 C678.325284,32.1576705 677.419744,32.3664773 676.362926,32.3664773 Z M697.354403,35.2556818 C697.96804,35.2471591 698.479403,35.1981534 698.888494,35.1086648 C699.297585,35.0191761 699.612926,34.9318182 699.834517,34.8465909 L699.834517,34.8465909 L699.144176,31.6889205 C699.016335,31.7144886 698.837358,31.7485795 698.607244,31.7911932 C698.377131,31.8338068 698.108665,31.8551136 697.801847,31.8551136 C697.384233,31.8551136 696.99858,31.7890625 696.644886,31.6569602 C696.291193,31.524858 696.003551,31.2734375 695.78196,30.9026989 C695.560369,30.5319602 695.449574,29.9758523 695.449574,29.234375 L695.449574,29.234375 L695.449,18.432 L699.476562,18.4318182 L699.476562,15.3636364 L695.449,15.364 L695.449574,10.6590909 L691.627131,10.6590909 L691.627,15.364 L688.75071,15.3636364 L688.75071,18.4318182 L691.627,18.432 L691.627131,30.0269886 C691.627131,31.1129261 691.852717,32.0305694 692.303888,32.7799183 L692.432528,32.9801136 C692.96946,33.7642045 693.672585,34.34375 694.541903,34.71875 C695.411222,35.09375 696.348722,35.2727273 697.354403,35.2556818 Z M711.966619,35.3963068 C713.807528,35.3963068 715.414062,34.9744318 716.786222,34.1306818 C718.158381,33.2869318 719.223722,32.1065341 719.982244,30.5894886 C720.740767,29.0724432 721.120028,27.2997159 721.120028,25.2713068 C721.120028,23.234375 720.740767,21.453125 719.982244,19.9275568 C719.223722,18.4019886 718.158381,17.2173295 716.786222,16.3735795 C715.414062,15.5298295 713.807528,15.1079545 711.966619,15.1079545 C710.12571,15.1079545 708.519176,15.5298295 707.147017,16.3735795 C705.774858,17.2173295 704.709517,18.4019886 703.950994,19.9275568 C703.192472,21.453125 702.81321,23.234375 702.81321,25.2713068 C702.81321,27.2997159 703.192472,29.0724432 703.950994,30.5894886 C704.709517,32.1065341 705.774858,33.2869318 707.147017,34.1306818 C708.519176,34.9744318 710.12571,35.3963068 711.966619,35.3963068 Z M711.979403,32.1875 C710.777699,32.1875 709.78267,31.8721591 708.994318,31.2414773 C708.205966,30.6107955 707.622159,29.7713068 707.242898,28.7230114 C706.863636,27.6747159 706.674006,26.5198864 706.674006,25.2585227 C706.674006,24.0056818 706.863636,22.852983 707.242898,21.8004261 C707.622159,20.7478693 708.205966,19.9019886 708.994318,19.2627841 C709.78267,18.6235795 710.777699,18.3039773 711.979403,18.3039773 C713.172585,18.3039773 714.161222,18.6235795 714.945312,19.2627841 C715.729403,19.9019886 716.31108,20.7478693 716.690341,21.8004261 C717.069602,22.852983 717.259233,24.0056818 717.259233,25.2585227 C717.259233,26.5198864 717.069602,27.6747159 716.690341,28.7230114 C716.31108,29.7713068 715.729403,30.6107955 714.945312,31.2414773 C714.161222,31.8721591 713.172585,32.1875 711.979403,32.1875 Z" id="Fiato" fill-rule="nonzero"></path>
                    <g id="widget/progress-bar/progress-bar" transform="translate(520.000000, 72.000000)">
                        <rect id="Back" fill-opacity="0.15" x="0" y="0" width="320" height="12" rx="6"></rect>
                        <rect id="fill-10%" fill-opacity="0" x="0" y="0" width="32" height="12" rx="6"></rect>
                        <rect id="fill-20%" fill-opacity="0" x="0" y="0" width="64" height="12" rx="6"></rect>
                        <rect id="fill-30%" fill-opacity="0.8" x="0" y="0" width="96" height="12" rx="6"></rect>
                        <rect id="fill-40%" fill-opacity="0" x="0" y="0" width="128" height="12" rx="6"></rect>
                        <rect id="fill-50%" fill-opacity="0" x="0" y="0" width="160" height="12" rx="6"></rect>
                        <rect id="fill-60%" fill-opacity="0" x="0" y="0" width="192" height="12" rx="6"></rect>
                        <rect id="fill-70%" fill-opacity="0" x="0" y="0" width="224" height="12" rx="6"></rect>
                        <rect id="fill-80%" fill-opacity="0" x="0" y="0" width="256" height="12" rx="6"></rect>
                        <rect id="fill-90%" fill-opacity="0" x="0" y="0" width="288" height="12" rx="6"></rect>
                        <rect id="fill-100%" fill-opacity="0" x="0" y="0" width="320" height="12" rx="6"></rect>
                    </g>
                    <path d="M115.810369,35 L115.810369,23.5838068 L126.932528,23.5838068 L126.932528,20.1960227 L115.810369,20.1960227 L115.810369,12.21875 L128.095881,12.21875 L128.095881,8.81818182 L111.860085,8.81818182 L111.860085,35 L115.810369,35 Z M136.46946,35 L136.46946,8.81818182 L132.647017,8.81818182 L132.647017,35 L136.46946,35 Z M150.071733,35.3963068 C151.503551,35.3963068 152.77983,35.1768466 153.900568,34.7379261 C155.021307,34.2990057 155.954545,33.681108 156.700284,32.884233 C157.446023,32.087358 157.963778,31.15625 158.253551,30.0909091 L158.253551,30.0909091 L154.635653,29.4389205 C154.40554,30.0525568 154.073153,30.5681818 153.638494,30.9857955 C153.203835,31.4034091 152.68821,31.7166193 152.091619,31.9254261 C151.495028,32.134233 150.834517,32.2386364 150.110085,32.2386364 C148.993608,32.2386364 148.017756,31.9978693 147.182528,31.5163352 C146.347301,31.0348011 145.697443,30.3338068 145.232955,29.4133523 C144.768466,28.4928977 144.536222,27.3764205 144.536222,26.0639205 L144.54,26.333 L158.496449,26.3323864 L158.496449,24.9772727 C158.496449,23.1960227 158.257812,21.681108 157.78054,20.4325284 C157.303267,19.1839489 156.651278,18.1676136 155.824574,17.3835227 C154.997869,16.5994318 154.064631,16.0241477 153.024858,15.6576705 C151.985085,15.2911932 150.911222,15.1079545 149.803267,15.1079545 C147.979403,15.1079545 146.387784,15.5383523 145.028409,16.3991477 C143.669034,17.2599432 142.612216,18.4573864 141.857955,19.9914773 C141.103693,21.5255682 140.726562,23.2982955 140.726562,25.3096591 C140.726562,27.3465909 141.103693,29.1214489 141.857955,30.634233 C142.612216,32.147017 143.68608,33.318892 145.079545,34.149858 C146.473011,34.9808239 148.137074,35.3963068 150.071733,35.3963068 Z M144.568103,23.1837121 C144.642493,22.4457071 144.847064,21.7502367 145.181818,21.0973011 C145.612216,20.2578125 146.225852,19.5759943 147.022727,19.0518466 C147.819602,18.5276989 148.754972,18.265625 149.828835,18.265625 C150.817472,18.265625 151.680398,18.4914773 152.417614,18.9431818 C153.15483,19.3948864 153.727983,20.0106534 154.137074,20.790483 C154.546165,21.5703125 154.75071,22.4630682 154.75071,23.46875 L154.75071,23.46875 L144.547,23.469 L144.568103,23.1837121 Z M169.823153,35.3963068 C171.408381,35.3963068 172.803977,35.1363636 174.009943,34.6164773 C175.215909,34.0965909 176.15767,33.3785511 176.835227,32.462358 C177.512784,31.5461648 177.851562,30.5 177.851562,29.3238636 C177.851562,27.9346591 177.408381,26.8053977 176.522017,25.9360795 C175.635653,25.0667614 174.289062,24.4232955 172.482244,24.0056818 L172.482244,24.0056818 L169.362926,23.2897727 C168.28054,23.0340909 167.496449,22.7059659 167.010653,22.3053977 C166.524858,21.9048295 166.28196,21.3764205 166.28196,20.7201705 C166.28196,19.9616477 166.644176,19.3416193 167.368608,18.8600852 C168.09304,18.3785511 168.996449,18.1377841 170.078835,18.1377841 C170.871449,18.1377841 171.53196,18.265625 172.060369,18.5213068 C172.588778,18.7769886 173.008523,19.1051136 173.319602,19.5056818 C173.630682,19.90625 173.858665,20.328125 174.003551,20.7713068 L174.003551,20.7713068 L177.46804,20.1576705 C177.075994,18.6235795 176.270597,17.3984375 175.051847,16.4822443 C173.833097,15.5660511 172.162642,15.1079545 170.040483,15.1079545 C168.566051,15.1079545 167.257812,15.352983 166.115767,15.8430398 C164.973722,16.3330966 164.078835,17.0127841 163.431108,17.8821023 C162.783381,18.7514205 162.459517,19.765625 162.459517,20.9247159 C162.459517,22.3224432 162.896307,23.4772727 163.769886,24.3892045 C164.643466,25.3011364 165.996449,25.9659091 167.828835,26.3835227 L167.828835,26.3835227 L171.152699,27.1122159 C172.090199,27.3252841 172.786932,27.640625 173.242898,28.0582386 C173.698864,28.4758523 173.926847,28.9914773 173.926847,29.6051136 C173.926847,30.3636364 173.551847,31.0049716 172.801847,31.5291193 C172.051847,32.053267 171.050426,32.3153409 169.797585,32.3153409 C168.647017,32.3153409 167.713778,32.0703125 166.997869,31.5802557 C166.28196,31.0901989 165.808949,30.3636364 165.578835,29.4005682 L165.578835,29.4005682 L161.884233,29.9630682 C162.199574,31.7017045 163.051847,33.0419034 164.441051,33.9836648 C165.830256,34.9254261 167.62429,35.3963068 169.823153,35.3963068 Z M189.114347,35.3963068 C190.699574,35.3963068 192.09517,35.1363636 193.301136,34.6164773 C194.507102,34.0965909 195.448864,33.3785511 196.12642,32.462358 C196.803977,31.5461648 197.142756,30.5 197.142756,29.3238636 C197.142756,27.9346591 196.699574,26.8053977 195.81321,25.9360795 C194.926847,25.0667614 193.580256,24.4232955 191.773438,24.0056818 L191.773438,24.0056818 L188.654119,23.2897727 C187.571733,23.0340909 186.787642,22.7059659 186.301847,22.3053977 C185.816051,21.9048295 185.573153,21.3764205 185.573153,20.7201705 C185.573153,19.9616477 185.935369,19.3416193 186.659801,18.8600852 C187.384233,18.3785511 188.287642,18.1377841 189.370028,18.1377841 C190.162642,18.1377841 190.823153,18.265625 191.351562,18.5213068 C191.879972,18.7769886 192.299716,19.1051136 192.610795,19.5056818 C192.921875,19.90625 193.149858,20.328125 193.294744,20.7713068 L193.294744,20.7713068 L196.759233,20.1576705 C196.367188,18.6235795 195.56179,17.3984375 194.34304,16.4822443 C193.12429,15.5660511 191.453835,15.1079545 189.331676,15.1079545 C187.857244,15.1079545 186.549006,15.352983 185.40696,15.8430398 C184.264915,16.3330966 183.370028,17.0127841 182.722301,17.8821023 C182.074574,18.7514205 181.75071,19.765625 181.75071,20.9247159 C181.75071,22.3224432 182.1875,23.4772727 183.06108,24.3892045 C183.934659,25.3011364 185.287642,25.9659091 187.120028,26.3835227 L187.120028,26.3835227 L190.443892,27.1122159 C191.381392,27.3252841 192.078125,27.640625 192.534091,28.0582386 C192.990057,28.4758523 193.21804,28.9914773 193.21804,29.6051136 C193.21804,30.3636364 192.84304,31.0049716 192.09304,31.5291193 C191.34304,32.053267 190.341619,32.3153409 189.088778,32.3153409 C187.93821,32.3153409 187.004972,32.0703125 186.289062,31.5802557 C185.573153,31.0901989 185.100142,30.3636364 184.870028,29.4005682 L184.870028,29.4005682 L181.175426,29.9630682 C181.490767,31.7017045 182.34304,33.0419034 183.732244,33.9836648 C185.121449,34.9254261 186.915483,35.3963068 189.114347,35.3963068 Z M203.266335,12.3338068 C203.931108,12.3338068 204.5,12.1100852 204.973011,11.662642 C205.446023,11.2151989 205.682528,10.6803977 205.682528,10.0582386 C205.682528,9.42755682 205.446023,8.88849432 204.973011,8.44105114 C204.5,7.99360795 203.931108,7.76988636 203.266335,7.76988636 C202.601562,7.76988636 202.03267,7.99360795 201.559659,8.44105114 C201.086648,8.88849432 200.850142,9.42755682 200.850142,10.0582386 C200.850142,10.6803977 201.086648,11.2151989 201.559659,11.662642 C202.03267,12.1100852 202.601562,12.3338068 203.266335,12.3338068 Z M205.158381,35 L205.158381,15.3636364 L201.335938,15.3636364 L201.335938,35 L205.158381,35 Z M220.333097,35.3835227 C221.918324,35.3835227 223.328835,34.9765625 224.564631,34.162642 C225.800426,33.3487216 226.772017,32.1853693 227.479403,30.6725852 C228.18679,29.1598011 228.540483,27.3423295 228.540483,25.2201705 C228.540483,23.0980114 228.184659,21.2826705 227.473011,19.7741477 C226.761364,18.265625 225.783381,17.1107955 224.539062,16.3096591 C223.294744,15.5085227 221.879972,15.1079545 220.294744,15.1079545 C219.075994,15.1079545 218.095881,15.3103693 217.354403,15.7151989 C216.612926,16.1200284 216.033381,16.5909091 215.615767,17.1278409 C215.198153,17.6647727 214.878551,18.1377841 214.65696,18.546875 L214.65696,18.546875 L214.426847,18.546875 L214.426847,8.81818182 L210.604403,8.81818182 L210.604403,35 L214.337358,35 L214.337358,31.9446023 L214.65696,31.9446023 C214.887074,32.3622159 215.215199,32.8394886 215.641335,33.3764205 C216.067472,33.9133523 216.65767,34.3821023 217.411932,34.7826705 C218.166193,35.1832386 219.139915,35.3835227 220.333097,35.3835227 Z M219.476562,32.1235795 C218.377131,32.1235795 217.448153,31.8316761 216.689631,31.2478693 C215.931108,30.6640625 215.351562,29.8522727 214.950994,28.8125 C214.550426,27.7727273 214.350142,26.5625 214.350142,25.1818182 C214.350142,23.8181818 214.546165,22.625 214.93821,21.6022727 C215.330256,20.5795455 215.90767,19.7826705 216.670455,19.2116477 C217.433239,18.640625 218.368608,18.3551136 219.476562,18.3551136 C220.627131,18.3551136 221.588068,18.6534091 222.359375,19.25 C223.130682,19.8465909 223.710227,20.6605114 224.098011,21.6917614 C224.485795,22.7230114 224.679688,23.8863636 224.679688,25.1818182 C224.679688,26.4943182 224.481534,27.6747159 224.085227,28.7230114 C223.68892,29.7713068 223.107244,30.600142 222.340199,31.209517 C221.573153,31.818892 220.618608,32.1235795 219.476562,32.1235795 Z M234.753551,12.3338068 C235.418324,12.3338068 235.987216,12.1100852 236.460227,11.662642 C236.933239,11.2151989 237.169744,10.6803977 237.169744,10.0582386 C237.169744,9.42755682 236.933239,8.88849432 236.460227,8.44105114 C235.987216,7.99360795 235.418324,7.76988636 234.753551,7.76988636 C234.088778,7.76988636 233.519886,7.99360795 233.046875,8.44105114 C232.573864,8.88849432 232.337358,9.42755682 232.337358,10.0582386 C232.337358,10.6803977 232.573864,11.2151989 233.046875,11.662642 C233.519886,12.1100852 234.088778,12.3338068 234.753551,12.3338068 Z M236.645597,35 L236.645597,15.3636364 L232.823153,15.3636364 L232.823153,35 L236.645597,35 Z M245.607244,35 L245.607244,8.81818182 L241.784801,8.81818182 L241.784801,35 L245.607244,35 Z M252.676847,12.3338068 C253.341619,12.3338068 253.910511,12.1100852 254.383523,11.662642 C254.856534,11.2151989 255.09304,10.6803977 255.09304,10.0582386 C255.09304,9.42755682 254.856534,8.88849432 254.383523,8.44105114 C253.910511,7.99360795 253.341619,7.76988636 252.676847,7.76988636 C252.012074,7.76988636 251.443182,7.99360795 250.97017,8.44105114 C250.497159,8.88849432 250.260653,9.42755682 250.260653,10.0582386 C250.260653,10.6803977 250.497159,11.2151989 250.97017,11.662642 C251.443182,12.1100852 252.012074,12.3338068 252.676847,12.3338068 Z M254.568892,35 L254.568892,15.3636364 L250.746449,15.3636364 L250.746449,35 L254.568892,35 Z M266.752131,35.2556818 C267.365767,35.2471591 267.877131,35.1981534 268.286222,35.1086648 C268.695312,35.0191761 269.010653,34.9318182 269.232244,34.8465909 L269.232244,34.8465909 L268.541903,31.6889205 C268.414062,31.7144886 268.235085,31.7485795 268.004972,31.7911932 C267.774858,31.8338068 267.506392,31.8551136 267.199574,31.8551136 C266.78196,31.8551136 266.396307,31.7890625 266.042614,31.6569602 C265.68892,31.524858 265.401278,31.2734375 265.179688,30.9026989 C264.958097,30.5319602 264.847301,29.9758523 264.847301,29.234375 L264.847301,29.234375 L264.847,18.432 L268.87429,18.4318182 L268.87429,15.3636364 L264.847,15.364 L264.847301,10.6590909 L261.024858,10.6590909 L261.024,15.364 L258.148438,15.3636364 L258.148438,18.4318182 L261.024,18.432 L261.024858,30.0269886 C261.024858,31.1129261 261.250444,32.0305694 261.701616,32.7799183 L261.830256,32.9801136 C262.367188,33.7642045 263.070312,34.34375 263.939631,34.71875 C264.808949,35.09375 265.746449,35.2727273 266.752131,35.2556818 Z M282.642756,12.7428977 L279.664062,6.84943182 L275.637074,6.84943182 L279.587358,12.7428977 L282.642756,12.7428977 Z M278.807528,35.4346591 C279.889915,35.4346591 280.818892,35.2769886 281.59446,34.9616477 C282.370028,34.6463068 283.004972,34.25 283.49929,33.7727273 C283.993608,33.2954545 284.364347,32.8096591 284.611506,32.3153409 L284.611506,32.3153409 L284.764915,32.3153409 L284.764915,35 L288.497869,35 L288.497869,21.9602273 C288.497869,20.5284091 288.25071,19.3629261 287.756392,18.4637784 C287.262074,17.5646307 286.629261,16.8721591 285.857955,16.3863636 C285.086648,15.9005682 284.259943,15.5660511 283.377841,15.3828125 C282.495739,15.1995739 281.662642,15.1079545 280.878551,15.1079545 C279.693892,15.1079545 278.564631,15.2762784 277.490767,15.6129261 C276.416903,15.9495739 275.46875,16.4865057 274.646307,17.2237216 C273.823864,17.9609375 273.199574,18.9261364 272.773438,20.1193182 L272.773438,20.1193182 L276.365767,20.9375 C276.647017,20.2471591 277.15625,19.618608 277.893466,19.0518466 C278.630682,18.4850852 279.642756,18.2017045 280.929688,18.2017045 C282.165483,18.2017045 283.096591,18.5085227 283.723011,19.1221591 C284.349432,19.7357955 284.662642,20.6008523 284.662642,21.7173295 L284.662642,21.7173295 L284.662642,21.8068182 C284.662642,22.2670455 284.496449,22.5994318 284.164062,22.8039773 C283.831676,23.0085227 283.299006,23.1555398 282.566051,23.2450284 C281.833097,23.334517 280.878551,23.4474432 279.702415,23.5838068 C278.773438,23.6946023 277.861506,23.8565341 276.966619,24.0696023 C276.071733,24.2826705 275.262074,24.5980114 274.537642,25.015625 C273.81321,25.4332386 273.237926,26 272.81179,26.7159091 C272.385653,27.4318182 272.172585,28.34375 272.172585,29.4517045 C272.172585,30.7386364 272.464489,31.8252841 273.048295,32.7116477 C273.632102,33.5980114 274.426847,34.2734375 275.432528,34.7379261 C276.43821,35.2024148 277.56321,35.4346591 278.807528,35.4346591 Z M279.638494,32.3664773 C278.556108,32.3664773 277.665483,32.1257102 276.966619,31.6441761 C276.267756,31.162642 275.918324,30.4488636 275.918324,29.5028409 C275.918324,28.8210227 276.099432,28.2734375 276.461648,27.8600852 C276.823864,27.446733 277.309659,27.1292614 277.919034,26.9076705 C278.528409,26.6860795 279.203835,26.5284091 279.945312,26.4346591 C280.260653,26.3920455 280.652699,26.3387784 281.121449,26.274858 C281.590199,26.2109375 282.071733,26.1384943 282.566051,26.0575284 C283.060369,25.9765625 283.50142,25.8785511 283.889205,25.7634943 C284.276989,25.6484375 284.539062,25.5227273 284.675426,25.3863636 L284.675426,25.3863636 L284.675426,27.9176136 C284.675426,28.6931818 284.477273,29.4197443 284.080966,30.0973011 C283.684659,30.774858 283.109375,31.3224432 282.355114,31.7400568 C281.600852,32.1576705 280.695312,32.3664773 279.638494,32.3664773 Z" id="Flessibilità" fill-rule="nonzero"></path>
                    <g id="widget/progress-bar/progress-bar" transform="translate(40.000000, 72.000000)">
                        <rect id="Back" fill-opacity="0.15" x="0" y="0" width="320" height="12" rx="6"></rect>
                        <rect id="fill-10%" fill-opacity="0" x="0" y="0" width="32" height="12" rx="6"></rect>
                        <rect id="fill-20%" fill-opacity="0" x="0" y="0" width="64" height="12" rx="6"></rect>
                        <rect id="fill-30%" fill-opacity="0" x="0" y="0" width="96" height="12" rx="6"></rect>
                        <rect id="fill-40%" fill-opacity="0" x="0" y="0" width="128" height="12" rx="6"></rect>
                        <rect id="fill-50%" fill-opacity="0" x="0" y="0" width="160" height="12" rx="6"></rect>
                        <rect id="fill-60%" fill-opacity="0" x="0" y="0" width="192" height="12" rx="6"></rect>
                        <rect id="fill-70%" fill-opacity="0.8" x="0" y="0" width="224" height="12" rx="6"></rect>
                        <rect id="fill-80%" fill-opacity="0" x="0" y="0" width="256" height="12" rx="6"></rect>
                        <rect id="fill-90%" fill-opacity="0" x="0" y="0" width="288" height="12" rx="6"></rect>
                        <rect id="fill-100%" fill-opacity="0" x="0" y="0" width="320" height="12" rx="6"></rect>
                    </g>
                </g>
            </g>
        </g>
    </g>
</svg>