<?xml version="1.0" encoding="UTF-8"?>
<svg width="80px" height="80px" viewBox="0 0 80 80" version="1.1" xmlns="http://www.w3.org/2000/svg" xmlns:xlink="http://www.w3.org/1999/xlink">
    <!-- Generator: Sketch 64 (93537) - https://sketch.com -->
    <title>yoga</title>
    <desc>Created with Sketch.</desc>
    <g id="yoga" stroke="none" stroke-width="1" fill="none" fill-rule="evenodd">
        <path d="M48.968337,54.3051672 C49.544337,54.6426672 50.144837,55.0146672 50.7676704,55.4265005 C55.6510037,58.6491672 61.8320037,64.2760006 67.4391704,73.7475006 C68.6041704,75.7148339 67.9545037,78.2550006 65.9875037,79.4210006 C65.3253371,79.8135006 64.5986704,80 63.8808371,80 C62.4660037,80 61.0876704,79.2741672 60.3141704,77.9690006 C51.845837,63.7270006 42.6970037,60.2048339 40.5716704,59.4890006 C40.3360037,59.4128339 40.1946704,59.3753339 40.1436704,59.3623339 C40.1170037,59.3566672 40.091337,59.3490006 40.0655037,59.3413339 C40.046837,59.3356672 40.0281704,59.3301672 40.0091704,59.3253339 C39.9906704,59.3300006 39.9725037,59.3355006 39.954337,59.3408339 C39.929337,59.3481672 39.904337,59.3556672 39.8786704,59.3615006 L39.8716704,59.3630006 C39.8325037,59.3730006 39.7510037,59.3955006 39.6291704,59.4320006 C39.3856704,59.5055006 38.9821704,59.6390006 38.4450037,59.8546672 C37.3700037,60.2873339 35.7615037,61.0505006 33.818337,62.3351672 C29.933337,64.9086672 24.6971703,69.5518339 19.703837,77.9693339 C18.930337,79.2741672 17.552337,80 16.137487,80 C15.419987,80 14.692537,79.8125006 14.0303703,79.4203339 C12.063037,78.2543339 11.4131037,75.7141672 12.5794537,73.7468339 C18.186337,64.2760006 24.3675037,58.6498339 29.2506704,55.4265005 C29.8736704,55.0146672 30.4741704,54.6423339 31.050337,54.3051672 L31.050337,34.5345005 C30.4650037,33.8166672 29.5741704,32.6128339 28.6795037,30.9671672 C27.2200037,28.2800005 25.7455037,24.3853338 25.7441703,19.5998338 C25.7300037,14.1681505 27.7026703,7.69308382 33.3155037,0.957320481 C34.250837,-0.168951187 35.9215037,-0.323647854 37.0476704,0.611488814 C38.1736704,1.54629382 38.3286704,3.21748382 37.393837,4.34341715 C32.4525037,10.3179505 31.058837,15.4259172 31.0450037,19.6000005 C31.043337,23.1640005 32.112337,26.1208338 33.2290037,28.2366672 C33.826837,29.3708338 34.4370037,30.2526672 34.8796704,30.8320005 L45.1390037,30.8320005 C45.5550037,30.2873339 46.117837,29.4755005 46.6816704,28.4376672 C47.8356704,26.3116672 48.974837,23.2780005 48.9735037,19.6000005 C48.959337,15.4262505 47.565337,10.3173005 42.625337,4.34275049 C41.689837,3.21648382 41.8450037,1.54629382 42.970837,0.610825481 C44.0975037,-0.323647854 45.7676704,-0.16861952 46.7025037,0.957320481 C52.3150037,7.69241716 54.287837,14.1681505 54.2736704,19.5998338 C54.2720037,24.3846672 52.7980037,28.2800005 51.338337,30.9668339 C50.4436704,32.6115005 49.5536704,33.8153339 48.968337,34.5335005 L48.968337,54.3051672 Z M41.698837,14.7864505 C45.706837,15.7198338 48.199337,19.7256672 47.2660037,23.7336672 C46.3325037,27.7416672 42.326837,30.2340005 38.318837,29.3006672 C34.310837,28.3673338 31.818337,24.3615005 32.7516704,20.3535005 C33.6851704,16.3455505 37.690837,13.8530838 41.698837,14.7864505 Z" fill="#FFFFFF"></path>
    </g>
</svg>